<svg id="my-svg" width="100%" xmlns="http://www.w3.org/2000/svg" xmlns:xlink="http://www.w3.org/1999/xlink" class="flowchart" style="max-width: 1738.76px; background-color: transparent;" viewBox="0 0 1738.760498046875 432.5999755859375" role="graphics-document document" aria-roledescription="flowchart-v2"><style>#my-svg{font-family:"trebuchet ms",verdana,arial,sans-serif;font-size:16px;fill:#333;}@keyframes edge-animation-frame{from{stroke-dashoffset:0;}}@keyframes dash{to{stroke-dashoffset:0;}}#my-svg .edge-animation-slow{stroke-dasharray:9,5!important;stroke-dashoffset:900;animation:dash 50s linear infinite;stroke-linecap:round;}#my-svg .edge-animation-fast{stroke-dasharray:9,5!important;stroke-dashoffset:900;animation:dash 20s linear infinite;stroke-linecap:round;}#my-svg .error-icon{fill:#552222;}#my-svg .error-text{fill:#552222;stroke:#552222;}#my-svg .edge-thickness-normal{stroke-width:1px;}#my-svg .edge-thickness-thick{stroke-width:3.5px;}#my-svg .edge-pattern-solid{stroke-dasharray:0;}#my-svg .edge-thickness-invisible{stroke-width:0;fill:none;}#my-svg .edge-pattern-dashed{stroke-dasharray:3;}#my-svg .edge-pattern-dotted{stroke-dasharray:2;}#my-svg .marker{fill:#333333;stroke:#333333;}#my-svg .marker.cross{stroke:#333333;}#my-svg svg{font-family:"trebuchet ms",verdana,arial,sans-serif;font-size:16px;}#my-svg p{margin:0;}#my-svg .label{font-family:"trebuchet ms",verdana,arial,sans-serif;color:#333;}#my-svg .cluster-label text{fill:#333;}#my-svg .cluster-label span{color:#333;}#my-svg .cluster-label span p{background-color:transparent;}#my-svg .label text,#my-svg span{fill:#333;color:#333;}#my-svg .node rect,#my-svg .node circle,#my-svg .node ellipse,#my-svg .node polygon,#my-svg .node path{fill:#ECECFF;stroke:#9370DB;stroke-width:1px;}#my-svg .rough-node .label text,#my-svg .node .label text,#my-svg .image-shape .label,#my-svg .icon-shape .label{text-anchor:middle;}#my-svg .node .katex path{fill:#000;stroke:#000;stroke-width:1px;}#my-svg .rough-node .label,#my-svg .node .label,#my-svg .image-shape .label,#my-svg .icon-shape .label{text-align:center;}#my-svg .node.clickable{cursor:pointer;}#my-svg .root .anchor path{fill:#333333!important;stroke-width:0;stroke:#333333;}#my-svg .arrowheadPath{fill:#333333;}#my-svg .edgePath .path{stroke:#333333;stroke-width:1px;}#my-svg .flowchart-link{stroke:#333333;fill:none;}#my-svg .edgeLabel{background-color:rgba(232,232,232, 0.8);text-align:center;}#my-svg .edgeLabel p{background-color:rgba(232,232,232, 0.8);}#my-svg .edgeLabel rect{opacity:0.5;background-color:rgba(232,232,232, 0.8);fill:rgba(232,232,232, 0.8);}#my-svg .labelBkg{background-color:rgba(232, 232, 232, 0.5);}#my-svg .cluster rect{fill:#ffffde;stroke:#aaaa33;stroke-width:1px;}#my-svg .cluster text{fill:#333;}#my-svg .cluster span{color:#333;}#my-svg div.mermaidTooltip{position:absolute;text-align:center;max-width:200px;padding:2px;font-family:"trebuchet ms",verdana,arial,sans-serif;font-size:12px;background:hsl(80, 100%, 96.2745098039%);border:1px solid #aaaa33;border-radius:2px;pointer-events:none;z-index:100;}#my-svg .flowchartTitleText{text-anchor:middle;font-size:18px;fill:#333;}#my-svg rect.text{fill:none;stroke-width:0;}#my-svg .icon-shape,#my-svg .image-shape{background-color:rgba(232,232,232, 0.8);text-align:center;}#my-svg .icon-shape p,#my-svg .image-shape p{background-color:rgba(232,232,232, 0.8);padding:2px;}#my-svg .icon-shape .label rect,#my-svg .image-shape .label rect{opacity:0.5;background-color:rgba(232,232,232, 0.8);fill:rgba(232,232,232, 0.8);}#my-svg .label-icon{display:inline-block;height:1em;overflow:visible;vertical-align:-0.125em;}#my-svg .node .label-icon path{fill:currentColor;stroke:revert;stroke-width:revert;}#my-svg .node .neo-node{stroke:#9370DB;}#my-svg [data-look="neo"].node rect,#my-svg [data-look="neo"].cluster rect,#my-svg [data-look="neo"].node polygon{stroke:#9370DB;filter:drop-shadow(1px 2px 2px rgba(185, 185, 185, 1));}#my-svg [data-look="neo"].node path{stroke:#9370DB;stroke-width:1px;}#my-svg [data-look="neo"].node .outer-path{filter:drop-shadow(1px 2px 2px rgba(185, 185, 185, 1));}#my-svg [data-look="neo"].node .neo-line path{stroke:#9370DB;filter:none;}#my-svg [data-look="neo"].node circle{stroke:#9370DB;filter:drop-shadow(1px 2px 2px rgba(185, 185, 185, 1));}#my-svg [data-look="neo"].node circle .state-start{fill:#000000;}#my-svg [data-look="neo"].icon-shape .icon{fill:#9370DB;filter:drop-shadow(1px 2px 2px rgba(185, 185, 185, 1));}#my-svg [data-look="neo"].icon-shape .icon-neo path{stroke:#9370DB;filter:drop-shadow(1px 2px 2px rgba(185, 185, 185, 1));}#my-svg :root{--mermaid-font-family:"trebuchet ms",verdana,arial,sans-serif;}</style><g><marker id="my-svg_flowchart-v2-pointEnd" class="marker flowchart-v2" viewBox="0 0 10 10" refX="5" refY="5" markerUnits="userSpaceOnUse" markerWidth="8" markerHeight="8" orient="auto"><path d="M 0 0 L 10 5 L 0 10 z" class="arrowMarkerPath" style="stroke-width: 1; stroke-dasharray: 1, 0;"/></marker><marker id="my-svg_flowchart-v2-pointStart" class="marker flowchart-v2" viewBox="0 0 10 10" refX="4.5" refY="5" markerUnits="userSpaceOnUse" markerWidth="8" markerHeight="8" orient="auto"><path d="M 0 5 L 10 10 L 10 0 z" class="arrowMarkerPath" style="stroke-width: 1; stroke-dasharray: 1, 0;"/></marker><marker id="my-svg_flowchart-v2-pointEnd-margin" class="marker flowchart-v2" viewBox="0 0 11.5 14" refX="11.5" refY="7" markerUnits="userSpaceOnUse" markerWidth="10.5" markerHeight="14" orient="auto"><path d="M 0 0 L 11.5 7 L 0 14 z" class="arrowMarkerPath" style="stroke-width: 0; stroke-dasharray: 1, 0;"/></marker><marker id="my-svg_flowchart-v2-pointStart-margin" class="marker flowchart-v2" viewBox="0 0 11.5 14" refX="1" refY="7" markerUnits="userSpaceOnUse" markerWidth="11.5" markerHeight="14" orient="auto"><polygon points="0,7 11.5,14 11.5,0" class="arrowMarkerPath" style="stroke-width: 0; stroke-dasharray: 1, 0;"/></marker><marker id="my-svg_flowchart-v2-circleEnd" class="marker flowchart-v2" viewBox="0 0 10 10" refX="11" refY="5" markerUnits="userSpaceOnUse" markerWidth="11" markerHeight="11" orient="auto"><circle cx="5" cy="5" r="5" class="arrowMarkerPath" style="stroke-width: 1; stroke-dasharray: 1, 0;"/></marker><marker id="my-svg_flowchart-v2-circleStart" class="marker flowchart-v2" viewBox="0 0 10 10" refX="-1" refY="5" markerUnits="userSpaceOnUse" markerWidth="11" markerHeight="11" orient="auto"><circle cx="5" cy="5" r="5" class="arrowMarkerPath" style="stroke-width: 1; stroke-dasharray: 1, 0;"/></marker><marker id="my-svg_flowchart-v2-circleEnd-margin" class="marker flowchart-v2" viewBox="0 0 10 10" refY="5" refX="12.25" markerUnits="userSpaceOnUse" markerWidth="14" markerHeight="14" orient="auto"><circle cx="5" cy="5" r="5" class="arrowMarkerPath" style="stroke-width: 0; stroke-dasharray: 1, 0;"/></marker><marker id="my-svg_flowchart-v2-circleStart-margin" class="marker flowchart-v2" viewBox="0 0 10 10" refX="-2" refY="5" markerUnits="userSpaceOnUse" markerWidth="14" markerHeight="14" orient="auto"><circle cx="5" cy="5" r="5" class="arrowMarkerPath" style="stroke-width: 0; stroke-dasharray: 1, 0;"/></marker><marker id="my-svg_flowchart-v2-crossEnd" class="marker cross flowchart-v2" viewBox="0 0 11 11" refX="12" refY="5.2" markerUnits="userSpaceOnUse" markerWidth="11" markerHeight="11" orient="auto"><path d="M 1,1 l 9,9 M 10,1 l -9,9" class="arrowMarkerPath" style="stroke-width: 2; stroke-dasharray: 1, 0;"/></marker><marker id="my-svg_flowchart-v2-crossStart" class="marker cross flowchart-v2" viewBox="0 0 11 11" refX="-1" refY="5.2" markerUnits="userSpaceOnUse" markerWidth="11" markerHeight="11" orient="auto"><path d="M 1,1 l 9,9 M 10,1 l -9,9" class="arrowMarkerPath" style="stroke-width: 2; stroke-dasharray: 1, 0;"/></marker><marker id="my-svg_flowchart-v2-crossEnd-margin" class="marker cross flowchart-v2" viewBox="0 0 15 15" refX="17.7" refY="7.5" markerUnits="userSpaceOnUse" markerWidth="12" markerHeight="12" orient="auto"><path d="M 1,1 L 14,14 M 1,14 L 14,1" class="arrowMarkerPath" style="stroke-width: 2.5;"/></marker><marker id="my-svg_flowchart-v2-crossStart-margin" class="marker cross flowchart-v2" viewBox="0 0 15 15" refX="-3.5" refY="7.5" markerUnits="userSpaceOnUse" markerWidth="12" markerHeight="12" orient="auto"><path d="M 1,1 L 14,14 M 1,14 L 14,1" class="arrowMarkerPath" style="stroke-width: 2.5; stroke-dasharray: 1, 0;"/></marker><g class="root"><g class="clusters"/><g class="edgePaths"/><g class="edgeLabels"/><g class="nodes"><g class="root" transform="translate(0, 26.399993896484375)"><g class="clusters"><g class="cluster" id="my-svg-ASYNC" data-look="classic"><rect style="" x="8" y="8" width="545.09326171875" height="363.7999954223633"/><g class="cluster-label" transform="translate(120.843505859375, 8)"><g><rect class="background" style="stroke: none"/><text y="-10.1" style=""><tspan class="text-outer-tspan row" x="0" y="-0.1em" dy="1.1em"><tspan font-style="normal" class="text-inner-tspan" font-weight="normal">ASYNC</tspan><tspan font-style="normal" class="text-inner-tspan" font-weight="normal"> —</tspan><tspan font-style="normal" class="text-inner-tspan" font-weight="normal"> one</tspan><tspan font-style="normal" class="text-inner-tspan" font-weight="normal"> thread,</tspan><tspan font-style="normal" class="text-inner-tspan" font-weight="normal"> one</tspan><tspan font-style="normal" class="text-inner-tspan" font-weight="normal"> core,</tspan><tspan font-style="normal" class="text-inner-tspan" font-weight="normal"> cooperative</tspan></tspan></text></g></g></g></g><g class="edgePaths"><path d="M224.672,75.3L230.922,75.3C237.172,75.3,249.672,75.3,274.479,89.937C299.286,104.574,336.4,133.849,354.957,148.486L373.514,163.123" id="my-svg-L_CO1_LOOP_0" class="edge-thickness-normal edge-pattern-solid edge-thickness-normal edge-pattern-solid flowchart-link" style=";" data-edge="true" data-et="edge" data-id="L_CO1_LOOP_0" data-points="W3sieCI6MjI0LjY3MTg3NSwieSI6NzUuMjk5OTk5MjM3MDYwNTV9LHsieCI6MjYyLjE3MTg3NSwieSI6NzUuMjk5OTk5MjM3MDYwNTV9LHsieCI6Mzc2LjY1NDE2NDA2Mjk3ODUsInkiOjE2NS41OTk5OTg0NzQxMjEwN31d" data-look="classic" marker-end="url(#my-svg_flowchart-v2-pointEnd)"/><path d="M205.563,189.9L214.997,189.9C224.432,189.9,243.302,189.9,258.404,189.975C273.505,190.049,284.839,190.198,290.505,190.273L296.172,190.347" id="my-svg-L_CO2_LOOP_0" class="edge-thickness-normal edge-pattern-solid edge-thickness-normal edge-pattern-solid flowchart-link" style=";" data-edge="true" data-et="edge" data-id="L_CO2_LOOP_0" data-points="W3sieCI6MjA1LjU2MjUsInkiOjE4OS44OTk5OTc3MTExODE2NH0seyJ4IjoyNjIuMTcxODc1LCJ5IjoxODkuODk5OTk3NzExMTgxNjR9LHsieCI6MzAwLjE3MTg3NTAwMDAwMTI1LCJ5IjoxOTAuMzk5OTk3NzExMTgxNjR9XQ==" data-look="classic" marker-end="url(#my-svg_flowchart-v2-pointEnd)"/><path d="M224.672,304.5L230.922,304.5C237.172,304.5,249.672,304.5,274.477,290.027C299.281,275.553,336.391,246.607,354.945,232.133L373.5,217.66" id="my-svg-L_CO3_LOOP_0" class="edge-thickness-normal edge-pattern-solid edge-thickness-normal edge-pattern-solid flowchart-link" style=";" data-edge="true" data-et="edge" data-id="L_CO3_LOOP_0" data-points="W3sieCI6MjI0LjY3MTg3NSwieSI6MzA0LjQ5OTk5NjE4NTMwMjczfSx7IngiOjI2Mi4xNzE4NzUsInkiOjMwNC40OTk5OTYxODUzMDI3M30seyJ4IjozNzYuNjU0MTY0MDYyOTc4NiwieSI6MjE1LjE5OTk5Njk0ODI0MjJ9XQ==" data-look="classic" marker-end="url(#my-svg_flowchart-v2-pointEnd)"/></g><g class="edgeLabels"><g class="edgeLabel"><g class="label" data-id="L_CO1_LOOP_0" transform="translate(0, 0)"><text y="-10.1" text-anchor="middle"><tspan class="text-outer-tspan row" x="0" y="-0.1em" dy="1.1em" text-anchor="middle"/></text></g></g><g><rect class="background" style="stroke: none"/></g><g class="edgeLabel"><g class="label" data-id="L_CO2_LOOP_0" transform="translate(0, 0)"><text y="-10.1" text-anchor="middle"><tspan class="text-outer-tspan row" x="0" y="-0.1em" dy="1.1em" text-anchor="middle"/></text></g></g><g><rect class="background" style="stroke: none"/></g><g class="edgeLabel"><g class="label" data-id="L_CO3_LOOP_0" transform="translate(0, 0)"><text y="-10.1" text-anchor="middle"><tspan class="text-outer-tspan row" x="0" y="-0.1em" dy="1.1em" text-anchor="middle"/></text></g></g><g><rect class="background" style="stroke: none"/></g></g><g class="nodes"><g class="node default" id="my-svg-flowchart-LOOP-13" data-look="classic" transform="translate(407.632568359375, 189.89999771118164)"><g class="basic label-container outer-path"><path d="M-83.17343807220459 -24.799999237060547 C-20.06073249100846 -24.799999237060547, 43.05197309018767 -24.799999237060547, 83.17343807220459 -24.799999237060547 C83.17343807220459 -24.799999237060547, 83.17343807220459 -24.799999237060547, 83.17343807220459 -24.799999237060547 C83.79993081659202 -24.779908834142194, 84.42642356097944 -24.759818431223838, 84.76237947884457 -24.74904497883643 C85.35932478983779 -24.691458382616688, 85.95627010083102 -24.633871786396945, 86.3447915844178 -24.596391586140776 C86.77437034062638 -24.526940624269983, 87.20394909683495 -24.45748966239919, 87.91417191815616 -24.342666344508217 C88.25810049110461 -24.264166892076414, 88.60202906405308 -24.185667439644607, 89.46407155963728 -23.988911865380516 C89.99748458481254 -23.8305976794506, 90.5308976099878 -23.67228349352069, 90.98812163878189 -23.536581801792508 C91.46025593111926 -23.362832017850803, 91.93239022345664 -23.189082233909097, 92.48005950690707 -22.987534874999977 C93.05321148839766 -22.73381749474354, 93.62636346988826 -22.4801001144871, 93.93375447129301 -22.3440272365953 C94.45715189477629 -22.070971136016126, 94.98054931825955 -21.79791503543695, 95.34323298751445 -21.608703197496645 C95.61556493392924 -21.44361397117985, 95.887896880344 -21.278524744863056, 96.7027032060161 -20.784584361907168 C97.18688502051154 -20.446840088008084, 97.67106683500698 -20.109095814108997, 98.00657877206463 -19.875057210895253 C98.49919271696393 -19.482210698845673, 98.99180666186325 -19.089364186796093, 99.24950178127872 -18.883859186617375 C99.49962870031956 -18.656700536740107, 99.7497556193604 -18.42954188686284, 100.42636479640738 -17.815063334366585 C100.83425616321418 -17.393882009634567, 101.24214753002096 -16.972700684902545, 101.53233183488513 -16.673061565555788 C101.75824336568765 -16.407693026744884, 101.98415489649017 -16.14232448793398, 102.56285824092164 -15.462546610411625 C102.79346349339359 -15.15355658066991, 103.02406874586552 -14.844566550928196, 103.51370936046732 -14.188492734539441 C103.81596235053902 -13.72415097549711, 104.11821534061073 -13.259809216454782, 104.38097794231501 -12.85613529859888 C104.67742079676901 -12.32977099242175, 104.97386365122301 -11.803406686244621, 105.1611001938334 -11.470949245084004 C105.31200891933136 -11.157584047658046, 105.4629176448293 -10.844218850232089, 105.85087042535527 -10.03862660061019 C106.02235360846765 -9.615059822920811, 106.19383679158003 -9.19149304523143, 106.44745422304406 -8.565053086155816 C106.58021728202564 -8.165191905424138, 106.71298034100721 -7.76533072469246, 106.94840009610824 -7.05628393137229 C107.07293536117294 -6.581376991755332, 107.19747062623763 -6.1064700521383735, 107.35164955050286 -5.5185189923466 C107.4129997951203 -5.203498452614821, 107.47435003973774 -4.888477912883042, 107.65554554772302 -3.9580772750627573 C107.71474408088395 -3.4989451419391835, 107.77394261404488 -3.0398130088156097, 107.8588393139307 -2.3813709692507574 C107.89850794335108 -1.763500046086988, 107.93817657277147 -1.1456291229232187, 107.96069547143418 -0.794879099323635 C107.96069547143418 -0.3945522423311461, 107.96069547143418 0.00577461466134277, 107.96069547143418 0.794879099323629 C107.92509696622864 1.3493545524961852, 107.88949846102308 1.9038300056687414, 107.8588393139307 2.3813709692507405 C107.79271622364428 2.894208600031168, 107.72659313335787 3.407046230811596, 107.65554554772302 3.95807727506274 C107.53911063553808 4.5559459406050244, 107.42267572335314 5.153814606147309, 107.35164955050286 5.5185189923465945 C107.19418513034832 6.118999071907245, 107.03672071019378 6.719479151467895, 106.94840009610824 7.056283931372274 C106.79992187439204 7.503476678389509, 106.65144365267584 7.950669425406744, 106.44745422304406 8.565053086155798 C106.22972752143674 9.102842248585292, 106.01200081982942 9.640631411014786, 105.85087042535528 10.038626600610183 C105.71028625398685 10.330552640476114, 105.56970208261842 10.622478680342045, 105.1611001938334 11.470949245083998 C104.8587048333533 12.007882828467096, 104.55630947287318 12.544816411850196, 104.38097794231503 12.856135298598875 C104.13321790306567 13.236761251771915, 103.8854578638163 13.617387204944956, 103.51370936046733 14.188492734539427 C103.21812219268647 14.58455261082083, 102.9225350249056 14.980612487102235, 102.56285824092166 15.46254661041162 C102.26164566524211 15.816368041285896, 101.96043308956258 16.170189472160175, 101.53233183488513 16.673061565555773 C101.26871057040978 16.945272164834897, 101.00508930593445 17.21748276411402, 100.4263647964074 17.815063334366577 C100.02288798303097 18.181490300863558, 99.61941116965455 18.547917267360535, 99.24950178127874 18.883859186617357 C98.98828111133473 19.09217571952374, 98.72706044139072 19.300492252430125, 98.00657877206463 19.87505721089525 C97.61436774141006 20.148646647338005, 97.2221567107555 20.422236083780756, 96.70270320601611 20.78458436190716 C96.361643881818 20.99133652852312, 96.02058455761988 21.19808869513908, 95.34323298751447 21.60870319749664 C94.85748675861532 21.862116693978013, 94.37174052971619 22.115530190459385, 93.93375447129301 22.344027236595295 C93.55613096269752 22.511189962047137, 93.17850745410205 22.67835268749898, 92.48005950690708 22.987534874999973 C92.06952887989586 23.13861394064362, 91.65899825288463 23.289693006287266, 90.9881216387819 23.536581801792504 C90.64612358870875 23.63808502786982, 90.30412553863559 23.739588253947137, 89.4640715596373 23.988911865380512 C88.93784113311054 24.109020526260792, 88.41161070658377 24.229129187141073, 87.91417191815617 24.342666344508213 C87.56570895253557 24.399003134419093, 87.21724598691499 24.455339924329973, 86.34479158441782 24.596391586140772 C85.95130141093655 24.634351109935338, 85.55781123745528 24.672310633729907, 84.76237947884457 24.74904497883643 C84.43631042847059 24.759501378627018, 84.11024137809662 24.769957778417606, 83.17343807220459 24.799999237060547 C83.17343807220459 24.799999237060547, 83.17343807220459 24.799999237060547, 83.17343807220459 24.799999237060547 C48.34811514620662 24.799999237060547, 13.522792220208643 24.799999237060547, -83.17343807220459 24.799999237060547 C-83.6127823572853 24.785910320969784, -84.05212664236602 24.771821404879017, -84.76237947884457 24.74904497883643 C-85.15031311705519 24.711621487316712, -85.5382467552658 24.67419799579699, -86.3447915844178 24.596391586140772 C-86.82169298329359 24.51928986639612, -87.29859438216937 24.442188146651468, -87.91417191815616 24.342666344508213 C-88.38819997387371 24.23447253411283, -88.86222802959128 24.126278723717448, -89.46407155963728 23.988911865380516 C-89.82049602505671 23.883126954954225, -90.17692049047615 23.777342044527934, -90.98812163878188 23.536581801792515 C-91.47345228500802 23.35797563763398, -91.95878293123417 23.179369473475447, -92.48005950690707 22.987534874999977 C-92.898744974936 22.802195238166703, -93.3174304429649 22.61685560133343, -93.933754471293 22.344027236595302 C-94.29183091332602 22.15721898614558, -94.64990735535906 21.970410735695857, -95.34323298751445 21.60870319749665 C-95.75132535243908 21.361315207662404, -96.15941771736371 21.113927217828163, -96.70270320601608 20.78458436190718 C-97.18104568701875 20.450913354271982, -97.65938816802141 20.11724234663679, -98.00657877206463 19.875057210895257 C-98.48681453391768 19.49208197042778, -98.96705029577073 19.109106729960303, -99.24950178127872 18.883859186617375 C-99.70272607284824 18.472252876671572, -100.15595036441775 18.06064656672577, -100.42636479640737 17.815063334366595 C-100.79720751567685 17.432137779967373, -101.16805023494634 17.049212225568155, -101.53233183488513 16.673061565555784 C-101.83358587316943 16.319191430346653, -102.13483991145374 15.965321295137523, -102.56285824092164 15.462546610411627 C-102.8701985105453 15.050738648390501, -103.17753878016894 14.638930686369374, -103.51370936046732 14.188492734539444 C-103.74789509112604 13.82872056457387, -103.98208082178475 13.468948394608297, -104.38097794231501 12.856135298598893 C-104.60204276803258 12.463612315296395, -104.82310759375012 12.071089331993894, -105.16110019383339 11.470949245084007 C-105.3631156298548 11.051459869747674, -105.5651310658762 10.631970494411343, -105.85087042535527 10.038626600610193 C-106.07741050682998 9.479068219513136, -106.3039505883047 8.91950983841608, -106.44745422304406 8.565053086155817 C-106.64648704139124 7.965597948867179, -106.84551985973843 7.366142811578542, -106.94840009610824 7.056283931372283 C-107.0460321589356 6.6839705618078415, -107.14366422176298 6.3116571922434, -107.35164955050284 5.518518992346603 C-107.43954128741258 5.067213499240298, -107.5274330243223 4.615908006133992, -107.65554554772302 3.95807727506276 C-107.70073926323764 3.6075637420400093, -107.74593297875224 3.257050209017259, -107.8588393139307 2.381370969250771 C-107.89642456699927 1.7959503144376754, -107.93400982006783 1.2105296596245798, -107.96069547143418 0.7948790993236381 C-107.96069547143418 0.22086407359056304, -107.96069547143418 -0.353150952142512, -107.96069547143418 -0.7948790993236261 C-107.9365040080123 -1.1716806691170445, -107.91231254459043 -1.5484822389104629, -107.8588393139307 -2.3813709692507374 C-107.7956025229043 -2.871823032934689, -107.7323657318779 -3.362275096618641, -107.65554554772302 -3.9580772750627484 C-107.57437816796961 -4.374854615364716, -107.4932107882162 -4.791631955666683, -107.35164955050286 -5.518518992346592 C-107.25085037052656 -5.902909952237127, -107.15005119055029 -6.2873009121276615, -106.94840009610826 -7.056283931372271 C-106.7747054308452 -7.579424588657938, -106.60101076558216 -8.102565245943604, -106.44745422304408 -8.565053086155787 C-106.32624400652226 -8.864444664404804, -106.20503379000043 -9.16383624265382, -105.85087042535528 -10.038626600610181 C-105.61113561838526 -10.536441056786556, -105.37140081141524 -11.034255512962932, -105.1611001938334 -11.470949245083997 C-104.97275655557148 -11.805372446679497, -104.78441291730955 -12.139795648274996, -104.38097794231501 -12.856135298598884 C-104.09676922429497 -13.29275621020437, -103.81256050627492 -13.729377121809858, -103.51370936046732 -14.188492734539436 C-103.29215795144533 -14.485351438880326, -103.07060654242333 -14.782210143221217, -102.56285824092166 -15.46254661041162 C-102.19827654681235 -15.890805013598484, -101.83369485270305 -16.319063416785347, -101.53233183488513 -16.673061565555773 C-101.30691597761752 -16.90582194517065, -101.0815001203499 -17.138582324785524, -100.4263647964074 -17.81506333436657 C-100.01722952710064 -18.186629160824946, -99.60809425779388 -18.55819498728332, -99.24950178127875 -18.883859186617354 C-98.81275900408158 -19.232149929218686, -98.37601622688443 -19.580440671820014, -98.00657877206463 -19.87505721089525 C-97.67585370415615 -20.105756701410762, -97.34512863624768 -20.336456191926274, -96.70270320601611 -20.784584361907157 C-96.22627978056414 -21.073395042190963, -95.74985635511216 -21.362205722474766, -95.34323298751447 -21.608703197496638 C-94.82356987004849 -21.879811113018526, -94.3039067525825 -22.150919028540418, -93.93375447129301 -22.344027236595295 C-93.5994822312903 -22.49199964141081, -93.26520999128758 -22.639972046226323, -92.48005950690708 -22.98753487499997 C-92.01870029301115 -23.157319330471495, -91.5573410791152 -23.327103785943024, -90.9881216387819 -23.536581801792504 C-90.45471349706699 -23.694894538337017, -89.92130535535208 -23.853207274881534, -89.4640715596373 -23.98891186538051 C-89.07930366461217 -24.076732626574827, -88.69453576958705 -24.16455338776915, -87.91417191815617 -24.34266634450821 C-87.39233069139436 -24.427033587111907, -86.87048946463256 -24.5114008297156, -86.34479158441782 -24.596391586140772 C-85.90009420970249 -24.63929100705272, -85.45539683498714 -24.68219042796467, -84.76237947884458 -24.74904497883643 C-84.22643452695556 -24.766231690289946, -83.69048957506652 -24.78341840174346, -83.1734380722046 -24.799999237060547 C-83.1734380722046 -24.799999237060547, -83.1734380722046 -24.799999237060547, -83.17343807220459 -24.799999237060547" stroke="none" stroke-width="0" fill="#ECECFF" style=""/><path d="M-83.17343807220459 -24.799999237060547 C-20.225167129916372 -24.799999237060547, 42.723103812371846 -24.799999237060547, 83.17343807220459 -24.799999237060547 M-83.17343807220459 -24.799999237060547 C-49.093002120660714 -24.799999237060547, -15.012566169116838 -24.799999237060547, 83.17343807220459 -24.799999237060547 M83.17343807220459 -24.799999237060547 C83.17343807220459 -24.799999237060547, 83.17343807220459 -24.799999237060547, 83.17343807220459 -24.799999237060547 M83.17343807220459 -24.799999237060547 C83.17343807220459 -24.799999237060547, 83.17343807220459 -24.799999237060547, 83.17343807220459 -24.799999237060547 M83.17343807220459 -24.799999237060547 C83.79705068148566 -24.78000119446921, 84.42066329076671 -24.760003151877875, 84.76237947884457 -24.74904497883643 M83.17343807220459 -24.799999237060547 C83.72438281428312 -24.782331511530973, 84.27532755636166 -24.7646637860014, 84.76237947884457 -24.74904497883643 M84.76237947884457 -24.74904497883643 C85.32916613914593 -24.694367751377847, 85.89595279944729 -24.639690523919263, 86.3447915844178 -24.596391586140776 M84.76237947884457 -24.74904497883643 C85.38787766303199 -24.688703921279497, 86.0133758472194 -24.628362863722568, 86.3447915844178 -24.596391586140776 M86.3447915844178 -24.596391586140776 C86.71447198708057 -24.5366245255526, 87.08415238974332 -24.476857464964425, 87.91417191815616 -24.342666344508217 M86.3447915844178 -24.596391586140776 C86.70510361517285 -24.53813913126983, 87.06541564592789 -24.479886676398888, 87.91417191815616 -24.342666344508217 M87.91417191815616 -24.342666344508217 C88.33429941109159 -24.24677498583381, 88.75442690402703 -24.150883627159402, 89.46407155963728 -23.988911865380516 M87.91417191815616 -24.342666344508217 C88.27054037091258 -24.261327570688046, 88.62690882366901 -24.179988796867878, 89.46407155963728 -23.988911865380516 M89.46407155963728 -23.988911865380516 C89.79870893405001 -23.88959324920224, 90.13334630846273 -23.790274633023966, 90.98812163878189 -23.536581801792508 M89.46407155963728 -23.988911865380516 C89.80626122473237 -23.8873517689705, 90.14845088982744 -23.785791672560485, 90.98812163878189 -23.536581801792508 M90.98812163878189 -23.536581801792508 C91.32384335698954 -23.41303310611455, 91.65956507519718 -23.289484410436597, 92.48005950690707 -22.987534874999977 M90.98812163878189 -23.536581801792508 C91.43761301614322 -23.371164819870796, 91.88710439350454 -23.205747837949087, 92.48005950690707 -22.987534874999977 M92.48005950690707 -22.987534874999977 C92.82508332184665 -22.834803066894054, 93.17010713678621 -22.682071258788135, 93.93375447129301 -22.3440272365953 M92.48005950690707 -22.987534874999977 C92.9171911179573 -22.79402967783656, 93.35432272900755 -22.60052448067314, 93.93375447129301 -22.3440272365953 M93.93375447129301 -22.3440272365953 C94.36280593424306 -22.120191363194838, 94.7918573971931 -21.896355489794377, 95.34323298751445 -21.608703197496645 M93.93375447129301 -22.3440272365953 C94.40344664688331 -22.098989129442035, 94.87313882247362 -21.85395102228877, 95.34323298751445 -21.608703197496645 M95.34323298751445 -21.608703197496645 C95.78348514622644 -21.341819751676578, 96.22373730493842 -21.07493630585651, 96.7027032060161 -20.784584361907168 M95.34323298751445 -21.608703197496645 C95.63350384120727 -21.432739300167178, 95.92377469490009 -21.25677540283771, 96.7027032060161 -20.784584361907168 M96.7027032060161 -20.784584361907168 C97.01431637460654 -20.567216505015132, 97.32592954319698 -20.3498486481231, 98.00657877206463 -19.875057210895253 M96.7027032060161 -20.784584361907168 C97.19855372552725 -20.438700504519222, 97.69440424503841 -20.092816647131276, 98.00657877206463 -19.875057210895253 M98.00657877206463 -19.875057210895253 C98.35999358308123 -19.593218303872607, 98.71340839409784 -19.311379396849958, 99.24950178127872 -18.883859186617375 M98.00657877206463 -19.875057210895253 C98.28559442144137 -19.65254965543556, 98.5646100708181 -19.430042099975864, 99.24950178127872 -18.883859186617375 M99.24950178127872 -18.883859186617375 C99.62691926799249 -18.541098611103422, 100.00433675470624 -18.19833803558947, 100.42636479640738 -17.815063334366585 M99.24950178127872 -18.883859186617375 C99.62850154581405 -18.53966162825066, 100.00750131034937 -18.195464069883943, 100.42636479640738 -17.815063334366585 M100.42636479640738 -17.815063334366585 C100.66330041896727 -17.57040785129712, 100.90023604152717 -17.325752368227654, 101.53233183488513 -16.673061565555788 M100.42636479640738 -17.815063334366585 C100.72219052444899 -17.509598982419664, 101.0180162524906 -17.204134630472744, 101.53233183488513 -16.673061565555788 M101.53233183488513 -16.673061565555788 C101.9204403814148 -16.21716718280011, 102.30854892794449 -15.761272800044434, 102.56285824092164 -15.462546610411625 M101.53233183488513 -16.673061565555788 C101.77309647577258 -16.390245718473217, 102.01386111666002 -16.107429871390647, 102.56285824092164 -15.462546610411625 M102.56285824092164 -15.462546610411625 C102.77687348042936 -15.17578568666069, 102.99088871993709 -14.889024762909758, 103.51370936046732 -14.188492734539441 M102.56285824092164 -15.462546610411625 C102.80572115389101 -15.13713243229919, 103.0485840668604 -14.811718254186752, 103.51370936046732 -14.188492734539441 M103.51370936046732 -14.188492734539441 C103.78093301742688 -13.777965437850366, 104.04815667438645 -13.36743814116129, 104.38097794231501 -12.85613529859888 M103.51370936046732 -14.188492734539441 C103.77427457753079 -13.78819458957223, 104.03483979459425 -13.387896444605019, 104.38097794231501 -12.85613529859888 M104.38097794231501 -12.85613529859888 C104.66450717259471 -12.352700439789478, 104.9480364028744 -11.849265580980074, 105.1611001938334 -11.470949245084004 M104.38097794231501 -12.85613529859888 C104.59742058019624 -12.471819477847054, 104.81386321807747 -12.087503657095228, 105.1611001938334 -11.470949245084004 M105.1611001938334 -11.470949245084004 C105.40083032755271 -10.973144493012718, 105.64056046127202 -10.475339740941433, 105.85087042535527 -10.03862660061019 M105.1611001938334 -11.470949245084004 C105.39471260162198 -10.985848081806239, 105.62832500941056 -10.500746918528472, 105.85087042535527 -10.03862660061019 M105.85087042535527 -10.03862660061019 C106.00029596778924 -9.669542621851962, 106.1497215102232 -9.300458643093735, 106.44745422304406 -8.565053086155816 M105.85087042535527 -10.03862660061019 C106.01651176193313 -9.629489296805481, 106.18215309851101 -9.220351993000772, 106.44745422304406 -8.565053086155816 M106.44745422304406 -8.565053086155816 C106.55063207313336 -8.254297840844796, 106.65380992322265 -7.943542595533775, 106.94840009610824 -7.05628393137229 M106.44745422304406 -8.565053086155816 C106.5811555632718 -8.162365951805471, 106.71485690349957 -7.759678817455126, 106.94840009610824 -7.05628393137229 M106.94840009610824 -7.05628393137229 C107.10065650749857 -6.475664246394895, 107.25291291888888 -5.8950445614174996, 107.35164955050286 -5.5185189923466 M106.94840009610824 -7.05628393137229 C107.04126592368408 -6.702146282521385, 107.1341317512599 -6.348008633670481, 107.35164955050286 -5.5185189923466 M107.35164955050286 -5.5185189923466 C107.429043237488 -5.121118766839396, 107.50643692447315 -4.7237185413321905, 107.65554554772302 -3.9580772750627573 M107.35164955050286 -5.5185189923466 C107.41572708717885 -5.189494384307527, 107.47980462385485 -4.860469776268455, 107.65554554772302 -3.9580772750627573 M107.65554554772302 -3.9580772750627573 C107.72147489532455 -3.4467422742875233, 107.78740424292609 -2.9354072735122894, 107.8588393139307 -2.3813709692507574 M107.65554554772302 -3.9580772750627573 C107.73283768417176 -3.358614727825023, 107.8101298206205 -2.7591521805872885, 107.8588393139307 -2.3813709692507574 M107.8588393139307 -2.3813709692507574 C107.89357546617661 -1.8403273595032563, 107.92831161842253 -1.2992837497557554, 107.96069547143418 -0.794879099323635 M107.8588393139307 -2.3813709692507574 C107.8838650891953 -1.9915743190624366, 107.9088908644599 -1.6017776688741159, 107.96069547143418 -0.794879099323635 M107.96069547143418 -0.794879099323635 C107.96069547143418 -0.4434420641671004, 107.96069547143418 -0.09200502901056584, 107.96069547143418 0.794879099323629 M107.96069547143418 -0.794879099323635 C107.96069547143418 -0.346782947804731, 107.96069547143418 0.10131320371417296, 107.96069547143418 0.794879099323629 M107.96069547143418 0.794879099323629 C107.93441986124425 1.2041429373225812, 107.90814425105432 1.6134067753215335, 107.8588393139307 2.3813709692507405 M107.96069547143418 0.794879099323629 C107.93813002006218 1.1463542189469733, 107.91556456869019 1.4978293385703174, 107.8588393139307 2.3813709692507405 M107.8588393139307 2.3813709692507405 C107.78335880352816 2.966782902620251, 107.7078782931256 3.552194835989761, 107.65554554772302 3.95807727506274 M107.8588393139307 2.3813709692507405 C107.79853838329544 2.8490530794922773, 107.73823745266017 3.316735189733814, 107.65554554772302 3.95807727506274 M107.65554554772302 3.95807727506274 C107.54293829170582 4.536291735159114, 107.43033103568861 5.114506195255489, 107.35164955050286 5.5185189923465945 M107.65554554772302 3.95807727506274 C107.54724411920219 4.514182221002242, 107.43894269068134 5.070287166941744, 107.35164955050286 5.5185189923465945 M107.35164955050286 5.5185189923465945 C107.24784556981022 5.9143685596574285, 107.14404158911758 6.310218126968263, 106.94840009610824 7.056283931372274 M107.35164955050286 5.5185189923465945 C107.25163977874517 5.899899596567898, 107.15163000698749 6.281280200789202, 106.94840009610824 7.056283931372274 M106.94840009610824 7.056283931372274 C106.75240887989779 7.64657824763857, 106.55641766368733 8.236872563904866, 106.44745422304406 8.565053086155798 M106.94840009610824 7.056283931372274 C106.80254040862036 7.495590070500601, 106.65668072113246 7.934896209628929, 106.44745422304406 8.565053086155798 M106.44745422304406 8.565053086155798 C106.23117565372107 9.099265333845278, 106.01489708439807 9.633477581534759, 105.85087042535528 10.038626600610183 M106.44745422304406 8.565053086155798 C106.22652990613082 9.110740420212602, 106.00560558921758 9.656427754269405, 105.85087042535528 10.038626600610183 M105.85087042535528 10.038626600610183 C105.5973906839331 10.564982707270975, 105.3439109425109 11.091338813931767, 105.1611001938334 11.470949245083998 M105.85087042535528 10.038626600610183 C105.67212154562934 10.409802473974445, 105.4933726659034 10.780978347338705, 105.1611001938334 11.470949245083998 M105.1611001938334 11.470949245083998 C104.94907162073943 11.84742744683352, 104.73704304764547 12.223905648583038, 104.38097794231503 12.856135298598875 M105.1611001938334 11.470949245083998 C104.95977158402613 11.828428578529213, 104.75844297421887 12.185907911974427, 104.38097794231503 12.856135298598875 M104.38097794231503 12.856135298598875 C104.1907817525703 13.148327720874871, 104.00058556282558 13.440520143150867, 103.51370936046733 14.188492734539427 M104.38097794231503 12.856135298598875 C104.10974129465473 13.272827626643162, 103.83850464699444 13.689519954687448, 103.51370936046733 14.188492734539427 M103.51370936046733 14.188492734539427 C103.13858492803172 14.691125299464312, 102.76346049559612 15.193757864389198, 102.56285824092166 15.46254661041162 M103.51370936046733 14.188492734539427 C103.14983107967295 14.676056480810551, 102.78595279887858 15.163620227081678, 102.56285824092166 15.46254661041162 M102.56285824092166 15.46254661041162 C102.25216912984246 15.82749971899648, 101.94148001876326 16.192452827581338, 101.53233183488513 16.673061565555773 M102.56285824092166 15.46254661041162 C102.26018556510319 15.818083157991143, 101.95751288928471 16.173619705570665, 101.53233183488513 16.673061565555773 M101.53233183488513 16.673061565555773 C101.2425245983312 16.972311330914334, 100.95271736177726 17.271561096272894, 100.4263647964074 17.815063334366577 M101.53233183488513 16.673061565555773 C101.18657812028282 17.030080662790553, 100.84082440568051 17.387099760025333, 100.4263647964074 17.815063334366577 M100.4263647964074 17.815063334366577 C100.14039764093624 18.074771138689172, 99.85443048546507 18.334478943011764, 99.24950178127874 18.883859186617357 M100.4263647964074 17.815063334366577 C100.15098485512533 18.065156110884974, 99.87560491384326 18.31524888740337, 99.24950178127874 18.883859186617357 M99.24950178127874 18.883859186617357 C98.96846782393946 19.10797628896774, 98.68743386660019 19.332093391318125, 98.00657877206463 19.87505721089525 M99.24950178127874 18.883859186617357 C98.94382101783823 19.12763146095442, 98.63814025439773 19.37140373529148, 98.00657877206463 19.87505721089525 M98.00657877206463 19.87505721089525 C97.50689824696892 20.22361271438072, 97.00721772187319 20.57216821786619, 96.70270320601611 20.78458436190716 M98.00657877206463 19.87505721089525 C97.65932111785673 20.11728911792911, 97.31206346364884 20.35952102496297, 96.70270320601611 20.78458436190716 M96.70270320601611 20.78458436190716 C96.1996633206812 21.08953009658768, 95.6966234353463 21.394475831268203, 95.34323298751447 21.60870319749664 M96.70270320601611 20.78458436190716 C96.30471365658823 21.025847965616546, 95.90672410716034 21.267111569325927, 95.34323298751447 21.60870319749664 M95.34323298751447 21.60870319749664 C94.79170714641303 21.8964338755301, 94.2401813053116 22.184164553563555, 93.93375447129301 22.344027236595295 M95.34323298751447 21.60870319749664 C94.92377657406655 21.827533339717764, 94.50432016061863 22.04636348193889, 93.93375447129301 22.344027236595295 M93.93375447129301 22.344027236595295 C93.40367337525433 22.578678413514595, 92.87359227921564 22.813329590433895, 92.48005950690708 22.987534874999973 M93.93375447129301 22.344027236595295 C93.39090793747513 22.584329294146187, 92.84806140365725 22.82463135169708, 92.48005950690708 22.987534874999973 M92.48005950690708 22.987534874999973 C92.11461090539304 23.122023338526983, 91.74916230387898 23.256511802053996, 90.9881216387819 23.536581801792504 M92.48005950690708 22.987534874999973 C91.92578315723813 23.191513695352555, 91.37150680756919 23.395492515705136, 90.9881216387819 23.536581801792504 M90.9881216387819 23.536581801792504 C90.45608876028123 23.69448636743394, 89.92405588178056 23.852390933075373, 89.4640715596373 23.988911865380512 M90.9881216387819 23.536581801792504 C90.43979969555961 23.69932087634027, 89.89147775233731 23.862059950888035, 89.4640715596373 23.988911865380512 M89.4640715596373 23.988911865380512 C88.98158094826836 24.099037198879987, 88.49909033689941 24.209162532379462, 87.91417191815617 24.342666344508213 M89.4640715596373 23.988911865380512 C88.92795087816472 24.111277912412227, 88.39183019669214 24.233643959443945, 87.91417191815617 24.342666344508213 M87.91417191815617 24.342666344508213 C87.50656178782388 24.408565589316567, 87.0989516574916 24.47446483412492, 86.34479158441782 24.596391586140772 M87.91417191815617 24.342666344508213 C87.3765125478036 24.429590941896127, 86.83885317745104 24.51651553928404, 86.34479158441782 24.596391586140772 M86.34479158441782 24.596391586140772 C86.01431700391363 24.628272071468178, 85.68384242340944 24.660152556795584, 84.76237947884457 24.74904497883643 M86.34479158441782 24.596391586140772 C85.78568198252069 24.650328217008113, 85.22657238062354 24.704264847875454, 84.76237947884457 24.74904497883643 M84.76237947884457 24.74904497883643 C84.15832293260941 24.768415896549453, 83.55426638637425 24.78778681426247, 83.17343807220459 24.799999237060547 M84.76237947884457 24.74904497883643 C84.43779025327295 24.75945392352591, 84.11320102770132 24.769862868215395, 83.17343807220459 24.799999237060547 M83.17343807220459 24.799999237060547 C83.17343807220459 24.799999237060547, 83.17343807220459 24.799999237060547, 83.17343807220459 24.799999237060547 M83.17343807220459 24.799999237060547 C83.17343807220459 24.799999237060547, 83.17343807220459 24.799999237060547, 83.17343807220459 24.799999237060547 M83.17343807220459 24.799999237060547 C30.12158868688907 24.799999237060547, -22.93026069842645 24.799999237060547, -83.17343807220459 24.799999237060547 M83.17343807220459 24.799999237060547 C45.382615370488566 24.799999237060547, 7.591792668772541 24.799999237060547, -83.17343807220459 24.799999237060547 M-83.17343807220459 24.799999237060547 C-83.70934540297975 24.78281373204293, -84.24525273375491 24.765628227025307, -84.76237947884457 24.74904497883643 M-83.17343807220459 24.799999237060547 C-83.49711387868798 24.789619583943363, -83.82078968517136 24.77923993082618, -84.76237947884457 24.74904497883643 M-84.76237947884457 24.74904497883643 C-85.26690977113111 24.700373548326, -85.77144006341764 24.651702117815567, -86.3447915844178 24.596391586140772 M-84.76237947884457 24.74904497883643 C-85.13953754686058 24.712660993613866, -85.5166956148766 24.676277008391303, -86.3447915844178 24.596391586140772 M-86.3447915844178 24.596391586140772 C-86.77739121340869 24.526452232985754, -87.20999084239956 24.456512879830736, -87.91417191815616 24.342666344508213 M-86.3447915844178 24.596391586140772 C-86.93838525954938 24.5004239641332, -87.53197893468094 24.404456342125634, -87.91417191815616 24.342666344508213 M-87.91417191815616 24.342666344508213 C-88.4022022848404 24.231276598008304, -88.89023265152463 24.119886851508394, -89.46407155963728 23.988911865380516 M-87.91417191815616 24.342666344508213 C-88.39118823017596 24.23379048411204, -88.86820454219576 24.124914623715863, -89.46407155963728 23.988911865380516 M-89.46407155963728 23.988911865380516 C-89.89744438108103 23.86028908679637, -90.33081720252478 23.731666308212223, -90.98812163878188 23.536581801792515 M-89.46407155963728 23.988911865380516 C-89.77195818394567 23.897532731415655, -90.07984480825405 23.8061535974508, -90.98812163878188 23.536581801792515 M-90.98812163878188 23.536581801792515 C-91.4679065494849 23.36001651957071, -91.94769146018791 23.183451237348905, -92.48005950690707 22.987534874999977 M-90.98812163878188 23.536581801792515 C-91.3426363619493 23.406117106568725, -91.69715108511674 23.275652411344932, -92.48005950690707 22.987534874999977 M-92.48005950690707 22.987534874999977 C-92.97578696089042 22.76809103635399, -93.47151441487377 22.548647197708007, -93.933754471293 22.344027236595302 M-92.48005950690707 22.987534874999977 C-92.86801261513584 22.81579954220717, -93.2559657233646 22.64406420941436, -93.933754471293 22.344027236595302 M-93.933754471293 22.344027236595302 C-94.41509546975502 22.09291194601129, -94.89643646821703 21.841796655427284, -95.34323298751445 21.60870319749665 M-93.933754471293 22.344027236595302 C-94.25682507232989 22.17548151097095, -94.57989567336679 22.0069357853466, -95.34323298751445 21.60870319749665 M-95.34323298751445 21.60870319749665 C-95.6804247053801 21.40429559656801, -96.01761642324576 21.199887995639365, -96.70270320601608 20.78458436190718 M-95.34323298751445 21.60870319749665 C-95.81574047107286 21.32226638420136, -96.28824795463125 21.03582957090607, -96.70270320601608 20.78458436190718 M-96.70270320601608 20.78458436190718 C-97.09735594941871 20.509291692351418, -97.49200869282134 20.23399902279566, -98.00657877206463 19.875057210895257 M-96.70270320601608 20.78458436190718 C-97.13228316371094 20.484927979635906, -97.56186312140578 20.18527159736463, -98.00657877206463 19.875057210895257 M-98.00657877206463 19.875057210895257 C-98.44916127002323 19.52210944638818, -98.89174376798181 19.1691616818811, -99.24950178127872 18.883859186617375 M-98.00657877206463 19.875057210895257 C-98.44795215856209 19.52307368060262, -98.88932554505955 19.171090150309986, -99.24950178127872 18.883859186617375 M-99.24950178127872 18.883859186617375 C-99.57538848967799 18.58789750053897, -99.90127519807724 18.29193581446056, -100.42636479640737 17.815063334366595 M-99.24950178127872 18.883859186617375 C-99.5628295020089 18.599303240847437, -99.87615722273905 18.3147472950775, -100.42636479640737 17.815063334366595 M-100.42636479640737 17.815063334366595 C-100.71944797354554 17.51243089139509, -101.01253115068371 17.209798448423584, -101.53233183488513 16.673061565555784 M-100.42636479640737 17.815063334366595 C-100.79812400798001 17.431191426418945, -101.16988321955264 17.047319518471298, -101.53233183488513 16.673061565555784 M-101.53233183488513 16.673061565555784 C-101.86014909636476 16.287988756891192, -102.18796635784442 15.902915948226598, -102.56285824092164 15.462546610411627 M-101.53233183488513 16.673061565555784 C-101.83684342546172 16.315364924064145, -102.14135501603833 15.957668282572508, -102.56285824092164 15.462546610411627 M-102.56285824092164 15.462546610411627 C-102.93813669092054 14.959707675983228, -103.31341514091943 14.45686874155483, -103.51370936046732 14.188492734539444 M-102.56285824092164 15.462546610411627 C-102.92355726187449 14.979242782691614, -103.28425628282734 14.495938954971601, -103.51370936046732 14.188492734539444 M-103.51370936046732 14.188492734539444 C-103.76366720383432 13.804490364048673, -104.01362504720132 13.4204879935579, -104.38097794231501 12.856135298598893 M-103.51370936046732 14.188492734539444 C-103.78560163222157 13.770793191827124, -104.05749390397582 13.353093649114804, -104.38097794231501 12.856135298598893 M-104.38097794231501 12.856135298598893 C-104.63580492109874 12.40366419373869, -104.89063189988246 11.951193088878487, -105.16110019383339 11.470949245084007 M-104.38097794231501 12.856135298598893 C-104.67325818123575 12.337162137811589, -104.96553842015648 11.818188977024285, -105.16110019383339 11.470949245084007 M-105.16110019383339 11.470949245084007 C-105.42905330815589 10.91453886991517, -105.69700642247837 10.358128494746332, -105.85087042535527 10.038626600610193 M-105.16110019383339 11.470949245084007 C-105.36483351633264 11.04789264171954, -105.5685668388319 10.624836038355076, -105.85087042535527 10.038626600610193 M-105.85087042535527 10.038626600610193 C-105.97545538422045 9.730899343526863, -106.10004034308564 9.423172086443532, -106.44745422304406 8.565053086155817 M-105.85087042535527 10.038626600610193 C-105.98683688501733 9.702786816512264, -106.12280334467937 9.366947032414336, -106.44745422304406 8.565053086155817 M-106.44745422304406 8.565053086155817 C-106.59101001124002 8.132685924618317, -106.73456579943596 7.700318763080816, -106.94840009610824 7.056283931372283 M-106.44745422304406 8.565053086155817 C-106.56689945882823 8.205303066987742, -106.68634469461242 7.845553047819667, -106.94840009610824 7.056283931372283 M-106.94840009610824 7.056283931372283 C-107.07680634388109 6.566615256994616, -107.20521259165393 6.07694658261695, -107.35164955050284 5.518518992346603 M-106.94840009610824 7.056283931372283 C-107.09639547129721 6.491913424175408, -107.24439084648617 5.927542916978534, -107.35164955050284 5.518518992346603 M-107.35164955050284 5.518518992346603 C-107.45301900619503 4.998008261809243, -107.55438846188723 4.477497531271884, -107.65554554772302 3.95807727506276 M-107.35164955050284 5.518518992346603 C-107.42058948499043 5.164526999213127, -107.48952941947803 4.81053500607965, -107.65554554772302 3.95807727506276 M-107.65554554772302 3.95807727506276 C-107.70242038748299 3.594525274368567, -107.74929522724295 3.2309732736743735, -107.8588393139307 2.381370969250771 M-107.65554554772302 3.95807727506276 C-107.71269845114831 3.5148106422134715, -107.76985135457362 3.0715440093641826, -107.8588393139307 2.381370969250771 M-107.8588393139307 2.381370969250771 C-107.89669904620305 1.791675079283083, -107.9345587784754 1.2019791893153946, -107.96069547143418 0.7948790993236381 M-107.8588393139307 2.381370969250771 C-107.89822408040308 1.7679214406320785, -107.93760884687548 1.1544719120133857, -107.96069547143418 0.7948790993236381 M-107.96069547143418 0.7948790993236381 C-107.96069547143418 0.2662851764027986, -107.96069547143418 -0.2623087465180409, -107.96069547143418 -0.7948790993236261 M-107.96069547143418 0.7948790993236381 C-107.96069547143418 0.33677304676209413, -107.96069547143418 -0.12133300579944983, -107.96069547143418 -0.7948790993236261 M-107.96069547143418 -0.7948790993236261 C-107.93545243845023 -1.1880597138582178, -107.91020940546626 -1.5812403283928096, -107.8588393139307 -2.3813709692507374 M-107.96069547143418 -0.7948790993236261 C-107.93590500033974 -1.181010697127487, -107.91111452924531 -1.5671422949313478, -107.8588393139307 -2.3813709692507374 M-107.8588393139307 -2.3813709692507374 C-107.79942436084077 -2.8421816126066988, -107.74000940775085 -3.30299225596266, -107.65554554772302 -3.9580772750627484 M-107.8588393139307 -2.3813709692507374 C-107.79273406653394 -2.8940702141024874, -107.72662881913716 -3.406769458954238, -107.65554554772302 -3.9580772750627484 M-107.65554554772302 -3.9580772750627484 C-107.5547237786378 -4.475775750627005, -107.45390200955255 -4.99347422619126, -107.35164955050286 -5.518518992346592 M-107.65554554772302 -3.9580772750627484 C-107.58625487683483 -4.3138702254851395, -107.51696420594664 -4.669663175907531, -107.35164955050286 -5.518518992346592 M-107.35164955050286 -5.518518992346592 C-107.21279991180944 -6.048012842498667, -107.07395027311603 -6.577506692650743, -106.94840009610826 -7.056283931372271 M-107.35164955050286 -5.518518992346592 C-107.24701263430318 -5.917544903742306, -107.14237571810351 -6.3165708151380215, -106.94840009610826 -7.056283931372271 M-106.94840009610826 -7.056283931372271 C-106.77972369584172 -7.56431037404038, -106.61104729557519 -8.07233681670849, -106.44745422304408 -8.565053086155787 M-106.94840009610826 -7.056283931372271 C-106.83720720014173 -7.391179217841362, -106.72601430417522 -7.726074504310453, -106.44745422304408 -8.565053086155787 M-106.44745422304408 -8.565053086155787 C-106.22812222666226 -9.106807357714551, -106.00879023028044 -9.648561629273315, -105.85087042535528 -10.038626600610181 M-106.44745422304408 -8.565053086155787 C-106.26661801198976 -9.011722023690243, -106.08578180093545 -9.458390961224701, -105.85087042535528 -10.038626600610181 M-105.85087042535528 -10.038626600610181 C-105.59704920489213 -10.565691795806018, -105.34322798442898 -11.092756991001854, -105.1611001938334 -11.470949245083997 M-105.85087042535528 -10.038626600610181 C-105.60264449001599 -10.554073066526385, -105.35441855467671 -11.069519532442591, -105.1611001938334 -11.470949245083997 M-105.1611001938334 -11.470949245083997 C-104.9429140120415 -11.858360904602186, -104.7247278302496 -12.245772564120378, -104.38097794231501 -12.856135298598884 M-105.1611001938334 -11.470949245083997 C-105.0033057458432 -11.7511292659111, -104.845511297853 -12.031309286738205, -104.38097794231501 -12.856135298598884 M-104.38097794231501 -12.856135298598884 C-104.04680479944193 -13.369514984105319, -103.71263165656885 -13.882894669611751, -103.51370936046732 -14.188492734539436 M-104.38097794231501 -12.856135298598884 C-104.07093742294002 -13.332440793895483, -103.76089690356503 -13.80874628919208, -103.51370936046732 -14.188492734539436 M-103.51370936046732 -14.188492734539436 C-103.25497647585101 -14.535171228874606, -102.9962435912347 -14.881849723209777, -102.56285824092166 -15.46254661041162 M-103.51370936046732 -14.188492734539436 C-103.19423361585828 -14.61656112747647, -102.87475787124926 -15.044629520413501, -102.56285824092166 -15.46254661041162 M-102.56285824092166 -15.46254661041162 C-102.28019112206587 -15.794583492434326, -101.99752400321009 -16.126620374457033, -101.53233183488513 -16.673061565555773 M-102.56285824092166 -15.46254661041162 C-102.27620139353883 -15.799270054584175, -101.98954454615601 -16.13599349875673, -101.53233183488513 -16.673061565555773 M-101.53233183488513 -16.673061565555773 C-101.23480759796482 -16.980279767370124, -100.93728336104452 -17.287497969184475, -100.4263647964074 -17.81506333436657 M-101.53233183488513 -16.673061565555773 C-101.10997948886803 -17.109175038590912, -100.68762714285094 -17.545288511626055, -100.4263647964074 -17.81506333436657 M-100.4263647964074 -17.81506333436657 C-100.01820699344101 -18.18574145175696, -99.61004919047463 -18.55641956914735, -99.24950178127875 -18.883859186617354 M-100.4263647964074 -17.81506333436657 C-100.01742549119928 -18.18645119141549, -99.60848618599115 -18.557839048464405, -99.24950178127875 -18.883859186617354 M-99.24950178127875 -18.883859186617354 C-98.82172866483269 -19.22499686346238, -98.39395554838663 -19.566134540307406, -98.00657877206463 -19.87505721089525 M-99.24950178127875 -18.883859186617354 C-98.99112203887563 -19.089910155410138, -98.7327422964725 -19.295961124202922, -98.00657877206463 -19.87505721089525 M-98.00657877206463 -19.87505721089525 C-97.48878286169428 -20.23624922294592, -96.97098695132391 -20.597441234996584, -96.70270320601611 -20.784584361907157 M-98.00657877206463 -19.87505721089525 C-97.48827330321758 -20.23660466888083, -96.96996783437052 -20.598152126866406, -96.70270320601611 -20.784584361907157 M-96.70270320601611 -20.784584361907157 C-96.35379419752016 -20.996095053274328, -96.00488518902421 -21.207605744641498, -95.34323298751447 -21.608703197496638 M-96.70270320601611 -20.784584361907157 C-96.32007921115948 -21.01653327613742, -95.93745521630287 -21.248482190367685, -95.34323298751447 -21.608703197496638 M-95.34323298751447 -21.608703197496638 C-94.90869971090508 -21.835398929571912, -94.47416643429568 -22.062094661647183, -93.93375447129301 -22.344027236595295 M-95.34323298751447 -21.608703197496638 C-94.87637637752098 -21.852261991894313, -94.40951976752748 -22.095820786291984, -93.93375447129301 -22.344027236595295 M-93.93375447129301 -22.344027236595295 C-93.55142900245527 -22.513271380367694, -93.1691035336175 -22.68251552414009, -92.48005950690708 -22.98753487499997 M-93.93375447129301 -22.344027236595295 C-93.47431360987423 -22.547408077116472, -93.01487274845545 -22.75078891763765, -92.48005950690708 -22.98753487499997 M-92.48005950690708 -22.98753487499997 C-92.03412498492828 -23.1516429012617, -91.58819046294948 -23.315750927523432, -90.9881216387819 -23.536581801792504 M-92.48005950690708 -22.98753487499997 C-92.12535617301357 -23.118068980714458, -91.77065283912006 -23.248603086428943, -90.9881216387819 -23.536581801792504 M-90.9881216387819 -23.536581801792504 C-90.59237814485942 -23.654036393488706, -90.19663465093696 -23.771490985184908, -89.4640715596373 -23.98891186538051 M-90.9881216387819 -23.536581801792504 C-90.46423651366338 -23.69206815699855, -89.94035138854484 -23.84755451220459, -89.4640715596373 -23.98891186538051 M-89.4640715596373 -23.98891186538051 C-88.94811643118067 -24.106675256528867, -88.43216130272404 -24.224438647677225, -87.91417191815617 -24.34266634450821 M-89.4640715596373 -23.98891186538051 C-88.91836554971832 -24.113465701080003, -88.37265953979934 -24.238019536779497, -87.91417191815617 -24.34266634450821 M-87.91417191815617 -24.34266634450821 C-87.43932417109093 -24.419436045754445, -86.96447642402568 -24.496205747000676, -86.34479158441782 -24.596391586140772 M-87.91417191815617 -24.34266634450821 C-87.36399297227806 -24.431615009776337, -86.81381402639994 -24.520563675044464, -86.34479158441782 -24.596391586140772 M-86.34479158441782 -24.596391586140772 C-85.84999770143662 -24.64412375695526, -85.35520381845544 -24.69185592776975, -84.76237947884458 -24.74904497883643 M-86.34479158441782 -24.596391586140772 C-85.77841051727131 -24.651029686515503, -85.2120294501248 -24.705667786890235, -84.76237947884458 -24.74904497883643 M-84.76237947884458 -24.74904497883643 C-84.27874590947242 -24.76455416607056, -83.79511234010025 -24.78006335330469, -83.1734380722046 -24.799999237060547 M-84.76237947884458 -24.74904497883643 C-84.31866207331976 -24.763274132388077, -83.87494466779495 -24.77750328593972, -83.1734380722046 -24.799999237060547 M-83.1734380722046 -24.799999237060547 C-83.1734380722046 -24.799999237060547, -83.17343807220459 -24.799999237060547, -83.17343807220459 -24.799999237060547 M-83.1734380722046 -24.799999237060547 C-83.1734380722046 -24.799999237060547, -83.1734380722046 -24.799999237060547, -83.17343807220459 -24.799999237060547" stroke="#9370DB" stroke-width="1.3" fill="none" stroke-dasharray="0 0" style=""/></g><g class="label" style="" transform="translate(0, -17.299999237060547)"><rect/><g><rect class="background" style="stroke: none"/><text y="-10.1" style=""><tspan class="text-outer-tspan row" x="0" y="-0.1em" dy="1.1em"><tspan font-style="normal" class="text-inner-tspan" font-weight="normal">event</tspan><tspan font-style="normal" class="text-inner-tspan" font-weight="normal"> loop</tspan></tspan><tspan class="text-outer-tspan row" x="0" y="1em" dy="1.1em"><tspan font-style="normal" class="text-inner-tspan" font-weight="normal">(the</tspan><tspan font-style="normal" class="text-inner-tspan" font-weight="normal"> scheduler,</tspan><tspan font-style="normal" class="text-inner-tspan" font-weight="normal"> in-process)</tspan></tspan></text></g></g></g><g class="node default" id="my-svg-flowchart-CO1-14" data-look="classic" transform="translate(135.0859375, 75.29999923706055)"><rect class="basic label-container" style="" x="-89.5859375" y="-32.29999923706055" width="179.171875" height="64.5999984741211"/><g class="label" style="" transform="translate(0, -17.299999237060547)"><rect/><g><rect class="background" style="stroke: none"/><text y="-10.1" style=""><tspan class="text-outer-tspan row" x="0" y="-0.1em" dy="1.1em"><tspan font-style="normal" class="text-inner-tspan" font-weight="normal">coroutine</tspan><tspan font-style="normal" class="text-inner-tspan" font-weight="normal"> A</tspan></tspan><tspan class="text-outer-tspan row" x="0" y="1em" dy="1.1em"><tspan font-style="normal" class="text-inner-tspan" font-weight="normal">(parked</tspan><tspan font-style="normal" class="text-inner-tspan" font-weight="normal"> at</tspan><tspan font-style="normal" class="text-inner-tspan" font-weight="normal"> await)</tspan></tspan></text></g></g></g><g class="node default" id="my-svg-flowchart-CO2-16" data-look="classic" transform="translate(135.0859375, 189.89999771118164)"><rect class="basic label-container" style="" x="-70.4765625" y="-32.29999923706055" width="140.953125" height="64.5999984741211"/><g class="label" style="" transform="translate(0, -17.299999237060547)"><rect/><g><rect class="background" style="stroke: none"/><text y="-10.1" style=""><tspan class="text-outer-tspan row" x="0" y="-0.1em" dy="1.1em"><tspan font-style="normal" class="text-inner-tspan" font-weight="normal">coroutine</tspan><tspan font-style="normal" class="text-inner-tspan" font-weight="normal"> B</tspan></tspan><tspan class="text-outer-tspan row" x="0" y="1em" dy="1.1em"><tspan font-style="normal" class="text-inner-tspan" font-weight="normal">(running)</tspan></tspan></text></g></g></g><g class="node default" id="my-svg-flowchart-CO3-18" data-look="classic" transform="translate(135.0859375, 304.49999618530273)"><rect class="basic label-container" style="" x="-89.5859375" y="-32.29999923706055" width="179.171875" height="64.5999984741211"/><g class="label" style="" transform="translate(0, -17.299999237060547)"><rect/><g><rect class="background" style="stroke: none"/><text y="-10.1" style=""><tspan class="text-outer-tspan row" x="0" y="-0.1em" dy="1.1em"><tspan font-style="normal" class="text-inner-tspan" font-weight="normal">coroutine</tspan><tspan font-style="normal" class="text-inner-tspan" font-weight="normal"> C</tspan></tspan><tspan class="text-outer-tspan row" x="0" y="1em" dy="1.1em"><tspan font-style="normal" class="text-inner-tspan" font-weight="normal">(parked</tspan><tspan font-style="normal" class="text-inner-tspan" font-weight="normal"> at</tspan><tspan font-style="normal" class="text-inner-tspan" font-weight="normal"> await)</tspan></tspan></text></g></g></g></g></g><g class="root" transform="translate(595.09326171875, 52.79998779296875)"><g class="clusters"><g class="cluster" id="my-svg-THR" data-look="classic"><rect style="" x="8" y="8" width="772.6515655517578" height="311"/><g class="cluster-label" transform="translate(179.3335952758789, 8)"><g><rect class="background" style="stroke: none"/><text y="-10.1" style=""><tspan class="text-outer-tspan row" x="0" y="-0.1em" dy="1.1em"><tspan font-style="normal" class="text-inner-tspan" font-weight="normal">THREADS</tspan><tspan font-style="normal" class="text-inner-tspan" font-weight="normal"> —</tspan><tspan font-style="normal" class="text-inner-tspan" font-weight="normal"> shared</tspan><tspan font-style="normal" class="text-inner-tspan" font-weight="normal"> heap,</tspan><tspan font-style="normal" class="text-inner-tspan" font-weight="normal"> but</tspan><tspan font-style="normal" class="text-inner-tspan" font-weight="normal"> ONE</tspan><tspan font-style="normal" class="text-inner-tspan" font-weight="normal"> GIL</tspan><tspan font-style="normal" class="text-inner-tspan" font-weight="normal"> gates</tspan><tspan font-style="normal" class="text-inner-tspan" font-weight="normal"> the</tspan><tspan font-style="normal" class="text-inner-tspan" font-weight="normal"> bytecode</tspan></tspan></text></g></g></g></g><g class="edgePaths"><path d="M169.648,66.5L189.427,66.5C209.206,66.5,248.763,66.5,290.251,78.298C331.739,90.097,375.158,113.693,396.867,125.492L418.577,137.29" id="my-svg-L_T1_GIL_0" class="edge-thickness-normal edge-pattern-dotted edge-thickness-normal edge-pattern-solid flowchart-link" style=";" data-edge="true" data-et="edge" data-id="L_T1_GIL_0" data-points="W3sieCI6MTY5LjY0ODQzNzUsInkiOjY2LjV9LHsieCI6Mjg4LjMyMDMxMjUsInkiOjY2LjV9LHsieCI6NDIyLjA5MTQyMDA2OTgxMDIsInkiOjEzOS4yMDAwMDA3NjI5Mzk1NH1d" data-look="classic" marker-end="url(#my-svg_flowchart-v2-pointEnd)"/><path d="M169.648,163.5L189.427,163.5C209.206,163.5,248.763,163.5,287.737,163.581C326.711,163.661,365.102,163.822,384.297,163.903L403.492,163.983" id="my-svg-L_T2_GIL_0" class="edge-thickness-normal edge-pattern-dotted edge-thickness-normal edge-pattern-solid flowchart-link" style=";" data-edge="true" data-et="edge" data-id="L_T2_GIL_0" data-points="W3sieCI6MTY5LjY0ODQzNzUsInkiOjE2My41fSx7IngiOjI4OC4zMjAzMTI1LCJ5IjoxNjMuNX0seyJ4Ijo0MDcuNDkyMTg3NDk5OTk5OTQsInkiOjE2NH1d" data-look="classic" marker-end="url(#my-svg_flowchart-v2-pointEnd)"/><path d="M169.648,260.5L189.427,260.5C209.206,260.5,248.763,260.5,290.249,248.865C331.736,237.23,375.151,213.96,396.858,202.325L418.566,190.69" id="my-svg-L_T3_GIL_0" class="edge-thickness-normal edge-pattern-dotted edge-thickness-normal edge-pattern-solid flowchart-link" style=";" data-edge="true" data-et="edge" data-id="L_T3_GIL_0" data-points="W3sieCI6MTY5LjY0ODQzNzUsInkiOjI2MC41fSx7IngiOjI4OC4zMjAzMTI1LCJ5IjoyNjAuNX0seyJ4Ijo0MjIuMDkxNDIwMDY5ODEwMDYsInkiOjE4OC43OTk5OTkyMzcwNjA1NX1d" data-look="classic" marker-end="url(#my-svg_flowchart-v2-pointEnd)"/><path d="M528.245,164L534.412,163.917C540.579,163.833,552.912,163.667,565.329,163.583C577.745,163.5,590.245,163.5,596.495,163.5L602.745,163.5" id="my-svg-L_GIL_HEAP_0" class="edge-thickness-normal edge-pattern-solid edge-thickness-normal edge-pattern-solid flowchart-link" style=";" data-edge="true" data-et="edge" data-id="L_GIL_HEAP_0" data-points="W3sieCI6NTI4LjI0NTMxMTczNzA2MDUsInkiOjE2NH0seyJ4Ijo1NjUuMjQ1MzE1NTUxNzU3OCwieSI6MTYzLjV9LHsieCI6NjAyLjc0NTMxNTU1MTc1NzgsInkiOjE2My41fV0=" data-look="classic"/></g><g class="edgeLabels"><g class="edgeLabel" transform="translate(288.3203125, 66.5)"><g class="label" data-id="L_T1_GIL_0" transform="translate(0, -19.299999237060547)"><g><rect class="background" style="" x="-81.171875" y="0" width="162.34375" height="38.599998474121094"/><text y="-10.1" text-anchor="middle" style=""><tspan class="text-outer-tspan row" x="0" y="-0.1em" dy="1.1em" text-anchor="middle"><tspan font-style="normal" class="text-inner-tspan" font-weight="normal">must</tspan><tspan font-style="normal" class="text-inner-tspan" font-weight="normal"> hold</tspan><tspan font-style="normal" class="text-inner-tspan" font-weight="normal"> token</tspan><tspan font-style="normal" class="text-inner-tspan" font-weight="normal"> to</tspan><tspan font-style="normal" class="text-inner-tspan" font-weight="normal"> run</tspan></tspan><tspan class="text-outer-tspan row" x="0" y="1em" dy="1.1em" text-anchor="middle"><tspan font-style="normal" class="text-inner-tspan" font-weight="normal">bytecode</tspan></tspan></text></g></g></g><g class="edgeLabel" transform="translate(288.3203125, 163.5)"><g class="label" data-id="L_T2_GIL_0" transform="translate(0.5, -10.5)"><g><rect class="background" style="" x="-21.2265625" y="0" width="41.453125" height="21"/><text y="-10.1" text-anchor="middle" style=""><tspan class="text-outer-tspan row" x="0" y="-0.1em" dy="1.1em" text-anchor="middle"><tspan font-style="normal" class="text-inner-tspan" font-weight="normal">waits</tspan></tspan></text></g></g></g><g class="edgeLabel" transform="translate(288.3203125, 260.5)"><g class="label" data-id="L_T3_GIL_0" transform="translate(0.5, -10.5)"><g><rect class="background" style="" x="-21.2265625" y="0" width="41.453125" height="21"/><text y="-10.1" text-anchor="middle" style=""><tspan class="text-outer-tspan row" x="0" y="-0.1em" dy="1.1em" text-anchor="middle"><tspan font-style="normal" class="text-inner-tspan" font-weight="normal">waits</tspan></tspan></text></g></g></g><g class="edgeLabel"><g class="label" data-id="L_GIL_HEAP_0" transform="translate(0, 0)"><text y="-10.1" text-anchor="middle"><tspan class="text-outer-tspan row" x="0" y="-0.1em" dy="1.1em" text-anchor="middle"/></text></g></g><g><rect class="background" style="stroke: none"/></g></g><g class="nodes"><g class="node default" id="my-svg-flowchart-GIL-3" data-look="classic" transform="translate(467.3687515258789, 163.5)"><polygon points="12.399999618530273,0 108.35312461853027,0 120.75312423706055,-24.799999237060547 108.35312461853027,-49.599998474121094 12.399999618530273,-49.599998474121094 0,-24.799999237060547" class="label-container" transform="translate(-60.37656211853027,24.799999237060547)"/><g class="label" style="" transform="translate(0, -17.299999237060547)"><rect/><g><rect class="background" style="stroke: none"/><text y="-10.1" style=""><tspan class="text-outer-tspan row" x="0" y="-0.1em" dy="1.1em"><tspan font-style="normal" class="text-inner-tspan" font-weight="normal">the</tspan><tspan font-style="normal" class="text-inner-tspan" font-weight="normal"> GIL</tspan></tspan><tspan class="text-outer-tspan row" x="0" y="1em" dy="1.1em"><tspan font-style="normal" class="text-inner-tspan" font-weight="normal">(one</tspan><tspan font-style="normal" class="text-inner-tspan" font-weight="normal"> token)</tspan></tspan></text></g></g></g><g class="node default" id="my-svg-flowchart-T1-4" data-look="classic" transform="translate(107.57421875, 66.5)"><rect class="basic label-container" style="" x="-62.07421875" y="-23.5" width="124.1484375" height="47"/><g class="label" style="" transform="translate(0, -8.5)"><rect/><g><rect class="background" style="stroke: none"/><text y="-10.1" style=""><tspan class="text-outer-tspan row" x="0" y="-0.1em" dy="1.1em"><tspan font-style="normal" class="text-inner-tspan" font-weight="normal">Thread</tspan><tspan font-style="normal" class="text-inner-tspan" font-weight="normal"> 1</tspan></tspan></text></g></g></g><g class="node default" id="my-svg-flowchart-T2-6" data-look="classic" transform="translate(107.57421875, 163.5)"><rect class="basic label-container" style="" x="-62.07421875" y="-23.5" width="124.1484375" height="47"/><g class="label" style="" transform="translate(0, -8.5)"><rect/><g><rect class="background" style="stroke: none"/><text y="-10.1" style=""><tspan class="text-outer-tspan row" x="0" y="-0.1em" dy="1.1em"><tspan font-style="normal" class="text-inner-tspan" font-weight="normal">Thread</tspan><tspan font-style="normal" class="text-inner-tspan" font-weight="normal"> 2</tspan></tspan></text></g></g></g><g class="node default" id="my-svg-flowchart-T3-8" data-look="classic" transform="translate(107.57421875, 260.5)"><rect class="basic label-container" style="" x="-62.07421875" y="-23.5" width="124.1484375" height="47"/><g class="label" style="" transform="translate(0, -8.5)"><rect/><g><rect class="background" style="stroke: none"/><text y="-10.1" style=""><tspan class="text-outer-tspan row" x="0" y="-0.1em" dy="1.1em"><tspan font-style="normal" class="text-inner-tspan" font-weight="normal">Thread</tspan><tspan font-style="normal" class="text-inner-tspan" font-weight="normal"> 3</tspan></tspan></text></g></g></g><g class="node default" id="my-svg-flowchart-HEAP-10" data-look="classic" transform="translate(672.9484405517578, 163.5)"><path d="M0,13.22559755092429 a70.203125,13.22559755092429 0,0,0 140.40625,0 a70.203125,13.22559755092429 0,0,0 -140.40625,0 l0,62.825596025045385 a70.203125,13.22559755092429 0,0,0 140.40625,0 l0,-62.825596025045385" class="basic label-container outer-path" style="" transform="translate(-70.203125, -44.638395563446984)"/><g class="label" style="" transform="translate(0, -9.299999237060547)"><rect/><g><rect class="background" style="stroke: none"/><text y="-10.1" style=""><tspan class="text-outer-tspan row" x="0" y="-0.1em" dy="1.1em"><tspan font-style="normal" class="text-inner-tspan" font-weight="normal">one</tspan><tspan font-style="normal" class="text-inner-tspan" font-weight="normal"> shared</tspan><tspan font-style="normal" class="text-inner-tspan" font-weight="normal"> heap</tspan></tspan><tspan class="text-outer-tspan row" x="0" y="1em" dy="1.1em"><tspan font-style="normal" class="text-inner-tspan" font-weight="normal">refcounts,</tspan><tspan font-style="normal" class="text-inner-tspan" font-weight="normal"> objects</tspan></tspan></text></g></g></g></g></g><g class="root" transform="translate(1431.0924682617188, 0)"><g class="clusters"><g class="cluster" id="my-svg-PROC" data-look="classic"><rect style="" x="-5.34765625" y="8" width="305.015625" height="416.59999084472656"/><g class="cluster-label" transform="translate(-1.34765625, 8)"><g><rect class="background" style="stroke: none"/><text y="-10.1" style=""><tspan class="text-outer-tspan row" x="0" y="-0.1em" dy="1.1em"><tspan font-style="normal" class="text-inner-tspan" font-weight="normal">PROCESSES</tspan><tspan font-style="normal" class="text-inner-tspan" font-weight="normal"> —</tspan><tspan font-style="normal" class="text-inner-tspan" font-weight="normal"> true</tspan><tspan font-style="normal" class="text-inner-tspan" font-weight="normal"> parallelism,</tspan><tspan font-style="normal" class="text-inner-tspan" font-weight="normal"> isolated</tspan></tspan></text></g></g></g></g><g class="edgePaths"/><g class="edgeLabels"/><g class="nodes"><g class="node default" id="my-svg-flowchart-P1-0" data-look="classic" transform="translate(147.16015625, 84.0999984741211)"><rect class="basic label-container" style="" x="-101.66015625" y="-41.099998474121094" width="203.3203125" height="82.19999694824219"/><g class="label" style="" transform="translate(0, -26.099998474121094)"><rect/><g><rect class="background" style="stroke: none"/><text y="-10.1" style=""><tspan class="text-outer-tspan row" x="0" y="-0.1em" dy="1.1em"><tspan font-style="normal" class="text-inner-tspan" font-weight="normal">Process</tspan><tspan font-style="normal" class="text-inner-tspan" font-weight="normal"> 1</tspan></tspan><tspan class="text-outer-tspan row" x="0" y="1em" dy="1.1em"><tspan font-style="normal" class="text-inner-tspan" font-weight="normal">own</tspan><tspan font-style="normal" class="text-inner-tspan" font-weight="normal"> heap</tspan><tspan font-style="normal" class="text-inner-tspan" font-weight="normal"> ·</tspan><tspan font-style="normal" class="text-inner-tspan" font-weight="normal"> own</tspan><tspan font-style="normal" class="text-inner-tspan" font-weight="normal"> GIL</tspan></tspan><tspan class="text-outer-tspan row" x="0" y="2.1em" dy="1.1em"><tspan font-style="normal" class="text-inner-tspan" font-weight="normal">core</tspan><tspan font-style="normal" class="text-inner-tspan" font-weight="normal"> 0</tspan></tspan></text></g></g></g><g class="node default" id="my-svg-flowchart-P2-1" data-look="classic" transform="translate(147.16015625, 216.29999542236328)"><rect class="basic label-container" style="" x="-101.66015625" y="-41.099998474121094" width="203.3203125" height="82.19999694824219"/><g class="label" style="" transform="translate(0, -26.099998474121094)"><rect/><g><rect class="background" style="stroke: none"/><text y="-10.1" style=""><tspan class="text-outer-tspan row" x="0" y="-0.1em" dy="1.1em"><tspan font-style="normal" class="text-inner-tspan" font-weight="normal">Process</tspan><tspan font-style="normal" class="text-inner-tspan" font-weight="normal"> 2</tspan></tspan><tspan class="text-outer-tspan row" x="0" y="1em" dy="1.1em"><tspan font-style="normal" class="text-inner-tspan" font-weight="normal">own</tspan><tspan font-style="normal" class="text-inner-tspan" font-weight="normal"> heap</tspan><tspan font-style="normal" class="text-inner-tspan" font-weight="normal"> ·</tspan><tspan font-style="normal" class="text-inner-tspan" font-weight="normal"> own</tspan><tspan font-style="normal" class="text-inner-tspan" font-weight="normal"> GIL</tspan></tspan><tspan class="text-outer-tspan row" x="0" y="2.1em" dy="1.1em"><tspan font-style="normal" class="text-inner-tspan" font-weight="normal">core</tspan><tspan font-style="normal" class="text-inner-tspan" font-weight="normal"> 1</tspan></tspan></text></g></g></g><g class="node default" id="my-svg-flowchart-P3-2" data-look="classic" transform="translate(147.16015625, 348.49999237060547)"><rect class="basic label-container" style="" x="-101.66015625" y="-41.099998474121094" width="203.3203125" height="82.19999694824219"/><g class="label" style="" transform="translate(0, -26.099998474121094)"><rect/><g><rect class="background" style="stroke: none"/><text y="-10.1" style=""><tspan class="text-outer-tspan row" x="0" y="-0.1em" dy="1.1em"><tspan font-style="normal" class="text-inner-tspan" font-weight="normal">Process</tspan><tspan font-style="normal" class="text-inner-tspan" font-weight="normal"> 3</tspan></tspan><tspan class="text-outer-tspan row" x="0" y="1em" dy="1.1em"><tspan font-style="normal" class="text-inner-tspan" font-weight="normal">own</tspan><tspan font-style="normal" class="text-inner-tspan" font-weight="normal"> heap</tspan><tspan font-style="normal" class="text-inner-tspan" font-weight="normal"> ·</tspan><tspan font-style="normal" class="text-inner-tspan" font-weight="normal"> own</tspan><tspan font-style="normal" class="text-inner-tspan" font-weight="normal"> GIL</tspan></tspan><tspan class="text-outer-tspan row" x="0" y="2.1em" dy="1.1em"><tspan font-style="normal" class="text-inner-tspan" font-weight="normal">core</tspan><tspan font-style="normal" class="text-inner-tspan" font-weight="normal"> 2</tspan></tspan></text></g></g></g></g></g></g></g></g><defs><filter id="my-svg-drop-shadow" height="130%" width="130%"><feDropShadow dx="4" dy="4" stdDeviation="0" flood-opacity="0.06" flood-color="#000000"/></filter></defs><defs><filter id="my-svg-drop-shadow-small" height="150%" width="150%"><feDropShadow dx="2" dy="2" stdDeviation="0" flood-opacity="0.06" flood-color="#000000"/></filter></defs></svg>