<svg id="my-svg" width="100%" xmlns="http://www.w3.org/2000/svg" xmlns:xlink="http://www.w3.org/1999/xlink" class="flowchart" style="max-width: 1738.76px; background-color: transparent;" viewBox="0 0 1738.760498046875 432.5999755859375" role="graphics-document document" aria-roledescription="flowchart-v2"><style>#my-svg{font-family:"trebuchet ms",verdana,arial,sans-serif;font-size:16px;fill:#333;}@keyframes edge-animation-frame{from{stroke-dashoffset:0;}}@keyframes dash{to{stroke-dashoffset:0;}}#my-svg .edge-animation-slow{stroke-dasharray:9,5!important;stroke-dashoffset:900;animation:dash 50s linear infinite;stroke-linecap:round;}#my-svg .edge-animation-fast{stroke-dasharray:9,5!important;stroke-dashoffset:900;animation:dash 20s linear infinite;stroke-linecap:round;}#my-svg .error-icon{fill:#552222;}#my-svg .error-text{fill:#552222;stroke:#552222;}#my-svg .edge-thickness-normal{stroke-width:1px;}#my-svg .edge-thickness-thick{stroke-width:3.5px;}#my-svg .edge-pattern-solid{stroke-dasharray:0;}#my-svg .edge-thickness-invisible{stroke-width:0;fill:none;}#my-svg .edge-pattern-dashed{stroke-dasharray:3;}#my-svg .edge-pattern-dotted{stroke-dasharray:2;}#my-svg .marker{fill:#333333;stroke:#333333;}#my-svg .marker.cross{stroke:#333333;}#my-svg svg{font-family:"trebuchet ms",verdana,arial,sans-serif;font-size:16px;}#my-svg p{margin:0;}#my-svg .label{font-family:"trebuchet ms",verdana,arial,sans-serif;color:#333;}#my-svg .cluster-label text{fill:#333;}#my-svg .cluster-label span{color:#333;}#my-svg .cluster-label span p{background-color:transparent;}#my-svg .label text,#my-svg span{fill:#333;color:#333;}#my-svg .node rect,#my-svg .node circle,#my-svg .node ellipse,#my-svg .node polygon,#my-svg .node path{fill:#ECECFF;stroke:#9370DB;stroke-width:1px;}#my-svg .rough-node .label text,#my-svg .node .label text,#my-svg .image-shape .label,#my-svg .icon-shape .label{text-anchor:middle;}#my-svg .node .katex path{fill:#000;stroke:#000;stroke-width:1px;}#my-svg .rough-node .label,#my-svg .node .label,#my-svg .image-shape .label,#my-svg .icon-shape .label{text-align:center;}#my-svg .node.clickable{cursor:pointer;}#my-svg .root .anchor path{fill:#333333!important;stroke-width:0;stroke:#333333;}#my-svg .arrowheadPath{fill:#333333;}#my-svg .edgePath .path{stroke:#333333;stroke-width:1px;}#my-svg .flowchart-link{stroke:#333333;fill:none;}#my-svg .edgeLabel{background-color:rgba(232,232,232, 0.8);text-align:center;}#my-svg .edgeLabel p{background-color:rgba(232,232,232, 0.8);}#my-svg .edgeLabel rect{opacity:0.5;background-color:rgba(232,232,232, 0.8);fill:rgba(232,232,232, 0.8);}#my-svg .labelBkg{background-color:rgba(232, 232, 232, 0.5);}#my-svg .cluster rect{fill:#ffffde;stroke:#aaaa33;stroke-width:1px;}#my-svg .cluster text{fill:#333;}#my-svg .cluster span{color:#333;}#my-svg div.mermaidTooltip{position:absolute;text-align:center;max-width:200px;padding:2px;font-family:"trebuchet ms",verdana,arial,sans-serif;font-size:12px;background:hsl(80, 100%, 96.2745098039%);border:1px solid #aaaa33;border-radius:2px;pointer-events:none;z-index:100;}#my-svg .flowchartTitleText{text-anchor:middle;font-size:18px;fill:#333;}#my-svg rect.text{fill:none;stroke-width:0;}#my-svg .icon-shape,#my-svg .image-shape{background-color:rgba(232,232,232, 0.8);text-align:center;}#my-svg .icon-shape p,#my-svg .image-shape p{background-color:rgba(232,232,232, 0.8);padding:2px;}#my-svg .icon-shape .label rect,#my-svg .image-shape .label rect{opacity:0.5;background-color:rgba(232,232,232, 0.8);fill:rgba(232,232,232, 0.8);}#my-svg .label-icon{display:inline-block;height:1em;overflow:visible;vertical-align:-0.125em;}#my-svg .node .label-icon path{fill:currentColor;stroke:revert;stroke-width:revert;}#my-svg .node .neo-node{stroke:#9370DB;}#my-svg [data-look="neo"].node rect,#my-svg [data-look="neo"].cluster rect,#my-svg [data-look="neo"].node polygon{stroke:#9370DB;filter:drop-shadow(1px 2px 2px rgba(185, 185, 185, 1));}#my-svg [data-look="neo"].node path{stroke:#9370DB;stroke-width:1px;}#my-svg [data-look="neo"].node .outer-path{filter:drop-shadow(1px 2px 2px rgba(185, 185, 185, 1));}#my-svg [data-look="neo"].node .neo-line path{stroke:#9370DB;filter:none;}#my-svg [data-look="neo"].node circle{stroke:#9370DB;filter:drop-shadow(1px 2px 2px rgba(185, 185, 185, 1));}#my-svg [data-look="neo"].node circle .state-start{fill:#000000;}#my-svg [data-look="neo"].icon-shape .icon{fill:#9370DB;filter:drop-shadow(1px 2px 2px rgba(185, 185, 185, 1));}#my-svg [data-look="neo"].icon-shape .icon-neo path{stroke:#9370DB;filter:drop-shadow(1px 2px 2px rgba(185, 185, 185, 1));}#my-svg :root{--mermaid-font-family:"trebuchet ms",verdana,arial,sans-serif;}</style><g><marker id="my-svg_flowchart-v2-pointEnd" class="marker flowchart-v2" viewBox="0 0 10 10" refX="5" refY="5" markerUnits="userSpaceOnUse" markerWidth="8" markerHeight="8" orient="auto"><path d="M 0 0 L 10 5 L 0 10 z" class="arrowMarkerPath" style="stroke-width: 1; stroke-dasharray: 1, 0;"/></marker><marker id="my-svg_flowchart-v2-pointStart" class="marker flowchart-v2" viewBox="0 0 10 10" refX="4.5" refY="5" markerUnits="userSpaceOnUse" markerWidth="8" markerHeight="8" orient="auto"><path d="M 0 5 L 10 10 L 10 0 z" class="arrowMarkerPath" style="stroke-width: 1; stroke-dasharray: 1, 0;"/></marker><marker id="my-svg_flowchart-v2-pointEnd-margin" class="marker flowchart-v2" viewBox="0 0 11.5 14" refX="11.5" refY="7" markerUnits="userSpaceOnUse" markerWidth="10.5" markerHeight="14" orient="auto"><path d="M 0 0 L 11.5 7 L 0 14 z" class="arrowMarkerPath" style="stroke-width: 0; stroke-dasharray: 1, 0;"/></marker><marker id="my-svg_flowchart-v2-pointStart-margin" class="marker flowchart-v2" viewBox="0 0 11.5 14" refX="1" refY="7" markerUnits="userSpaceOnUse" markerWidth="11.5" markerHeight="14" orient="auto"><polygon points="0,7 11.5,14 11.5,0" class="arrowMarkerPath" style="stroke-width: 0; stroke-dasharray: 1, 0;"/></marker><marker id="my-svg_flowchart-v2-circleEnd" class="marker flowchart-v2" viewBox="0 0 10 10" refX="11" refY="5" markerUnits="userSpaceOnUse" markerWidth="11" markerHeight="11" orient="auto"><circle cx="5" cy="5" r="5" class="arrowMarkerPath" style="stroke-width: 1; stroke-dasharray: 1, 0;"/></marker><marker id="my-svg_flowchart-v2-circleStart" class="marker flowchart-v2" viewBox="0 0 10 10" refX="-1" refY="5" markerUnits="userSpaceOnUse" markerWidth="11" markerHeight="11" orient="auto"><circle cx="5" cy="5" r="5" class="arrowMarkerPath" style="stroke-width: 1; stroke-dasharray: 1, 0;"/></marker><marker id="my-svg_flowchart-v2-circleEnd-margin" class="marker flowchart-v2" viewBox="0 0 10 10" refY="5" refX="12.25" markerUnits="userSpaceOnUse" markerWidth="14" markerHeight="14" orient="auto"><circle cx="5" cy="5" r="5" class="arrowMarkerPath" style="stroke-width: 0; stroke-dasharray: 1, 0;"/></marker><marker id="my-svg_flowchart-v2-circleStart-margin" class="marker flowchart-v2" viewBox="0 0 10 10" refX="-2" refY="5" markerUnits="userSpaceOnUse" markerWidth="14" markerHeight="14" orient="auto"><circle cx="5" cy="5" r="5" class="arrowMarkerPath" style="stroke-width: 0; stroke-dasharray: 1, 0;"/></marker><marker id="my-svg_flowchart-v2-crossEnd" class="marker cross flowchart-v2" viewBox="0 0 11 11" refX="12" refY="5.2" markerUnits="userSpaceOnUse" markerWidth="11" markerHeight="11" orient="auto"><path d="M 1,1 l 9,9 M 10,1 l -9,9" class="arrowMarkerPath" style="stroke-width: 2; stroke-dasharray: 1, 0;"/></marker><marker id="my-svg_flowchart-v2-crossStart" class="marker cross flowchart-v2" viewBox="0 0 11 11" refX="-1" refY="5.2" markerUnits="userSpaceOnUse" markerWidth="11" markerHeight="11" orient="auto"><path d="M 1,1 l 9,9 M 10,1 l -9,9" class="arrowMarkerPath" style="stroke-width: 2; stroke-dasharray: 1, 0;"/></marker><marker id="my-svg_flowchart-v2-crossEnd-margin" class="marker cross flowchart-v2" viewBox="0 0 15 15" refX="17.7" refY="7.5" markerUnits="userSpaceOnUse" markerWidth="12" markerHeight="12" orient="auto"><path d="M 1,1 L 14,14 M 1,14 L 14,1" class="arrowMarkerPath" style="stroke-width: 2.5;"/></marker><marker id="my-svg_flowchart-v2-crossStart-margin" class="marker cross flowchart-v2" viewBox="0 0 15 15" refX="-3.5" refY="7.5" markerUnits="userSpaceOnUse" markerWidth="12" markerHeight="12" orient="auto"><path d="M 1,1 L 14,14 M 1,14 L 14,1" class="arrowMarkerPath" style="stroke-width: 2.5; stroke-dasharray: 1, 0;"/></marker><g class="root"><g class="clusters"/><g class="edgePaths"/><g class="edgeLabels"/><g class="nodes"><g class="root" transform="translate(0, 26.399993896484375)"><g class="clusters"><g class="cluster" id="my-svg-ASYNC" data-look="classic"><rect style="" x="8" y="8" width="545.09326171875" height="363.7999954223633"/><g class="cluster-label" transform="translate(120.843505859375, 8)"><g><rect class="background" style="stroke: none"/><text y="-10.1" style=""><tspan class="text-outer-tspan row" x="0" y="-0.1em" dy="1.1em"><tspan font-style="normal" class="text-inner-tspan" font-weight="normal">ASYNC</tspan><tspan font-style="normal" class="text-inner-tspan" font-weight="normal"> —</tspan><tspan font-style="normal" class="text-inner-tspan" font-weight="normal"> one</tspan><tspan font-style="normal" class="text-inner-tspan" font-weight="normal"> thread,</tspan><tspan font-style="normal" class="text-inner-tspan" font-weight="normal"> one</tspan><tspan font-style="normal" class="text-inner-tspan" font-weight="normal"> core,</tspan><tspan font-style="normal" class="text-inner-tspan" font-weight="normal"> cooperative</tspan></tspan></text></g></g></g></g><g class="edgePaths"><path d="M224.672,75.3L230.922,75.3C237.172,75.3,249.672,75.3,274.479,89.937C299.286,104.574,336.4,133.849,354.957,148.486L373.514,163.123" id="my-svg-L_CO1_LOOP_0" class="edge-thickness-normal edge-pattern-solid edge-thickness-normal edge-pattern-solid flowchart-link" style=";" data-edge="true" data-et="edge" data-id="L_CO1_LOOP_0" data-points="W3sieCI6MjI0LjY3MTg3NSwieSI6NzUuMjk5OTk5MjM3MDYwNTV9LHsieCI6MjYyLjE3MTg3NSwieSI6NzUuMjk5OTk5MjM3MDYwNTV9LHsieCI6Mzc2LjY1NDE2NDA2Mjk3ODUsInkiOjE2NS41OTk5OTg0NzQxMjEwN31d" data-look="classic" marker-end="url(#my-svg_flowchart-v2-pointEnd)"/><path d="M205.563,189.9L214.997,189.9C224.432,189.9,243.302,189.9,258.404,189.975C273.505,190.049,284.839,190.198,290.505,190.273L296.172,190.347" id="my-svg-L_CO2_LOOP_0" class="edge-thickness-normal edge-pattern-solid edge-thickness-normal edge-pattern-solid flowchart-link" style=";" data-edge="true" data-et="edge" data-id="L_CO2_LOOP_0" data-points="W3sieCI6MjA1LjU2MjUsInkiOjE4OS44OTk5OTc3MTExODE2NH0seyJ4IjoyNjIuMTcxODc1LCJ5IjoxODkuODk5OTk3NzExMTgxNjR9LHsieCI6MzAwLjE3MTg3NTAwMDAwMTI1LCJ5IjoxOTAuMzk5OTk3NzExMTgxNjR9XQ==" data-look="classic" marker-end="url(#my-svg_flowchart-v2-pointEnd)"/><path d="M224.672,304.5L230.922,304.5C237.172,304.5,249.672,304.5,274.477,290.027C299.281,275.553,336.391,246.607,354.945,232.133L373.5,217.66" id="my-svg-L_CO3_LOOP_0" class="edge-thickness-normal edge-pattern-solid edge-thickness-normal edge-pattern-solid flowchart-link" style=";" data-edge="true" data-et="edge" data-id="L_CO3_LOOP_0" data-points="W3sieCI6MjI0LjY3MTg3NSwieSI6MzA0LjQ5OTk5NjE4NTMwMjczfSx7IngiOjI2Mi4xNzE4NzUsInkiOjMwNC40OTk5OTYxODUzMDI3M30seyJ4IjozNzYuNjU0MTY0MDYyOTc4NiwieSI6MjE1LjE5OTk5Njk0ODI0MjJ9XQ==" data-look="classic" marker-end="url(#my-svg_flowchart-v2-pointEnd)"/></g><g class="edgeLabels"><g class="edgeLabel"><g class="label" data-id="L_CO1_LOOP_0" transform="translate(0, 0)"><text y="-10.1" text-anchor="middle"><tspan class="text-outer-tspan row" x="0" y="-0.1em" dy="1.1em" text-anchor="middle"/></text></g></g><g><rect class="background" style="stroke: none"/></g><g class="edgeLabel"><g class="label" data-id="L_CO2_LOOP_0" transform="translate(0, 0)"><text y="-10.1" text-anchor="middle"><tspan class="text-outer-tspan row" x="0" y="-0.1em" dy="1.1em" text-anchor="middle"/></text></g></g><g><rect class="background" style="stroke: none"/></g><g class="edgeLabel"><g class="label" data-id="L_CO3_LOOP_0" transform="translate(0, 0)"><text y="-10.1" text-anchor="middle"><tspan class="text-outer-tspan row" x="0" y="-0.1em" dy="1.1em" text-anchor="middle"/></text></g></g><g><rect class="background" style="stroke: none"/></g></g><g class="nodes"><g class="node default" id="my-svg-flowchart-LOOP-13" data-look="classic" transform="translate(407.632568359375, 189.89999771118164)"><g class="basic label-container outer-path"><path d="M-83.17343807220459 -24.799999237060547 C-39.08514899054659 -24.799999237060547, 5.003140091111405 -24.799999237060547, 83.17343807220459 -24.799999237060547 C83.17343807220459 -24.799999237060547, 83.17343807220459 -24.799999237060547, 83.17343807220459 -24.799999237060547 C83.51758113714564 -24.788963238801728, 83.86172420208669 -24.77792724054291, 84.76237947884457 -24.74904497883643 C85.32000362056992 -24.695251648525335, 85.87762776229528 -24.641458318214237, 86.3447915844178 -24.596391586140776 C86.78794801608785 -24.524745490997816, 87.2311044477579 -24.45309939585486, 87.91417191815616 -24.342666344508217 C88.33891658074938 -24.245721146989265, 88.76366124334263 -24.148775949470313, 89.46407155963728 -23.988911865380516 C90.0248900108809 -23.822463892847534, 90.58570846212451 -23.656015920314548, 90.98812163878189 -23.536581801792508 C91.32763159311342 -23.411639000202893, 91.66714154744496 -23.286696198613274, 92.48005950690707 -22.987534874999977 C92.92426635887202 -22.790897678563176, 93.36847321083698 -22.59426048212638, 93.93375447129301 -22.3440272365953 C94.4780278170582 -22.060080180733316, 95.0223011628234 -21.77613312487133, 95.34323298751445 -21.608703197496645 C95.85485093874345 -21.298557388860818, 96.36646888997245 -20.988411580224987, 96.7027032060161 -20.784584361907168 C97.13684723641332 -20.481744280094237, 97.57099126681055 -20.178904198281305, 98.00657877206463 -19.875057210895253 C98.46333124242713 -19.510809270474862, 98.92008371278963 -19.146561330054467, 99.24950178127872 -18.883859186617375 C99.55439842892727 -18.606960118346198, 99.85929507657582 -18.33006105007502, 100.42636479640738 -17.815063334366585 C100.71306628466688 -17.519020509108717, 100.99976777292638 -17.222977683850846, 101.53233183488513 -16.673061565555788 C101.79592602042695 -16.3634288362843, 102.05952020596878 -16.05379610701281, 102.56285824092164 -15.462546610411625 C102.82932159537212 -15.10550999075897, 103.09578494982259 -14.748473371106313, 103.51370936046732 -14.188492734539441 C103.69937002572615 -13.903268095832615, 103.885030690985 -13.618043457125788, 104.38097794231501 -12.85613529859888 C104.53813495522537 -12.577087108303333, 104.69529196813575 -12.298038918007785, 105.1611001938334 -11.470949245084004 C105.3901245230298 -10.995375325172077, 105.61914885222617 -10.51980140526015, 105.85087042535527 -10.03862660061019 C106.02624550120831 -9.60544677260677, 106.20162057706133 -9.172266944603352, 106.44745422304406 -8.565053086155816 C106.57412377386146 -8.183544581145973, 106.70079332467884 -7.802036076136131, 106.94840009610824 -7.05628393137229 C107.05810422191857 -6.637934553588669, 107.16780834772888 -6.219585175805046, 107.35164955050286 -5.5185189923466 C107.41414502524925 -5.197617937947091, 107.47664049999565 -4.876716883547582, 107.65554554772302 -3.9580772750627573 C107.71778143942434 -3.4753879888941834, 107.78001733112566 -2.9926987027256096, 107.8588393139307 -2.3813709692507574 C107.89449632761678 -1.8259841992667676, 107.93015334130286 -1.2705974292827777, 107.96069547143418 -0.794879099323635 C107.96069547143418 -0.47164160493778523, 107.96069547143418 -0.14840411055193548, 107.96069547143418 0.794879099323629 C107.93542372482034 1.1885069518209206, 107.9101519782065 1.5821348043182124, 107.8588393139307 2.3813709692507405 C107.80949171888942 2.7641011716060584, 107.76014412384815 3.1468313739613767, 107.65554554772302 3.95807727506274 C107.56523929971905 4.421780772330868, 107.47493305171508 4.885484269598995, 107.35164955050286 5.5185189923465945 C107.20772975428201 6.067347550570895, 107.06380995806117 6.616176108795196, 106.94840009610824 7.056283931372274 C106.78692696958234 7.542615261219421, 106.62545384305643 8.028946591066568, 106.44745422304406 8.565053086155798 C106.32601922710181 8.86499987391911, 106.20458423115954 9.164946661682425, 105.85087042535528 10.038626600610183 C105.58530293927595 10.590083167687844, 105.31973545319661 11.141539734765505, 105.1611001938334 11.470949245083998 C104.8868213009845 11.957959193086824, 104.61254240813558 12.444969141089649, 104.38097794231503 12.856135298598875 C104.04038990811664 13.379369979820492, 103.69980187391825 13.902604661042108, 103.51370936046733 14.188492734539427 C103.31446742421493 14.455458777803843, 103.11522548796253 14.722424821068259, 102.56285824092166 15.46254661041162 C102.20961242807866 15.877489242433173, 101.85636661523564 16.292431874454724, 101.53233183488513 16.673061565555773 C101.27689184491685 16.93682432721123, 101.02145185494857 17.200587088866687, 100.4263647964074 17.815063334366577 C100.08346871327741 18.126472484532023, 99.74057263014744 18.437881634697472, 99.24950178127874 18.883859186617357 C98.96146402048211 19.11356163584594, 98.6734262596855 19.34326408507452, 98.00657877206463 19.87505721089525 C97.67394020836964 20.107091473237535, 97.34130164467464 20.33912573557982, 96.70270320601611 20.78458436190716 C96.2348055048814 21.06822669800713, 95.76690780374666 21.3518690341071, 95.34323298751447 21.60870319749664 C94.97516881467048 21.800722040712994, 94.6071046418265 21.992740883929343, 93.93375447129301 22.344027236595295 C93.40759812291418 22.57694104414908, 92.88144177453535 22.809854851702866, 92.48005950690708 22.987534874999973 C91.96853714317653 23.17577983331371, 91.45701477944597 23.36402479162745, 90.9881216387819 23.536581801792504 C90.55911397418433 23.66390902473788, 90.13010630958675 23.79123624768326, 89.4640715596373 23.988911865380512 C88.90272215449231 24.11703620395765, 88.3413727493473 24.24516054253479, 87.91417191815617 24.342666344508213 C87.47145807222591 24.414240885821066, 87.02874422629567 24.485815427133918, 86.34479158441782 24.596391586140772 C85.77028118942307 24.651813912996076, 85.19577079442831 24.70723623985138, 84.76237947884457 24.74904497883643 C84.38876367564015 24.76102611044615, 84.01514787243575 24.773007242055872, 83.17343807220459 24.799999237060547 C83.17343807220459 24.799999237060547, 83.17343807220459 24.799999237060547, 83.17343807220459 24.799999237060547 C35.29822816547994 24.799999237060547, -12.576981741244708 24.799999237060547, -83.17343807220459 24.799999237060547 C-83.70646084393363 24.782906234237082, -84.23948361566266 24.76581323141362, -84.76237947884457 24.74904497883643 C-85.22368868865063 24.704543034171934, -85.68499789845667 24.66004108950744, -86.3447915844178 24.596391586140772 C-86.7767984739308 24.526548062507775, -87.20880536344379 24.45670453887478, -87.91417191815616 24.342666344508213 C-88.26558603570413 24.262458365369316, -88.61700015325212 24.182250386230415, -89.46407155963728 23.988911865380516 C-89.9627478511737 23.840907359657773, -90.46142414271014 23.69290285393503, -90.98812163878188 23.536581801792515 C-91.35528359312013 23.401462808588136, -91.72244554745839 23.266343815383756, -92.48005950690707 22.987534874999977 C-92.7780295752395 22.855632364717238, -93.07599964357193 22.723729854434495, -93.933754471293 22.344027236595302 C-94.2804096488845 22.163177452489055, -94.627064826476 21.98232766838281, -95.34323298751445 21.60870319749665 C-95.7444582267374 21.36547809961848, -96.14568346596033 21.12225300174031, -96.70270320601608 20.78458436190718 C-97.15678126131048 20.46783916725601, -97.61085931660487 20.151093972604844, -98.00657877206463 19.875057210895257 C-98.38177604853402 19.575847367329768, -98.7569733250034 19.276637523764276, -99.24950178127872 18.883859186617375 C-99.55219810914242 18.608958390557515, -99.85489443700614 18.334057594497658, -100.42636479640737 17.815063334366595 C-100.65297402162858 17.581070704362297, -100.87958324684979 17.347078074358002, -101.53233183488513 16.673061565555784 C-101.86278557570826 16.28489179823441, -102.19323931653139 15.89672203091303, -102.56285824092164 15.462546610411627 C-102.85968651273903 15.064823767788187, -103.15651478455642 14.667100925164746, -103.51370936046732 14.188492734539444 C-103.77500914827223 13.787066091653513, -104.03630893607715 13.38563944876758, -104.38097794231501 12.856135298598893 C-104.58239504436703 12.498498838212308, -104.78381214641905 12.140862377825723, -105.16110019383339 11.470949245084007 C-105.35545098360356 11.067375671685515, -105.54980177337374 10.66380209828702, -105.85087042535527 10.038626600610193 C-105.999118959263 9.672449855667695, -106.14736749317072 9.306273110725195, -106.44745422304406 8.565053086155817 C-106.6058371779912 8.088028860751926, -106.76422013293835 7.611004635348034, -106.94840009610824 7.056283931372283 C-107.03351378332843 6.731708553496332, -107.11862747054862 6.40713317562038, -107.35164955050284 5.518518992346603 C-107.45747992919704 4.975102365010381, -107.56331030789123 4.431685737674158, -107.65554554772302 3.95807727506276 C-107.70294046402547 3.5904916634057127, -107.75033538032794 3.222906051748665, -107.8588393139307 2.381370969250771 C-107.88067030140886 2.0413357176226525, -107.90250128888701 1.701300465994534, -107.96069547143418 0.7948790993236381 C-107.96069547143418 0.19131208115634224, -107.96069547143418 -0.4122549370109536, -107.96069547143418 -0.7948790993236261 C-107.93944510195288 -1.1258707569843656, -107.91819473247158 -1.456862414645105, -107.8588393139307 -2.3813709692507374 C-107.77765100235592 -3.0110514813792397, -107.69646269078115 -3.6407319935077416, -107.65554554772302 -3.9580772750627484 C-107.58501725444812 -4.320225154869361, -107.5144889611732 -4.682373034675972, -107.35164955050286 -5.518518992346592 C-107.20507255856499 -6.0774805894758215, -107.05849556662713 -6.636442186605052, -106.94840009610826 -7.056283931372271 C-106.84723365964417 -7.360981119319379, -106.7460672231801 -7.665678307266487, -106.44745422304408 -8.565053086155787 C-106.23878576519665 -9.080468211369116, -106.03011730734922 -9.595883336582443, -105.85087042535528 -10.038626600610181 C-105.66108828501747 -10.43271327570894, -105.47130614467966 -10.826799950807699, -105.1611001938334 -11.470949245083997 C-104.96051101410052 -11.827115645556718, -104.75992183436765 -12.18328204602944, -104.38097794231501 -12.856135298598884 C-104.15908755803099 -13.197018514770138, -103.93719717374697 -13.537901730941389, -103.51370936046732 -14.188492734539436 C-103.19721502074468 -14.612566316540272, -102.88072068102204 -15.036639898541111, -102.56285824092166 -15.46254661041162 C-102.21855954466768 -15.866979450182342, -101.87426084841371 -16.271412289953062, -101.53233183488513 -16.673061565555773 C-101.21345466641405 -17.002328422304583, -100.89457749794298 -17.331595279053392, -100.4263647964074 -17.81506333436657 C-99.99541589461876 -18.206439724687897, -99.56446699283012 -18.597816115009227, -99.24950178127875 -18.883859186617354 C-98.91572027123539 -19.150041058577923, -98.58193876119202 -19.416222930538492, -98.00657877206463 -19.87505721089525 C-97.68365635287726 -20.100313911434128, -97.36073393368991 -20.325570611973006, -96.70270320601611 -20.784584361907157 C-96.19143106319038 -21.09452053945673, -95.68015892036465 -21.4044567170063, -95.34323298751447 -21.608703197496638 C-94.85140233570162 -21.865290933514835, -94.35957168388877 -22.121878669533032, -93.93375447129301 -22.344027236595295 C-93.48981571245444 -22.540545756157744, -93.04587695361587 -22.737064275720194, -92.48005950690708 -22.98753487499997 C-91.9088856323361 -23.197732140715512, -91.33771175776509 -23.407929406431055, -90.9881216387819 -23.536581801792504 C-90.61226753160821 -23.64813332790319, -90.2364134244345 -23.759684854013877, -89.4640715596373 -23.98891186538051 C-89.05819157579921 -24.081551323077132, -88.65231159196111 -24.17419078077376, -87.91417191815617 -24.34266634450821 C-87.3374003860286 -24.43591429289256, -86.76062885390105 -24.52916224127691, -86.34479158441782 -24.596391586140772 C-85.96038375943408 -24.633474946698904, -85.57597593445034 -24.67055830725704, -84.76237947884458 -24.74904497883643 C-84.15352769541386 -24.76856967047295, -83.54467591198315 -24.78809436210947, -83.1734380722046 -24.799999237060547 C-83.1734380722046 -24.799999237060547, -83.17343807220459 -24.799999237060547, -83.17343807220459 -24.799999237060547" stroke="none" stroke-width="0" fill="#ECECFF" style=""/><path d="M-83.17343807220459 -24.799999237060547 C-39.58632672085921 -24.799999237060547, 4.000784630486166 -24.799999237060547, 83.17343807220459 -24.799999237060547 M-83.17343807220459 -24.799999237060547 C-41.531999927543964 -24.799999237060547, 0.10943821711666146 -24.799999237060547, 83.17343807220459 -24.799999237060547 M83.17343807220459 -24.799999237060547 C83.17343807220459 -24.799999237060547, 83.17343807220459 -24.799999237060547, 83.17343807220459 -24.799999237060547 M83.17343807220459 -24.799999237060547 C83.17343807220459 -24.799999237060547, 83.17343807220459 -24.799999237060547, 83.17343807220459 -24.799999237060547 M83.17343807220459 -24.799999237060547 C83.70449987098803 -24.782969118822646, 84.23556166977146 -24.765939000584744, 84.76237947884457 -24.74904497883643 M83.17343807220459 -24.799999237060547 C83.67812032767267 -24.783815059432104, 84.18280258314076 -24.767630881803658, 84.76237947884457 -24.74904497883643 M84.76237947884457 -24.74904497883643 C85.20841318048505 -24.706016644073184, 85.65444688212553 -24.662988309309934, 86.3447915844178 -24.596391586140776 M84.76237947884457 -24.74904497883643 C85.38044466448186 -24.689420973710142, 85.99850985011913 -24.62979696858385, 86.3447915844178 -24.596391586140776 M86.3447915844178 -24.596391586140776 C86.88902992166085 -24.508403352406663, 87.43326825890388 -24.420415118672548, 87.91417191815616 -24.342666344508217 M86.3447915844178 -24.596391586140776 C86.91956808596211 -24.503466178829434, 87.4943445875064 -24.410540771518093, 87.91417191815616 -24.342666344508217 M87.91417191815616 -24.342666344508217 C88.4553013944611 -24.219157072741453, 88.99643087076605 -24.09564780097469, 89.46407155963728 -23.988911865380516 M87.91417191815616 -24.342666344508217 C88.31327668673782 -24.251573285481463, 88.71238145531947 -24.160480226454705, 89.46407155963728 -23.988911865380516 M89.46407155963728 -23.988911865380516 C89.77069499526954 -23.89790763918412, 90.07731843090178 -23.806903412987726, 90.98812163878189 -23.536581801792508 M89.46407155963728 -23.988911865380516 C89.90848443714549 -23.857012456106872, 90.35289731465372 -23.725113046833233, 90.98812163878189 -23.536581801792508 M90.98812163878189 -23.536581801792508 C91.36737053713158 -23.397014701461437, 91.74661943548128 -23.257447601130366, 92.48005950690707 -22.987534874999977 M90.98812163878189 -23.536581801792508 C91.35322743157819 -23.40221949504252, 91.71833322437449 -23.267857188292528, 92.48005950690707 -22.987534874999977 M92.48005950690707 -22.987534874999977 C92.91045414066886 -22.79701193783682, 93.34084877443065 -22.606489000673665, 93.93375447129301 -22.3440272365953 M92.48005950690707 -22.987534874999977 C92.86282035394143 -22.818098002214974, 93.2455812009758 -22.64866112942997, 93.93375447129301 -22.3440272365953 M93.93375447129301 -22.3440272365953 C94.48771259220514 -22.05502763974255, 95.04167071311727 -21.766028042889804, 95.34323298751445 -21.608703197496645 M93.93375447129301 -22.3440272365953 C94.23809504805088 -22.185252952640163, 94.54243562480875 -22.026478668685026, 95.34323298751445 -21.608703197496645 M95.34323298751445 -21.608703197496645 C95.87269045975191 -21.28774296638883, 96.40214793198936 -20.96678273528101, 96.7027032060161 -20.784584361907168 M95.34323298751445 -21.608703197496645 C95.62093621852294 -21.44035786689397, 95.89863944953143 -21.27201253629129, 96.7027032060161 -20.784584361907168 M96.7027032060161 -20.784584361907168 C97.16140263538534 -20.464615496757443, 97.6201020647546 -20.144646631607714, 98.00657877206463 -19.875057210895253 M96.7027032060161 -20.784584361907168 C97.1468881381912 -20.474740181677618, 97.59107307036632 -20.164896001448064, 98.00657877206463 -19.875057210895253 M98.00657877206463 -19.875057210895253 C98.32529474705682 -19.620889702227277, 98.64401072204899 -19.366722193559305, 99.24950178127872 -18.883859186617375 M98.00657877206463 -19.875057210895253 C98.48629180031642 -19.492498836564256, 98.96600482856822 -19.109940462233258, 99.24950178127872 -18.883859186617375 M99.24950178127872 -18.883859186617375 C99.56611384992999 -18.596320482964575, 99.88272591858126 -18.308781779311776, 100.42636479640738 -17.815063334366585 M99.24950178127872 -18.883859186617375 C99.62783548842646 -18.540266523947157, 100.00616919557417 -18.19667386127694, 100.42636479640738 -17.815063334366585 M100.42636479640738 -17.815063334366585 C100.7900034925889 -17.439576525266983, 101.15364218877042 -17.064089716167384, 101.53233183488513 -16.673061565555788 M100.42636479640738 -17.815063334366585 C100.73391134093022 -17.497496277105867, 101.04145788545306 -17.17992921984515, 101.53233183488513 -16.673061565555788 M101.53233183488513 -16.673061565555788 C101.81467244593584 -16.341408218179733, 102.09701305698654 -16.009754870803683, 102.56285824092164 -15.462546610411625 M101.53233183488513 -16.673061565555788 C101.83882579081073 -16.313036324925417, 102.14531974673635 -15.953011084295047, 102.56285824092164 -15.462546610411625 M102.56285824092164 -15.462546610411625 C102.93318590236201 -14.966341281625526, 103.3035135638024 -14.470135952839428, 103.51370936046732 -14.188492734539441 M102.56285824092164 -15.462546610411625 C102.93146635497712 -14.968645318467294, 103.30007446903261 -14.474744026522961, 103.51370936046732 -14.188492734539441 M103.51370936046732 -14.188492734539441 C103.78493458913823 -13.771817949129263, 104.05615981780916 -13.355143163719084, 104.38097794231501 -12.85613529859888 M103.51370936046732 -14.188492734539441 C103.84464518802447 -13.680086434699149, 104.17558101558164 -13.171680134858859, 104.38097794231501 -12.85613529859888 M104.38097794231501 -12.85613529859888 C104.56612863668815 -12.527381492198565, 104.75127933106127 -12.198627685798247, 105.1611001938334 -11.470949245084004 M104.38097794231501 -12.85613529859888 C104.5931271244594 -12.47944294326737, 104.80527630660377 -12.102750587935859, 105.1611001938334 -11.470949245084004 M105.1611001938334 -11.470949245084004 C105.37947504275917 -11.017489198816413, 105.59784989168492 -10.564029152548825, 105.85087042535527 -10.03862660061019 M105.1611001938334 -11.470949245084004 C105.35384925936631 -11.070701686335601, 105.54659832489921 -10.6704541275872, 105.85087042535527 -10.03862660061019 M105.85087042535527 -10.03862660061019 C106.01785175236567 -9.626179494530154, 106.18483307937608 -9.213732388450119, 106.44745422304406 -8.565053086155816 M105.85087042535527 -10.03862660061019 C105.98653960059401 -9.703521114785442, 106.12220877583275 -9.368415628960696, 106.44745422304406 -8.565053086155816 M106.44745422304406 -8.565053086155816 C106.64625115089365 -7.9663084134619, 106.84504807874323 -7.3675637407679835, 106.94840009610824 -7.05628393137229 M106.44745422304406 -8.565053086155816 C106.61485834296724 -8.060858549171565, 106.78226246289042 -7.556664012187314, 106.94840009610824 -7.05628393137229 M106.94840009610824 -7.05628393137229 C107.0402498594109 -6.7060209759600236, 107.13209962271357 -6.355758020547758, 107.35164955050286 -5.5185189923466 M106.94840009610824 -7.05628393137229 C107.0653458955308 -6.61031891354402, 107.18229169495335 -6.164353895715751, 107.35164955050286 -5.5185189923466 M107.35164955050286 -5.5185189923466 C107.46000250649888 -4.962149463712378, 107.56835546249489 -4.405779935078156, 107.65554554772302 -3.9580772750627573 M107.35164955050286 -5.5185189923466 C107.41731256679553 -5.181353281567134, 107.48297558308819 -4.844187570787667, 107.65554554772302 -3.9580772750627573 M107.65554554772302 -3.9580772750627573 C107.70088234328729 -3.60645404142922, 107.74621913885154 -3.254830807795682, 107.8588393139307 -2.3813709692507574 M107.65554554772302 -3.9580772750627573 C107.71196670457586 -3.5204859241297783, 107.76838786142869 -3.0828945731967994, 107.8588393139307 -2.3813709692507574 M107.8588393139307 -2.3813709692507574 C107.89377601983804 -1.8372035743425985, 107.92871272574537 -1.2930361794344396, 107.96069547143418 -0.794879099323635 M107.8588393139307 -2.3813709692507574 C107.88143693048204 -2.029394850995887, 107.90403454703338 -1.6774187327410164, 107.96069547143418 -0.794879099323635 M107.96069547143418 -0.794879099323635 C107.96069547143418 -0.267462664462882, 107.96069547143418 0.25995377039787093, 107.96069547143418 0.794879099323629 M107.96069547143418 -0.794879099323635 C107.96069547143418 -0.3715022035975317, 107.96069547143418 0.05187469212857154, 107.96069547143418 0.794879099323629 M107.96069547143418 0.794879099323629 C107.9222626782479 1.3935008755921559, 107.88382988506163 1.9921226518606827, 107.8588393139307 2.3813709692507405 M107.96069547143418 0.794879099323629 C107.92832268414358 1.2991113922181494, 107.895949896853 1.8033436851126698, 107.8588393139307 2.3813709692507405 M107.8588393139307 2.3813709692507405 C107.78770610437743 2.933066095704894, 107.71657289482417 3.4847612221590474, 107.65554554772302 3.95807727506274 M107.8588393139307 2.3813709692507405 C107.78540310102781 2.950927734905155, 107.7119668881249 3.5204845005595695, 107.65554554772302 3.95807727506274 M107.65554554772302 3.95807727506274 C107.56833456518983 4.405887238322995, 107.48112358265665 4.853697201583249, 107.35164955050286 5.5185189923465945 M107.65554554772302 3.95807727506274 C107.55713313280454 4.4634042261979, 107.45872071788607 4.968731177333059, 107.35164955050286 5.5185189923465945 M107.35164955050286 5.5185189923465945 C107.23970076534486 5.945428229064423, 107.12775198018686 6.372337465782251, 106.94840009610824 7.056283931372274 M107.35164955050286 5.5185189923465945 C107.21163251129835 6.052464646602023, 107.07161547209384 6.586410300857451, 106.94840009610824 7.056283931372274 M106.94840009610824 7.056283931372274 C106.78004433962806 7.563344646043552, 106.61168858314787 8.07040536071483, 106.44745422304406 8.565053086155798 M106.94840009610824 7.056283931372274 C106.7548215660959 7.639311621219208, 106.56124303608355 8.222339311066142, 106.44745422304406 8.565053086155798 M106.44745422304406 8.565053086155798 C106.28389117502216 8.969056977046302, 106.12032812700026 9.373060867936806, 105.85087042535528 10.038626600610183 M106.44745422304406 8.565053086155798 C106.22681633702636 9.110032930362856, 106.00617845100867 9.655012774569913, 105.85087042535528 10.038626600610183 M105.85087042535528 10.038626600610183 C105.6992126425812 10.353547231497268, 105.54755485980714 10.668467862384354, 105.1611001938334 11.470949245083998 M105.85087042535528 10.038626600610183 C105.59630109234169 10.567245267524042, 105.34173175932811 11.0958639344379, 105.1611001938334 11.470949245083998 M105.1611001938334 11.470949245083998 C104.88603331701066 11.959358338424414, 104.6109664401879 12.44776743176483, 104.38097794231503 12.856135298598875 M105.1611001938334 11.470949245083998 C104.93586473848352 11.870877603620743, 104.71062928313363 12.270805962157487, 104.38097794231503 12.856135298598875 M104.38097794231503 12.856135298598875 C104.0655422189646 13.340729276016875, 103.75010649561415 13.825323253434874, 103.51370936046733 14.188492734539427 M104.38097794231503 12.856135298598875 C104.15584792697378 13.20199545803677, 103.93071791163253 13.547855617474664, 103.51370936046733 14.188492734539427 M103.51370936046733 14.188492734539427 C103.17898750740527 14.636989523854474, 102.84426565434319 15.085486313169522, 102.56285824092166 15.46254661041162 M103.51370936046733 14.188492734539427 C103.19028571619909 14.621850953358749, 102.86686207193084 15.055209172178069, 102.56285824092166 15.46254661041162 M102.56285824092166 15.46254661041162 C102.21696697885314 15.868850168607665, 101.87107571678462 16.275153726803712, 101.53233183488513 16.673061565555773 M102.56285824092166 15.46254661041162 C102.17671201572617 15.916135938868893, 101.79056579053069 16.369725267326167, 101.53233183488513 16.673061565555773 M101.53233183488513 16.673061565555773 C101.20004905349876 17.01617081826091, 100.86776627211239 17.359280070966047, 100.4263647964074 17.815063334366577 M101.53233183488513 16.673061565555773 C101.15043555281478 17.067400831061274, 100.76853927074444 17.461740096566775, 100.4263647964074 17.815063334366577 M100.4263647964074 17.815063334366577 C100.15028203446418 18.065794394013807, 99.87419927252098 18.316525453661036, 99.24950178127874 18.883859186617357 M100.4263647964074 17.815063334366577 C99.97011918332285 18.22941352857254, 99.51387357023832 18.643763722778502, 99.24950178127874 18.883859186617357 M99.24950178127874 18.883859186617357 C98.87360299880658 19.1836284625522, 98.49770421633441 19.483397738487042, 98.00657877206463 19.87505721089525 M99.24950178127874 18.883859186617357 C98.79334311680361 19.24763358264441, 98.33718445232849 19.611407978671462, 98.00657877206463 19.87505721089525 M98.00657877206463 19.87505721089525 C97.64215826869949 20.12926117853344, 97.27773776533435 20.38346514617163, 96.70270320601611 20.78458436190716 M98.00657877206463 19.87505721089525 C97.61753251073914 20.146439041254702, 97.22848624941363 20.41782087161415, 96.70270320601611 20.78458436190716 M96.70270320601611 20.78458436190716 C96.40242628249383 20.966613997569436, 96.10214935897156 21.14864363323171, 95.34323298751447 21.60870319749664 M96.70270320601611 20.78458436190716 C96.2503188846822 21.058822396005134, 95.7979345633483 21.33306043010311, 95.34323298751447 21.60870319749664 M95.34323298751447 21.60870319749664 C94.94047087643462 21.818823932865552, 94.53770876535478 22.028944668234463, 93.93375447129301 22.344027236595295 M95.34323298751447 21.60870319749664 C94.8018022745927 21.891167253625, 94.26037156167095 22.173631309753357, 93.93375447129301 22.344027236595295 M93.93375447129301 22.344027236595295 C93.50426763562808 22.534148318469843, 93.07478079996315 22.724269400344394, 92.48005950690708 22.987534874999973 M93.93375447129301 22.344027236595295 C93.41029146186244 22.575748782891747, 92.88682845243187 22.8074703291882, 92.48005950690708 22.987534874999973 M92.48005950690708 22.987534874999973 C92.13617043698393 23.114089231607405, 91.7922813670608 23.240643588214837, 90.9881216387819 23.536581801792504 M92.48005950690708 22.987534874999973 C92.05710460872218 23.143186187284236, 91.63414971053729 23.298837499568496, 90.9881216387819 23.536581801792504 M90.9881216387819 23.536581801792504 C90.49665127027798 23.682447627383862, 90.00518090177405 23.828313452975223, 89.4640715596373 23.988911865380512 M90.9881216387819 23.536581801792504 C90.47760665237922 23.688099970008974, 89.96709166597654 23.839618138225443, 89.4640715596373 23.988911865380512 M89.4640715596373 23.988911865380512 C88.92836232444127 24.111184002484546, 88.39265308924524 24.233456139588576, 87.91417191815617 24.342666344508213 M89.4640715596373 23.988911865380512 C88.9715550416768 24.101325546634357, 88.47903852371628 24.213739227888205, 87.91417191815617 24.342666344508213 M87.91417191815617 24.342666344508213 C87.34298254551601 24.435011812636933, 86.77179317287585 24.527357280765653, 86.34479158441782 24.596391586140772 M87.91417191815617 24.342666344508213 C87.55582197061793 24.400601584980848, 87.19747202307968 24.458536825453486, 86.34479158441782 24.596391586140772 M86.34479158441782 24.596391586140772 C85.80861508780633 24.6481158879223, 85.27243859119483 24.69984018970383, 84.76237947884457 24.74904497883643 M86.34479158441782 24.596391586140772 C85.92853259003395 24.6365475907043, 85.51227359565007 24.676703595267828, 84.76237947884457 24.74904497883643 M84.76237947884457 24.74904497883643 C84.40950477962889 24.760360983611342, 84.05663008041323 24.771676988386254, 83.17343807220459 24.799999237060547 M84.76237947884457 24.74904497883643 C84.25583026207006 24.76528902628015, 83.74928104529555 24.78153307372387, 83.17343807220459 24.799999237060547 M83.17343807220459 24.799999237060547 C83.17343807220459 24.799999237060547, 83.17343807220459 24.799999237060547, 83.17343807220459 24.799999237060547 M83.17343807220459 24.799999237060547 C83.17343807220459 24.799999237060547, 83.17343807220459 24.799999237060547, 83.17343807220459 24.799999237060547 M83.17343807220459 24.799999237060547 C28.258754865164228 24.799999237060547, -26.655928341876134 24.799999237060547, -83.17343807220459 24.799999237060547 M83.17343807220459 24.799999237060547 C17.16004459461358 24.799999237060547, -48.85334888297743 24.799999237060547, -83.17343807220459 24.799999237060547 M-83.17343807220459 24.799999237060547 C-83.61766630917126 24.785753702138834, -84.0618945461379 24.771508167217124, -84.76237947884457 24.74904497883643 M-83.17343807220459 24.799999237060547 C-83.77223776989491 24.780796896248525, -84.37103746758523 24.761594555436503, -84.76237947884457 24.74904497883643 M-84.76237947884457 24.74904497883643 C-85.16954013610967 24.7097666799124, -85.57670079337477 24.670488380988367, -86.3447915844178 24.596391586140772 M-84.76237947884457 24.74904497883643 C-85.32485778959045 24.694783372677914, -85.88733610033634 24.6405217665194, -86.3447915844178 24.596391586140772 M-86.3447915844178 24.596391586140772 C-86.93401756032986 24.501130099871, -87.5232435362419 24.40586861360123, -87.91417191815616 24.342666344508213 M-86.3447915844178 24.596391586140772 C-86.92081990671471 24.503263794158165, -87.49684822901162 24.41013600217556, -87.91417191815616 24.342666344508213 M-87.91417191815616 24.342666344508213 C-88.25499136430815 24.264876529978757, -88.59581081046015 24.187086715449297, -89.46407155963728 23.988911865380516 M-87.91417191815616 24.342666344508213 C-88.23990974629942 24.268318810872497, -88.56564757444266 24.193971277236777, -89.46407155963728 23.988911865380516 M-89.46407155963728 23.988911865380516 C-90.02627456025375 23.822052965861317, -90.58847756087022 23.65519406634212, -90.98812163878188 23.536581801792515 M-89.46407155963728 23.988911865380516 C-89.87086134849854 23.86817879132967, -90.27765113735981 23.74744571727882, -90.98812163878188 23.536581801792515 M-90.98812163878188 23.536581801792515 C-91.48542485634725 23.35356962070791, -91.98272807391263 23.1705574396233, -92.48005950690707 22.987534874999977 M-90.98812163878188 23.536581801792515 C-91.40542844892163 23.383009038119223, -91.82273525906137 23.229436274445927, -92.48005950690707 22.987534874999977 M-92.48005950690707 22.987534874999977 C-92.98371674799532 22.76458075483143, -93.48737398908357 22.541626634662883, -93.933754471293 22.344027236595302 M-92.48005950690707 22.987534874999977 C-92.98696286620567 22.763143794592377, -93.49386622550429 22.53875271418478, -93.933754471293 22.344027236595302 M-93.933754471293 22.344027236595302 C-94.40265586279843 22.0994016809926, -94.87155725430385 21.854776125389893, -95.34323298751445 21.60870319749665 M-93.933754471293 22.344027236595302 C-94.43940305435521 22.080230694695125, -94.94505163741742 21.816434152794947, -95.34323298751445 21.60870319749665 M-95.34323298751445 21.60870319749665 C-95.69455001108572 21.39573275323975, -96.045867034657 21.182762308982852, -96.70270320601608 20.78458436190718 M-95.34323298751445 21.60870319749665 C-95.77030413382576 21.349810158854098, -96.19737528013708 21.090917120211547, -96.70270320601608 20.78458436190718 M-96.70270320601608 20.78458436190718 C-97.09696825922663 20.509562128246582, -97.49123331243716 20.234539894585982, -98.00657877206463 19.875057210895257 M-96.70270320601608 20.78458436190718 C-97.21506652332336 20.42718189160415, -97.72742984063065 20.069779421301124, -98.00657877206463 19.875057210895257 M-98.00657877206463 19.875057210895257 C-98.4660260158377 19.50866026039087, -98.92547325961075 19.14226330988648, -99.24950178127872 18.883859186617375 M-98.00657877206463 19.875057210895257 C-98.41604198610351 19.548521193972995, -98.82550520014237 19.221985177050733, -99.24950178127872 18.883859186617375 M-99.24950178127872 18.883859186617375 C-99.59931429980882 18.566168712820392, -99.94912681833891 18.248478239023406, -100.42636479640737 17.815063334366595 M-99.24950178127872 18.883859186617375 C-99.71680371304905 18.459467936315146, -100.18410564481937 18.03507668601292, -100.42636479640737 17.815063334366595 M-100.42636479640737 17.815063334366595 C-100.74372495333886 17.48736291658138, -101.06108511027035 17.159662498796163, -101.53233183488513 16.673061565555784 M-100.42636479640737 17.815063334366595 C-100.79262720847136 17.436867323207256, -101.15888962053536 17.058671312047917, -101.53233183488513 16.673061565555784 M-101.53233183488513 16.673061565555784 C-101.80970152980653 16.347247339118354, -102.08707122472794 16.021433112680924, -102.56285824092164 15.462546610411627 M-101.53233183488513 16.673061565555784 C-101.81819638779552 16.337268795553378, -102.1040609407059 16.001476025550968, -102.56285824092164 15.462546610411627 M-102.56285824092164 15.462546610411627 C-102.86191314611969 15.061840281908582, -103.16096805131774 14.661133953405537, -103.51370936046732 14.188492734539444 M-102.56285824092164 15.462546610411627 C-102.79835171481687 15.147006809288829, -103.03384518871212 14.831467008166033, -103.51370936046732 14.188492734539444 M-103.51370936046732 14.188492734539444 C-103.69224104054193 13.914220131476167, -103.87077272061653 13.639947528412888, -104.38097794231501 12.856135298598893 M-103.51370936046732 14.188492734539444 C-103.85081155413393 13.670613240453896, -104.18791374780054 13.152733746368348, -104.38097794231501 12.856135298598893 M-104.38097794231501 12.856135298598893 C-104.60314025404796 12.461663617743572, -104.82530256578089 12.067191936888248, -105.16110019383339 11.470949245084007 M-104.38097794231501 12.856135298598893 C-104.60330497352268 12.46137114163653, -104.82563200473035 12.066606984674168, -105.16110019383339 11.470949245084007 M-105.16110019383339 11.470949245084007 C-105.33037327383859 11.119450072589515, -105.49964635384379 10.767950900095022, -105.85087042535527 10.038626600610193 M-105.16110019383339 11.470949245084007 C-105.3062381601478 11.169567152577136, -105.45137612646222 10.868185060070264, -105.85087042535527 10.038626600610193 M-105.85087042535527 10.038626600610193 C-106.05756346102388 9.528090806370736, -106.2642564966925 9.017555012131279, -106.44745422304406 8.565053086155817 M-105.85087042535527 10.038626600610193 C-106.04603556955351 9.556564921179154, -106.24120071375177 9.074503241748117, -106.44745422304406 8.565053086155817 M-106.44745422304406 8.565053086155817 C-106.57261337528116 8.188093661020467, -106.69777252751827 7.811134235885116, -106.94840009610824 7.056283931372283 M-106.44745422304406 8.565053086155817 C-106.55278909725303 8.247801227871461, -106.65812397146199 7.930549369587106, -106.94840009610824 7.056283931372283 M-106.94840009610824 7.056283931372283 C-107.0733822866031 6.579672671391347, -107.19836447709798 6.103061411410411, -107.35164955050284 5.518518992346603 M-106.94840009610824 7.056283931372283 C-107.06751244118199 6.602056935989168, -107.18662478625573 6.147829940606053, -107.35164955050284 5.518518992346603 M-107.35164955050284 5.518518992346603 C-107.426933406082 5.131952305196123, -107.50221726166117 4.745385618045642, -107.65554554772302 3.95807727506276 M-107.35164955050284 5.518518992346603 C-107.42475555821241 5.143135093718175, -107.49786156592198 4.767751195089746, -107.65554554772302 3.95807727506276 M-107.65554554772302 3.95807727506276 C-107.70577352747779 3.568518982721306, -107.75600150723254 3.1789606903798524, -107.8588393139307 2.381370969250771 M-107.65554554772302 3.95807727506276 C-107.71163775168128 3.523037217821013, -107.76772995563954 3.0879971605792664, -107.8588393139307 2.381370969250771 M-107.8588393139307 2.381370969250771 C-107.8909731293901 1.8808608555217012, -107.9231069448495 1.3803507417926313, -107.96069547143418 0.7948790993236381 M-107.8588393139307 2.381370969250771 C-107.89790410599248 1.7729053003560695, -107.93696889805425 1.164439631461368, -107.96069547143418 0.7948790993236381 M-107.96069547143418 0.7948790993236381 C-107.96069547143418 0.33782925446950923, -107.96069547143418 -0.11922059038461963, -107.96069547143418 -0.7948790993236261 M-107.96069547143418 0.7948790993236381 C-107.96069547143418 0.16797440117971874, -107.96069547143418 -0.4589302969642006, -107.96069547143418 -0.7948790993236261 M-107.96069547143418 -0.7948790993236261 C-107.9397578902795 -1.120998826319234, -107.9188203091248 -1.447118553314842, -107.8588393139307 -2.3813709692507374 M-107.96069547143418 -0.7948790993236261 C-107.92453815956075 -1.358058417409124, -107.88838084768732 -1.921237735494622, -107.8588393139307 -2.3813709692507374 M-107.8588393139307 -2.3813709692507374 C-107.78746946891366 -2.9349013936329467, -107.71609962389662 -3.4884318180151555, -107.65554554772302 -3.9580772750627484 M-107.8588393139307 -2.3813709692507374 C-107.80340252328472 -2.8113277702685164, -107.74796573263872 -3.2412845712862954, -107.65554554772302 -3.9580772750627484 M-107.65554554772302 -3.9580772750627484 C-107.54292916975886 -4.53633857442879, -107.43031279179472 -5.114599873794831, -107.35164955050286 -5.518518992346592 M-107.65554554772302 -3.9580772750627484 C-107.5495027245457 -4.5025847599196505, -107.4434599013684 -5.047092244776552, -107.35164955050286 -5.518518992346592 M-107.35164955050286 -5.518518992346592 C-107.20333662078608 -6.084100472587022, -107.0550236910693 -6.649681952827453, -106.94840009610826 -7.056283931372271 M-107.35164955050286 -5.518518992346592 C-107.22172601265939 -6.0139737513612195, -107.09180247481592 -6.509428510375847, -106.94840009610826 -7.056283931372271 M-106.94840009610826 -7.056283931372271 C-106.82779470330017 -7.419528158650468, -106.70718931049207 -7.7827723859286655, -106.44745422304408 -8.565053086155787 M-106.94840009610826 -7.056283931372271 C-106.83966811021092 -7.383767348805772, -106.73093612431357 -7.711250766239272, -106.44745422304408 -8.565053086155787 M-106.44745422304408 -8.565053086155787 C-106.2441709155941 -9.067166785772631, -106.0408876081441 -9.569280485389475, -105.85087042535528 -10.038626600610181 M-106.44745422304408 -8.565053086155787 C-106.28010950359092 -8.978397778595127, -106.11276478413777 -9.391742471034467, -105.85087042535528 -10.038626600610181 M-105.85087042535528 -10.038626600610181 C-105.66441718195784 -10.42580074998527, -105.4779639385604 -10.812974899360357, -105.1611001938334 -11.470949245083997 M-105.85087042535528 -10.038626600610181 C-105.59266732863733 -10.574790855606226, -105.3344642319194 -11.11095511060227, -105.1611001938334 -11.470949245083997 M-105.1611001938334 -11.470949245083997 C-104.95787274777034 -11.83180015457939, -104.75464530170727 -12.192651064074782, -104.38097794231501 -12.856135298598884 M-105.1611001938334 -11.470949245083997 C-104.91104333859906 -11.914950512554883, -104.66098648336471 -12.35895178002577, -104.38097794231501 -12.856135298598884 M-104.38097794231501 -12.856135298598884 C-104.05227283366153 -13.361114615171214, -103.72356772500807 -13.866093931743542, -103.51370936046732 -14.188492734539436 M-104.38097794231501 -12.856135298598884 C-104.15745984119647 -13.199519124931127, -103.93394174007793 -13.542902951263368, -103.51370936046732 -14.188492734539436 M-103.51370936046732 -14.188492734539436 C-103.20950934930823 -14.596093036301486, -102.90530933814914 -15.003693338063538, -102.56285824092166 -15.46254661041162 M-103.51370936046732 -14.188492734539436 C-103.2479084323329 -14.544641763276845, -102.98210750419851 -14.900790792014254, -102.56285824092166 -15.46254661041162 M-102.56285824092166 -15.46254661041162 C-102.33178202347106 -15.73398188403834, -102.10070580602047 -16.005417157665057, -101.53233183488513 -16.673061565555773 M-102.56285824092166 -15.46254661041162 C-102.18983760658556 -15.900717872978179, -101.81681697224946 -16.33888913554474, -101.53233183488513 -16.673061565555773 M-101.53233183488513 -16.673061565555773 C-101.09050333733701 -17.12928576406847, -100.6486748397889 -17.58550996258117, -100.4263647964074 -17.81506333436657 M-101.53233183488513 -16.673061565555773 C-101.16708060129176 -17.0502134519249, -100.80182936769839 -17.427365338294027, -100.4263647964074 -17.81506333436657 M-100.4263647964074 -17.81506333436657 C-100.14896803195586 -18.066987736325267, -99.87157126750432 -18.318912138283963, -99.24950178127875 -18.883859186617354 M-100.4263647964074 -17.81506333436657 C-100.14899155104457 -18.066966376911182, -99.87161830568174 -18.318869419455794, -99.24950178127875 -18.883859186617354 M-99.24950178127875 -18.883859186617354 C-98.89846747927294 -19.163799701051893, -98.54743317726714 -19.443740215486436, -98.00657877206463 -19.87505721089525 M-99.24950178127875 -18.883859186617354 C-98.89260965794482 -19.1684711576779, -98.53571753461088 -19.453083128738445, -98.00657877206463 -19.87505721089525 M-98.00657877206463 -19.87505721089525 C-97.6148820473747 -20.14828788976102, -97.22318532268478 -20.421518568626784, -96.70270320601611 -20.784584361907157 M-98.00657877206463 -19.87505721089525 C-97.67868807859247 -20.10377956450208, -97.3507973851203 -20.33250191810891, -96.70270320601611 -20.784584361907157 M-96.70270320601611 -20.784584361907157 C-96.29401094479906 -21.032336012399256, -95.88531868358199 -21.280087662891354, -95.34323298751447 -21.608703197496638 M-96.70270320601611 -20.784584361907157 C-96.39730653653162 -20.969717617658695, -96.09190986704714 -21.15485087341023, -95.34323298751447 -21.608703197496638 M-95.34323298751447 -21.608703197496638 C-94.87659827815364 -21.85214622647639, -94.4099635687928 -22.09558925545614, -93.93375447129301 -22.344027236595295 M-95.34323298751447 -21.608703197496638 C-94.87962200129071 -21.85056875205256, -94.41601101506697 -22.09243430660848, -93.93375447129301 -22.344027236595295 M-93.93375447129301 -22.344027236595295 C-93.38400535108616 -22.587384864382635, -92.8342562308793 -22.83074249216997, -92.48005950690708 -22.98753487499997 M-93.93375447129301 -22.344027236595295 C-93.43571506263625 -22.564494508993505, -92.93767565397947 -22.784961781391715, -92.48005950690708 -22.98753487499997 M-92.48005950690708 -22.98753487499997 C-92.16304330596589 -23.10419976741197, -91.84602710502469 -23.220864659823967, -90.9881216387819 -23.536581801792504 M-92.48005950690708 -22.98753487499997 C-92.05488546647965 -23.14400285214301, -91.62971142605222 -23.30047082928605, -90.9881216387819 -23.536581801792504 M-90.9881216387819 -23.536581801792504 C-90.47893135851825 -23.687706804180433, -89.96974107825461 -23.838831806568358, -89.4640715596373 -23.98891186538051 M-90.9881216387819 -23.536581801792504 C-90.48886863923967 -23.68475747142417, -89.98961563969742 -23.832933141055836, -89.4640715596373 -23.98891186538051 M-89.4640715596373 -23.98891186538051 C-88.9891288596461 -24.097314437362737, -88.51418615965491 -24.205717009344966, -87.91417191815617 -24.34266634450821 M-89.4640715596373 -23.98891186538051 C-89.1033197059059 -24.071251121868848, -88.74256785217452 -24.15359037835719, -87.91417191815617 -24.34266634450821 M-87.91417191815617 -24.34266634450821 C-87.36402364207153 -24.431610051321975, -86.81387536598687 -24.520553758135744, -86.34479158441782 -24.596391586140772 M-87.91417191815617 -24.34266634450821 C-87.46720047074216 -24.414929221810766, -87.02022902332814 -24.48719209911332, -86.34479158441782 -24.596391586140772 M-86.34479158441782 -24.596391586140772 C-85.79888007060474 -24.649055013323668, -85.25296855679166 -24.701718440506564, -84.76237947884458 -24.74904497883643 M-86.34479158441782 -24.596391586140772 C-85.88161649412316 -24.64107353005195, -85.41844140382851 -24.685755473963134, -84.76237947884458 -24.74904497883643 M-84.76237947884458 -24.74904497883643 C-84.34114152499373 -24.762553260126488, -83.9199035711429 -24.77606154141655, -83.1734380722046 -24.799999237060547 M-84.76237947884458 -24.74904497883643 C-84.44110066089095 -24.75934776519692, -84.11982184293733 -24.76965055155741, -83.1734380722046 -24.799999237060547 M-83.1734380722046 -24.799999237060547 C-83.1734380722046 -24.799999237060547, -83.17343807220459 -24.799999237060547, -83.17343807220459 -24.799999237060547 M-83.1734380722046 -24.799999237060547 C-83.1734380722046 -24.799999237060547, -83.17343807220459 -24.799999237060547, -83.17343807220459 -24.799999237060547" stroke="#9370DB" stroke-width="1.3" fill="none" stroke-dasharray="0 0" style=""/></g><g class="label" style="" transform="translate(0, -17.299999237060547)"><rect/><g><rect class="background" style="stroke: none"/><text y="-10.1" style=""><tspan class="text-outer-tspan row" x="0" y="-0.1em" dy="1.1em"><tspan font-style="normal" class="text-inner-tspan" font-weight="normal">event</tspan><tspan font-style="normal" class="text-inner-tspan" font-weight="normal"> loop</tspan></tspan><tspan class="text-outer-tspan row" x="0" y="1em" dy="1.1em"><tspan font-style="normal" class="text-inner-tspan" font-weight="normal">(the</tspan><tspan font-style="normal" class="text-inner-tspan" font-weight="normal"> scheduler,</tspan><tspan font-style="normal" class="text-inner-tspan" font-weight="normal"> in-process)</tspan></tspan></text></g></g></g><g class="node default" id="my-svg-flowchart-CO1-14" data-look="classic" transform="translate(135.0859375, 75.29999923706055)"><rect class="basic label-container" style="" x="-89.5859375" y="-32.29999923706055" width="179.171875" height="64.5999984741211"/><g class="label" style="" transform="translate(0, -17.299999237060547)"><rect/><g><rect class="background" style="stroke: none"/><text y="-10.1" style=""><tspan class="text-outer-tspan row" x="0" y="-0.1em" dy="1.1em"><tspan font-style="normal" class="text-inner-tspan" font-weight="normal">coroutine</tspan><tspan font-style="normal" class="text-inner-tspan" font-weight="normal"> A</tspan></tspan><tspan class="text-outer-tspan row" x="0" y="1em" dy="1.1em"><tspan font-style="normal" class="text-inner-tspan" font-weight="normal">(parked</tspan><tspan font-style="normal" class="text-inner-tspan" font-weight="normal"> at</tspan><tspan font-style="normal" class="text-inner-tspan" font-weight="normal"> await)</tspan></tspan></text></g></g></g><g class="node default" id="my-svg-flowchart-CO2-16" data-look="classic" transform="translate(135.0859375, 189.89999771118164)"><rect class="basic label-container" style="" x="-70.4765625" y="-32.29999923706055" width="140.953125" height="64.5999984741211"/><g class="label" style="" transform="translate(0, -17.299999237060547)"><rect/><g><rect class="background" style="stroke: none"/><text y="-10.1" style=""><tspan class="text-outer-tspan row" x="0" y="-0.1em" dy="1.1em"><tspan font-style="normal" class="text-inner-tspan" font-weight="normal">coroutine</tspan><tspan font-style="normal" class="text-inner-tspan" font-weight="normal"> B</tspan></tspan><tspan class="text-outer-tspan row" x="0" y="1em" dy="1.1em"><tspan font-style="normal" class="text-inner-tspan" font-weight="normal">(running)</tspan></tspan></text></g></g></g><g class="node default" id="my-svg-flowchart-CO3-18" data-look="classic" transform="translate(135.0859375, 304.49999618530273)"><rect class="basic label-container" style="" x="-89.5859375" y="-32.29999923706055" width="179.171875" height="64.5999984741211"/><g class="label" style="" transform="translate(0, -17.299999237060547)"><rect/><g><rect class="background" style="stroke: none"/><text y="-10.1" style=""><tspan class="text-outer-tspan row" x="0" y="-0.1em" dy="1.1em"><tspan font-style="normal" class="text-inner-tspan" font-weight="normal">coroutine</tspan><tspan font-style="normal" class="text-inner-tspan" font-weight="normal"> C</tspan></tspan><tspan class="text-outer-tspan row" x="0" y="1em" dy="1.1em"><tspan font-style="normal" class="text-inner-tspan" font-weight="normal">(parked</tspan><tspan font-style="normal" class="text-inner-tspan" font-weight="normal"> at</tspan><tspan font-style="normal" class="text-inner-tspan" font-weight="normal"> await)</tspan></tspan></text></g></g></g></g></g><g class="root" transform="translate(595.09326171875, 52.79998779296875)"><g class="clusters"><g class="cluster" id="my-svg-THR" data-look="classic"><rect style="" x="8" y="8" width="772.6515655517578" height="311"/><g class="cluster-label" transform="translate(179.3335952758789, 8)"><g><rect class="background" style="stroke: none"/><text y="-10.1" style=""><tspan class="text-outer-tspan row" x="0" y="-0.1em" dy="1.1em"><tspan font-style="normal" class="text-inner-tspan" font-weight="normal">THREADS</tspan><tspan font-style="normal" class="text-inner-tspan" font-weight="normal"> —</tspan><tspan font-style="normal" class="text-inner-tspan" font-weight="normal"> shared</tspan><tspan font-style="normal" class="text-inner-tspan" font-weight="normal"> heap,</tspan><tspan font-style="normal" class="text-inner-tspan" font-weight="normal"> but</tspan><tspan font-style="normal" class="text-inner-tspan" font-weight="normal"> ONE</tspan><tspan font-style="normal" class="text-inner-tspan" font-weight="normal"> GIL</tspan><tspan font-style="normal" class="text-inner-tspan" font-weight="normal"> gates</tspan><tspan font-style="normal" class="text-inner-tspan" font-weight="normal"> the</tspan><tspan font-style="normal" class="text-inner-tspan" font-weight="normal"> bytecode</tspan></tspan></text></g></g></g></g><g class="edgePaths"><path d="M169.648,66.5L189.427,66.5C209.206,66.5,248.763,66.5,290.251,78.298C331.739,90.097,375.158,113.693,396.867,125.492L418.577,137.29" id="my-svg-L_T1_GIL_0" class="edge-thickness-normal edge-pattern-dotted edge-thickness-normal edge-pattern-solid flowchart-link" style=";" data-edge="true" data-et="edge" data-id="L_T1_GIL_0" data-points="W3sieCI6MTY5LjY0ODQzNzUsInkiOjY2LjV9LHsieCI6Mjg4LjMyMDMxMjUsInkiOjY2LjV9LHsieCI6NDIyLjA5MTQyMDA2OTgxMDIsInkiOjEzOS4yMDAwMDA3NjI5Mzk1NH1d" data-look="classic" marker-end="url(#my-svg_flowchart-v2-pointEnd)"/><path d="M169.648,163.5L189.427,163.5C209.206,163.5,248.763,163.5,287.737,163.581C326.711,163.661,365.102,163.822,384.297,163.903L403.492,163.983" id="my-svg-L_T2_GIL_0" class="edge-thickness-normal edge-pattern-dotted edge-thickness-normal edge-pattern-solid flowchart-link" style=";" data-edge="true" data-et="edge" data-id="L_T2_GIL_0" data-points="W3sieCI6MTY5LjY0ODQzNzUsInkiOjE2My41fSx7IngiOjI4OC4zMjAzMTI1LCJ5IjoxNjMuNX0seyJ4Ijo0MDcuNDkyMTg3NDk5OTk5OTQsInkiOjE2NH1d" data-look="classic" marker-end="url(#my-svg_flowchart-v2-pointEnd)"/><path d="M169.648,260.5L189.427,260.5C209.206,260.5,248.763,260.5,290.249,248.865C331.736,237.23,375.151,213.96,396.858,202.325L418.566,190.69" id="my-svg-L_T3_GIL_0" class="edge-thickness-normal edge-pattern-dotted edge-thickness-normal edge-pattern-solid flowchart-link" style=";" data-edge="true" data-et="edge" data-id="L_T3_GIL_0" data-points="W3sieCI6MTY5LjY0ODQzNzUsInkiOjI2MC41fSx7IngiOjI4OC4zMjAzMTI1LCJ5IjoyNjAuNX0seyJ4Ijo0MjIuMDkxNDIwMDY5ODEwMDYsInkiOjE4OC43OTk5OTkyMzcwNjA1NX1d" data-look="classic" marker-end="url(#my-svg_flowchart-v2-pointEnd)"/><path d="M528.245,164L534.412,163.917C540.579,163.833,552.912,163.667,565.329,163.583C577.745,163.5,590.245,163.5,596.495,163.5L602.745,163.5" id="my-svg-L_GIL_HEAP_0" class="edge-thickness-normal edge-pattern-solid edge-thickness-normal edge-pattern-solid flowchart-link" style=";" data-edge="true" data-et="edge" data-id="L_GIL_HEAP_0" data-points="W3sieCI6NTI4LjI0NTMxMTczNzA2MDUsInkiOjE2NH0seyJ4Ijo1NjUuMjQ1MzE1NTUxNzU3OCwieSI6MTYzLjV9LHsieCI6NjAyLjc0NTMxNTU1MTc1NzgsInkiOjE2My41fV0=" data-look="classic"/></g><g class="edgeLabels"><g class="edgeLabel" transform="translate(288.3203125, 66.5)"><g class="label" data-id="L_T1_GIL_0" transform="translate(0, -19.299999237060547)"><g><rect class="background" style="" x="-81.171875" y="0" width="162.34375" height="38.599998474121094"/><text y="-10.1" text-anchor="middle" style=""><tspan class="text-outer-tspan row" x="0" y="-0.1em" dy="1.1em" text-anchor="middle"><tspan font-style="normal" class="text-inner-tspan" font-weight="normal">must</tspan><tspan font-style="normal" class="text-inner-tspan" font-weight="normal"> hold</tspan><tspan font-style="normal" class="text-inner-tspan" font-weight="normal"> token</tspan><tspan font-style="normal" class="text-inner-tspan" font-weight="normal"> to</tspan><tspan font-style="normal" class="text-inner-tspan" font-weight="normal"> run</tspan></tspan><tspan class="text-outer-tspan row" x="0" y="1em" dy="1.1em" text-anchor="middle"><tspan font-style="normal" class="text-inner-tspan" font-weight="normal">bytecode</tspan></tspan></text></g></g></g><g class="edgeLabel" transform="translate(288.3203125, 163.5)"><g class="label" data-id="L_T2_GIL_0" transform="translate(0.5, -10.5)"><g><rect class="background" style="" x="-21.2265625" y="0" width="41.453125" height="21"/><text y="-10.1" text-anchor="middle" style=""><tspan class="text-outer-tspan row" x="0" y="-0.1em" dy="1.1em" text-anchor="middle"><tspan font-style="normal" class="text-inner-tspan" font-weight="normal">waits</tspan></tspan></text></g></g></g><g class="edgeLabel" transform="translate(288.3203125, 260.5)"><g class="label" data-id="L_T3_GIL_0" transform="translate(0.5, -10.5)"><g><rect class="background" style="" x="-21.2265625" y="0" width="41.453125" height="21"/><text y="-10.1" text-anchor="middle" style=""><tspan class="text-outer-tspan row" x="0" y="-0.1em" dy="1.1em" text-anchor="middle"><tspan font-style="normal" class="text-inner-tspan" font-weight="normal">waits</tspan></tspan></text></g></g></g><g class="edgeLabel"><g class="label" data-id="L_GIL_HEAP_0" transform="translate(0, 0)"><text y="-10.1" text-anchor="middle"><tspan class="text-outer-tspan row" x="0" y="-0.1em" dy="1.1em" text-anchor="middle"/></text></g></g><g><rect class="background" style="stroke: none"/></g></g><g class="nodes"><g class="node default" id="my-svg-flowchart-GIL-3" data-look="classic" transform="translate(467.3687515258789, 163.5)"><polygon points="12.399999618530273,0 108.35312461853027,0 120.75312423706055,-24.799999237060547 108.35312461853027,-49.599998474121094 12.399999618530273,-49.599998474121094 0,-24.799999237060547" class="label-container" transform="translate(-60.37656211853027,24.799999237060547)"/><g class="label" style="" transform="translate(0, -17.299999237060547)"><rect/><g><rect class="background" style="stroke: none"/><text y="-10.1" style=""><tspan class="text-outer-tspan row" x="0" y="-0.1em" dy="1.1em"><tspan font-style="normal" class="text-inner-tspan" font-weight="normal">the</tspan><tspan font-style="normal" class="text-inner-tspan" font-weight="normal"> GIL</tspan></tspan><tspan class="text-outer-tspan row" x="0" y="1em" dy="1.1em"><tspan font-style="normal" class="text-inner-tspan" font-weight="normal">(one</tspan><tspan font-style="normal" class="text-inner-tspan" font-weight="normal"> token)</tspan></tspan></text></g></g></g><g class="node default" id="my-svg-flowchart-T1-4" data-look="classic" transform="translate(107.57421875, 66.5)"><rect class="basic label-container" style="" x="-62.07421875" y="-23.5" width="124.1484375" height="47"/><g class="label" style="" transform="translate(0, -8.5)"><rect/><g><rect class="background" style="stroke: none"/><text y="-10.1" style=""><tspan class="text-outer-tspan row" x="0" y="-0.1em" dy="1.1em"><tspan font-style="normal" class="text-inner-tspan" font-weight="normal">Thread</tspan><tspan font-style="normal" class="text-inner-tspan" font-weight="normal"> 1</tspan></tspan></text></g></g></g><g class="node default" id="my-svg-flowchart-T2-6" data-look="classic" transform="translate(107.57421875, 163.5)"><rect class="basic label-container" style="" x="-62.07421875" y="-23.5" width="124.1484375" height="47"/><g class="label" style="" transform="translate(0, -8.5)"><rect/><g><rect class="background" style="stroke: none"/><text y="-10.1" style=""><tspan class="text-outer-tspan row" x="0" y="-0.1em" dy="1.1em"><tspan font-style="normal" class="text-inner-tspan" font-weight="normal">Thread</tspan><tspan font-style="normal" class="text-inner-tspan" font-weight="normal"> 2</tspan></tspan></text></g></g></g><g class="node default" id="my-svg-flowchart-T3-8" data-look="classic" transform="translate(107.57421875, 260.5)"><rect class="basic label-container" style="" x="-62.07421875" y="-23.5" width="124.1484375" height="47"/><g class="label" style="" transform="translate(0, -8.5)"><rect/><g><rect class="background" style="stroke: none"/><text y="-10.1" style=""><tspan class="text-outer-tspan row" x="0" y="-0.1em" dy="1.1em"><tspan font-style="normal" class="text-inner-tspan" font-weight="normal">Thread</tspan><tspan font-style="normal" class="text-inner-tspan" font-weight="normal"> 3</tspan></tspan></text></g></g></g><g class="node default" id="my-svg-flowchart-HEAP-10" data-look="classic" transform="translate(672.9484405517578, 163.5)"><path d="M0,13.22559755092429 a70.203125,13.22559755092429 0,0,0 140.40625,0 a70.203125,13.22559755092429 0,0,0 -140.40625,0 l0,62.825596025045385 a70.203125,13.22559755092429 0,0,0 140.40625,0 l0,-62.825596025045385" class="basic label-container outer-path" style="" transform="translate(-70.203125, -44.638395563446984)"/><g class="label" style="" transform="translate(0, -9.299999237060547)"><rect/><g><rect class="background" style="stroke: none"/><text y="-10.1" style=""><tspan class="text-outer-tspan row" x="0" y="-0.1em" dy="1.1em"><tspan font-style="normal" class="text-inner-tspan" font-weight="normal">one</tspan><tspan font-style="normal" class="text-inner-tspan" font-weight="normal"> shared</tspan><tspan font-style="normal" class="text-inner-tspan" font-weight="normal"> heap</tspan></tspan><tspan class="text-outer-tspan row" x="0" y="1em" dy="1.1em"><tspan font-style="normal" class="text-inner-tspan" font-weight="normal">refcounts,</tspan><tspan font-style="normal" class="text-inner-tspan" font-weight="normal"> objects</tspan></tspan></text></g></g></g></g></g><g class="root" transform="translate(1431.0924682617188, 0)"><g class="clusters"><g class="cluster" id="my-svg-PROC" data-look="classic"><rect style="" x="-5.34765625" y="8" width="305.015625" height="416.59999084472656"/><g class="cluster-label" transform="translate(-1.34765625, 8)"><g><rect class="background" style="stroke: none"/><text y="-10.1" style=""><tspan class="text-outer-tspan row" x="0" y="-0.1em" dy="1.1em"><tspan font-style="normal" class="text-inner-tspan" font-weight="normal">PROCESSES</tspan><tspan font-style="normal" class="text-inner-tspan" font-weight="normal"> —</tspan><tspan font-style="normal" class="text-inner-tspan" font-weight="normal"> true</tspan><tspan font-style="normal" class="text-inner-tspan" font-weight="normal"> parallelism,</tspan><tspan font-style="normal" class="text-inner-tspan" font-weight="normal"> isolated</tspan></tspan></text></g></g></g></g><g class="edgePaths"/><g class="edgeLabels"/><g class="nodes"><g class="node default" id="my-svg-flowchart-P1-0" data-look="classic" transform="translate(147.16015625, 84.0999984741211)"><rect class="basic label-container" style="" x="-101.66015625" y="-41.099998474121094" width="203.3203125" height="82.19999694824219"/><g class="label" style="" transform="translate(0, -26.099998474121094)"><rect/><g><rect class="background" style="stroke: none"/><text y="-10.1" style=""><tspan class="text-outer-tspan row" x="0" y="-0.1em" dy="1.1em"><tspan font-style="normal" class="text-inner-tspan" font-weight="normal">Process</tspan><tspan font-style="normal" class="text-inner-tspan" font-weight="normal"> 1</tspan></tspan><tspan class="text-outer-tspan row" x="0" y="1em" dy="1.1em"><tspan font-style="normal" class="text-inner-tspan" font-weight="normal">own</tspan><tspan font-style="normal" class="text-inner-tspan" font-weight="normal"> heap</tspan><tspan font-style="normal" class="text-inner-tspan" font-weight="normal"> ·</tspan><tspan font-style="normal" class="text-inner-tspan" font-weight="normal"> own</tspan><tspan font-style="normal" class="text-inner-tspan" font-weight="normal"> GIL</tspan></tspan><tspan class="text-outer-tspan row" x="0" y="2.1em" dy="1.1em"><tspan font-style="normal" class="text-inner-tspan" font-weight="normal">core</tspan><tspan font-style="normal" class="text-inner-tspan" font-weight="normal"> 0</tspan></tspan></text></g></g></g><g class="node default" id="my-svg-flowchart-P2-1" data-look="classic" transform="translate(147.16015625, 216.29999542236328)"><rect class="basic label-container" style="" x="-101.66015625" y="-41.099998474121094" width="203.3203125" height="82.19999694824219"/><g class="label" style="" transform="translate(0, -26.099998474121094)"><rect/><g><rect class="background" style="stroke: none"/><text y="-10.1" style=""><tspan class="text-outer-tspan row" x="0" y="-0.1em" dy="1.1em"><tspan font-style="normal" class="text-inner-tspan" font-weight="normal">Process</tspan><tspan font-style="normal" class="text-inner-tspan" font-weight="normal"> 2</tspan></tspan><tspan class="text-outer-tspan row" x="0" y="1em" dy="1.1em"><tspan font-style="normal" class="text-inner-tspan" font-weight="normal">own</tspan><tspan font-style="normal" class="text-inner-tspan" font-weight="normal"> heap</tspan><tspan font-style="normal" class="text-inner-tspan" font-weight="normal"> ·</tspan><tspan font-style="normal" class="text-inner-tspan" font-weight="normal"> own</tspan><tspan font-style="normal" class="text-inner-tspan" font-weight="normal"> GIL</tspan></tspan><tspan class="text-outer-tspan row" x="0" y="2.1em" dy="1.1em"><tspan font-style="normal" class="text-inner-tspan" font-weight="normal">core</tspan><tspan font-style="normal" class="text-inner-tspan" font-weight="normal"> 1</tspan></tspan></text></g></g></g><g class="node default" id="my-svg-flowchart-P3-2" data-look="classic" transform="translate(147.16015625, 348.49999237060547)"><rect class="basic label-container" style="" x="-101.66015625" y="-41.099998474121094" width="203.3203125" height="82.19999694824219"/><g class="label" style="" transform="translate(0, -26.099998474121094)"><rect/><g><rect class="background" style="stroke: none"/><text y="-10.1" style=""><tspan class="text-outer-tspan row" x="0" y="-0.1em" dy="1.1em"><tspan font-style="normal" class="text-inner-tspan" font-weight="normal">Process</tspan><tspan font-style="normal" class="text-inner-tspan" font-weight="normal"> 3</tspan></tspan><tspan class="text-outer-tspan row" x="0" y="1em" dy="1.1em"><tspan font-style="normal" class="text-inner-tspan" font-weight="normal">own</tspan><tspan font-style="normal" class="text-inner-tspan" font-weight="normal"> heap</tspan><tspan font-style="normal" class="text-inner-tspan" font-weight="normal"> ·</tspan><tspan font-style="normal" class="text-inner-tspan" font-weight="normal"> own</tspan><tspan font-style="normal" class="text-inner-tspan" font-weight="normal"> GIL</tspan></tspan><tspan class="text-outer-tspan row" x="0" y="2.1em" dy="1.1em"><tspan font-style="normal" class="text-inner-tspan" font-weight="normal">core</tspan><tspan font-style="normal" class="text-inner-tspan" font-weight="normal"> 2</tspan></tspan></text></g></g></g></g></g></g></g></g><defs><filter id="my-svg-drop-shadow" height="130%" width="130%"><feDropShadow dx="4" dy="4" stdDeviation="0" flood-opacity="0.06" flood-color="#000000"/></filter></defs><defs><filter id="my-svg-drop-shadow-small" height="150%" width="150%"><feDropShadow dx="2" dy="2" stdDeviation="0" flood-opacity="0.06" flood-color="#000000"/></filter></defs></svg>