<svg id="my-svg" width="100%" xmlns="http://www.w3.org/2000/svg" xmlns:xlink="http://www.w3.org/1999/xlink" class="flowchart" style="max-width: 818.754px; background-color: transparent;" viewBox="0 0 818.7540283203125 1195.78125" role="graphics-document document" aria-roledescription="flowchart-v2"><style>#my-svg{font-family:"trebuchet ms",verdana,arial,sans-serif;font-size:16px;fill:#333;}@keyframes edge-animation-frame{from{stroke-dashoffset:0;}}@keyframes dash{to{stroke-dashoffset:0;}}#my-svg .edge-animation-slow{stroke-dasharray:9,5!important;stroke-dashoffset:900;animation:dash 50s linear infinite;stroke-linecap:round;}#my-svg .edge-animation-fast{stroke-dasharray:9,5!important;stroke-dashoffset:900;animation:dash 20s linear infinite;stroke-linecap:round;}#my-svg .error-icon{fill:#552222;}#my-svg .error-text{fill:#552222;stroke:#552222;}#my-svg .edge-thickness-normal{stroke-width:1px;}#my-svg .edge-thickness-thick{stroke-width:3.5px;}#my-svg .edge-pattern-solid{stroke-dasharray:0;}#my-svg .edge-thickness-invisible{stroke-width:0;fill:none;}#my-svg .edge-pattern-dashed{stroke-dasharray:3;}#my-svg .edge-pattern-dotted{stroke-dasharray:2;}#my-svg .marker{fill:#333333;stroke:#333333;}#my-svg .marker.cross{stroke:#333333;}#my-svg svg{font-family:"trebuchet ms",verdana,arial,sans-serif;font-size:16px;}#my-svg p{margin:0;}#my-svg .label{font-family:"trebuchet ms",verdana,arial,sans-serif;color:#333;}#my-svg .cluster-label text{fill:#333;}#my-svg .cluster-label span{color:#333;}#my-svg .cluster-label span p{background-color:transparent;}#my-svg .label text,#my-svg span{fill:#333;color:#333;}#my-svg .node rect,#my-svg .node circle,#my-svg .node ellipse,#my-svg .node polygon,#my-svg .node path{fill:#ECECFF;stroke:#9370DB;stroke-width:1px;}#my-svg .rough-node .label text,#my-svg .node .label text,#my-svg .image-shape .label,#my-svg .icon-shape .label{text-anchor:middle;}#my-svg .node .katex path{fill:#000;stroke:#000;stroke-width:1px;}#my-svg .rough-node .label,#my-svg .node .label,#my-svg .image-shape .label,#my-svg .icon-shape .label{text-align:center;}#my-svg .node.clickable{cursor:pointer;}#my-svg .root .anchor path{fill:#333333!important;stroke-width:0;stroke:#333333;}#my-svg .arrowheadPath{fill:#333333;}#my-svg .edgePath .path{stroke:#333333;stroke-width:1px;}#my-svg .flowchart-link{stroke:#333333;fill:none;}#my-svg .edgeLabel{background-color:rgba(232,232,232, 0.8);text-align:center;}#my-svg .edgeLabel p{background-color:rgba(232,232,232, 0.8);}#my-svg .edgeLabel rect{opacity:0.5;background-color:rgba(232,232,232, 0.8);fill:rgba(232,232,232, 0.8);}#my-svg .labelBkg{background-color:rgba(232, 232, 232, 0.5);}#my-svg .cluster rect{fill:#ffffde;stroke:#aaaa33;stroke-width:1px;}#my-svg .cluster text{fill:#333;}#my-svg .cluster span{color:#333;}#my-svg div.mermaidTooltip{position:absolute;text-align:center;max-width:200px;padding:2px;font-family:"trebuchet ms",verdana,arial,sans-serif;font-size:12px;background:hsl(80, 100%, 96.2745098039%);border:1px solid #aaaa33;border-radius:2px;pointer-events:none;z-index:100;}#my-svg .flowchartTitleText{text-anchor:middle;font-size:18px;fill:#333;}#my-svg rect.text{fill:none;stroke-width:0;}#my-svg .icon-shape,#my-svg .image-shape{background-color:rgba(232,232,232, 0.8);text-align:center;}#my-svg .icon-shape p,#my-svg .image-shape p{background-color:rgba(232,232,232, 0.8);padding:2px;}#my-svg .icon-shape .label rect,#my-svg .image-shape .label rect{opacity:0.5;background-color:rgba(232,232,232, 0.8);fill:rgba(232,232,232, 0.8);}#my-svg .label-icon{display:inline-block;height:1em;overflow:visible;vertical-align:-0.125em;}#my-svg .node .label-icon path{fill:currentColor;stroke:revert;stroke-width:revert;}#my-svg .node .neo-node{stroke:#9370DB;}#my-svg [data-look="neo"].node rect,#my-svg [data-look="neo"].cluster rect,#my-svg [data-look="neo"].node polygon{stroke:#9370DB;filter:drop-shadow(1px 2px 2px rgba(185, 185, 185, 1));}#my-svg [data-look="neo"].node path{stroke:#9370DB;stroke-width:1px;}#my-svg [data-look="neo"].node .outer-path{filter:drop-shadow(1px 2px 2px rgba(185, 185, 185, 1));}#my-svg [data-look="neo"].node .neo-line path{stroke:#9370DB;filter:none;}#my-svg [data-look="neo"].node circle{stroke:#9370DB;filter:drop-shadow(1px 2px 2px rgba(185, 185, 185, 1));}#my-svg [data-look="neo"].node circle .state-start{fill:#000000;}#my-svg [data-look="neo"].icon-shape .icon{fill:#9370DB;filter:drop-shadow(1px 2px 2px rgba(185, 185, 185, 1));}#my-svg [data-look="neo"].icon-shape .icon-neo path{stroke:#9370DB;filter:drop-shadow(1px 2px 2px rgba(185, 185, 185, 1));}#my-svg :root{--mermaid-font-family:"trebuchet ms",verdana,arial,sans-serif;}</style><g><marker id="my-svg_flowchart-v2-pointEnd" class="marker flowchart-v2" viewBox="0 0 10 10" refX="5" refY="5" markerUnits="userSpaceOnUse" markerWidth="8" markerHeight="8" orient="auto"><path d="M 0 0 L 10 5 L 0 10 z" class="arrowMarkerPath" style="stroke-width: 1; stroke-dasharray: 1, 0;"/></marker><marker id="my-svg_flowchart-v2-pointStart" class="marker flowchart-v2" viewBox="0 0 10 10" refX="4.5" refY="5" markerUnits="userSpaceOnUse" markerWidth="8" markerHeight="8" orient="auto"><path d="M 0 5 L 10 10 L 10 0 z" class="arrowMarkerPath" style="stroke-width: 1; stroke-dasharray: 1, 0;"/></marker><marker id="my-svg_flowchart-v2-pointEnd-margin" class="marker flowchart-v2" viewBox="0 0 11.5 14" refX="11.5" refY="7" markerUnits="userSpaceOnUse" markerWidth="10.5" markerHeight="14" orient="auto"><path d="M 0 0 L 11.5 7 L 0 14 z" class="arrowMarkerPath" style="stroke-width: 0; stroke-dasharray: 1, 0;"/></marker><marker id="my-svg_flowchart-v2-pointStart-margin" class="marker flowchart-v2" viewBox="0 0 11.5 14" refX="1" refY="7" markerUnits="userSpaceOnUse" markerWidth="11.5" markerHeight="14" orient="auto"><polygon points="0,7 11.5,14 11.5,0" class="arrowMarkerPath" style="stroke-width: 0; stroke-dasharray: 1, 0;"/></marker><marker id="my-svg_flowchart-v2-circleEnd" class="marker flowchart-v2" viewBox="0 0 10 10" refX="11" refY="5" markerUnits="userSpaceOnUse" markerWidth="11" markerHeight="11" orient="auto"><circle cx="5" cy="5" r="5" class="arrowMarkerPath" style="stroke-width: 1; stroke-dasharray: 1, 0;"/></marker><marker id="my-svg_flowchart-v2-circleStart" class="marker flowchart-v2" viewBox="0 0 10 10" refX="-1" refY="5" markerUnits="userSpaceOnUse" markerWidth="11" markerHeight="11" orient="auto"><circle cx="5" cy="5" r="5" class="arrowMarkerPath" style="stroke-width: 1; stroke-dasharray: 1, 0;"/></marker><marker id="my-svg_flowchart-v2-circleEnd-margin" class="marker flowchart-v2" viewBox="0 0 10 10" refY="5" refX="12.25" markerUnits="userSpaceOnUse" markerWidth="14" markerHeight="14" orient="auto"><circle cx="5" cy="5" r="5" class="arrowMarkerPath" style="stroke-width: 0; stroke-dasharray: 1, 0;"/></marker><marker id="my-svg_flowchart-v2-circleStart-margin" class="marker flowchart-v2" viewBox="0 0 10 10" refX="-2" refY="5" markerUnits="userSpaceOnUse" markerWidth="14" markerHeight="14" orient="auto"><circle cx="5" cy="5" r="5" class="arrowMarkerPath" style="stroke-width: 0; stroke-dasharray: 1, 0;"/></marker><marker id="my-svg_flowchart-v2-crossEnd" class="marker cross flowchart-v2" viewBox="0 0 11 11" refX="12" refY="5.2" markerUnits="userSpaceOnUse" markerWidth="11" markerHeight="11" orient="auto"><path d="M 1,1 l 9,9 M 10,1 l -9,9" class="arrowMarkerPath" style="stroke-width: 2; stroke-dasharray: 1, 0;"/></marker><marker id="my-svg_flowchart-v2-crossStart" class="marker cross flowchart-v2" viewBox="0 0 11 11" refX="-1" refY="5.2" markerUnits="userSpaceOnUse" markerWidth="11" markerHeight="11" orient="auto"><path d="M 1,1 l 9,9 M 10,1 l -9,9" class="arrowMarkerPath" style="stroke-width: 2; stroke-dasharray: 1, 0;"/></marker><marker id="my-svg_flowchart-v2-crossEnd-margin" class="marker cross flowchart-v2" viewBox="0 0 15 15" refX="17.7" refY="7.5" markerUnits="userSpaceOnUse" markerWidth="12" markerHeight="12" orient="auto"><path d="M 1,1 L 14,14 M 1,14 L 14,1" class="arrowMarkerPath" style="stroke-width: 2.5;"/></marker><marker id="my-svg_flowchart-v2-crossStart-margin" class="marker cross flowchart-v2" viewBox="0 0 15 15" refX="-3.5" refY="7.5" markerUnits="userSpaceOnUse" markerWidth="12" markerHeight="12" orient="auto"><path d="M 1,1 L 14,14 M 1,14 L 14,1" class="arrowMarkerPath" style="stroke-width: 2.5; stroke-dasharray: 1, 0;"/></marker><g class="root"><g class="clusters"/><g class="edgePaths"><path d="M550.803,33.276L522.161,38.563C493.52,43.851,436.236,54.425,407.595,63.213C378.953,72,378.953,79,378.953,82.5L378.953,86" id="my-svg-L_START_T1_0" class="edge-thickness-normal edge-pattern-solid edge-thickness-normal edge-pattern-solid flowchart-link" style=";" data-edge="true" data-et="edge" data-id="L_START_T1_0" data-points="W3sieCI6NTUwLjgwMzExMzMyMDc4NzksInkiOjMzLjI3NTkzNTY4NzM5NzE0NH0seyJ4IjozNzguOTUzMTI1LCJ5Ijo2NX0seyJ4IjozNzguOTUzMTI1LCJ5Ijo5MH1d" data-look="classic" marker-end="url(#my-svg_flowchart-v2-pointEnd)"/><path d="M305.419,255.247L273.926,274.886C242.433,294.525,179.447,333.803,147.954,360.159C116.461,386.515,116.461,399.948,116.461,406.665L116.461,413.381" id="my-svg-L_T1_TZERO_0" class="edge-thickness-normal edge-pattern-solid edge-thickness-normal edge-pattern-solid flowchart-link" style=";" data-edge="true" data-et="edge" data-id="L_T1_TZERO_0" data-points="W3sieCI6MzA1LjQxODcwMzk0ODM2NjIsInkiOjI1NS4yNDY4Mjg5NDgzNjYyNH0seyJ4IjoxMTYuNDYwOTM3NSwieSI6MzczLjA4MTI0OTIzNzA2MDU1fSx7IngiOjExNi40NjA5Mzc1LCJ5Ijo0MTcuMzgxMjQ4NDc0MTIxMX1d" data-look="classic" marker-end="url(#my-svg_flowchart-v2-pointEnd)"/><path d="M381.338,326.397L381.496,334.177C381.655,341.958,381.972,357.52,382.13,373.484C382.289,389.448,382.289,405.815,382.289,413.998L382.289,422.181" id="my-svg-L_T1_TNEAR_0" class="edge-thickness-normal edge-pattern-solid edge-thickness-normal edge-pattern-solid flowchart-link" style=";" data-edge="true" data-et="edge" data-id="L_T1_TNEAR_0" data-points="W3sieCI6MzgxLjMzNzY1Mzg5NzM0MzQ0LCJ5IjozMjYuMzk2NzIxMTAyNjU2NX0seyJ4IjozODIuMjg5MDYyNSwieSI6MzczLjA4MTI0OTIzNzA2MDU1fSx7IngiOjM4Mi4yODkwNjI1LCJ5Ijo0MjYuMTgxMjQ3NzExMTgxNjR9XQ==" data-look="classic" marker-end="url(#my-svg_flowchart-v2-pointEnd)"/><path d="M454.128,253.606L487.983,273.519C521.838,293.431,589.548,333.256,623.403,359.885C657.258,386.515,657.258,399.948,657.258,406.665L657.258,413.381" id="my-svg-L_T1_TINF_0" class="edge-thickness-normal edge-pattern-solid edge-thickness-normal edge-pattern-solid flowchart-link" style=";" data-edge="true" data-et="edge" data-id="L_T1_TINF_0" data-points="W3sieCI6NDU0LjEyODA2Mzk2MTM5MTQzLCJ5IjoyNTMuNjA2MzExMDM4NjA4NTd9LHsieCI6NjU3LjI1NzgxMjUsInkiOjM3My4wODEyNDkyMzcwNjA1NX0seyJ4Ijo2NTcuMjU3ODEyNSwieSI6NDE3LjM4MTI0ODQ3NDEyMTF9XQ==" data-look="classic" marker-end="url(#my-svg_flowchart-v2-pointEnd)"/><path d="M116.461,499.581L116.461,503.748C116.461,507.915,116.461,516.248,139.29,528.401C162.119,540.555,207.777,556.528,230.606,564.515L253.435,572.502" id="my-svg-L_TZERO_SEL_0" class="edge-thickness-normal edge-pattern-solid edge-thickness-normal edge-pattern-solid flowchart-link" style=";" data-edge="true" data-et="edge" data-id="L_TZERO_SEL_0" data-points="W3sieCI6MTE2LjQ2MDkzNzUsInkiOjQ5OS41ODEyNDU0MjIzNjMzfSx7IngiOjExNi40NjA5Mzc1LCJ5Ijo1MjQuNTgxMjQ1NDIyMzYzM30seyJ4IjoyNTcuMjEwOTM3NSwieSI6NTczLjgyMjY0OTA1NDg3OTV9XQ==" data-look="classic" marker-end="url(#my-svg_flowchart-v2-pointEnd)"/><path d="M382.289,490.781L382.289,496.415C382.289,502.048,382.289,513.315,382.289,522.448C382.289,531.581,382.289,538.581,382.289,542.081L382.289,545.581" id="my-svg-L_TNEAR_SEL_0" class="edge-thickness-normal edge-pattern-solid edge-thickness-normal edge-pattern-solid flowchart-link" style=";" data-edge="true" data-et="edge" data-id="L_TNEAR_SEL_0" data-points="W3sieCI6MzgyLjI4OTA2MjUsInkiOjQ5MC43ODEyNDYxODUzMDI3M30seyJ4IjozODIuMjg5MDYyNSwieSI6NTI0LjU4MTI0NTQyMjM2MzN9LHsieCI6MzgyLjI4OTA2MjUsInkiOjU0OS41ODEyNDU0MjIzNjMzfV0=" data-look="classic" marker-end="url(#my-svg_flowchart-v2-pointEnd)"/><path d="M657.258,499.581L657.258,503.748C657.258,507.915,657.258,516.248,632.908,528.65C608.557,541.053,559.857,557.524,535.507,565.76L511.156,573.996" id="my-svg-L_TINF_SEL_0" class="edge-thickness-normal edge-pattern-solid edge-thickness-normal edge-pattern-solid flowchart-link" style=";" data-edge="true" data-et="edge" data-id="L_TINF_SEL_0" data-points="W3sieCI6NjU3LjI1NzgxMjUsInkiOjQ5OS41ODEyNDU0MjIzNjMzfSx7IngiOjY1Ny4yNTc4MTI1LCJ5Ijo1MjQuNTgxMjQ1NDIyMzYzM30seyJ4Ijo1MDcuMzY3MTg3NSwieSI6NTc1LjI3NzI5MDQyNzQ3NzV9XQ==" data-look="classic" marker-end="url(#my-svg_flowchart-v2-pointEnd)"/><path d="M382.289,685.581L382.289,689.748C382.289,693.915,382.289,702.248,382.289,709.915C382.289,717.581,382.289,724.581,382.289,728.081L382.289,731.581" id="my-svg-L_SEL_IO_0" class="edge-thickness-normal edge-pattern-solid edge-thickness-normal edge-pattern-solid flowchart-link" style=";" data-edge="true" data-et="edge" data-id="L_SEL_IO_0" data-points="W3sieCI6MzgyLjI4OTA2MjUsInkiOjY4NS41ODEyNDU0MjIzNjMzfSx7IngiOjM4Mi4yODkwNjI1LCJ5Ijo3MTAuNTgxMjQ1NDIyMzYzM30seyJ4IjozODIuMjg5MDYyNSwieSI6NzM1LjU4MTI0NTQyMjM2MzN9XQ==" data-look="classic" marker-end="url(#my-svg_flowchart-v2-pointEnd)"/><path d="M382.289,852.981L382.289,857.148C382.289,861.315,382.289,869.648,382.289,877.315C382.289,884.981,382.289,891.981,382.289,895.481L382.289,898.981" id="my-svg-L_IO_TIMERS_0" class="edge-thickness-normal edge-pattern-solid edge-thickness-normal edge-pattern-solid flowchart-link" style=";" data-edge="true" data-et="edge" data-id="L_IO_TIMERS_0" data-points="W3sieCI6MzgyLjI4OTA2MjUsInkiOjg1Mi45ODEyNDY5NDgyNDIyfSx7IngiOjM4Mi4yODkwNjI1LCJ5Ijo4NzcuOTgxMjQ2OTQ4MjQyMn0seyJ4IjozODIuMjg5MDYyNSwieSI6OTAyLjk4MTI0Njk0ODI0MjJ9XQ==" data-look="classic" marker-end="url(#my-svg_flowchart-v2-pointEnd)"/><path d="M382.289,1002.781L382.289,1006.948C382.289,1011.115,382.289,1019.448,396.448,1029.715C410.606,1039.982,438.923,1052.184,453.082,1058.284L467.241,1064.385" id="my-svg-L_TIMERS_DRAIN_0" class="edge-thickness-normal edge-pattern-solid edge-thickness-normal edge-pattern-solid flowchart-link" style=";" data-edge="true" data-et="edge" data-id="L_TIMERS_DRAIN_0" data-points="W3sieCI6MzgyLjI4OTA2MjUsInkiOjEwMDIuNzgxMjV9LHsieCI6MzgyLjI4OTA2MjUsInkiOjEwMjcuNzgxMjV9LHsieCI6NDcwLjkxNDA2MjUsInkiOjEwNjUuOTY3NTAxMzE5MTg5M31d" data-look="classic" marker-end="url(#my-svg_flowchart-v2-pointEnd)"/><path d="M723.023,1065.74L737.645,1059.414C752.267,1053.087,781.51,1040.434,796.132,1021.624C810.754,1002.815,810.754,977.848,810.754,952.881C810.754,927.915,810.754,902.948,810.754,876.515C810.754,850.081,810.754,822.181,810.754,794.281C810.754,766.381,810.754,738.481,810.754,709.031C810.754,679.581,810.754,648.581,810.754,617.581C810.754,586.581,810.754,555.581,810.754,529.065C810.754,502.548,810.754,480.515,810.754,455.265C810.754,430.015,810.754,401.548,810.754,360.033C810.754,318.518,810.754,263.954,810.754,212.607C810.754,161.26,810.754,113.13,783.622,83.928C756.491,54.725,702.227,44.45,675.096,39.312L647.964,34.175" id="my-svg-L_DRAIN_START_0" class="edge-thickness-normal edge-pattern-solid edge-thickness-normal edge-pattern-solid flowchart-link" style=";" data-edge="true" data-et="edge" data-id="L_DRAIN_START_0" data-points="W3sieCI6NzIzLjAyMzQzNzUsInkiOjEwNjUuNzQwMjM4ODM1OTAwNX0seyJ4Ijo4MTAuNzUzOTA2MjUsInkiOjEwMjcuNzgxMjV9LHsieCI6ODEwLjc1MzkwNjI1LCJ5Ijo5NTIuODgxMjQ4NDc0MTIxMX0seyJ4Ijo4MTAuNzUzOTA2MjUsInkiOjg3Ny45ODEyNDY5NDgyNDIyfSx7IngiOjgxMC43NTM5MDYyNSwieSI6Nzk0LjI4MTI0NjE4NTMwMjd9LHsieCI6ODEwLjc1MzkwNjI1LCJ5Ijo3MTAuNTgxMjQ1NDIyMzYzM30seyJ4Ijo4MTAuNzUzOTA2MjUsInkiOjYxNy41ODEyNDU0MjIzNjMzfSx7IngiOjgxMC43NTM5MDYyNSwieSI6NTI0LjU4MTI0NTQyMjM2MzN9LHsieCI6ODEwLjc1MzkwNjI1LCJ5Ijo0NTguNDgxMjQ2OTQ4MjQyMn0seyJ4Ijo4MTAuNzUzOTA2MjUsInkiOjM3My4wODEyNDkyMzcwNjA1NX0seyJ4Ijo4MTAuNzUzOTA2MjUsInkiOjIwOS4zOTA2MjV9LHsieCI6ODEwLjc1MzkwNjI1LCJ5Ijo2NX0seyJ4Ijo2NDQuMDMzODkxMDY4NTIwNSwieSI6MzMuNDMwMzI0MzM3MjgzNTE1fV0=" data-look="classic" marker-end="url(#my-svg_flowchart-v2-pointEnd)"/></g><g class="edgeLabels"><g class="edgeLabel"><g class="label" data-id="L_START_T1_0" transform="translate(0, 0)"><text y="-10.1" text-anchor="middle"><tspan class="text-outer-tspan row" x="0" y="-0.1em" dy="1.1em" text-anchor="middle"/></text></g></g><g><rect class="background" style="stroke: none"/></g><g class="edgeLabel" transform="translate(116.4609375, 373.08124923706055)"><g class="label" data-id="L_T1_TZERO_0" transform="translate(0.5, -11)"><g><rect class="background" style="" x="-64.8125" y="0" width="128.625" height="22"/><text y="-10.1" text-anchor="middle" style=""><tspan class="text-outer-tspan row" x="0" y="-0.1em" dy="1.1em" text-anchor="middle"><tspan font-style="normal" class="text-inner-tspan" font-weight="normal">_ready</tspan><tspan font-style="normal" class="text-inner-tspan" font-weight="normal"> not</tspan><tspan font-style="normal" class="text-inner-tspan" font-weight="normal"> empty</tspan></tspan></text></g></g></g><g class="edgeLabel" transform="translate(382.2890625, 373.08124923706055)"><g class="label" data-id="L_T1_TNEAR_0" transform="translate(0, -19.299999237060547)"><g><rect class="background" style="" x="-54.4765625" y="0" width="108.953125" height="38.599998474121094"/><text y="-10.1" text-anchor="middle" style=""><tspan class="text-outer-tspan row" x="0" y="-0.1em" dy="1.1em" text-anchor="middle"><tspan font-style="normal" class="text-inner-tspan" font-weight="normal">_ready</tspan><tspan font-style="normal" class="text-inner-tspan" font-weight="normal"> empty,</tspan></tspan><tspan class="text-outer-tspan row" x="0" y="1em" dy="1.1em" text-anchor="middle"><tspan font-style="normal" class="text-inner-tspan" font-weight="normal">timers</tspan><tspan font-style="normal" class="text-inner-tspan" font-weight="normal"> pending</tspan></tspan></text></g></g></g><g class="edgeLabel" transform="translate(657.2578125, 373.08124923706055)"><g class="label" data-id="L_T1_TINF_0" transform="translate(0.5, -19.299999237060547)"><g><rect class="background" style="" x="-53.1015625" y="0" width="105.203125" height="38.599998474121094"/><text y="-10.1" text-anchor="middle" style=""><tspan class="text-outer-tspan row" x="0" y="-0.1em" dy="1.1em" text-anchor="middle"><tspan font-style="normal" class="text-inner-tspan" font-weight="normal">_ready</tspan><tspan font-style="normal" class="text-inner-tspan" font-weight="normal"> empty,</tspan></tspan><tspan class="text-outer-tspan row" x="0" y="1em" dy="1.1em" text-anchor="middle"><tspan font-style="normal" class="text-inner-tspan" font-weight="normal">no</tspan><tspan font-style="normal" class="text-inner-tspan" font-weight="normal"> timers</tspan></tspan></text></g></g></g><g class="edgeLabel"><g class="label" data-id="L_TZERO_SEL_0" transform="translate(0, 0)"><text y="-10.1" text-anchor="middle"><tspan class="text-outer-tspan row" x="0" y="-0.1em" dy="1.1em" text-anchor="middle"/></text></g></g><g><rect class="background" style="stroke: none"/></g><g class="edgeLabel"><g class="label" data-id="L_TNEAR_SEL_0" transform="translate(0, 0)"><text y="-10.1" text-anchor="middle"><tspan class="text-outer-tspan row" x="0" y="-0.1em" dy="1.1em" text-anchor="middle"/></text></g></g><g><rect class="background" style="stroke: none"/></g><g class="edgeLabel"><g class="label" data-id="L_TINF_SEL_0" transform="translate(0, 0)"><text y="-10.1" text-anchor="middle"><tspan class="text-outer-tspan row" x="0" y="-0.1em" dy="1.1em" text-anchor="middle"/></text></g></g><g><rect class="background" style="stroke: none"/></g><g class="edgeLabel"><g class="label" data-id="L_SEL_IO_0" transform="translate(0, 0)"><text y="-10.1" text-anchor="middle"><tspan class="text-outer-tspan row" x="0" y="-0.1em" dy="1.1em" text-anchor="middle"/></text></g></g><g><rect class="background" style="stroke: none"/></g><g class="edgeLabel"><g class="label" data-id="L_IO_TIMERS_0" transform="translate(0, 0)"><text y="-10.1" text-anchor="middle"><tspan class="text-outer-tspan row" x="0" y="-0.1em" dy="1.1em" text-anchor="middle"/></text></g></g><g><rect class="background" style="stroke: none"/></g><g class="edgeLabel"><g class="label" data-id="L_TIMERS_DRAIN_0" transform="translate(0, 0)"><text y="-10.1" text-anchor="middle"><tspan class="text-outer-tspan row" x="0" y="-0.1em" dy="1.1em" text-anchor="middle"/></text></g></g><g><rect class="background" style="stroke: none"/></g><g class="edgeLabel"><g class="label" data-id="L_DRAIN_START_0" transform="translate(0, 0)"><text y="-10.1" text-anchor="middle"><tspan class="text-outer-tspan row" x="0" y="-0.1em" dy="1.1em" text-anchor="middle"/></text></g></g><g><rect class="background" style="stroke: none"/></g></g><g class="nodes"><g class="node default" id="my-svg-flowchart-START-0" data-look="classic" transform="translate(596.96875, 24)"><g class="basic label-container outer-path"><path d="M-33.296875 -16 C-12.32047124957851 -16, 8.65593250084298 -16, 33.296875 -16 C33.296875 -16, 33.296875 -16, 33.296875 -16 C33.55101207035754 -15.991850318801433, 33.80514914071507 -15.983700637602865, 34.321998519691405 -15.967126284005381 C34.67363709479057 -15.933204133572826, 35.025275669889744 -15.899281983140268, 35.342909586952096 -15.868640221171939 C35.55467410183212 -15.834403776664477, 35.766438616712136 -15.800167332157015, 36.35541305922195 -15.704946511857047 C36.55711489898013 -15.658909383159756, 36.758816738738304 -15.612872254462463, 37.35534834255211 -15.476717808624471 C37.616562388061396 -15.39919085105782, 37.87777643357069 -15.321663893491168, 38.338606488377934 -15.184891952170698 C38.63266255770951 -15.076676600432172, 38.92671862704108 -14.968461248693645, 39.30114707806999 -14.830668117536348 C39.66022473209661 -14.671715091758916, 40.01930238612323 -14.512762065981484, 40.23901482588093 -14.415501886438706 C40.505423797791025 -14.2765164964363, 40.77183276970112 -14.137531106433894, 41.148355832063004 -13.941099265974232 C41.380624599459566 -13.800296574215652, 41.61289336685612 -13.659493882457074, 42.02543341936878 -13.409409678269451 C42.28604799657459 -13.227616231033897, 42.54666257378039 -13.045822783798343, 42.866643487859456 -12.822617949887306 C43.0849035462598 -12.64856136145711, 43.30316360466015 -12.474504773026917, 43.66852932492461 -12.183135333906153 C43.82218871831606 -12.043585938432798, 43.97584811170751 -11.904036542959442, 44.427795809655784 -11.493589601563642 C44.684931456381236 -11.2280759350904, 44.94206710310669 -10.962562268617159, 45.14132295320505 -10.756814244181072 C45.36068808050977 -10.499135483419597, 45.580053207814494 -10.24145672265812, 45.80617871948848 -9.975836829739738 C46.01583530640377 -9.694916103381237, 46.22549189331907 -9.413995377022736, 46.41963107355129 -9.153866561954718 C46.55293340988234 -8.949078376660907, 46.68623574621339 -8.744290191367096, 46.979159208085534 -8.294281092968403 C47.11743463801279 -8.048759065226966, 47.25571006794005 -7.803237037485529, 47.482463901968 -7.400612643853364 C47.6257794442612 -7.103014853820168, 47.7690949865544 -6.805417063786972, 47.927476968252996 -6.476533489958305 C48.042221090357764 -6.1931132899328505, 48.15696521246253 -5.909693089907396, 48.312369752796165 -5.52584087074093 C48.413416522117906 -5.221504101160171, 48.51446329143965 -4.917167331579414, 48.63556064858657 -4.552441386096524 C48.732361575939 -4.183297496314396, 48.829162503291435 -3.814153606532269, 48.895721594909176 -3.560334943301032 C48.938694155452815 -3.339679927163324, 48.98166671599646 -3.1190249110256163, 49.091783534631205 -2.5535983205340735 C49.13800760198796 -2.195093582089648, 49.184231669344705 -1.8365888436452222, 49.22294080718717 -1.536368414522911 C49.239228440731836 -1.2826753749236235, 49.25551607427649 -1.028982335324336, 49.288654459211 -0.5128252411464826 C49.288654459211 -0.2948082522544596, 49.288654459211 -0.07679126336243658, 49.288654459211 0.5128252411464788 C49.267700168157255 0.8392052383078986, 49.24674587710351 1.1655852354693184, 49.22294080718717 1.5363684145229002 C49.18694253481015 1.8155639064161637, 49.15094426243313 2.094759398309427, 49.091783534631205 2.5535983205340624 C49.029930483422326 2.871200665844633, 48.968077432213455 3.1888030111552044, 48.895721594909176 3.5603349433010285 C48.79941273407927 3.9276023701697915, 48.70310387324936 4.2948697970385545, 48.63556064858657 4.552441386096513 C48.526308489224355 4.881491483127828, 48.417056329862135 5.210541580159142, 48.312369752796165 5.525840870740919 C48.21400521037943 5.76880319225931, 48.115640667962694 6.011765513777701, 47.927476968253 6.4765334899583005 C47.79997120326681 6.741301939138461, 47.67246543828061 7.006070388318622, 47.482463901968 7.400612643853361 C47.344805225584444 7.645039563224902, 47.20714654920088 7.889466482596443, 46.97915920808554 8.294281092968399 C46.829453304757514 8.52426956214405, 46.679747401429495 8.754258031319702, 46.4196310735513 9.15386656195471 C46.28870242402372 9.329299024476315, 46.15777377449614 9.50473148699792, 45.80617871948848 9.975836829739734 C45.6550086823558 10.153409757174572, 45.50383864522312 10.33098268460941, 45.141322953205055 10.756814244181063 C44.91076018203199 10.994889234972803, 44.68019741085893 11.232964225764542, 44.427795809655784 11.493589601563638 C44.16593342669525 11.731406089269418, 43.9040710437347 11.969222576975199, 43.66852932492463 12.183135333906142 C43.44707373012636 12.359740277576885, 43.2256181353281 12.536345221247625, 42.86664348785946 12.822617949887304 C42.5465740769396 13.045884515363515, 42.226504666019736 13.269151080839725, 42.02543341936879 13.409409678269446 C41.83497016318289 13.524869623455672, 41.64450690699698 13.640329568641897, 41.148355832063004 13.94109926597423 C40.91287411781108 14.063949925466224, 40.67739240355915 14.186800584958217, 40.23901482588093 14.415501886438705 C39.94794587100856 14.544349478506934, 39.656876916136184 14.673197070575162, 39.301147078069995 14.830668117536346 C38.94291063272747 14.962502440923794, 38.58467418738495 15.094336764311242, 38.33860648837794 15.184891952170695 C37.95290993523288 15.299364664581628, 37.56721338208783 15.41383737699256, 37.35534834255213 15.476717808624468 C37.10326121347353 15.534255050814407, 36.85117408439493 15.591792293004344, 36.35541305922196 15.704946511857045 C36.06418561332843 15.752029906806536, 35.772958167434915 15.799113301756027, 35.3429095869521 15.868640221171937 C34.989917727908164 15.902692921279083, 34.63692586886423 15.93674562138623, 34.321998519691405 15.967126284005381 C34.04362161903153 15.976053289381777, 33.76524471837166 15.984980294758174, 33.296875 16 C33.296875 16, 33.296875 16, 33.296875 16 C14.03147241497743 16, -5.2339301700451415 16, -33.296875 16 C-33.595176621461725 15.990434047608606, -33.89347824292344 15.980868095217211, -34.3219985196914 15.967126284005381 C-34.57018642113621 15.943183895642623, -34.818374322581036 15.919241507279862, -35.342909586952096 15.868640221171937 C-35.65299434851089 15.818508121666353, -35.96307911006967 15.76837602216077, -36.35541305922196 15.704946511857045 C-36.62058044408636 15.644423786640644, -36.885747828950755 15.583901061424243, -37.35534834255211 15.476717808624471 C-37.58857759794099 15.407496589870396, -37.82180685332987 15.338275371116323, -38.33860648837792 15.184891952170702 C-38.62194818988845 15.08061958683285, -38.905289891398986 14.976347221494997, -39.30114707806999 14.830668117536348 C-39.50633032656499 14.739839579972422, -39.71151357505999 14.649011042408498, -40.23901482588093 14.415501886438708 C-40.43220819633556 14.314713028818787, -40.62540156679019 14.213924171198865, -41.148355832063 13.941099265974234 C-41.403251094800524 13.786580259771915, -41.658146357538044 13.632061253569598, -42.02543341936877 13.409409678269457 C-42.34910656697667 13.183629302082915, -42.67277971458458 12.957848925896375, -42.866643487859456 12.822617949887308 C-43.128268134615716 12.61397925622343, -43.38989278137198 12.405340562559553, -43.66852932492461 12.183135333906154 C-43.960911542322584 11.91760154007487, -44.253293759720556 11.652067746243583, -44.42779580965578 11.493589601563649 C-44.6602695573704 11.253541370598652, -44.89274330508503 11.013493139633656, -45.14132295320505 10.756814244181069 C-45.328696189654394 10.536714978808476, -45.51606942610374 10.316615713435882, -45.80617871948847 9.97583682973974 C-46.00153951207875 9.714071165403103, -46.19690030466903 9.45230550106647, -46.41963107355129 9.15386656195472 C-46.550052212937935 8.953504668877228, -46.68047335232458 8.753142775799734, -46.979159208085534 8.29428109296841 C-47.123800753726414 8.037455382138319, -47.26844229936729 7.78062967130823, -47.482463901968 7.400612643853366 C-47.6015413061537 7.153345866213475, -47.720618710339394 6.906079088573584, -47.927476968252996 6.476533489958307 C-48.00655108273023 6.281218898405529, -48.08562519720747 6.0859043068527505, -48.312369752796165 5.525840870740931 C-48.39750364803189 5.269431142535072, -48.482637543267614 5.013021414329211, -48.63556064858657 4.552441386096519 C-48.72981757133495 4.1929988884482325, -48.82407449408332 3.833556390799946, -48.895721594909176 3.5603349433010343 C-48.963504829194214 3.2122823612390192, -49.03128806347925 2.864229779177004, -49.091783534631205 2.5535983205340753 C-49.12609700966162 2.287469784160211, -49.16041048469204 2.021341247786347, -49.22294080718717 1.5363684145229202 C-49.24740645386486 1.1552962192033152, -49.27187210054255 0.7742240238837103, -49.288654459211 0.5128252411464846 C-49.288654459211 0.22284447663552648, -49.288654459211 -0.06713628787543169, -49.288654459211 -0.5128252411464769 C-49.262994122615005 -0.9125056962800233, -49.237333786019015 -1.3121861514135698, -49.22294080718717 -1.5363684145228982 C-49.18405127094967 -1.8379879779733825, -49.145161734712175 -2.139607541423867, -49.091783534631205 -2.5535983205340678 C-49.039123754927004 -2.8239951596667545, -48.986463975222804 -3.0943919987994417, -48.895721594909176 -3.5603349433010267 C-48.79704435651252 -3.9366340202931394, -48.69836711811586 -4.312933097285252, -48.635560648586576 -4.552441386096511 C-48.511831393905645 -4.925094187615905, -48.388102139224706 -5.297746989135298, -48.31236975279617 -5.525840870740911 C-48.18330440394595 -5.844634777709738, -48.05423905509572 -6.163428684678564, -47.927476968253 -6.476533489958299 C-47.79478946115281 -6.7520619375096995, -47.66210195405261 -7.0275903850611, -47.482463901968 -7.400612643853359 C-47.342768263629054 -7.648656395441453, -47.203072625290105 -7.896700147029546, -46.979159208085534 -8.294281092968404 C-46.81871823170235 -8.54076151712753, -46.658277255319156 -8.787241941286657, -46.419631073551294 -9.153866561954715 C-46.283660032070536 -9.33605537032222, -46.14768899058978 -9.518244178689725, -45.80617871948848 -9.975836829739734 C-45.6622125852837 -10.144947642881773, -45.518246451078916 -10.314058456023814, -45.141322953205055 -10.756814244181063 C-44.92772133366958 -10.977375453370547, -44.71411971413411 -11.19793666256003, -44.42779580965579 -11.493589601563633 C-44.23103360143995 -11.672283833022513, -44.03427139322411 -11.850978064481394, -43.66852932492463 -12.18313533390614 C-43.3978494633616 -12.398995320409025, -43.127169601798585 -12.614855306911908, -42.86664348785946 -12.822617949887302 C-42.636309316487406 -12.983289096830875, -42.40597514511535 -13.143960243774448, -42.02543341936879 -13.409409678269444 C-41.710790848656295 -13.600147853680344, -41.396148277943794 -13.790886029091245, -41.148355832063004 -13.941099265974229 C-40.93733126766142 -14.05119064605485, -40.726306703259844 -14.16128202613547, -40.239014825880936 -14.415501886438705 C-40.01859087376203 -14.513077031397524, -39.79816692164312 -14.610652176356341, -39.301147078069995 -14.830668117536344 C-38.91928260401329 -14.971197773905715, -38.537418129956585 -15.111727430275085, -38.33860648837794 -15.184891952170695 C-38.08272516392167 -15.260836186120834, -37.826843839465404 -15.336780420070975, -37.35534834255213 -15.476717808624466 C-37.040996827019654 -15.548466490709409, -36.726645311487175 -15.620215172794351, -36.355413059221966 -15.704946511857043 C-35.9730590101586 -15.766762549309673, -35.59070496109524 -15.828578586762301, -35.3429095869521 -15.868640221171937 C-34.95493249017772 -15.906067905087035, -34.56695539340334 -15.943495589002135, -34.321998519691405 -15.967126284005381 C-33.92956158703603 -15.979710972603488, -33.53712465438065 -15.992295661201597, -33.29687500000001 -16 C-33.29687500000001 -16, -33.29687500000001 -16, -33.296875 -16" stroke="none" stroke-width="0" fill="#ECECFF" style=""/><path d="M-33.296875 -16 C-19.273860102603933 -16, -5.250845205207863 -16, 33.296875 -16 M-33.296875 -16 C-8.84904340648189 -16, 15.59878818703622 -16, 33.296875 -16 M33.296875 -16 C33.296875 -16, 33.296875 -16, 33.296875 -16 M33.296875 -16 C33.296875 -16, 33.296875 -16, 33.296875 -16 M33.296875 -16 C33.511425545700845 -15.993119781596677, 33.725976091401684 -15.986239563193354, 34.321998519691405 -15.967126284005381 M33.296875 -16 C33.643207520430025 -15.988893790165164, 33.98954004086005 -15.97778758033033, 34.321998519691405 -15.967126284005381 M34.321998519691405 -15.967126284005381 C34.718968792777574 -15.928831039187363, 35.115939065863735 -15.890535794369343, 35.342909586952096 -15.868640221171939 M34.321998519691405 -15.967126284005381 C34.55841498213938 -15.94431947220542, 34.794831444587366 -15.92151266040546, 35.342909586952096 -15.868640221171939 M35.342909586952096 -15.868640221171939 C35.591171279689156 -15.828503195988391, 35.839432972426216 -15.788366170804846, 36.35541305922195 -15.704946511857047 M35.342909586952096 -15.868640221171939 C35.59973123955074 -15.827119288061452, 35.85655289214939 -15.785598354950965, 36.35541305922195 -15.704946511857047 M36.35541305922195 -15.704946511857047 C36.74119074655399 -15.616895272158185, 37.126968433886034 -15.528844032459322, 37.35534834255211 -15.476717808624471 M36.35541305922195 -15.704946511857047 C36.64803920657589 -15.638156503287581, 36.940665353929816 -15.571366494718115, 37.35534834255211 -15.476717808624471 M37.35534834255211 -15.476717808624471 C37.56555877446995 -15.414328455848333, 37.77576920638778 -15.351939103072194, 38.338606488377934 -15.184891952170698 M37.35534834255211 -15.476717808624471 C37.72305687200438 -15.367583847224497, 38.09076540145665 -15.258449885824522, 38.338606488377934 -15.184891952170698 M38.338606488377934 -15.184891952170698 C38.61297179756785 -15.083922982183694, 38.88733710675776 -14.98295401219669, 39.30114707806999 -14.830668117536348 M38.338606488377934 -15.184891952170698 C38.69421091688044 -15.054026235310475, 39.04981534538294 -14.923160518450251, 39.30114707806999 -14.830668117536348 M39.30114707806999 -14.830668117536348 C39.504619474993014 -14.740596923212728, 39.70809187191603 -14.650525728889107, 40.23901482588093 -14.415501886438706 M39.30114707806999 -14.830668117536348 C39.51989836096789 -14.733833413623698, 39.73864964386579 -14.636998709711047, 40.23901482588093 -14.415501886438706 M40.23901482588093 -14.415501886438706 C40.574870329550244 -14.240286285300144, 40.91072583321955 -14.065070684161583, 41.148355832063004 -13.941099265974232 M40.23901482588093 -14.415501886438706 C40.476230985029225 -14.29174636815524, 40.71344714417753 -14.167990849871774, 41.148355832063004 -13.941099265974232 M41.148355832063004 -13.941099265974232 C41.45596321232624 -13.75462586435704, 41.763570592589474 -13.568152462739848, 42.02543341936878 -13.409409678269451 M41.148355832063004 -13.941099265974232 C41.39821804797115 -13.789631322337348, 41.6480802638793 -13.638163378700463, 42.02543341936878 -13.409409678269451 M42.02543341936878 -13.409409678269451 C42.329390628237725 -13.197382287457975, 42.63334783710667 -12.9853548966465, 42.866643487859456 -12.822617949887306 M42.02543341936878 -13.409409678269451 C42.198128572437874 -13.288945015341142, 42.37082372550696 -13.16848035241283, 42.866643487859456 -12.822617949887306 M42.866643487859456 -12.822617949887306 C43.03666880201996 -12.687027286407933, 43.206694116180465 -12.55143662292856, 43.66852932492461 -12.183135333906153 M42.866643487859456 -12.822617949887306 C43.04972980373444 -12.67661148510849, 43.23281611960942 -12.530605020329675, 43.66852932492461 -12.183135333906153 M43.66852932492461 -12.183135333906153 C43.95147481749408 -11.926171723882058, 44.23442031006355 -11.669208113857964, 44.427795809655784 -11.493589601563642 M43.66852932492461 -12.183135333906153 C43.8340555608442 -12.032808786028191, 43.99958179676379 -11.88248223815023, 44.427795809655784 -11.493589601563642 M44.427795809655784 -11.493589601563642 C44.62327712012789 -11.29173909918713, 44.81875843059999 -11.089888596810615, 45.14132295320505 -10.756814244181072 M44.427795809655784 -11.493589601563642 C44.69322568589202 -11.219511462151612, 44.95865556212825 -10.945433322739582, 45.14132295320505 -10.756814244181072 M45.14132295320505 -10.756814244181072 C45.4048230100221 -10.447292083865781, 45.66832306683915 -10.13776992355049, 45.80617871948848 -9.975836829739738 M45.14132295320505 -10.756814244181072 C45.315226683808596 -10.552537026811551, 45.48913041441214 -10.348259809442029, 45.80617871948848 -9.975836829739738 M45.80617871948848 -9.975836829739738 C45.96761348082365 -9.759528956559915, 46.129048242158824 -9.543221083380093, 46.41963107355129 -9.153866561954718 M45.80617871948848 -9.975836829739738 C45.96165973874604 -9.767506428546845, 46.11714075800361 -9.559176027353955, 46.41963107355129 -9.153866561954718 M46.41963107355129 -9.153866561954718 C46.61151172018405 -8.859086361558695, 46.80339236681681 -8.564306161162671, 46.979159208085534 -8.294281092968403 M46.41963107355129 -9.153866561954718 C46.62840309438546 -8.83313667481625, 46.83717511521964 -8.512406787677785, 46.979159208085534 -8.294281092968403 M46.979159208085534 -8.294281092968403 C47.13662188497676 -8.014690165322994, 47.294084561868 -7.735099237677584, 47.482463901968 -7.400612643853364 M46.979159208085534 -8.294281092968403 C47.08049853175988 -8.114342862065344, 47.18183785543422 -7.934404631162287, 47.482463901968 -7.400612643853364 M47.482463901968 -7.400612643853364 C47.59468766077209 -7.167577607492914, 47.706911419576166 -6.934542571132465, 47.927476968252996 -6.476533489958305 M47.482463901968 -7.400612643853364 C47.64370448730645 -7.065793118402231, 47.80494507264489 -6.7309735929510985, 47.927476968252996 -6.476533489958305 M47.927476968252996 -6.476533489958305 C48.037626807106065 -6.2044612583889664, 48.147776645959134 -5.932389026819629, 48.312369752796165 -5.52584087074093 M47.927476968252996 -6.476533489958305 C48.00545440689856 -6.283927708912546, 48.083431845544126 -6.091321927866787, 48.312369752796165 -5.52584087074093 M48.312369752796165 -5.52584087074093 C48.42015688290862 -5.201203208389176, 48.527944013021084 -4.876565546037421, 48.63556064858657 -4.552441386096524 M48.312369752796165 -5.52584087074093 C48.40211668628491 -5.25553740630479, 48.49186361977367 -4.985233941868651, 48.63556064858657 -4.552441386096524 M48.63556064858657 -4.552441386096524 C48.72127359218401 -4.225580783934721, 48.80698653578146 -3.898720181772917, 48.895721594909176 -3.560334943301032 M48.63556064858657 -4.552441386096524 C48.688745588212385 -4.349624160804654, 48.74193052783819 -4.146806935512785, 48.895721594909176 -3.560334943301032 M48.895721594909176 -3.560334943301032 C48.970032531743946 -3.1787639882765553, 49.04434346857872 -2.797193033252079, 49.091783534631205 -2.5535983205340735 M48.895721594909176 -3.560334943301032 C48.935001498953646 -3.358640937843339, 48.974281402998116 -3.156946932385646, 49.091783534631205 -2.5535983205340735 M49.091783534631205 -2.5535983205340735 C49.11951727304126 -2.3385009220717805, 49.14725101145132 -2.1234035236094875, 49.22294080718717 -1.536368414522911 M49.091783534631205 -2.5535983205340735 C49.129555627045676 -2.26064543071074, 49.16732771946015 -1.967692540887407, 49.22294080718717 -1.536368414522911 M49.22294080718717 -1.536368414522911 C49.23771427730929 -1.3062596924404484, 49.25248774743141 -1.0761509703579857, 49.288654459211 -0.5128252411464826 M49.22294080718717 -1.536368414522911 C49.24760706171963 -1.152171589937594, 49.27227331625208 -0.7679747653522767, 49.288654459211 -0.5128252411464826 M49.288654459211 -0.5128252411464826 C49.288654459211 -0.23574620235053717, 49.288654459211 0.041332836445408305, 49.288654459211 0.5128252411464788 M49.288654459211 -0.5128252411464826 C49.288654459211 -0.23745938826965496, 49.288654459211 0.03790646460717273, 49.288654459211 0.5128252411464788 M49.288654459211 0.5128252411464788 C49.26905769136477 0.8180607185777832, 49.24946092351855 1.1232961960090875, 49.22294080718717 1.5363684145229002 M49.288654459211 0.5128252411464788 C49.2734576728424 0.749527455462674, 49.25826088647379 0.9862296697788691, 49.22294080718717 1.5363684145229002 M49.22294080718717 1.5363684145229002 C49.1752573769716 1.906191683116525, 49.12757394675604 2.27601495171015, 49.091783534631205 2.5535983205340624 M49.22294080718717 1.5363684145229002 C49.19283521685363 1.7698614281286318, 49.16272962652008 2.003354441734363, 49.091783534631205 2.5535983205340624 M49.091783534631205 2.5535983205340624 C49.027559269429766 2.883376348540196, 48.96333500422833 3.21315437654633, 48.895721594909176 3.5603349433010285 M49.091783534631205 2.5535983205340624 C49.029592756536175 2.872934822026434, 48.967401978441146 3.192271323518805, 48.895721594909176 3.5603349433010285 M48.895721594909176 3.5603349433010285 C48.81293483947292 3.876036721786243, 48.730148084036664 4.191738500271457, 48.63556064858657 4.552441386096513 M48.895721594909176 3.5603349433010285 C48.796324890439145 3.939377656249487, 48.69692818596911 4.318420369197946, 48.63556064858657 4.552441386096513 M48.63556064858657 4.552441386096513 C48.531857429355014 4.864778959557811, 48.428154210123466 5.17711653301911, 48.312369752796165 5.525840870740919 M48.63556064858657 4.552441386096513 C48.54299291183064 4.831240660539431, 48.450425175074706 5.110039934982349, 48.312369752796165 5.525840870740919 M48.312369752796165 5.525840870740919 C48.206543474288374 5.787233824667067, 48.10071719578059 6.048626778593214, 47.927476968253 6.4765334899583005 M48.312369752796165 5.525840870740919 C48.224033313806956 5.74403358291313, 48.13569687481775 5.962226295085341, 47.927476968253 6.4765334899583005 M47.927476968253 6.4765334899583005 C47.76750443929125 6.808719869211166, 47.6075319103295 7.140906248464032, 47.482463901968 7.400612643853361 M47.927476968253 6.4765334899583005 C47.77426561049963 6.794680152531067, 47.62105425274627 7.112826815103834, 47.482463901968 7.400612643853361 M47.482463901968 7.400612643853361 C47.314485719482036 7.698874916492634, 47.14650753699607 7.997137189131907, 46.97915920808554 8.294281092968399 M47.482463901968 7.400612643853361 C47.3784026953469 7.585383853548933, 47.274341488725796 7.7701550632445056, 46.97915920808554 8.294281092968399 M46.97915920808554 8.294281092968399 C46.86292662632186 8.47284555137583, 46.74669404455817 8.651410009783259, 46.4196310735513 9.15386656195471 M46.97915920808554 8.294281092968399 C46.76461411918951 8.623879962935709, 46.550069030293486 8.953478832903018, 46.4196310735513 9.15386656195471 M46.4196310735513 9.15386656195471 C46.27216454345718 9.35145827780357, 46.12469801336305 9.549049993652428, 45.80617871948848 9.975836829739734 M46.4196310735513 9.15386656195471 C46.259486454327096 9.368445762240201, 46.099341835102884 9.583024962525691, 45.80617871948848 9.975836829739734 M45.80617871948848 9.975836829739734 C45.57139711142791 10.251624666019628, 45.33661550336735 10.527412502299523, 45.141322953205055 10.756814244181063 M45.80617871948848 9.975836829739734 C45.63862164280547 10.172658906279352, 45.471064566122465 10.36948098281897, 45.141322953205055 10.756814244181063 M45.141322953205055 10.756814244181063 C44.928984821313755 10.97607079864367, 44.71664668942246 11.195327353106276, 44.427795809655784 11.493589601563638 M45.141322953205055 10.756814244181063 C44.91096842186969 10.994674210243575, 44.68061389053432 11.232534176306087, 44.427795809655784 11.493589601563638 M44.427795809655784 11.493589601563638 C44.27408296925692 11.63318753619499, 44.12037012885807 11.772785470826342, 43.66852932492463 12.183135333906142 M44.427795809655784 11.493589601563638 C44.27291827254904 11.634245282928905, 44.1180407354423 11.77490096429417, 43.66852932492463 12.183135333906142 M43.66852932492463 12.183135333906142 C43.45641855603646 12.352288027589841, 43.244307787148294 12.52144072127354, 42.86664348785946 12.822617949887304 M43.66852932492463 12.183135333906142 C43.442493352450235 12.363393006884625, 43.21645737997584 12.543650679863108, 42.86664348785946 12.822617949887304 M42.86664348785946 12.822617949887304 C42.58213243520974 13.02108054393078, 42.297621382560024 13.21954313797426, 42.02543341936879 13.409409678269446 M42.86664348785946 12.822617949887304 C42.58838866565608 13.016716468399267, 42.310133843452704 13.210814986911227, 42.02543341936879 13.409409678269446 M42.02543341936879 13.409409678269446 C41.83285162503421 13.526153893731314, 41.64026983069963 13.64289810919318, 41.148355832063004 13.94109926597423 M42.02543341936879 13.409409678269446 C41.82287198367796 13.532203610968352, 41.62031054798713 13.654997543667259, 41.148355832063004 13.94109926597423 M41.148355832063004 13.94109926597423 C40.93806212469178 14.050809358410248, 40.72776841732056 14.160519450846266, 40.23901482588093 14.415501886438705 M41.148355832063004 13.94109926597423 C40.906687979801895 14.067177229703205, 40.66502012754078 14.193255193432181, 40.23901482588093 14.415501886438705 M40.23901482588093 14.415501886438705 C39.96282155637264 14.537764453867783, 39.68662828686434 14.660027021296864, 39.301147078069995 14.830668117536346 M40.23901482588093 14.415501886438705 C39.91353766491316 14.5595809706622, 39.588060503945385 14.703660054885693, 39.301147078069995 14.830668117536346 M39.301147078069995 14.830668117536346 C39.03712101518093 14.927832149309692, 38.77309495229186 15.02499618108304, 38.33860648837794 15.184891952170695 M39.301147078069995 14.830668117536346 C39.09225597541091 14.907541974283076, 38.88336487275182 14.984415831029807, 38.33860648837794 15.184891952170695 M38.33860648837794 15.184891952170695 C37.98115444282953 15.290981842985389, 37.62370239728112 15.397071733800082, 37.35534834255213 15.476717808624468 M38.33860648837794 15.184891952170695 C38.111657496131976 15.252249221789727, 37.88470850388602 15.31960649140876, 37.35534834255213 15.476717808624468 M37.35534834255213 15.476717808624468 C37.07205608626577 15.541377417467093, 36.788763829979395 15.60603702630972, 36.35541305922196 15.704946511857045 M37.35534834255213 15.476717808624468 C36.99429094876344 15.559126802637051, 36.63323355497475 15.641535796649634, 36.35541305922196 15.704946511857045 M36.35541305922196 15.704946511857045 C36.009888025364766 15.760808319744418, 35.664362991507566 15.816670127631793, 35.3429095869521 15.868640221171937 M36.35541305922196 15.704946511857045 C35.95736417763691 15.769299968116536, 35.559315296051864 15.833653424376028, 35.3429095869521 15.868640221171937 M35.3429095869521 15.868640221171937 C35.10057236525349 15.892018201496052, 34.858235143554886 15.915396181820167, 34.321998519691405 15.967126284005381 M35.3429095869521 15.868640221171937 C35.019262864758325 15.89986203121984, 34.69561614256454 15.931083841267743, 34.321998519691405 15.967126284005381 M34.321998519691405 15.967126284005381 C33.932938126937486 15.979602693540885, 33.543877734183575 15.992079103076389, 33.296875 16 M34.321998519691405 15.967126284005381 C34.08003223543766 15.974885671782598, 33.83806595118392 15.982645059559815, 33.296875 16 M33.296875 16 C33.296875 16, 33.296875 16, 33.296875 16 M33.296875 16 C33.296875 16, 33.296875 16, 33.296875 16 M33.296875 16 C8.392525475396262 16, -16.511824049207476 16, -33.296875 16 M33.296875 16 C10.51461620464491 16, -12.267642590710182 16, -33.296875 16 M-33.296875 16 C-33.56438161032301 15.99142158367697, -33.83188822064602 15.982843167353941, -34.3219985196914 15.967126284005381 M-33.296875 16 C-33.57611912157171 15.991045184536905, -33.855363243143415 15.98209036907381, -34.3219985196914 15.967126284005381 M-34.3219985196914 15.967126284005381 C-34.584343238683985 15.941818204479853, -34.84668795767657 15.916510124954323, -35.342909586952096 15.868640221171937 M-34.3219985196914 15.967126284005381 C-34.592958516615546 15.940987098979182, -34.863918513539694 15.914847913952983, -35.342909586952096 15.868640221171937 M-35.342909586952096 15.868640221171937 C-35.60278142151896 15.826626158295342, -35.862653256085835 15.784612095418748, -36.35541305922196 15.704946511857045 M-35.342909586952096 15.868640221171937 C-35.742664686626455 15.804010916803685, -36.14241978630082 15.739381612435434, -36.35541305922196 15.704946511857045 M-36.35541305922196 15.704946511857045 C-36.62957576999519 15.642370662201941, -36.903738480768425 15.579794812546835, -37.35534834255211 15.476717808624471 M-36.35541305922196 15.704946511857045 C-36.616484936356734 15.645358559554246, -36.8775568134915 15.585770607251447, -37.35534834255211 15.476717808624471 M-37.35534834255211 15.476717808624471 C-37.68528633508543 15.378793944320448, -38.015224327618746 15.280870080016422, -38.33860648837792 15.184891952170702 M-37.35534834255211 15.476717808624471 C-37.71609209201445 15.369650957366632, -38.076835841476786 15.262584106108791, -38.33860648837792 15.184891952170702 M-38.33860648837792 15.184891952170702 C-38.700951736239695 15.051545551474817, -39.06329698410146 14.918199150778932, -39.30114707806999 14.830668117536348 M-38.33860648837792 15.184891952170702 C-38.56961568631669 15.099878431903619, -38.800624884255456 15.014864911636534, -39.30114707806999 14.830668117536348 M-39.30114707806999 14.830668117536348 C-39.61678103193236 14.690946329110051, -39.932414985794736 14.551224540683755, -40.23901482588093 14.415501886438708 M-39.30114707806999 14.830668117536348 C-39.59029031796985 14.702672982362145, -39.87943355786971 14.574677847187942, -40.23901482588093 14.415501886438708 M-40.23901482588093 14.415501886438708 C-40.50682101875895 14.275787567152298, -40.77462721163697 14.136073247865886, -41.148355832063 13.941099265974234 M-40.23901482588093 14.415501886438708 C-40.53473993864255 14.261222284531945, -40.83046505140417 14.106942682625183, -41.148355832063 13.941099265974234 M-41.148355832063 13.941099265974234 C-41.412521380148775 13.78096055831556, -41.67668692823455 13.620821850656885, -42.02543341936877 13.409409678269457 M-41.148355832063 13.941099265974234 C-41.41784681233975 13.777732250025679, -41.6873377926165 13.614365234077123, -42.02543341936877 13.409409678269457 M-42.02543341936877 13.409409678269457 C-42.26870602279119 13.239713241223244, -42.51197862621362 13.070016804177031, -42.866643487859456 12.822617949887308 M-42.02543341936877 13.409409678269457 C-42.3370976043253 13.192006234568897, -42.64876178928184 12.974602790868335, -42.866643487859456 12.822617949887308 M-42.866643487859456 12.822617949887308 C-43.08775640996998 12.646286278566139, -43.3088693320805 12.46995460724497, -43.66852932492461 12.183135333906154 M-42.866643487859456 12.822617949887308 C-43.147346199211874 12.598765007396615, -43.42804891056429 12.374912064905923, -43.66852932492461 12.183135333906154 M-43.66852932492461 12.183135333906154 C-43.951272753460685 11.926355233090865, -44.234016181996765 11.669575132275575, -44.42779580965578 11.493589601563649 M-43.66852932492461 12.183135333906154 C-43.886031204943485 11.98560588125741, -44.10353308496235 11.788076428608665, -44.42779580965578 11.493589601563649 M-44.42779580965578 11.493589601563649 C-44.69519552240465 11.217477444225727, -44.962595235153536 10.941365286887805, -45.14132295320505 10.756814244181069 M-44.42779580965578 11.493589601563649 C-44.6701717002946 11.243316595048356, -44.912547590933436 10.993043588533064, -45.14132295320505 10.756814244181069 M-45.14132295320505 10.756814244181069 C-45.40324665781155 10.449143756869265, -45.66517036241806 10.141473269557464, -45.80617871948847 9.97583682973974 M-45.14132295320505 10.756814244181069 C-45.3134278345338 10.554650057527144, -45.485532715862554 10.352485870873219, -45.80617871948847 9.97583682973974 M-45.80617871948847 9.97583682973974 C-46.0261316289142 9.68111996923154, -46.24608453833992 9.38640310872334, -46.41963107355129 9.15386656195472 M-45.80617871948847 9.97583682973974 C-45.989286895427554 9.730488555479369, -46.17239507136664 9.485140281219, -46.41963107355129 9.15386656195472 M-46.41963107355129 9.15386656195472 C-46.56848931036298 8.925180336178487, -46.71734754717467 8.696494110402254, -46.979159208085534 8.29428109296841 M-46.41963107355129 9.15386656195472 C-46.549916334241416 8.953713415043618, -46.680201594931546 8.753560268132514, -46.979159208085534 8.29428109296841 M-46.979159208085534 8.29428109296841 C-47.14317896700164 8.003047402211276, -47.30719872591775 7.711813711454144, -47.482463901968 7.400612643853366 M-46.979159208085534 8.29428109296841 C-47.102982232942594 8.074420773893806, -47.22680525779966 7.854560454819203, -47.482463901968 7.400612643853366 M-47.482463901968 7.400612643853366 C-47.64458775236105 7.063958999617507, -47.8067116027541 6.727305355381649, -47.927476968252996 6.476533489958307 M-47.482463901968 7.400612643853366 C-47.62914840935251 7.096019125723769, -47.77583291673701 6.791425607594172, -47.927476968252996 6.476533489958307 M-47.927476968252996 6.476533489958307 C-48.005429826461814 6.283988423066547, -48.08338268467063 6.091443356174787, -48.312369752796165 5.525840870740931 M-47.927476968252996 6.476533489958307 C-48.029910323562966 6.223521121928487, -48.132343678872935 5.970508753898667, -48.312369752796165 5.525840870740931 M-48.312369752796165 5.525840870740931 C-48.386596958504114 5.3022803536477445, -48.46082416421206 5.078719836554557, -48.63556064858657 4.552441386096519 M-48.312369752796165 5.525840870740931 C-48.42510137309718 5.186311191738773, -48.53783299339819 4.846781512736616, -48.63556064858657 4.552441386096519 M-48.63556064858657 4.552441386096519 C-48.72247131356336 4.221013353219531, -48.80938197854016 3.8895853203425426, -48.895721594909176 3.5603349433010343 M-48.63556064858657 4.552441386096519 C-48.72675765714625 4.204667667424927, -48.817954665705926 3.856893948753335, -48.895721594909176 3.5603349433010343 M-48.895721594909176 3.5603349433010343 C-48.96026701482664 3.228907853704192, -49.024812434744106 2.89748076410735, -49.091783534631205 2.5535983205340753 M-48.895721594909176 3.5603349433010343 C-48.95115467240499 3.2756978061451036, -49.00658774990081 2.991060668989173, -49.091783534631205 2.5535983205340753 M-49.091783534631205 2.5535983205340753 C-49.13299044050495 2.234005695801263, -49.17419734637869 1.9144130710684508, -49.22294080718717 1.5363684145229202 M-49.091783534631205 2.5535983205340753 C-49.138108834036295 2.1943084463132605, -49.184434133441385 1.8350185720924461, -49.22294080718717 1.5363684145229202 M-49.22294080718717 1.5363684145229202 C-49.23730086917324 1.312698857856451, -49.251660931159314 1.0890293011899816, -49.288654459211 0.5128252411464846 M-49.22294080718717 1.5363684145229202 C-49.24786976462664 1.1480797801108404, -49.27279872206612 0.7597911456987605, -49.288654459211 0.5128252411464846 M-49.288654459211 0.5128252411464846 C-49.288654459211 0.14919933983079858, -49.288654459211 -0.21442656148488748, -49.288654459211 -0.5128252411464769 M-49.288654459211 0.5128252411464846 C-49.288654459211 0.30361360403948057, -49.288654459211 0.09440196693247643, -49.288654459211 -0.5128252411464769 M-49.288654459211 -0.5128252411464769 C-49.27171986807107 -0.7765951675069309, -49.25478527693113 -1.040365093867385, -49.22294080718717 -1.5363684145228982 M-49.288654459211 -0.5128252411464769 C-49.27134999556118 -0.7823562304040936, -49.25404553191136 -1.0518872196617104, -49.22294080718717 -1.5363684145228982 M-49.22294080718717 -1.5363684145228982 C-49.19417256492281 -1.7594892205933108, -49.165404322658446 -1.9826100266637234, -49.091783534631205 -2.5535983205340678 M-49.22294080718717 -1.5363684145228982 C-49.17319924876539 -1.922154119060485, -49.12345769034362 -2.3079398235980717, -49.091783534631205 -2.5535983205340678 M-49.091783534631205 -2.5535983205340678 C-49.05057521721359 -2.765194321092518, -49.009366899795985 -2.976790321650969, -48.895721594909176 -3.5603349433010267 M-49.091783534631205 -2.5535983205340678 C-49.04722854960378 -2.782378751950474, -49.002673564576355 -3.0111591833668796, -48.895721594909176 -3.5603349433010267 M-48.895721594909176 -3.5603349433010267 C-48.83000828168942 -3.81092828693805, -48.76429496846968 -4.061521630575073, -48.635560648586576 -4.552441386096511 M-48.895721594909176 -3.5603349433010267 C-48.828172579229474 -3.8179286160163275, -48.76062356354977 -4.075522288731628, -48.635560648586576 -4.552441386096511 M-48.635560648586576 -4.552441386096511 C-48.56406079972664 -4.767787538908789, -48.4925609508667 -4.983133691721067, -48.31236975279617 -5.525840870740911 M-48.635560648586576 -4.552441386096511 C-48.56904256644515 -4.752783251289364, -48.50252448430372 -4.9531251164822185, -48.31236975279617 -5.525840870740911 M-48.31236975279617 -5.525840870740911 C-48.22675653437487 -5.7373071754605025, -48.14114331595357 -5.948773480180094, -47.927476968253 -6.476533489958299 M-48.31236975279617 -5.525840870740911 C-48.19050904501096 -5.826839174986884, -48.06864833722575 -6.1278374792328565, -47.927476968253 -6.476533489958299 M-47.927476968253 -6.476533489958299 C-47.764402047623776 -6.815162051889217, -47.601327126994555 -7.153790613820136, -47.482463901968 -7.400612643853359 M-47.927476968253 -6.476533489958299 C-47.80782790021975 -6.724987339809292, -47.688178832186495 -6.973441189660285, -47.482463901968 -7.400612643853359 M-47.482463901968 -7.400612643853359 C-47.32885161585593 -7.673366812776025, -47.17523932974387 -7.94612098169869, -46.979159208085534 -8.294281092968404 M-47.482463901968 -7.400612643853359 C-47.294323270097294 -7.734675387044628, -47.10618263822659 -8.068738130235896, -46.979159208085534 -8.294281092968404 M-46.979159208085534 -8.294281092968404 C-46.828657048347075 -8.525492825815267, -46.67815488860862 -8.756704558662129, -46.419631073551294 -9.153866561954715 M-46.979159208085534 -8.294281092968404 C-46.81955104915267 -8.539482085881028, -46.65994289021982 -8.784683078793652, -46.419631073551294 -9.153866561954715 M-46.419631073551294 -9.153866561954715 C-46.258325775303 -9.370000966392446, -46.09702047705471 -9.586135370830178, -45.80617871948848 -9.975836829739734 M-46.419631073551294 -9.153866561954715 C-46.293205181570855 -9.323265739572802, -46.166779289590416 -9.49266491719089, -45.80617871948848 -9.975836829739734 M-45.80617871948848 -9.975836829739734 C-45.58490001825609 -10.23576338332209, -45.3636213170237 -10.495689936904444, -45.141322953205055 -10.756814244181063 M-45.80617871948848 -9.975836829739734 C-45.60308536687097 -10.2144018380634, -45.39999201425346 -10.452966846387067, -45.141322953205055 -10.756814244181063 M-45.141322953205055 -10.756814244181063 C-44.87133390523308 -11.035600102725208, -44.6013448572611 -11.314385961269355, -44.42779580965579 -11.493589601563633 M-45.141322953205055 -10.756814244181063 C-44.94617047011516 -10.958325205288212, -44.75101798702527 -11.15983616639536, -44.42779580965579 -11.493589601563633 M-44.42779580965579 -11.493589601563633 C-44.136386555575925 -11.758239775852616, -43.84497730149606 -12.022889950141598, -43.66852932492463 -12.18313533390614 M-44.42779580965579 -11.493589601563633 C-44.20957917739301 -11.691768173288992, -43.99136254513022 -11.88994674501435, -43.66852932492463 -12.18313533390614 M-43.66852932492463 -12.18313533390614 C-43.47701670645972 -12.335861550767094, -43.28550408799481 -12.488587767628047, -42.86664348785946 -12.822617949887302 M-43.66852932492463 -12.18313533390614 C-43.41972710089972 -12.38154848666076, -43.17092487687482 -12.579961639415378, -42.86664348785946 -12.822617949887302 M-42.86664348785946 -12.822617949887302 C-42.57251627957652 -13.02778835782385, -42.278389071293574 -13.232958765760397, -42.02543341936879 -13.409409678269444 M-42.86664348785946 -12.822617949887302 C-42.6388497009696 -12.981517034587567, -42.41105591407974 -13.140416119287831, -42.02543341936879 -13.409409678269444 M-42.02543341936879 -13.409409678269444 C-41.68548690949226 -13.615487250304033, -41.345540399615736 -13.821564822338622, -41.148355832063004 -13.941099265974229 M-42.02543341936879 -13.409409678269444 C-41.825708367700344 -13.530484178305539, -41.6259833160319 -13.651558678341633, -41.148355832063004 -13.941099265974229 M-41.148355832063004 -13.941099265974229 C-40.91629953576138 -14.062162887115633, -40.68424323945976 -14.183226508257038, -40.239014825880936 -14.415501886438705 M-41.148355832063004 -13.941099265974229 C-40.89062642958368 -14.07555653016413, -40.63289702710436 -14.210013794354033, -40.239014825880936 -14.415501886438705 M-40.239014825880936 -14.415501886438705 C-40.03360405103751 -14.50643114316775, -39.82819327619407 -14.597360399896797, -39.301147078069995 -14.830668117536344 M-40.239014825880936 -14.415501886438705 C-39.972509968617395 -14.533475681163567, -39.70600511135385 -14.651449475888432, -39.301147078069995 -14.830668117536344 M-39.301147078069995 -14.830668117536344 C-39.00039309156121 -14.941348364710954, -38.69963910505242 -15.052028611885563, -38.33860648837794 -15.184891952170695 M-39.301147078069995 -14.830668117536344 C-39.09048942484349 -14.9081920812217, -38.87983177161698 -14.985716044907054, -38.33860648837794 -15.184891952170695 M-38.33860648837794 -15.184891952170695 C-37.9561736570485 -15.298396009078376, -37.57374082571907 -15.411900065986057, -37.35534834255213 -15.476717808624466 M-38.33860648837794 -15.184891952170695 C-38.01958271443202 -15.279576533687884, -37.7005589404861 -15.374261115205071, -37.35534834255213 -15.476717808624466 M-37.35534834255213 -15.476717808624466 C-37.01672894091707 -15.554005477349566, -36.678109539282005 -15.631293146074668, -36.355413059221966 -15.704946511857043 M-37.35534834255213 -15.476717808624466 C-37.04409953303464 -15.547758318308537, -36.732850723517146 -15.618798827992608, -36.355413059221966 -15.704946511857043 M-36.355413059221966 -15.704946511857043 C-36.12680855038638 -15.741905515991137, -35.8982040415508 -15.77886452012523, -35.3429095869521 -15.868640221171937 M-36.355413059221966 -15.704946511857043 C-36.11141711322008 -15.744393884189808, -35.86742116721819 -15.783841256522571, -35.3429095869521 -15.868640221171937 M-35.3429095869521 -15.868640221171937 C-35.09556239833768 -15.892501506979054, -34.84821520972326 -15.91636279278617, -34.321998519691405 -15.967126284005381 M-35.3429095869521 -15.868640221171937 C-35.12678635915985 -15.889489369030846, -34.910663131367606 -15.910338516889754, -34.321998519691405 -15.967126284005381 M-34.321998519691405 -15.967126284005381 C-33.94216465288134 -15.97930681681221, -33.56233078607127 -15.991487349619037, -33.29687500000001 -16 M-34.321998519691405 -15.967126284005381 C-33.97311446232891 -15.978314316663376, -33.62423040496641 -15.98950234932137, -33.29687500000001 -16 M-33.29687500000001 -16 C-33.29687500000001 -16, -33.29687500000001 -16, -33.296875 -16 M-33.29687500000001 -16 C-33.29687500000001 -16, -33.296875 -16, -33.296875 -16" stroke="#9370DB" stroke-width="1.3" fill="none" stroke-dasharray="0 0" style=""/></g><g class="label" style="" transform="translate(0, -8.5)"><rect/><g><rect class="background" style="stroke: none"/><text y="-10.1" style=""><tspan class="text-outer-tspan row" x="0" y="-0.1em" dy="1.1em"><tspan font-style="normal" class="text-inner-tspan" font-weight="normal">tick</tspan><tspan font-style="normal" class="text-inner-tspan" font-weight="normal"> begins</tspan></tspan></text></g></g></g><g class="node default" id="my-svg-flowchart-T1-1" data-look="classic" transform="translate(378.953125, 209.390625)"><polygon points="119.390625,0 238.78125,-119.390625 119.390625,-238.78125 0,-119.390625" class="label-container" transform="translate(-118.890625, 119.390625)"/><g class="label" style="" transform="translate(0, -8.5)"><rect/><g><rect class="background" style="stroke: none"/><text y="-10.1" style=""><tspan class="text-outer-tspan row" x="0" y="-0.1em" dy="1.1em"><tspan font-style="normal" class="text-inner-tspan" font-weight="normal">compute</tspan><tspan font-style="normal" class="text-inner-tspan" font-weight="normal"> the</tspan><tspan font-style="normal" class="text-inner-tspan" font-weight="normal"> select</tspan><tspan font-style="normal" class="text-inner-tspan" font-weight="normal"> timeout</tspan></tspan></text></g></g></g><g class="node default" id="my-svg-flowchart-TZERO-3" data-look="classic" transform="translate(116.4609375, 458.4812469482422)"><rect class="basic label-container" style="" x="-108.4609375" y="-41.099998474121094" width="216.921875" height="82.19999694824219"/><g class="label" style="" transform="translate(0, -26.099998474121094)"><rect/><g><rect class="background" style="stroke: none"/><text y="-10.1" style=""><tspan class="text-outer-tspan row" x="0" y="-0.1em" dy="1.1em"><tspan font-style="normal" class="text-inner-tspan" font-weight="normal">timeout</tspan><tspan font-style="normal" class="text-inner-tspan" font-weight="normal"> =</tspan><tspan font-style="normal" class="text-inner-tspan" font-weight="normal"> 0</tspan></tspan><tspan class="text-outer-tspan row" x="0" y="1em" dy="1.1em"><tspan font-style="normal" class="text-inner-tspan" font-weight="normal">(don't</tspan><tspan font-style="normal" class="text-inner-tspan" font-weight="normal"> sleep</tspan><tspan font-style="normal" class="text-inner-tspan" font-weight="normal"> —</tspan><tspan font-style="normal" class="text-inner-tspan" font-weight="normal"> work</tspan><tspan font-style="normal" class="text-inner-tspan" font-weight="normal"> is</tspan></tspan><tspan class="text-outer-tspan row" x="0" y="2.1em" dy="1.1em"><tspan font-style="normal" class="text-inner-tspan" font-weight="normal">waiting)</tspan></tspan></text></g></g></g><g class="node default" id="my-svg-flowchart-TNEAR-5" data-look="classic" transform="translate(382.2890625, 458.4812469482422)"><rect class="basic label-container" style="" x="-107.3671875" y="-32.29999923706055" width="214.734375" height="64.5999984741211"/><g class="label" style="" transform="translate(0, -17.299999237060547)"><rect/><g><rect class="background" style="stroke: none"/><text y="-10.1" style=""><tspan class="text-outer-tspan row" x="0" y="-0.1em" dy="1.1em"><tspan font-style="normal" class="text-inner-tspan" font-weight="normal">timeout</tspan><tspan font-style="normal" class="text-inner-tspan" font-weight="normal"> =</tspan><tspan font-style="normal" class="text-inner-tspan" font-weight="normal"> time</tspan><tspan font-style="normal" class="text-inner-tspan" font-weight="normal"> until</tspan></tspan><tspan class="text-outer-tspan row" x="0" y="1em" dy="1.1em"><tspan font-style="normal" class="text-inner-tspan" font-weight="normal">the</tspan><tspan font-style="normal" class="text-inner-tspan" font-weight="normal"> nearest</tspan><tspan font-style="normal" class="text-inner-tspan" font-weight="normal"> timer</tspan><tspan font-style="normal" class="text-inner-tspan" font-weight="normal"> fires</tspan></tspan></text></g></g></g><g class="node default" id="my-svg-flowchart-TINF-7" data-look="classic" transform="translate(657.2578125, 458.4812469482422)"><rect class="basic label-container" style="" x="-117.6015625" y="-41.099998474121094" width="235.203125" height="82.19999694824219"/><g class="label" style="" transform="translate(0, -26.099998474121094)"><rect/><g><rect class="background" style="stroke: none"/><text y="-10.1" style=""><tspan class="text-outer-tspan row" x="0" y="-0.1em" dy="1.1em"><tspan font-style="normal" class="text-inner-tspan" font-weight="normal">timeout</tspan><tspan font-style="normal" class="text-inner-tspan" font-weight="normal"> =</tspan><tspan font-style="normal" class="text-inner-tspan" font-weight="normal"> None</tspan></tspan><tspan class="text-outer-tspan row" x="0" y="1em" dy="1.1em"><tspan font-style="normal" class="text-inner-tspan" font-weight="normal">(sleep</tspan><tspan font-style="normal" class="text-inner-tspan" font-weight="normal"> until</tspan><tspan font-style="normal" class="text-inner-tspan" font-weight="normal"> an</tspan><tspan font-style="normal" class="text-inner-tspan" font-weight="normal"> FD</tspan><tspan font-style="normal" class="text-inner-tspan" font-weight="normal"> wakes</tspan></tspan><tspan class="text-outer-tspan row" x="0" y="2.1em" dy="1.1em"><tspan font-style="normal" class="text-inner-tspan" font-weight="normal">us)</tspan></tspan></text></g></g></g><g class="node default" id="my-svg-flowchart-SEL-9" data-look="classic" transform="translate(382.2890625, 617.5812454223633)"><rect class="basic label-container" style="" x="-125.078125" y="-68" width="250.15625" height="136"/><g class="label" style="" transform="translate(0, -53)"><rect/><g><rect class="background" style="stroke: none"/><text y="-10.1" style=""><tspan class="text-outer-tspan row" x="0" y="-0.1em" dy="1.1em"><tspan font-style="normal" class="text-inner-tspan" font-weight="normal">event_list</tspan><tspan font-style="normal" class="text-inner-tspan" font-weight="normal"> =</tspan></tspan><tspan class="text-outer-tspan row" x="0" y="1em" dy="1.1em"><tspan font-style="normal" class="text-inner-tspan" font-weight="normal">selector.select(timeout)</tspan></tspan><tspan class="text-outer-tspan row" x="0" y="2.1em" dy="1.1em"><tspan font-style="normal" class="text-inner-tspan" font-weight="normal">★</tspan><tspan font-style="normal" class="text-inner-tspan" font-weight="normal"> THE</tspan><tspan font-style="normal" class="text-inner-tspan" font-weight="normal"> one</tspan><tspan font-style="normal" class="text-inner-tspan" font-weight="normal"> blocking</tspan><tspan font-style="normal" class="text-inner-tspan" font-weight="normal"> call</tspan><tspan font-style="normal" class="text-inner-tspan" font-weight="normal"> in</tspan></tspan><tspan class="text-outer-tspan row" x="0" y="3.2em" dy="1.1em"><tspan font-style="normal" class="text-inner-tspan" font-weight="normal">the</tspan><tspan font-style="normal" class="text-inner-tspan" font-weight="normal"> whole</tspan><tspan font-style="normal" class="text-inner-tspan" font-weight="normal"> loop</tspan><tspan font-style="normal" class="text-inner-tspan" font-weight="normal"> ★</tspan></tspan><tspan class="text-outer-tspan row" x="0" y="4.300000000000001em" dy="1.1em"><tspan font-style="normal" class="text-inner-tspan" font-weight="normal">—</tspan><tspan font-style="normal" class="text-inner-tspan" font-weight="normal"> sleeps</tspan><tspan font-style="normal" class="text-inner-tspan" font-weight="normal"> in</tspan><tspan font-style="normal" class="text-inner-tspan" font-weight="normal"> the</tspan><tspan font-style="normal" class="text-inner-tspan" font-weight="normal"> kernel</tspan></tspan><tspan class="text-outer-tspan row" x="0" y="5.4em" dy="1.1em"><tspan font-style="normal" class="text-inner-tspan" font-weight="normal">(epoll_wait)</tspan><tspan font-style="normal" class="text-inner-tspan" font-weight="normal"> here</tspan></tspan></text></g></g></g><g class="node default" id="my-svg-flowchart-IO-15" data-look="classic" transform="translate(382.2890625, 794.2812461853027)"><rect class="basic label-container" style="" x="-122.54296875" y="-58.70000076293945" width="245.0859375" height="117.4000015258789"/><g class="label" style="" transform="translate(0, -43.70000076293945)"><rect/><g><rect class="background" style="stroke: none"/><text y="-10.1" style=""><tspan class="text-outer-tspan row" x="0" y="-0.1em" dy="1.1em"><tspan font-style="normal" class="text-inner-tspan" font-weight="normal">for</tspan><tspan font-style="normal" class="text-inner-tspan" font-weight="normal"> each</tspan><tspan font-style="normal" class="text-inner-tspan" font-weight="normal"> ready</tspan><tspan font-style="normal" class="text-inner-tspan" font-weight="normal"> FD:</tspan></tspan><tspan class="text-outer-tspan row" x="0" y="1em" dy="1.1em"><tspan font-style="normal" class="text-inner-tspan" font-weight="normal">schedule</tspan><tspan font-style="normal" class="text-inner-tspan" font-weight="normal"> its</tspan><tspan font-style="normal" class="text-inner-tspan" font-weight="normal"> callback</tspan><tspan font-style="normal" class="text-inner-tspan" font-weight="normal"> onto</tspan></tspan><tspan class="text-outer-tspan row" x="0" y="2.1em" dy="1.1em"><tspan font-style="normal" class="text-inner-tspan" font-weight="normal">_ready</tspan></tspan><tspan class="text-outer-tspan row" x="0" y="3.2em" dy="1.1em"><tspan font-style="normal" class="text-inner-tspan" font-weight="normal">(I/O</tspan><tspan font-style="normal" class="text-inner-tspan" font-weight="normal"> completion</tspan><tspan font-style="normal" class="text-inner-tspan" font-weight="normal"> wakes</tspan><tspan font-style="normal" class="text-inner-tspan" font-weight="normal"> the</tspan></tspan><tspan class="text-outer-tspan row" x="0" y="4.300000000000001em" dy="1.1em"><tspan font-style="normal" class="text-inner-tspan" font-weight="normal">parked</tspan><tspan font-style="normal" class="text-inner-tspan" font-weight="normal"> task)</tspan></tspan></text></g></g></g><g class="node default" id="my-svg-flowchart-TIMERS-17" data-look="classic" transform="translate(382.2890625, 952.8812484741211)"><rect class="basic label-container" style="" x="-126.0625" y="-49.900001525878906" width="252.125" height="99.80000305175781"/><g class="label" style="" transform="translate(0, -34.900001525878906)"><rect/><g><rect class="background" style="stroke: none"/><text y="-10.1" style=""><tspan class="text-outer-tspan row" x="0" y="-0.1em" dy="1.1em"><tspan font-style="normal" class="text-inner-tspan" font-weight="normal">move</tspan><tspan font-style="normal" class="text-inner-tspan" font-weight="normal"> every</tspan><tspan font-style="normal" class="text-inner-tspan" font-weight="normal"> now-due</tspan><tspan font-style="normal" class="text-inner-tspan" font-weight="normal"> timer</tspan></tspan><tspan class="text-outer-tspan row" x="0" y="1em" dy="1.1em"><tspan font-style="normal" class="text-inner-tspan" font-weight="normal">from</tspan><tspan font-style="normal" class="text-inner-tspan" font-weight="normal"> _scheduled</tspan><tspan font-style="normal" class="text-inner-tspan" font-weight="normal"> →</tspan><tspan font-style="normal" class="text-inner-tspan" font-weight="normal"> _ready</tspan></tspan><tspan class="text-outer-tspan row" x="0" y="2.1em" dy="1.1em"><tspan font-style="normal" class="text-inner-tspan" font-weight="normal">(sleeps</tspan><tspan font-style="normal" class="text-inner-tspan" font-weight="normal"> elapsed,</tspan><tspan font-style="normal" class="text-inner-tspan" font-weight="normal"> timeouts</tspan></tspan><tspan class="text-outer-tspan row" x="0" y="3.2em" dy="1.1em"><tspan font-style="normal" class="text-inner-tspan" font-weight="normal">fired)</tspan></tspan></text></g></g></g><g class="node default" id="my-svg-flowchart-DRAIN-19" data-look="classic" transform="translate(596.96875, 1120.28125)"><rect class="basic label-container" style="" x="-126.0546875" y="-67.5" width="252.109375" height="135"/><g class="label" style="" transform="translate(0, -52.5)"><rect/><g><rect class="background" style="stroke: none"/><text y="-10.1" style=""><tspan class="text-outer-tspan row" x="0" y="-0.1em" dy="1.1em"><tspan font-style="normal" class="text-inner-tspan" font-weight="normal">ntodo</tspan><tspan font-style="normal" class="text-inner-tspan" font-weight="normal"> =</tspan><tspan font-style="normal" class="text-inner-tspan" font-weight="normal"> len(_ready)</tspan><tspan font-style="normal" class="text-inner-tspan" font-weight="normal"> ←</tspan></tspan><tspan class="text-outer-tspan row" x="0" y="1em" dy="1.1em"><tspan font-style="normal" class="text-inner-tspan" font-weight="normal">snapshot!</tspan></tspan><tspan class="text-outer-tspan row" x="0" y="2.1em" dy="1.1em"><tspan font-style="normal" class="text-inner-tspan" font-weight="normal">run</tspan><tspan font-style="normal" class="text-inner-tspan" font-weight="normal"> exactly</tspan><tspan font-style="normal" class="text-inner-tspan" font-weight="normal"> ntodo</tspan><tspan font-style="normal" class="text-inner-tspan" font-weight="normal"> callbacks</tspan></tspan><tspan class="text-outer-tspan row" x="0" y="3.2em" dy="1.1em"><tspan font-style="normal" class="text-inner-tspan" font-weight="normal">(work</tspan><tspan font-style="normal" class="text-inner-tspan" font-weight="normal"> scheduled</tspan><tspan font-style="normal" class="text-inner-tspan" font-weight="normal"> *now*</tspan></tspan><tspan class="text-outer-tspan row" x="0" y="4.300000000000001em" dy="1.1em"><tspan font-style="normal" class="text-inner-tspan" font-weight="normal">waits</tspan><tspan font-style="normal" class="text-inner-tspan" font-weight="normal"> for</tspan><tspan font-style="normal" class="text-inner-tspan" font-weight="normal"> next</tspan><tspan font-style="normal" class="text-inner-tspan" font-weight="normal"> tick</tspan></tspan><tspan class="text-outer-tspan row" x="0" y="5.4em" dy="1.1em"><tspan font-style="normal" class="text-inner-tspan" font-weight="normal">→</tspan><tspan font-style="normal" class="text-inner-tspan" font-weight="normal"> no</tspan><tspan font-style="normal" class="text-inner-tspan" font-weight="normal"> starvation)</tspan></tspan></text></g></g></g></g></g></g><defs><filter id="my-svg-drop-shadow" height="130%" width="130%"><feDropShadow dx="4" dy="4" stdDeviation="0" flood-opacity="0.06" flood-color="#000000"/></filter></defs><defs><filter id="my-svg-drop-shadow-small" height="150%" width="150%"><feDropShadow dx="2" dy="2" stdDeviation="0" flood-opacity="0.06" flood-color="#000000"/></filter></defs></svg>