<svg id="my-svg" width="100%" xmlns="http://www.w3.org/2000/svg" xmlns:xlink="http://www.w3.org/1999/xlink" style="max-width: 700px; background-color: transparent;" viewBox="0 0 700 500" role="graphics-document document" aria-roledescription="xychart"><style>#my-svg{font-family:"trebuchet ms",verdana,arial,sans-serif;font-size:16px;fill:#333;}@keyframes edge-animation-frame{from{stroke-dashoffset:0;}}@keyframes dash{to{stroke-dashoffset:0;}}#my-svg .edge-animation-slow{stroke-dasharray:9,5!important;stroke-dashoffset:900;animation:dash 50s linear infinite;stroke-linecap:round;}#my-svg .edge-animation-fast{stroke-dasharray:9,5!important;stroke-dashoffset:900;animation:dash 20s linear infinite;stroke-linecap:round;}#my-svg .error-icon{fill:#552222;}#my-svg .error-text{fill:#552222;stroke:#552222;}#my-svg .edge-thickness-normal{stroke-width:1px;}#my-svg .edge-thickness-thick{stroke-width:3.5px;}#my-svg .edge-pattern-solid{stroke-dasharray:0;}#my-svg .edge-thickness-invisible{stroke-width:0;fill:none;}#my-svg .edge-pattern-dashed{stroke-dasharray:3;}#my-svg .edge-pattern-dotted{stroke-dasharray:2;}#my-svg .marker{fill:#333333;stroke:#333333;}#my-svg .marker.cross{stroke:#333333;}#my-svg svg{font-family:"trebuchet ms",verdana,arial,sans-serif;font-size:16px;}#my-svg p{margin:0;}#my-svg .node .neo-node{stroke:#9370DB;}#my-svg [data-look="neo"].node rect,#my-svg [data-look="neo"].cluster rect,#my-svg [data-look="neo"].node polygon{stroke:#9370DB;filter:drop-shadow(1px 2px 2px rgba(185, 185, 185, 1));}#my-svg [data-look="neo"].node path{stroke:#9370DB;stroke-width:1px;}#my-svg [data-look="neo"].node .outer-path{filter:drop-shadow(1px 2px 2px rgba(185, 185, 185, 1));}#my-svg [data-look="neo"].node .neo-line path{stroke:#9370DB;filter:none;}#my-svg [data-look="neo"].node circle{stroke:#9370DB;filter:drop-shadow(1px 2px 2px rgba(185, 185, 185, 1));}#my-svg [data-look="neo"].node circle .state-start{fill:#000000;}#my-svg [data-look="neo"].icon-shape .icon{fill:#9370DB;filter:drop-shadow(1px 2px 2px rgba(185, 185, 185, 1));}#my-svg [data-look="neo"].icon-shape .icon-neo path{stroke:#9370DB;filter:drop-shadow(1px 2px 2px rgba(185, 185, 185, 1));}#my-svg :root{--mermaid-font-family:"trebuchet ms",verdana,arial,sans-serif;}</style><g/><g class="main"><rect width="700" height="500" class="background" fill="white"/><g class="chart-title"><text x="0" y="0" fill="#131300" font-size="20" dominant-baseline="middle" text-anchor="middle" transform="translate(350, 21) rotate(0)">Total complexity vs how finely you decompose</text></g><g class="plot"><g class="line-plot-0"><path d="M63.786,65.28L142.813,172.24L221.84,256.28L300.866,313.58L379.893,336.5L458.92,317.4L537.947,263.92L616.973,191.34L696,103.48" fill="none" stroke="#c0392b" stroke-width="2"/></g><g class="line-plot-1"><path d="M63.786,80.56L142.813,202.8L221.84,290.66L300.866,355.6L379.893,389.98L458.92,405.26L537.947,412.9L616.973,418.63L696,422.45" fill="none" stroke="#2471a3" stroke-width="2"/></g><g class="line-plot-2"><path d="M63.786,416.72L142.813,401.44L221.84,382.34L300.866,355.6L379.893,325.04L458.92,283.02L537.947,233.36L616.973,172.24L696,107.3" fill="none" stroke="#1e8449" stroke-width="2"/></g></g><g class="bottom-axis"><g class="axis-line"><path d="M 59.78613471984863,440.99999809265137 L 700,440.99999809265137" fill="none" stroke="#131300" stroke-width="2"/></g><g class="label"><text x="0" y="0" fill="#131300" font-size="14" dominant-baseline="text-before-edge" text-anchor="middle" transform="translate(63.78613471984863, 451.99999809265137) rotate(0)">1</text><text x="0" y="0" fill="#131300" font-size="14" dominant-baseline="text-before-edge" text-anchor="middle" transform="translate(142.81286787986755, 451.99999809265137) rotate(0)">2</text><text x="0" y="0" fill="#131300" font-size="14" dominant-baseline="text-before-edge" text-anchor="middle" transform="translate(221.83960103988647, 451.99999809265137) rotate(0)">3</text><text x="0" y="0" fill="#131300" font-size="14" dominant-baseline="text-before-edge" text-anchor="middle" transform="translate(300.8663341999054, 451.99999809265137) rotate(0)">4</text><text x="0" y="0" fill="#131300" font-size="14" dominant-baseline="text-before-edge" text-anchor="middle" transform="translate(379.8930673599243, 451.99999809265137) rotate(0)">5</text><text x="0" y="0" fill="#131300" font-size="14" dominant-baseline="text-before-edge" text-anchor="middle" transform="translate(458.91980051994324, 451.99999809265137) rotate(0)">6</text><text x="0" y="0" fill="#131300" font-size="14" dominant-baseline="text-before-edge" text-anchor="middle" transform="translate(537.9465336799622, 451.99999809265137) rotate(0)">7</text><text x="0" y="0" fill="#131300" font-size="14" dominant-baseline="text-before-edge" text-anchor="middle" transform="translate(616.9732668399811, 451.99999809265137) rotate(0)">8</text><text x="0" y="0" fill="#131300" font-size="14" dominant-baseline="text-before-edge" text-anchor="middle" transform="translate(696, 451.99999809265137) rotate(0)">9</text></g><g class="ticks"><path d="M 63.78613471984863,441.99999809265137 L 63.78613471984863,446.99999809265137" fill="none" stroke="#131300" stroke-width="2"/><path d="M 142.81286787986755,441.99999809265137 L 142.81286787986755,446.99999809265137" fill="none" stroke="#131300" stroke-width="2"/><path d="M 221.83960103988647,441.99999809265137 L 221.83960103988647,446.99999809265137" fill="none" stroke="#131300" stroke-width="2"/><path d="M 300.8663341999054,441.99999809265137 L 300.8663341999054,446.99999809265137" fill="none" stroke="#131300" stroke-width="2"/><path d="M 379.8930673599243,441.99999809265137 L 379.8930673599243,446.99999809265137" fill="none" stroke="#131300" stroke-width="2"/><path d="M 458.91980051994324,441.99999809265137 L 458.91980051994324,446.99999809265137" fill="none" stroke="#131300" stroke-width="2"/><path d="M 537.9465336799622,441.99999809265137 L 537.9465336799622,446.99999809265137" fill="none" stroke="#131300" stroke-width="2"/><path d="M 616.9732668399811,441.99999809265137 L 616.9732668399811,446.99999809265137" fill="none" stroke="#131300" stroke-width="2"/><path d="M 696,441.99999809265137 L 696,446.99999809265137" fill="none" stroke="#131300" stroke-width="2"/></g><g class="title"><text x="0" y="0" fill="#131300" font-size="16" dominant-baseline="text-before-edge" text-anchor="middle" transform="translate(379.8930673599243, 477.99999809265137) rotate(0)">coarse  →  granularity (number of modules)  →  fine</text></g></g><g class="left-axis"><g class="axisl-line"><path d="M 58.78613471984863,42 L 58.78613471984863,439.99999809265137" fill="none" stroke="#131300" stroke-width="2"/></g><g class="label"><text x="0" y="0" fill="#131300" font-size="14" dominant-baseline="middle" text-anchor="end" transform="translate(47.78613471984863, 50) rotate(0)">10</text><text x="0" y="0" fill="#131300" font-size="14" dominant-baseline="middle" text-anchor="end" transform="translate(47.78613471984863, 88.19999980926514) rotate(0)">9</text><text x="0" y="0" fill="#131300" font-size="14" dominant-baseline="middle" text-anchor="end" transform="translate(47.78613471984863, 126.39999961853026) rotate(0)">8</text><text x="0" y="0" fill="#131300" font-size="14" dominant-baseline="middle" text-anchor="end" transform="translate(47.78613471984863, 164.59999942779544) rotate(0)">7</text><text x="0" y="0" fill="#131300" font-size="14" dominant-baseline="middle" text-anchor="end" transform="translate(47.78613471984863, 202.79999923706055) rotate(0)">6</text><text x="0" y="0" fill="#131300" font-size="14" dominant-baseline="middle" text-anchor="end" transform="translate(47.78613471984863, 240.99999904632568) rotate(0)">5</text><text x="0" y="0" fill="#131300" font-size="14" dominant-baseline="middle" text-anchor="end" transform="translate(47.78613471984863, 279.1999988555908) rotate(0)">4</text><text x="0" y="0" fill="#131300" font-size="14" dominant-baseline="middle" text-anchor="end" transform="translate(47.78613471984863, 317.39999866485596) rotate(0)">3</text><text x="0" y="0" fill="#131300" font-size="14" dominant-baseline="middle" text-anchor="end" transform="translate(47.78613471984863, 355.5999984741211) rotate(0)">2</text><text x="0" y="0" fill="#131300" font-size="14" dominant-baseline="middle" text-anchor="end" transform="translate(47.78613471984863, 393.79999828338623) rotate(0)">1</text><text x="0" y="0" fill="#131300" font-size="14" dominant-baseline="middle" text-anchor="end" transform="translate(47.78613471984863, 431.99999809265137) rotate(0)">0</text></g><g class="ticks"><path d="M 57.78613471984863,50 L 52.78613471984863,50" fill="none" stroke="#131300" stroke-width="2"/><path d="M 57.78613471984863,88.19999980926514 L 52.78613471984863,88.19999980926514" fill="none" stroke="#131300" stroke-width="2"/><path d="M 57.78613471984863,126.39999961853026 L 52.78613471984863,126.39999961853026" fill="none" stroke="#131300" stroke-width="2"/><path d="M 57.78613471984863,164.59999942779544 L 52.78613471984863,164.59999942779544" fill="none" stroke="#131300" stroke-width="2"/><path d="M 57.78613471984863,202.79999923706055 L 52.78613471984863,202.79999923706055" fill="none" stroke="#131300" stroke-width="2"/><path d="M 57.78613471984863,240.99999904632568 L 52.78613471984863,240.99999904632568" fill="none" stroke="#131300" stroke-width="2"/><path d="M 57.78613471984863,279.1999988555908 L 52.78613471984863,279.1999988555908" fill="none" stroke="#131300" stroke-width="2"/><path d="M 57.78613471984863,317.39999866485596 L 52.78613471984863,317.39999866485596" fill="none" stroke="#131300" stroke-width="2"/><path d="M 57.78613471984863,355.5999984741211 L 52.78613471984863,355.5999984741211" fill="none" stroke="#131300" stroke-width="2"/><path d="M 57.78613471984863,393.79999828338623 L 52.78613471984863,393.79999828338623" fill="none" stroke="#131300" stroke-width="2"/><path d="M 57.78613471984863,431.99999809265137 L 52.78613471984863,431.99999809265137" fill="none" stroke="#131300" stroke-width="2"/></g><g class="title"><text x="0" y="0" fill="#131300" font-size="16" dominant-baseline="text-before-edge" text-anchor="middle" transform="translate(5, 240.99999904632568) rotate(270)">complexity (lower = better)</text></g></g></g><g class="mermaid-tmp-group"/></svg>