<?xml version="1.0" encoding="utf-8" standalone="no"?>
<!DOCTYPE svg PUBLIC "-//W3C//DTD SVG 1.1//EN"
  "http://www.w3.org/Graphics/SVG/1.1/DTD/svg11.dtd">
<svg xmlns:xlink="http://www.w3.org/1999/xlink" width="748.863984pt" height="410.441836pt" viewBox="0 0 748.863984 410.441836" xmlns="http://www.w3.org/2000/svg" version="1.1">
 <metadata>
  <rdf:RDF xmlns:dc="http://purl.org/dc/elements/1.1/" xmlns:cc="http://creativecommons.org/ns#" xmlns:rdf="http://www.w3.org/1999/02/22-rdf-syntax-ns#">
   <cc:Work>
    <dc:type rdf:resource="http://purl.org/dc/dcmitype/StillImage"/>
    <dc:date>2026-07-07T11:38:51.620199</dc:date>
    <dc:format>image/svg+xml</dc:format>
    <dc:creator>
     <cc:Agent>
      <dc:title>Matplotlib v3.11.0, https://matplotlib.org/</dc:title>
     </cc:Agent>
    </dc:creator>
   </cc:Work>
  </rdf:RDF>
 </metadata>
 <defs>
  <style type="text/css">*{stroke-linejoin: round; stroke-linecap: butt}</style>
 </defs>
 <g id="figure_1">
  <g id="patch_1">
   <path d="M 0 410.441836 
L 748.863984 410.441836 
L 748.863984 0 
L 0 0 
z
" style="fill: #ffffff"/>
  </g>
  <g id="axes_1">
   <g id="patch_2">
    <path d="M 45.103984 369.438633 
L 741.663984 369.438633 
L 741.663984 28.698047 
L 45.103984 28.698047 
z
" style="fill: #ffffff"/>
   </g>
   <g id="matplotlib.axis_1">
    <g id="xtick_1">
     <g id="line2d_1">
      <path d="M 76.765803 369.438633 
L 76.765803 28.698047 
" clip-path="url(#p833ea232ae)" style="fill: none; stroke-dasharray: 0.8,1.32; stroke-dashoffset: 0; stroke: #bbbbbb; stroke-width: 0.8"/>
     </g>
     <g id="line2d_2">
      <defs>
       <path id="m0a226636ff" d="M 0 0 
L 0 3.5 
" style="stroke: #000000; stroke-width: 0.8"/>
      </defs>
      <g>
       <use xlink:href="#m0a226636ff" x="76.765803" y="369.438633" style="stroke: #000000; stroke-width: 0.8"/>
      </g>
     </g>
     <g id="text_1">
      <!-- $\mathdefault{10^{0}}$ -->
      <g transform="translate(67.965803 385.838633) scale(0.1 -0.1)">
       <defs>
        <path id="DejaVuSans-14" d="M 794 531 
L 1825 531 
L 1825 4091 
L 703 3866 
L 703 4441 
L 1819 4666 
L 2450 4666 
L 2450 531 
L 3481 531 
L 3481 0 
L 794 0 
L 794 531 
z
" transform="scale(0.015625)"/>
        <path id="DejaVuSans-13" d="M 2034 4250 
Q 1547 4250 1301 3770 
Q 1056 3291 1056 2328 
Q 1056 1369 1301 889 
Q 1547 409 2034 409 
Q 2525 409 2770 889 
Q 3016 1369 3016 2328 
Q 3016 3291 2770 3770 
Q 2525 4250 2034 4250 
z
M 2034 4750 
Q 2819 4750 3233 4129 
Q 3647 3509 3647 2328 
Q 3647 1150 3233 529 
Q 2819 -91 2034 -91 
Q 1250 -91 836 529 
Q 422 1150 422 2328 
Q 422 3509 836 4129 
Q 1250 4750 2034 4750 
z
" transform="scale(0.015625)"/>
       </defs>
       <use xlink:href="#DejaVuSans-14" transform="translate(0 0.746875)"/>
       <use xlink:href="#DejaVuSans-13" transform="translate(63.623047 0.746875)"/>
       <use xlink:href="#DejaVuSans-13" transform="translate(128.203125 42.046875) scale(0.7)"/>
      </g>
     </g>
    </g>
    <g id="xtick_2">
     <g id="line2d_3">
      <path d="M 287.84459 369.438633 
L 287.84459 28.698047 
" clip-path="url(#p833ea232ae)" style="fill: none; stroke-dasharray: 0.8,1.32; stroke-dashoffset: 0; stroke: #bbbbbb; stroke-width: 0.8"/>
     </g>
     <g id="line2d_4">
      <g>
       <use xlink:href="#m0a226636ff" x="287.84459" y="369.438633" style="stroke: #000000; stroke-width: 0.8"/>
      </g>
     </g>
     <g id="text_2">
      <!-- $\mathdefault{10^{1}}$ -->
      <g transform="translate(279.04459 385.738633) scale(0.1 -0.1)">
       <use xlink:href="#DejaVuSans-14" transform="translate(0 0.665625)"/>
       <use xlink:href="#DejaVuSans-13" transform="translate(63.623047 0.665625)"/>
       <use xlink:href="#DejaVuSans-14" transform="translate(128.203125 41.965625) scale(0.7)"/>
      </g>
     </g>
    </g>
    <g id="xtick_3">
     <g id="line2d_5">
      <path d="M 498.923378 369.438633 
L 498.923378 28.698047 
" clip-path="url(#p833ea232ae)" style="fill: none; stroke-dasharray: 0.8,1.32; stroke-dashoffset: 0; stroke: #bbbbbb; stroke-width: 0.8"/>
     </g>
     <g id="line2d_6">
      <g>
       <use xlink:href="#m0a226636ff" x="498.923378" y="369.438633" style="stroke: #000000; stroke-width: 0.8"/>
      </g>
     </g>
     <g id="text_3">
      <!-- $\mathdefault{10^{2}}$ -->
      <g transform="translate(490.123378 385.838633) scale(0.1 -0.1)">
       <defs>
        <path id="DejaVuSans-15" d="M 1228 531 
L 3431 531 
L 3431 0 
L 469 0 
L 469 531 
Q 828 903 1448 1529 
Q 2069 2156 2228 2338 
Q 2531 2678 2651 2914 
Q 2772 3150 2772 3378 
Q 2772 3750 2511 3984 
Q 2250 4219 1831 4219 
Q 1534 4219 1204 4116 
Q 875 4013 500 3803 
L 500 4441 
Q 881 4594 1212 4672 
Q 1544 4750 1819 4750 
Q 2544 4750 2975 4387 
Q 3406 4025 3406 3419 
Q 3406 3131 3298 2873 
Q 3191 2616 2906 2266 
Q 2828 2175 2409 1742 
Q 1991 1309 1228 531 
z
" transform="scale(0.015625)"/>
       </defs>
       <use xlink:href="#DejaVuSans-14" transform="translate(0 0.746875)"/>
       <use xlink:href="#DejaVuSans-13" transform="translate(63.623047 0.746875)"/>
       <use xlink:href="#DejaVuSans-15" transform="translate(128.203125 42.046875) scale(0.7)"/>
      </g>
     </g>
    </g>
    <g id="xtick_4">
     <g id="line2d_7">
      <path d="M 710.002166 369.438633 
L 710.002166 28.698047 
" clip-path="url(#p833ea232ae)" style="fill: none; stroke-dasharray: 0.8,1.32; stroke-dashoffset: 0; stroke: #bbbbbb; stroke-width: 0.8"/>
     </g>
     <g id="line2d_8">
      <g>
       <use xlink:href="#m0a226636ff" x="710.002166" y="369.438633" style="stroke: #000000; stroke-width: 0.8"/>
      </g>
     </g>
     <g id="text_4">
      <!-- $\mathdefault{10^{3}}$ -->
      <g transform="translate(701.202166 385.838633) scale(0.1 -0.1)">
       <defs>
        <path id="DejaVuSans-16" d="M 2597 2516 
Q 3050 2419 3304 2112 
Q 3559 1806 3559 1356 
Q 3559 666 3084 287 
Q 2609 -91 1734 -91 
Q 1441 -91 1130 -33 
Q 819 25 488 141 
L 488 750 
Q 750 597 1062 519 
Q 1375 441 1716 441 
Q 2309 441 2620 675 
Q 2931 909 2931 1356 
Q 2931 1769 2642 2001 
Q 2353 2234 1838 2234 
L 1294 2234 
L 1294 2753 
L 1863 2753 
Q 2328 2753 2575 2939 
Q 2822 3125 2822 3475 
Q 2822 3834 2567 4026 
Q 2313 4219 1838 4219 
Q 1578 4219 1281 4162 
Q 984 4106 628 3988 
L 628 4550 
Q 988 4650 1302 4700 
Q 1616 4750 1894 4750 
Q 2613 4750 3031 4423 
Q 3450 4097 3450 3541 
Q 3450 3153 3228 2886 
Q 3006 2619 2597 2516 
z
" transform="scale(0.015625)"/>
       </defs>
       <use xlink:href="#DejaVuSans-14" transform="translate(0 0.746875)"/>
       <use xlink:href="#DejaVuSans-13" transform="translate(63.623047 0.746875)"/>
       <use xlink:href="#DejaVuSans-16" transform="translate(128.203125 42.046875) scale(0.7)"/>
      </g>
     </g>
    </g>
    <g id="xtick_5">
     <g id="line2d_9">
      <path d="M 56.310154 369.438633 
L 56.310154 28.698047 
" clip-path="url(#p833ea232ae)" style="fill: none; stroke-dasharray: 0.8,1.32; stroke-dashoffset: 0; stroke: #eeeeee; stroke-width: 0.8"/>
     </g>
     <g id="line2d_10">
      <defs>
       <path id="mf33450d162" d="M 0 0 
L 0 2 
" style="stroke: #000000; stroke-width: 0.6"/>
      </defs>
      <g>
       <use xlink:href="#mf33450d162" x="56.310154" y="369.438633" style="stroke: #000000; stroke-width: 0.6"/>
      </g>
     </g>
    </g>
    <g id="xtick_6">
     <g id="line2d_11">
      <path d="M 67.107367 369.438633 
L 67.107367 28.698047 
" clip-path="url(#p833ea232ae)" style="fill: none; stroke-dasharray: 0.8,1.32; stroke-dashoffset: 0; stroke: #eeeeee; stroke-width: 0.8"/>
     </g>
     <g id="line2d_12">
      <g>
       <use xlink:href="#mf33450d162" x="67.107367" y="369.438633" style="stroke: #000000; stroke-width: 0.6"/>
      </g>
     </g>
    </g>
    <g id="xtick_7">
     <g id="line2d_13">
      <path d="M 140.306849 369.438633 
L 140.306849 28.698047 
" clip-path="url(#p833ea232ae)" style="fill: none; stroke-dasharray: 0.8,1.32; stroke-dashoffset: 0; stroke: #eeeeee; stroke-width: 0.8"/>
     </g>
     <g id="line2d_14">
      <g>
       <use xlink:href="#mf33450d162" x="140.306849" y="369.438633" style="stroke: #000000; stroke-width: 0.6"/>
      </g>
     </g>
    </g>
    <g id="xtick_8">
     <g id="line2d_15">
      <path d="M 177.475979 369.438633 
L 177.475979 28.698047 
" clip-path="url(#p833ea232ae)" style="fill: none; stroke-dasharray: 0.8,1.32; stroke-dashoffset: 0; stroke: #eeeeee; stroke-width: 0.8"/>
     </g>
     <g id="line2d_16">
      <g>
       <use xlink:href="#mf33450d162" x="177.475979" y="369.438633" style="stroke: #000000; stroke-width: 0.6"/>
      </g>
     </g>
    </g>
    <g id="xtick_9">
     <g id="line2d_17">
      <path d="M 203.847896 369.438633 
L 203.847896 28.698047 
" clip-path="url(#p833ea232ae)" style="fill: none; stroke-dasharray: 0.8,1.32; stroke-dashoffset: 0; stroke: #eeeeee; stroke-width: 0.8"/>
     </g>
     <g id="line2d_18">
      <g>
       <use xlink:href="#mf33450d162" x="203.847896" y="369.438633" style="stroke: #000000; stroke-width: 0.6"/>
      </g>
     </g>
    </g>
    <g id="xtick_10">
     <g id="line2d_19">
      <path d="M 224.303544 369.438633 
L 224.303544 28.698047 
" clip-path="url(#p833ea232ae)" style="fill: none; stroke-dasharray: 0.8,1.32; stroke-dashoffset: 0; stroke: #eeeeee; stroke-width: 0.8"/>
     </g>
     <g id="line2d_20">
      <g>
       <use xlink:href="#mf33450d162" x="224.303544" y="369.438633" style="stroke: #000000; stroke-width: 0.6"/>
      </g>
     </g>
    </g>
    <g id="xtick_11">
     <g id="line2d_21">
      <path d="M 241.017025 369.438633 
L 241.017025 28.698047 
" clip-path="url(#p833ea232ae)" style="fill: none; stroke-dasharray: 0.8,1.32; stroke-dashoffset: 0; stroke: #eeeeee; stroke-width: 0.8"/>
     </g>
     <g id="line2d_22">
      <g>
       <use xlink:href="#mf33450d162" x="241.017025" y="369.438633" style="stroke: #000000; stroke-width: 0.6"/>
      </g>
     </g>
    </g>
    <g id="xtick_12">
     <g id="line2d_23">
      <path d="M 255.148072 369.438633 
L 255.148072 28.698047 
" clip-path="url(#p833ea232ae)" style="fill: none; stroke-dasharray: 0.8,1.32; stroke-dashoffset: 0; stroke: #eeeeee; stroke-width: 0.8"/>
     </g>
     <g id="line2d_24">
      <g>
       <use xlink:href="#mf33450d162" x="255.148072" y="369.438633" style="stroke: #000000; stroke-width: 0.6"/>
      </g>
     </g>
    </g>
    <g id="xtick_13">
     <g id="line2d_25">
      <path d="M 267.388942 369.438633 
L 267.388942 28.698047 
" clip-path="url(#p833ea232ae)" style="fill: none; stroke-dasharray: 0.8,1.32; stroke-dashoffset: 0; stroke: #eeeeee; stroke-width: 0.8"/>
     </g>
     <g id="line2d_26">
      <g>
       <use xlink:href="#mf33450d162" x="267.388942" y="369.438633" style="stroke: #000000; stroke-width: 0.6"/>
      </g>
     </g>
    </g>
    <g id="xtick_14">
     <g id="line2d_27">
      <path d="M 278.186155 369.438633 
L 278.186155 28.698047 
" clip-path="url(#p833ea232ae)" style="fill: none; stroke-dasharray: 0.8,1.32; stroke-dashoffset: 0; stroke: #eeeeee; stroke-width: 0.8"/>
     </g>
     <g id="line2d_28">
      <g>
       <use xlink:href="#mf33450d162" x="278.186155" y="369.438633" style="stroke: #000000; stroke-width: 0.6"/>
      </g>
     </g>
    </g>
    <g id="xtick_15">
     <g id="line2d_29">
      <path d="M 351.385637 369.438633 
L 351.385637 28.698047 
" clip-path="url(#p833ea232ae)" style="fill: none; stroke-dasharray: 0.8,1.32; stroke-dashoffset: 0; stroke: #eeeeee; stroke-width: 0.8"/>
     </g>
     <g id="line2d_30">
      <g>
       <use xlink:href="#mf33450d162" x="351.385637" y="369.438633" style="stroke: #000000; stroke-width: 0.6"/>
      </g>
     </g>
    </g>
    <g id="xtick_16">
     <g id="line2d_31">
      <path d="M 388.554767 369.438633 
L 388.554767 28.698047 
" clip-path="url(#p833ea232ae)" style="fill: none; stroke-dasharray: 0.8,1.32; stroke-dashoffset: 0; stroke: #eeeeee; stroke-width: 0.8"/>
     </g>
     <g id="line2d_32">
      <g>
       <use xlink:href="#mf33450d162" x="388.554767" y="369.438633" style="stroke: #000000; stroke-width: 0.6"/>
      </g>
     </g>
    </g>
    <g id="xtick_17">
     <g id="line2d_33">
      <path d="M 414.926684 369.438633 
L 414.926684 28.698047 
" clip-path="url(#p833ea232ae)" style="fill: none; stroke-dasharray: 0.8,1.32; stroke-dashoffset: 0; stroke: #eeeeee; stroke-width: 0.8"/>
     </g>
     <g id="line2d_34">
      <g>
       <use xlink:href="#mf33450d162" x="414.926684" y="369.438633" style="stroke: #000000; stroke-width: 0.6"/>
      </g>
     </g>
    </g>
    <g id="xtick_18">
     <g id="line2d_35">
      <path d="M 435.382332 369.438633 
L 435.382332 28.698047 
" clip-path="url(#p833ea232ae)" style="fill: none; stroke-dasharray: 0.8,1.32; stroke-dashoffset: 0; stroke: #eeeeee; stroke-width: 0.8"/>
     </g>
     <g id="line2d_36">
      <g>
       <use xlink:href="#mf33450d162" x="435.382332" y="369.438633" style="stroke: #000000; stroke-width: 0.6"/>
      </g>
     </g>
    </g>
    <g id="xtick_19">
     <g id="line2d_37">
      <path d="M 452.095813 369.438633 
L 452.095813 28.698047 
" clip-path="url(#p833ea232ae)" style="fill: none; stroke-dasharray: 0.8,1.32; stroke-dashoffset: 0; stroke: #eeeeee; stroke-width: 0.8"/>
     </g>
     <g id="line2d_38">
      <g>
       <use xlink:href="#mf33450d162" x="452.095813" y="369.438633" style="stroke: #000000; stroke-width: 0.6"/>
      </g>
     </g>
    </g>
    <g id="xtick_20">
     <g id="line2d_39">
      <path d="M 466.22686 369.438633 
L 466.22686 28.698047 
" clip-path="url(#p833ea232ae)" style="fill: none; stroke-dasharray: 0.8,1.32; stroke-dashoffset: 0; stroke: #eeeeee; stroke-width: 0.8"/>
     </g>
     <g id="line2d_40">
      <g>
       <use xlink:href="#mf33450d162" x="466.22686" y="369.438633" style="stroke: #000000; stroke-width: 0.6"/>
      </g>
     </g>
    </g>
    <g id="xtick_21">
     <g id="line2d_41">
      <path d="M 478.46773 369.438633 
L 478.46773 28.698047 
" clip-path="url(#p833ea232ae)" style="fill: none; stroke-dasharray: 0.8,1.32; stroke-dashoffset: 0; stroke: #eeeeee; stroke-width: 0.8"/>
     </g>
     <g id="line2d_42">
      <g>
       <use xlink:href="#mf33450d162" x="478.46773" y="369.438633" style="stroke: #000000; stroke-width: 0.6"/>
      </g>
     </g>
    </g>
    <g id="xtick_22">
     <g id="line2d_43">
      <path d="M 489.264943 369.438633 
L 489.264943 28.698047 
" clip-path="url(#p833ea232ae)" style="fill: none; stroke-dasharray: 0.8,1.32; stroke-dashoffset: 0; stroke: #eeeeee; stroke-width: 0.8"/>
     </g>
     <g id="line2d_44">
      <g>
       <use xlink:href="#mf33450d162" x="489.264943" y="369.438633" style="stroke: #000000; stroke-width: 0.6"/>
      </g>
     </g>
    </g>
    <g id="xtick_23">
     <g id="line2d_45">
      <path d="M 562.464425 369.438633 
L 562.464425 28.698047 
" clip-path="url(#p833ea232ae)" style="fill: none; stroke-dasharray: 0.8,1.32; stroke-dashoffset: 0; stroke: #eeeeee; stroke-width: 0.8"/>
     </g>
     <g id="line2d_46">
      <g>
       <use xlink:href="#mf33450d162" x="562.464425" y="369.438633" style="stroke: #000000; stroke-width: 0.6"/>
      </g>
     </g>
    </g>
    <g id="xtick_24">
     <g id="line2d_47">
      <path d="M 599.633554 369.438633 
L 599.633554 28.698047 
" clip-path="url(#p833ea232ae)" style="fill: none; stroke-dasharray: 0.8,1.32; stroke-dashoffset: 0; stroke: #eeeeee; stroke-width: 0.8"/>
     </g>
     <g id="line2d_48">
      <g>
       <use xlink:href="#mf33450d162" x="599.633554" y="369.438633" style="stroke: #000000; stroke-width: 0.6"/>
      </g>
     </g>
    </g>
    <g id="xtick_25">
     <g id="line2d_49">
      <path d="M 626.005472 369.438633 
L 626.005472 28.698047 
" clip-path="url(#p833ea232ae)" style="fill: none; stroke-dasharray: 0.8,1.32; stroke-dashoffset: 0; stroke: #eeeeee; stroke-width: 0.8"/>
     </g>
     <g id="line2d_50">
      <g>
       <use xlink:href="#mf33450d162" x="626.005472" y="369.438633" style="stroke: #000000; stroke-width: 0.6"/>
      </g>
     </g>
    </g>
    <g id="xtick_26">
     <g id="line2d_51">
      <path d="M 646.46112 369.438633 
L 646.46112 28.698047 
" clip-path="url(#p833ea232ae)" style="fill: none; stroke-dasharray: 0.8,1.32; stroke-dashoffset: 0; stroke: #eeeeee; stroke-width: 0.8"/>
     </g>
     <g id="line2d_52">
      <g>
       <use xlink:href="#mf33450d162" x="646.46112" y="369.438633" style="stroke: #000000; stroke-width: 0.6"/>
      </g>
     </g>
    </g>
    <g id="xtick_27">
     <g id="line2d_53">
      <path d="M 663.174601 369.438633 
L 663.174601 28.698047 
" clip-path="url(#p833ea232ae)" style="fill: none; stroke-dasharray: 0.8,1.32; stroke-dashoffset: 0; stroke: #eeeeee; stroke-width: 0.8"/>
     </g>
     <g id="line2d_54">
      <g>
       <use xlink:href="#mf33450d162" x="663.174601" y="369.438633" style="stroke: #000000; stroke-width: 0.6"/>
      </g>
     </g>
    </g>
    <g id="xtick_28">
     <g id="line2d_55">
      <path d="M 677.305648 369.438633 
L 677.305648 28.698047 
" clip-path="url(#p833ea232ae)" style="fill: none; stroke-dasharray: 0.8,1.32; stroke-dashoffset: 0; stroke: #eeeeee; stroke-width: 0.8"/>
     </g>
     <g id="line2d_56">
      <g>
       <use xlink:href="#mf33450d162" x="677.305648" y="369.438633" style="stroke: #000000; stroke-width: 0.6"/>
      </g>
     </g>
    </g>
    <g id="xtick_29">
     <g id="line2d_57">
      <path d="M 689.546518 369.438633 
L 689.546518 28.698047 
" clip-path="url(#p833ea232ae)" style="fill: none; stroke-dasharray: 0.8,1.32; stroke-dashoffset: 0; stroke: #eeeeee; stroke-width: 0.8"/>
     </g>
     <g id="line2d_58">
      <g>
       <use xlink:href="#mf33450d162" x="689.546518" y="369.438633" style="stroke: #000000; stroke-width: 0.6"/>
      </g>
     </g>
    </g>
    <g id="xtick_30">
     <g id="line2d_59">
      <path d="M 700.343731 369.438633 
L 700.343731 28.698047 
" clip-path="url(#p833ea232ae)" style="fill: none; stroke-dasharray: 0.8,1.32; stroke-dashoffset: 0; stroke: #eeeeee; stroke-width: 0.8"/>
     </g>
     <g id="line2d_60">
      <g>
       <use xlink:href="#mf33450d162" x="700.343731" y="369.438633" style="stroke: #000000; stroke-width: 0.6"/>
      </g>
     </g>
    </g>
    <g id="text_5">
     <!-- fan-out  N  (backends contacted per request, log scale) -->
     <g transform="translate(241.451641 400.599258) scale(0.11 -0.11)">
      <defs>
       <path id="DejaVuSans-49" d="M 2375 4863 
L 2375 4384 
L 1825 4384 
Q 1516 4384 1395 4259 
Q 1275 4134 1275 3809 
L 1275 3500 
L 2222 3500 
L 2222 3053 
L 1275 3053 
L 1275 0 
L 697 0 
L 697 3053 
L 147 3053 
L 147 3500 
L 697 3500 
L 697 3744 
Q 697 4328 969 4595 
Q 1241 4863 1831 4863 
L 2375 4863 
z
" transform="scale(0.015625)"/>
       <path id="DejaVuSans-44" d="M 2194 1759 
Q 1497 1759 1228 1600 
Q 959 1441 959 1056 
Q 959 750 1161 570 
Q 1363 391 1709 391 
Q 2188 391 2477 730 
Q 2766 1069 2766 1631 
L 2766 1759 
L 2194 1759 
z
M 3341 1997 
L 3341 0 
L 2766 0 
L 2766 531 
Q 2569 213 2275 61 
Q 1981 -91 1556 -91 
Q 1019 -91 701 211 
Q 384 513 384 1019 
Q 384 1609 779 1909 
Q 1175 2209 1959 2209 
L 2766 2209 
L 2766 2266 
Q 2766 2663 2505 2880 
Q 2244 3097 1772 3097 
Q 1472 3097 1187 3025 
Q 903 2953 641 2809 
L 641 3341 
Q 956 3463 1253 3523 
Q 1550 3584 1831 3584 
Q 2591 3584 2966 3190 
Q 3341 2797 3341 1997 
z
" transform="scale(0.015625)"/>
       <path id="DejaVuSans-51" d="M 3513 2113 
L 3513 0 
L 2938 0 
L 2938 2094 
Q 2938 2591 2744 2837 
Q 2550 3084 2163 3084 
Q 1697 3084 1428 2787 
Q 1159 2491 1159 1978 
L 1159 0 
L 581 0 
L 581 3500 
L 1159 3500 
L 1159 2956 
Q 1366 3272 1645 3428 
Q 1925 3584 2291 3584 
Q 2894 3584 3203 3211 
Q 3513 2838 3513 2113 
z
" transform="scale(0.015625)"/>
       <path id="DejaVuSans-10" d="M 313 2009 
L 1997 2009 
L 1997 1497 
L 313 1497 
L 313 2009 
z
" transform="scale(0.015625)"/>
       <path id="DejaVuSans-52" d="M 1959 3097 
Q 1497 3097 1228 2736 
Q 959 2375 959 1747 
Q 959 1119 1226 758 
Q 1494 397 1959 397 
Q 2419 397 2687 759 
Q 2956 1122 2956 1747 
Q 2956 2369 2687 2733 
Q 2419 3097 1959 3097 
z
M 1959 3584 
Q 2709 3584 3137 3096 
Q 3566 2609 3566 1747 
Q 3566 888 3137 398 
Q 2709 -91 1959 -91 
Q 1206 -91 779 398 
Q 353 888 353 1747 
Q 353 2609 779 3096 
Q 1206 3584 1959 3584 
z
" transform="scale(0.015625)"/>
       <path id="DejaVuSans-58" d="M 544 1381 
L 544 3500 
L 1119 3500 
L 1119 1403 
Q 1119 906 1312 657 
Q 1506 409 1894 409 
Q 2359 409 2629 706 
Q 2900 1003 2900 1516 
L 2900 3500 
L 3475 3500 
L 3475 0 
L 2900 0 
L 2900 538 
Q 2691 219 2414 64 
Q 2138 -91 1772 -91 
Q 1169 -91 856 284 
Q 544 659 544 1381 
z
M 1991 3584 
L 1991 3584 
z
" transform="scale(0.015625)"/>
       <path id="DejaVuSans-57" d="M 1172 4494 
L 1172 3500 
L 2356 3500 
L 2356 3053 
L 1172 3053 
L 1172 1153 
Q 1172 725 1289 603 
Q 1406 481 1766 481 
L 2356 481 
L 2356 0 
L 1766 0 
Q 1100 0 847 248 
Q 594 497 594 1153 
L 594 3053 
L 172 3053 
L 172 3500 
L 594 3500 
L 594 4494 
L 1172 4494 
z
" transform="scale(0.015625)"/>
       <path id="DejaVuSans-3" transform="scale(0.015625)"/>
       <path id="DejaVuSans-31" d="M 628 4666 
L 1478 4666 
L 3547 763 
L 3547 4666 
L 4159 4666 
L 4159 0 
L 3309 0 
L 1241 3903 
L 1241 0 
L 628 0 
L 628 4666 
z
" transform="scale(0.015625)"/>
       <path id="DejaVuSans-b" d="M 1984 4856 
Q 1566 4138 1362 3434 
Q 1159 2731 1159 2009 
Q 1159 1288 1364 580 
Q 1569 -128 1984 -844 
L 1484 -844 
Q 1016 -109 783 600 
Q 550 1309 550 2009 
Q 550 2706 781 3412 
Q 1013 4119 1484 4856 
L 1984 4856 
z
" transform="scale(0.015625)"/>
       <path id="DejaVuSans-45" d="M 3116 1747 
Q 3116 2381 2855 2742 
Q 2594 3103 2138 3103 
Q 1681 3103 1420 2742 
Q 1159 2381 1159 1747 
Q 1159 1113 1420 752 
Q 1681 391 2138 391 
Q 2594 391 2855 752 
Q 3116 1113 3116 1747 
z
M 1159 2969 
Q 1341 3281 1617 3432 
Q 1894 3584 2278 3584 
Q 2916 3584 3314 3078 
Q 3713 2572 3713 1747 
Q 3713 922 3314 415 
Q 2916 -91 2278 -91 
Q 1894 -91 1617 61 
Q 1341 213 1159 525 
L 1159 0 
L 581 0 
L 581 4863 
L 1159 4863 
L 1159 2969 
z
" transform="scale(0.015625)"/>
       <path id="DejaVuSans-46" d="M 3122 3366 
L 3122 2828 
Q 2878 2963 2633 3030 
Q 2388 3097 2138 3097 
Q 1578 3097 1268 2742 
Q 959 2388 959 1747 
Q 959 1106 1268 751 
Q 1578 397 2138 397 
Q 2388 397 2633 464 
Q 2878 531 3122 666 
L 3122 134 
Q 2881 22 2623 -34 
Q 2366 -91 2075 -91 
Q 1284 -91 818 406 
Q 353 903 353 1747 
Q 353 2603 823 3093 
Q 1294 3584 2113 3584 
Q 2378 3584 2631 3529 
Q 2884 3475 3122 3366 
z
" transform="scale(0.015625)"/>
       <path id="DejaVuSans-4e" d="M 581 4863 
L 1159 4863 
L 1159 1991 
L 2875 3500 
L 3609 3500 
L 1753 1863 
L 3688 0 
L 2938 0 
L 1159 1709 
L 1159 0 
L 581 0 
L 581 4863 
z
" transform="scale(0.015625)"/>
       <path id="DejaVuSans-48" d="M 3597 1894 
L 3597 1613 
L 953 1613 
Q 991 1019 1311 708 
Q 1631 397 2203 397 
Q 2534 397 2845 478 
Q 3156 559 3463 722 
L 3463 178 
Q 3153 47 2828 -22 
Q 2503 -91 2169 -91 
Q 1331 -91 842 396 
Q 353 884 353 1716 
Q 353 2575 817 3079 
Q 1281 3584 2069 3584 
Q 2775 3584 3186 3129 
Q 3597 2675 3597 1894 
z
M 3022 2063 
Q 3016 2534 2758 2815 
Q 2500 3097 2075 3097 
Q 1594 3097 1305 2825 
Q 1016 2553 972 2059 
L 3022 2063 
z
" transform="scale(0.015625)"/>
       <path id="DejaVuSans-47" d="M 2906 2969 
L 2906 4863 
L 3481 4863 
L 3481 0 
L 2906 0 
L 2906 525 
Q 2725 213 2448 61 
Q 2172 -91 1784 -91 
Q 1150 -91 751 415 
Q 353 922 353 1747 
Q 353 2572 751 3078 
Q 1150 3584 1784 3584 
Q 2172 3584 2448 3432 
Q 2725 3281 2906 2969 
z
M 947 1747 
Q 947 1113 1208 752 
Q 1469 391 1925 391 
Q 2381 391 2643 752 
Q 2906 1113 2906 1747 
Q 2906 2381 2643 2742 
Q 2381 3103 1925 3103 
Q 1469 3103 1208 2742 
Q 947 2381 947 1747 
z
" transform="scale(0.015625)"/>
       <path id="DejaVuSans-56" d="M 2834 3397 
L 2834 2853 
Q 2591 2978 2328 3040 
Q 2066 3103 1784 3103 
Q 1356 3103 1142 2972 
Q 928 2841 928 2578 
Q 928 2378 1081 2264 
Q 1234 2150 1697 2047 
L 1894 2003 
Q 2506 1872 2764 1633 
Q 3022 1394 3022 966 
Q 3022 478 2636 193 
Q 2250 -91 1575 -91 
Q 1294 -91 989 -36 
Q 684 19 347 128 
L 347 722 
Q 666 556 975 473 
Q 1284 391 1588 391 
Q 1994 391 2212 530 
Q 2431 669 2431 922 
Q 2431 1156 2273 1281 
Q 2116 1406 1581 1522 
L 1381 1569 
Q 847 1681 609 1914 
Q 372 2147 372 2553 
Q 372 3047 722 3315 
Q 1072 3584 1716 3584 
Q 2034 3584 2315 3537 
Q 2597 3491 2834 3397 
z
" transform="scale(0.015625)"/>
       <path id="DejaVuSans-53" d="M 1159 525 
L 1159 -1331 
L 581 -1331 
L 581 3500 
L 1159 3500 
L 1159 2969 
Q 1341 3281 1617 3432 
Q 1894 3584 2278 3584 
Q 2916 3584 3314 3078 
Q 3713 2572 3713 1747 
Q 3713 922 3314 415 
Q 2916 -91 2278 -91 
Q 1894 -91 1617 61 
Q 1341 213 1159 525 
z
M 3116 1747 
Q 3116 2381 2855 2742 
Q 2594 3103 2138 3103 
Q 1681 3103 1420 2742 
Q 1159 2381 1159 1747 
Q 1159 1113 1420 752 
Q 1681 391 2138 391 
Q 2594 391 2855 752 
Q 3116 1113 3116 1747 
z
" transform="scale(0.015625)"/>
       <path id="DejaVuSans-55" d="M 2631 2963 
Q 2534 3019 2420 3045 
Q 2306 3072 2169 3072 
Q 1681 3072 1420 2755 
Q 1159 2438 1159 1844 
L 1159 0 
L 581 0 
L 581 3500 
L 1159 3500 
L 1159 2956 
Q 1341 3275 1631 3429 
Q 1922 3584 2338 3584 
Q 2397 3584 2469 3576 
Q 2541 3569 2628 3553 
L 2631 2963 
z
" transform="scale(0.015625)"/>
       <path id="DejaVuSans-54" d="M 947 1747 
Q 947 1113 1208 752 
Q 1469 391 1925 391 
Q 2381 391 2643 752 
Q 2906 1113 2906 1747 
Q 2906 2381 2643 2742 
Q 2381 3103 1925 3103 
Q 1469 3103 1208 2742 
Q 947 2381 947 1747 
z
M 2906 525 
Q 2725 213 2448 61 
Q 2172 -91 1784 -91 
Q 1150 -91 751 415 
Q 353 922 353 1747 
Q 353 2572 751 3078 
Q 1150 3584 1784 3584 
Q 2172 3584 2448 3432 
Q 2725 3281 2906 2969 
L 2906 3500 
L 3481 3500 
L 3481 -1331 
L 2906 -1331 
L 2906 525 
z
" transform="scale(0.015625)"/>
       <path id="DejaVuSans-f" d="M 750 794 
L 1409 794 
L 1409 256 
L 897 -744 
L 494 -744 
L 750 256 
L 750 794 
z
" transform="scale(0.015625)"/>
       <path id="DejaVuSans-4f" d="M 603 4863 
L 1178 4863 
L 1178 0 
L 603 0 
L 603 4863 
z
" transform="scale(0.015625)"/>
       <path id="DejaVuSans-4a" d="M 2906 1791 
Q 2906 2416 2648 2759 
Q 2391 3103 1925 3103 
Q 1463 3103 1205 2759 
Q 947 2416 947 1791 
Q 947 1169 1205 825 
Q 1463 481 1925 481 
Q 2391 481 2648 825 
Q 2906 1169 2906 1791 
z
M 3481 434 
Q 3481 -459 3084 -895 
Q 2688 -1331 1869 -1331 
Q 1566 -1331 1297 -1286 
Q 1028 -1241 775 -1147 
L 775 -588 
Q 1028 -725 1275 -790 
Q 1522 -856 1778 -856 
Q 2344 -856 2625 -561 
Q 2906 -266 2906 331 
L 2906 616 
Q 2728 306 2450 153 
Q 2172 0 1784 0 
Q 1141 0 747 490 
Q 353 981 353 1791 
Q 353 2603 747 3093 
Q 1141 3584 1784 3584 
Q 2172 3584 2450 3431 
Q 2728 3278 2906 2969 
L 2906 3500 
L 3481 3500 
L 3481 434 
z
" transform="scale(0.015625)"/>
       <path id="DejaVuSans-c" d="M 513 4856 
L 1013 4856 
Q 1481 4119 1714 3412 
Q 1947 2706 1947 2009 
Q 1947 1309 1714 600 
Q 1481 -109 1013 -844 
L 513 -844 
Q 928 -128 1133 580 
Q 1338 1288 1338 2009 
Q 1338 2731 1133 3434 
Q 928 4138 513 4856 
z
" transform="scale(0.015625)"/>
      </defs>
      <use xlink:href="#DejaVuSans-49"/>
      <use xlink:href="#DejaVuSans-44" transform="translate(35.203125 0)"/>
      <use xlink:href="#DejaVuSans-51" transform="translate(96.484375 0)"/>
      <use xlink:href="#DejaVuSans-10" transform="translate(159.859375 0)"/>
      <use xlink:href="#DejaVuSans-52" transform="translate(197.796875 0)"/>
      <use xlink:href="#DejaVuSans-58" transform="translate(258.984375 0)"/>
      <use xlink:href="#DejaVuSans-57" transform="translate(322.359375 0)"/>
      <use xlink:href="#DejaVuSans-3" transform="translate(361.5625 0)"/>
      <use xlink:href="#DejaVuSans-3" transform="translate(393.34375 0)"/>
      <use xlink:href="#DejaVuSans-31" transform="translate(425.125 0)"/>
      <use xlink:href="#DejaVuSans-3" transform="translate(499.9375 0)"/>
      <use xlink:href="#DejaVuSans-3" transform="translate(531.71875 0)"/>
      <use xlink:href="#DejaVuSans-b" transform="translate(563.5 0)"/>
      <use xlink:href="#DejaVuSans-45" transform="translate(602.515625 0)"/>
      <use xlink:href="#DejaVuSans-44" transform="translate(666 0)"/>
      <use xlink:href="#DejaVuSans-46" transform="translate(727.28125 0)"/>
      <use xlink:href="#DejaVuSans-4e" transform="translate(782.265625 0)"/>
      <use xlink:href="#DejaVuSans-48" transform="translate(836.609375 0)"/>
      <use xlink:href="#DejaVuSans-51" transform="translate(898.140625 0)"/>
      <use xlink:href="#DejaVuSans-47" transform="translate(961.515625 0)"/>
      <use xlink:href="#DejaVuSans-56" transform="translate(1025 0)"/>
      <use xlink:href="#DejaVuSans-3" transform="translate(1077.09375 0)"/>
      <use xlink:href="#DejaVuSans-46" transform="translate(1108.875 0)"/>
      <use xlink:href="#DejaVuSans-52" transform="translate(1163.859375 0)"/>
      <use xlink:href="#DejaVuSans-51" transform="translate(1225.046875 0)"/>
      <use xlink:href="#DejaVuSans-57" transform="translate(1288.421875 0)"/>
      <use xlink:href="#DejaVuSans-44" transform="translate(1327.625 0)"/>
      <use xlink:href="#DejaVuSans-46" transform="translate(1388.90625 0)"/>
      <use xlink:href="#DejaVuSans-57" transform="translate(1443.890625 0)"/>
      <use xlink:href="#DejaVuSans-48" transform="translate(1483.09375 0)"/>
      <use xlink:href="#DejaVuSans-47" transform="translate(1544.625 0)"/>
      <use xlink:href="#DejaVuSans-3" transform="translate(1608.109375 0)"/>
      <use xlink:href="#DejaVuSans-53" transform="translate(1639.890625 0)"/>
      <use xlink:href="#DejaVuSans-48" transform="translate(1703.375 0)"/>
      <use xlink:href="#DejaVuSans-55" transform="translate(1764.90625 0)"/>
      <use xlink:href="#DejaVuSans-3" transform="translate(1806.015625 0)"/>
      <use xlink:href="#DejaVuSans-55" transform="translate(1837.796875 0)"/>
      <use xlink:href="#DejaVuSans-48" transform="translate(1876.703125 0)"/>
      <use xlink:href="#DejaVuSans-54" transform="translate(1938.234375 0)"/>
      <use xlink:href="#DejaVuSans-58" transform="translate(2001.71875 0)"/>
      <use xlink:href="#DejaVuSans-48" transform="translate(2065.09375 0)"/>
      <use xlink:href="#DejaVuSans-56" transform="translate(2126.625 0)"/>
      <use xlink:href="#DejaVuSans-57" transform="translate(2178.71875 0)"/>
      <use xlink:href="#DejaVuSans-f" transform="translate(2217.921875 0)"/>
      <use xlink:href="#DejaVuSans-3" transform="translate(2249.703125 0)"/>
      <use xlink:href="#DejaVuSans-4f" transform="translate(2281.484375 0)"/>
      <use xlink:href="#DejaVuSans-52" transform="translate(2309.265625 0)"/>
      <use xlink:href="#DejaVuSans-4a" transform="translate(2370.453125 0)"/>
      <use xlink:href="#DejaVuSans-3" transform="translate(2433.9375 0)"/>
      <use xlink:href="#DejaVuSans-56" transform="translate(2465.71875 0)"/>
      <use xlink:href="#DejaVuSans-46" transform="translate(2517.8125 0)"/>
      <use xlink:href="#DejaVuSans-44" transform="translate(2572.796875 0)"/>
      <use xlink:href="#DejaVuSans-4f" transform="translate(2634.078125 0)"/>
      <use xlink:href="#DejaVuSans-48" transform="translate(2661.859375 0)"/>
      <use xlink:href="#DejaVuSans-c" transform="translate(2723.390625 0)"/>
     </g>
    </g>
   </g>
   <g id="matplotlib.axis_2">
    <g id="ytick_1">
     <g id="line2d_61">
      <path d="M 45.103984 369.438633 
L 741.663984 369.438633 
" clip-path="url(#p833ea232ae)" style="fill: none; stroke-dasharray: 0.8,1.32; stroke-dashoffset: 0; stroke: #bbbbbb; stroke-width: 0.8"/>
     </g>
     <g id="line2d_62">
      <defs>
       <path id="m1146a99f15" d="M 0 0 
L -3.5 0 
" style="stroke: #000000; stroke-width: 0.8"/>
      </defs>
      <g>
       <use xlink:href="#m1146a99f15" x="45.103984" y="369.438633" style="stroke: #000000; stroke-width: 0.8"/>
      </g>
     </g>
     <g id="text_6">
      <!-- 0.0 -->
      <g transform="translate(22.200859 373.237461) scale(0.1 -0.1)">
       <defs>
        <path id="DejaVuSans-11" d="M 684 794 
L 1344 794 
L 1344 0 
L 684 0 
L 684 794 
z
" transform="scale(0.015625)"/>
       </defs>
       <use xlink:href="#DejaVuSans-13"/>
       <use xlink:href="#DejaVuSans-11" transform="translate(63.625 0)"/>
       <use xlink:href="#DejaVuSans-13" transform="translate(95.40625 0)"/>
      </g>
     </g>
    </g>
    <g id="ytick_2">
     <g id="line2d_63">
      <path d="M 45.103984 302.626753 
L 741.663984 302.626753 
" clip-path="url(#p833ea232ae)" style="fill: none; stroke-dasharray: 0.8,1.32; stroke-dashoffset: 0; stroke: #bbbbbb; stroke-width: 0.8"/>
     </g>
     <g id="line2d_64">
      <g>
       <use xlink:href="#m1146a99f15" x="45.103984" y="302.626753" style="stroke: #000000; stroke-width: 0.8"/>
      </g>
     </g>
     <g id="text_7">
      <!-- 0.2 -->
      <g transform="translate(22.200859 306.425581) scale(0.1 -0.1)">
       <use xlink:href="#DejaVuSans-13"/>
       <use xlink:href="#DejaVuSans-11" transform="translate(63.625 0)"/>
       <use xlink:href="#DejaVuSans-15" transform="translate(95.40625 0)"/>
      </g>
     </g>
    </g>
    <g id="ytick_3">
     <g id="line2d_65">
      <path d="M 45.103984 235.814874 
L 741.663984 235.814874 
" clip-path="url(#p833ea232ae)" style="fill: none; stroke-dasharray: 0.8,1.32; stroke-dashoffset: 0; stroke: #bbbbbb; stroke-width: 0.8"/>
     </g>
     <g id="line2d_66">
      <g>
       <use xlink:href="#m1146a99f15" x="45.103984" y="235.814874" style="stroke: #000000; stroke-width: 0.8"/>
      </g>
     </g>
     <g id="text_8">
      <!-- 0.4 -->
      <g transform="translate(22.200859 239.613702) scale(0.1 -0.1)">
       <defs>
        <path id="DejaVuSans-17" d="M 2419 4116 
L 825 1625 
L 2419 1625 
L 2419 4116 
z
M 2253 4666 
L 3047 4666 
L 3047 1625 
L 3713 1625 
L 3713 1100 
L 3047 1100 
L 3047 0 
L 2419 0 
L 2419 1100 
L 313 1100 
L 313 1709 
L 2253 4666 
z
" transform="scale(0.015625)"/>
       </defs>
       <use xlink:href="#DejaVuSans-13"/>
       <use xlink:href="#DejaVuSans-11" transform="translate(63.625 0)"/>
       <use xlink:href="#DejaVuSans-17" transform="translate(95.40625 0)"/>
      </g>
     </g>
    </g>
    <g id="ytick_4">
     <g id="line2d_67">
      <path d="M 45.103984 169.002994 
L 741.663984 169.002994 
" clip-path="url(#p833ea232ae)" style="fill: none; stroke-dasharray: 0.8,1.32; stroke-dashoffset: 0; stroke: #bbbbbb; stroke-width: 0.8"/>
     </g>
     <g id="line2d_68">
      <g>
       <use xlink:href="#m1146a99f15" x="45.103984" y="169.002994" style="stroke: #000000; stroke-width: 0.8"/>
      </g>
     </g>
     <g id="text_9">
      <!-- 0.6 -->
      <g transform="translate(22.200859 172.801822) scale(0.1 -0.1)">
       <defs>
        <path id="DejaVuSans-19" d="M 2113 2584 
Q 1688 2584 1439 2293 
Q 1191 2003 1191 1497 
Q 1191 994 1439 701 
Q 1688 409 2113 409 
Q 2538 409 2786 701 
Q 3034 994 3034 1497 
Q 3034 2003 2786 2293 
Q 2538 2584 2113 2584 
z
M 3366 4563 
L 3366 3988 
Q 3128 4100 2886 4159 
Q 2644 4219 2406 4219 
Q 1781 4219 1451 3797 
Q 1122 3375 1075 2522 
Q 1259 2794 1537 2939 
Q 1816 3084 2150 3084 
Q 2853 3084 3261 2657 
Q 3669 2231 3669 1497 
Q 3669 778 3244 343 
Q 2819 -91 2113 -91 
Q 1303 -91 875 529 
Q 447 1150 447 2328 
Q 447 3434 972 4092 
Q 1497 4750 2381 4750 
Q 2619 4750 2861 4703 
Q 3103 4656 3366 4563 
z
" transform="scale(0.015625)"/>
       </defs>
       <use xlink:href="#DejaVuSans-13"/>
       <use xlink:href="#DejaVuSans-11" transform="translate(63.625 0)"/>
       <use xlink:href="#DejaVuSans-19" transform="translate(95.40625 0)"/>
      </g>
     </g>
    </g>
    <g id="ytick_5">
     <g id="line2d_69">
      <path d="M 45.103984 102.191114 
L 741.663984 102.191114 
" clip-path="url(#p833ea232ae)" style="fill: none; stroke-dasharray: 0.8,1.32; stroke-dashoffset: 0; stroke: #bbbbbb; stroke-width: 0.8"/>
     </g>
     <g id="line2d_70">
      <g>
       <use xlink:href="#m1146a99f15" x="45.103984" y="102.191114" style="stroke: #000000; stroke-width: 0.8"/>
      </g>
     </g>
     <g id="text_10">
      <!-- 0.8 -->
      <g transform="translate(22.200859 105.989943) scale(0.1 -0.1)">
       <defs>
        <path id="DejaVuSans-1b" d="M 2034 2216 
Q 1584 2216 1326 1975 
Q 1069 1734 1069 1313 
Q 1069 891 1326 650 
Q 1584 409 2034 409 
Q 2484 409 2743 651 
Q 3003 894 3003 1313 
Q 3003 1734 2745 1975 
Q 2488 2216 2034 2216 
z
M 1403 2484 
Q 997 2584 770 2862 
Q 544 3141 544 3541 
Q 544 4100 942 4425 
Q 1341 4750 2034 4750 
Q 2731 4750 3128 4425 
Q 3525 4100 3525 3541 
Q 3525 3141 3298 2862 
Q 3072 2584 2669 2484 
Q 3125 2378 3379 2068 
Q 3634 1759 3634 1313 
Q 3634 634 3220 271 
Q 2806 -91 2034 -91 
Q 1263 -91 848 271 
Q 434 634 434 1313 
Q 434 1759 690 2068 
Q 947 2378 1403 2484 
z
M 1172 3481 
Q 1172 3119 1398 2916 
Q 1625 2713 2034 2713 
Q 2441 2713 2670 2916 
Q 2900 3119 2900 3481 
Q 2900 3844 2670 4047 
Q 2441 4250 2034 4250 
Q 1625 4250 1398 4047 
Q 1172 3844 1172 3481 
z
" transform="scale(0.015625)"/>
       </defs>
       <use xlink:href="#DejaVuSans-13"/>
       <use xlink:href="#DejaVuSans-11" transform="translate(63.625 0)"/>
       <use xlink:href="#DejaVuSans-1b" transform="translate(95.40625 0)"/>
      </g>
     </g>
    </g>
    <g id="ytick_6">
     <g id="line2d_71">
      <path d="M 45.103984 35.379235 
L 741.663984 35.379235 
" clip-path="url(#p833ea232ae)" style="fill: none; stroke-dasharray: 0.8,1.32; stroke-dashoffset: 0; stroke: #bbbbbb; stroke-width: 0.8"/>
     </g>
     <g id="line2d_72">
      <g>
       <use xlink:href="#m1146a99f15" x="45.103984" y="35.379235" style="stroke: #000000; stroke-width: 0.8"/>
      </g>
     </g>
     <g id="text_11">
      <!-- 1.0 -->
      <g transform="translate(22.200859 39.178063) scale(0.1 -0.1)">
       <use xlink:href="#DejaVuSans-14"/>
       <use xlink:href="#DejaVuSans-11" transform="translate(63.625 0)"/>
       <use xlink:href="#DejaVuSans-13" transform="translate(95.40625 0)"/>
      </g>
     </g>
    </g>
    <g id="text_12">
     <!-- P(request waits on ≥ 1 slow backend)  =  1 − pᴺ -->
     <g transform="translate(15.558281 332.229355) rotate(-90) scale(0.11 -0.11)">
      <defs>
       <path id="DejaVuSans-33" d="M 1259 4147 
L 1259 2394 
L 2053 2394 
Q 2494 2394 2734 2622 
Q 2975 2850 2975 3272 
Q 2975 3691 2734 3919 
Q 2494 4147 2053 4147 
L 1259 4147 
z
M 628 4666 
L 2053 4666 
Q 2838 4666 3239 4311 
Q 3641 3956 3641 3272 
Q 3641 2581 3239 2228 
Q 2838 1875 2053 1875 
L 1259 1875 
L 1259 0 
L 628 0 
L 628 4666 
z
" transform="scale(0.015625)"/>
       <path id="DejaVuSans-5a" d="M 269 3500 
L 844 3500 
L 1563 769 
L 2278 3500 
L 2956 3500 
L 3675 769 
L 4391 3500 
L 4966 3500 
L 4050 0 
L 3372 0 
L 2619 2869 
L 1863 0 
L 1184 0 
L 269 3500 
z
" transform="scale(0.015625)"/>
       <path id="DejaVuSans-4c" d="M 603 3500 
L 1178 3500 
L 1178 0 
L 603 0 
L 603 3500 
z
M 603 4863 
L 1178 4863 
L 1178 4134 
L 603 4134 
L 603 4863 
z
" transform="scale(0.015625)"/>
       <path id="DejaVuSans-cef" d="M 678 3175 
L 678 3725 
L 4684 2578 
L 4684 2047 
L 678 897 
L 678 1453 
L 3681 2309 
L 678 3175 
z
M 4684 531 
L 4684 0 
L 678 0 
L 678 531 
L 4684 531 
z
" transform="scale(0.015625)"/>
       <path id="DejaVuSans-20" d="M 678 2906 
L 4684 2906 
L 4684 2381 
L 678 2381 
L 678 2906 
z
M 678 1631 
L 4684 1631 
L 4684 1100 
L 678 1100 
L 678 1631 
z
" transform="scale(0.015625)"/>
       <path id="DejaVuSans-c9c" d="M 678 2272 
L 4684 2272 
L 4684 1741 
L 678 1741 
L 678 2272 
z
" transform="scale(0.015625)"/>
       <path id="DejaVuSans-89d" d="M 397 4700 
L 931 4700 
L 2234 2516 
L 2234 4700 
L 2622 4700 
L 2622 2088 
L 2084 2088 
L 781 4272 
L 781 2088 
L 397 2088 
L 397 4700 
z
" transform="scale(0.015625)"/>
      </defs>
      <use xlink:href="#DejaVuSans-33"/>
      <use xlink:href="#DejaVuSans-b" transform="translate(60.296875 0)"/>
      <use xlink:href="#DejaVuSans-55" transform="translate(99.3125 0)"/>
      <use xlink:href="#DejaVuSans-48" transform="translate(138.21875 0)"/>
      <use xlink:href="#DejaVuSans-54" transform="translate(199.75 0)"/>
      <use xlink:href="#DejaVuSans-58" transform="translate(263.234375 0)"/>
      <use xlink:href="#DejaVuSans-48" transform="translate(326.609375 0)"/>
      <use xlink:href="#DejaVuSans-56" transform="translate(388.140625 0)"/>
      <use xlink:href="#DejaVuSans-57" transform="translate(440.234375 0)"/>
      <use xlink:href="#DejaVuSans-3" transform="translate(479.4375 0)"/>
      <use xlink:href="#DejaVuSans-5a" transform="translate(511.21875 0)"/>
      <use xlink:href="#DejaVuSans-44" transform="translate(593 0)"/>
      <use xlink:href="#DejaVuSans-4c" transform="translate(654.28125 0)"/>
      <use xlink:href="#DejaVuSans-57" transform="translate(682.0625 0)"/>
      <use xlink:href="#DejaVuSans-56" transform="translate(721.265625 0)"/>
      <use xlink:href="#DejaVuSans-3" transform="translate(773.359375 0)"/>
      <use xlink:href="#DejaVuSans-52" transform="translate(805.140625 0)"/>
      <use xlink:href="#DejaVuSans-51" transform="translate(866.328125 0)"/>
      <use xlink:href="#DejaVuSans-3" transform="translate(929.703125 0)"/>
      <use xlink:href="#DejaVuSans-cef" transform="translate(961.484375 0)"/>
      <use xlink:href="#DejaVuSans-3" transform="translate(1045.28125 0)"/>
      <use xlink:href="#DejaVuSans-14" transform="translate(1077.0625 0)"/>
      <use xlink:href="#DejaVuSans-3" transform="translate(1140.6875 0)"/>
      <use xlink:href="#DejaVuSans-56" transform="translate(1172.46875 0)"/>
      <use xlink:href="#DejaVuSans-4f" transform="translate(1224.5625 0)"/>
      <use xlink:href="#DejaVuSans-52" transform="translate(1252.34375 0)"/>
      <use xlink:href="#DejaVuSans-5a" transform="translate(1313.53125 0)"/>
      <use xlink:href="#DejaVuSans-3" transform="translate(1395.3125 0)"/>
      <use xlink:href="#DejaVuSans-45" transform="translate(1427.09375 0)"/>
      <use xlink:href="#DejaVuSans-44" transform="translate(1490.578125 0)"/>
      <use xlink:href="#DejaVuSans-46" transform="translate(1551.859375 0)"/>
      <use xlink:href="#DejaVuSans-4e" transform="translate(1606.84375 0)"/>
      <use xlink:href="#DejaVuSans-48" transform="translate(1661.1875 0)"/>
      <use xlink:href="#DejaVuSans-51" transform="translate(1722.71875 0)"/>
      <use xlink:href="#DejaVuSans-47" transform="translate(1786.09375 0)"/>
      <use xlink:href="#DejaVuSans-c" transform="translate(1849.578125 0)"/>
      <use xlink:href="#DejaVuSans-3" transform="translate(1888.59375 0)"/>
      <use xlink:href="#DejaVuSans-3" transform="translate(1920.375 0)"/>
      <use xlink:href="#DejaVuSans-20" transform="translate(1952.15625 0)"/>
      <use xlink:href="#DejaVuSans-3" transform="translate(2035.953125 0)"/>
      <use xlink:href="#DejaVuSans-3" transform="translate(2067.734375 0)"/>
      <use xlink:href="#DejaVuSans-14" transform="translate(2099.515625 0)"/>
      <use xlink:href="#DejaVuSans-3" transform="translate(2163.140625 0)"/>
      <use xlink:href="#DejaVuSans-c9c" transform="translate(2194.921875 0)"/>
      <use xlink:href="#DejaVuSans-3" transform="translate(2278.71875 0)"/>
      <use xlink:href="#DejaVuSans-53" transform="translate(2310.5 0)"/>
      <use xlink:href="#DejaVuSans-89d" transform="translate(2373.984375 0)"/>
     </g>
    </g>
   </g>
   <g id="line2d_73">
    <path d="M 45.103984 202.408934 
L 741.663984 202.408934 
" clip-path="url(#p833ea232ae)" style="fill: none; stroke-dasharray: 1,1.65; stroke-dashoffset: 0; stroke: #999999"/>
   </g>
   <g id="patch_3">
    <path d="M 45.103984 369.438633 
L 45.103984 28.698047 
" style="fill: none; stroke: #000000; stroke-width: 0.8; stroke-linejoin: miter; stroke-linecap: square"/>
   </g>
   <g id="patch_4">
    <path d="M 45.103984 369.438633 
L 741.663984 369.438633 
" style="fill: none; stroke: #000000; stroke-width: 0.8; stroke-linejoin: miter; stroke-linecap: square"/>
   </g>
   <g id="line2d_74">
    <path d="M 76.765803 366.098039 
L 98.984622 365.187649 
L 119.616384 364.123262 
L 138.661086 362.90797 
L 154.531672 361.687988 
L 170.402257 360.243322 
L 184.685784 358.71804 
L 197.382253 357.155105 
L 210.078721 355.369312 
L 221.188131 353.600277 
L 232.297541 351.615072 
L 243.406951 349.388974 
L 252.929302 347.268691 
L 262.451654 344.933064 
L 271.974005 342.362234 
L 281.496356 339.534971 
L 289.431649 336.966776 
L 297.366942 334.191072 
L 305.302235 331.193496 
L 313.237527 327.959139 
L 321.17282 324.472621 
L 329.108113 320.718185 
L 337.043406 316.679821 
L 344.978698 312.341419 
L 351.326933 308.643896 
L 357.675167 304.736024 
L 364.023401 300.609957 
L 370.371635 296.25817 
L 376.71987 291.673574 
L 383.068104 286.849642 
L 389.416338 281.780561 
L 395.764572 276.461381 
L 402.112806 270.888198 
L 408.461041 265.058337 
L 414.809275 258.970559 
L 421.157509 252.625274 
L 429.092802 244.335228 
L 437.028095 235.655721 
L 444.963387 226.601785 
L 452.89868 217.195037 
L 460.833973 207.464333 
L 470.356324 195.412087 
L 481.465734 180.935425 
L 495.749261 161.91048 
L 516.381022 134.411753 
L 525.903374 122.07071 
L 533.838667 112.116058 
L 541.773959 102.559458 
L 548.122194 95.260798 
L 554.470428 88.316717 
L 560.818662 81.766107 
L 565.579838 77.131995 
L 570.341013 72.750558 
L 575.102189 68.631791 
L 579.863365 64.783345 
L 584.62454 61.210362 
L 589.385716 57.915357 
L 594.146892 54.898147 
L 598.908067 52.155845 
L 603.669243 49.682908 
L 608.430419 47.471254 
L 613.191594 45.510441 
L 617.95277 43.787903 
L 622.713946 42.289245 
L 627.475121 40.998577 
L 632.236297 39.898891 
L 638.584531 38.699015 
L 644.932765 37.764326 
L 651.281 37.05265 
L 659.216292 36.415848 
L 668.738644 35.93012 
L 679.848054 35.620523 
L 695.718639 35.440721 
L 710.002166 35.393657 
L 710.002166 35.393657 
" clip-path="url(#p833ea232ae)" style="fill: none; stroke: #c0392b; stroke-width: 2.6; stroke-linecap: square"/>
   </g>
   <g id="line2d_75">
    <path d="M 76.765803 369.104573 
L 141.835203 368.759633 
L 189.44696 368.298034 
L 227.536365 367.711993 
L 259.277536 367.000189 
L 286.257532 366.169831 
L 310.06341 365.206702 
L 330.695171 364.147047 
L 349.739874 362.937138 
L 367.197518 361.589388 
L 383.068104 360.126607 
L 397.351631 358.58229 
L 410.048099 356.999947 
L 422.744568 355.192101 
L 433.853978 353.401347 
L 444.963387 351.391922 
L 456.072797 349.138858 
L 465.595149 346.993082 
L 475.1175 344.629591 
L 484.639851 342.028357 
L 494.162203 339.16798 
L 502.097495 336.570002 
L 510.032788 333.762429 
L 517.968081 330.730813 
L 525.903374 327.460172 
L 533.838667 323.935062 
L 541.773959 320.139682 
L 549.709252 316.057994 
L 557.644545 311.67389 
L 563.992779 307.938113 
L 570.341013 303.990519 
L 576.689248 299.823313 
L 583.037482 295.429041 
L 589.385716 290.800707 
L 595.73395 285.931906 
L 602.082184 280.816971 
L 608.430419 275.451132 
L 614.778653 269.830697 
L 621.126887 263.953241 
L 627.475121 257.817812 
L 633.823356 251.425151 
L 641.758648 243.076843 
L 649.693941 234.340906 
L 657.629234 225.233306 
L 665.564527 215.776685 
L 673.499819 206.001024 
L 683.022171 193.903008 
L 694.131581 179.386963 
L 710.002166 158.211347 
L 710.002166 158.211347 
" clip-path="url(#p833ea232ae)" style="fill: none; stroke: #e9852e; stroke-width: 2.6; stroke-linecap: square"/>
   </g>
   <g id="line2d_76">
    <path d="M 76.765803 369.405227 
L 243.406951 369.232956 
L 324.346937 368.941521 
L 379.893987 368.528001 
L 421.157509 368.0114 
L 454.485739 367.387554 
L 483.052793 366.640732 
L 508.44573 365.752668 
L 530.664549 364.748827 
L 549.709252 363.675304 
L 567.166896 362.478942 
L 583.037482 361.17983 
L 597.321009 359.807578 
L 611.604536 358.211274 
L 624.301004 356.575938 
L 636.997473 354.70789 
L 648.106883 352.857865 
L 659.216292 350.782363 
L 670.325702 348.455756 
L 679.848054 346.240478 
L 689.370405 343.801048 
L 698.892756 341.116984 
L 708.415108 338.166441 
L 710.002166 337.647167 
L 710.002166 337.647167 
" clip-path="url(#p833ea232ae)" style="fill: none; stroke: #2e7d32; stroke-width: 2.6; stroke-linecap: square"/>
   </g>
   <g id="patch_5">
    <path d="M 284.426366 118.634705 
Q 390.691346 137.96632 495.526352 157.037795 
" style="fill: none; stroke: #7a1f16; stroke-width: 1.3; stroke-linecap: round"/>
    <path d="M 492.163552 154.515182 
L 495.526352 157.037795 
L 491.490582 158.214467 
" style="fill: none; stroke: #7a1f16; stroke-width: 1.3; stroke-linecap: round"/>
   </g>
   <g id="text_13">
    <!-- fan out to 100 backends, -->
    <g style="fill: #7a1f16" transform="translate(107.610331 87.709423) scale(0.094 -0.094)">
     <use xlink:href="#DejaVuSans-49"/>
     <use xlink:href="#DejaVuSans-44" transform="translate(35.203125 0)"/>
     <use xlink:href="#DejaVuSans-51" transform="translate(96.484375 0)"/>
     <use xlink:href="#DejaVuSans-3" transform="translate(159.859375 0)"/>
     <use xlink:href="#DejaVuSans-52" transform="translate(191.640625 0)"/>
     <use xlink:href="#DejaVuSans-58" transform="translate(252.828125 0)"/>
     <use xlink:href="#DejaVuSans-57" transform="translate(316.203125 0)"/>
     <use xlink:href="#DejaVuSans-3" transform="translate(355.40625 0)"/>
     <use xlink:href="#DejaVuSans-57" transform="translate(387.1875 0)"/>
     <use xlink:href="#DejaVuSans-52" transform="translate(426.390625 0)"/>
     <use xlink:href="#DejaVuSans-3" transform="translate(487.578125 0)"/>
     <use xlink:href="#DejaVuSans-14" transform="translate(519.359375 0)"/>
     <use xlink:href="#DejaVuSans-13" transform="translate(582.984375 0)"/>
     <use xlink:href="#DejaVuSans-13" transform="translate(646.609375 0)"/>
     <use xlink:href="#DejaVuSans-3" transform="translate(710.234375 0)"/>
     <use xlink:href="#DejaVuSans-45" transform="translate(742.015625 0)"/>
     <use xlink:href="#DejaVuSans-44" transform="translate(805.5 0)"/>
     <use xlink:href="#DejaVuSans-46" transform="translate(866.78125 0)"/>
     <use xlink:href="#DejaVuSans-4e" transform="translate(921.765625 0)"/>
     <use xlink:href="#DejaVuSans-48" transform="translate(976.109375 0)"/>
     <use xlink:href="#DejaVuSans-51" transform="translate(1037.640625 0)"/>
     <use xlink:href="#DejaVuSans-47" transform="translate(1101.015625 0)"/>
     <use xlink:href="#DejaVuSans-56" transform="translate(1164.5 0)"/>
     <use xlink:href="#DejaVuSans-f" transform="translate(1216.59375 0)"/>
    </g>
    <!-- wait for all, each 1% slow: -->
    <g style="fill: #7a1f16" transform="translate(107.610331 98.991993) scale(0.094 -0.094)">
     <defs>
      <path id="DejaVuSans-4b" d="M 3513 2113 
L 3513 0 
L 2938 0 
L 2938 2094 
Q 2938 2591 2744 2837 
Q 2550 3084 2163 3084 
Q 1697 3084 1428 2787 
Q 1159 2491 1159 1978 
L 1159 0 
L 581 0 
L 581 4863 
L 1159 4863 
L 1159 2956 
Q 1366 3272 1645 3428 
Q 1925 3584 2291 3584 
Q 2894 3584 3203 3211 
Q 3513 2838 3513 2113 
z
" transform="scale(0.015625)"/>
      <path id="DejaVuSans-8" d="M 4653 2053 
Q 4381 2053 4226 1822 
Q 4072 1591 4072 1178 
Q 4072 772 4226 539 
Q 4381 306 4653 306 
Q 4919 306 5073 539 
Q 5228 772 5228 1178 
Q 5228 1588 5073 1820 
Q 4919 2053 4653 2053 
z
M 4653 2450 
Q 5147 2450 5437 2106 
Q 5728 1763 5728 1178 
Q 5728 594 5436 251 
Q 5144 -91 4653 -91 
Q 4153 -91 3862 251 
Q 3572 594 3572 1178 
Q 3572 1766 3864 2108 
Q 4156 2450 4653 2450 
z
M 1428 4353 
Q 1159 4353 1004 4120 
Q 850 3888 850 3481 
Q 850 3069 1003 2837 
Q 1156 2606 1428 2606 
Q 1700 2606 1854 2837 
Q 2009 3069 2009 3481 
Q 2009 3884 1853 4118 
Q 1697 4353 1428 4353 
z
M 4250 4750 
L 4750 4750 
L 1831 -91 
L 1331 -91 
L 4250 4750 
z
M 1428 4750 
Q 1922 4750 2215 4408 
Q 2509 4066 2509 3481 
Q 2509 2891 2217 2550 
Q 1925 2209 1428 2209 
Q 931 2209 642 2551 
Q 353 2894 353 3481 
Q 353 4063 643 4406 
Q 934 4750 1428 4750 
z
" transform="scale(0.015625)"/>
      <path id="DejaVuSans-1d" d="M 750 794 
L 1409 794 
L 1409 0 
L 750 0 
L 750 794 
z
M 750 3309 
L 1409 3309 
L 1409 2516 
L 750 2516 
L 750 3309 
z
" transform="scale(0.015625)"/>
     </defs>
     <use xlink:href="#DejaVuSans-5a"/>
     <use xlink:href="#DejaVuSans-44" transform="translate(81.78125 0)"/>
     <use xlink:href="#DejaVuSans-4c" transform="translate(143.0625 0)"/>
     <use xlink:href="#DejaVuSans-57" transform="translate(170.84375 0)"/>
     <use xlink:href="#DejaVuSans-3" transform="translate(210.046875 0)"/>
     <use xlink:href="#DejaVuSans-49" transform="translate(241.828125 0)"/>
     <use xlink:href="#DejaVuSans-52" transform="translate(277.03125 0)"/>
     <use xlink:href="#DejaVuSans-55" transform="translate(338.21875 0)"/>
     <use xlink:href="#DejaVuSans-3" transform="translate(379.328125 0)"/>
     <use xlink:href="#DejaVuSans-44" transform="translate(411.109375 0)"/>
     <use xlink:href="#DejaVuSans-4f" transform="translate(472.390625 0)"/>
     <use xlink:href="#DejaVuSans-4f" transform="translate(500.171875 0)"/>
     <use xlink:href="#DejaVuSans-f" transform="translate(527.953125 0)"/>
     <use xlink:href="#DejaVuSans-3" transform="translate(559.734375 0)"/>
     <use xlink:href="#DejaVuSans-48" transform="translate(591.515625 0)"/>
     <use xlink:href="#DejaVuSans-44" transform="translate(653.046875 0)"/>
     <use xlink:href="#DejaVuSans-46" transform="translate(714.328125 0)"/>
     <use xlink:href="#DejaVuSans-4b" transform="translate(769.3125 0)"/>
     <use xlink:href="#DejaVuSans-3" transform="translate(832.6875 0)"/>
     <use xlink:href="#DejaVuSans-14" transform="translate(864.46875 0)"/>
     <use xlink:href="#DejaVuSans-8" transform="translate(928.09375 0)"/>
     <use xlink:href="#DejaVuSans-3" transform="translate(1023.109375 0)"/>
     <use xlink:href="#DejaVuSans-56" transform="translate(1054.890625 0)"/>
     <use xlink:href="#DejaVuSans-4f" transform="translate(1106.984375 0)"/>
     <use xlink:href="#DejaVuSans-52" transform="translate(1134.765625 0)"/>
     <use xlink:href="#DejaVuSans-5a" transform="translate(1195.953125 0)"/>
     <use xlink:href="#DejaVuSans-1d" transform="translate(1272.265625 0)"/>
    </g>
    <!-- → 63% of requests hit a slow one -->
    <g style="fill: #7a1f16" transform="translate(107.610331 110.274564) scale(0.094 -0.094)">
     <defs>
      <path id="DejaVuSans-c1c" d="M 5050 2147 
L 5050 1866 
L 3822 638 
L 3447 1013 
L 4175 1741 
L 366 1741 
L 366 2272 
L 4175 2272 
L 3447 3000 
L 3822 3375 
L 5050 2147 
z
" transform="scale(0.015625)"/>
     </defs>
     <use xlink:href="#DejaVuSans-c1c"/>
     <use xlink:href="#DejaVuSans-3" transform="translate(83.796875 0)"/>
     <use xlink:href="#DejaVuSans-19" transform="translate(115.578125 0)"/>
     <use xlink:href="#DejaVuSans-16" transform="translate(179.203125 0)"/>
     <use xlink:href="#DejaVuSans-8" transform="translate(242.828125 0)"/>
     <use xlink:href="#DejaVuSans-3" transform="translate(337.84375 0)"/>
     <use xlink:href="#DejaVuSans-52" transform="translate(369.625 0)"/>
     <use xlink:href="#DejaVuSans-49" transform="translate(430.8125 0)"/>
     <use xlink:href="#DejaVuSans-3" transform="translate(466.015625 0)"/>
     <use xlink:href="#DejaVuSans-55" transform="translate(497.796875 0)"/>
     <use xlink:href="#DejaVuSans-48" transform="translate(536.703125 0)"/>
     <use xlink:href="#DejaVuSans-54" transform="translate(598.234375 0)"/>
     <use xlink:href="#DejaVuSans-58" transform="translate(661.71875 0)"/>
     <use xlink:href="#DejaVuSans-48" transform="translate(725.09375 0)"/>
     <use xlink:href="#DejaVuSans-56" transform="translate(786.625 0)"/>
     <use xlink:href="#DejaVuSans-57" transform="translate(838.71875 0)"/>
     <use xlink:href="#DejaVuSans-56" transform="translate(877.921875 0)"/>
     <use xlink:href="#DejaVuSans-3" transform="translate(930.015625 0)"/>
     <use xlink:href="#DejaVuSans-4b" transform="translate(961.796875 0)"/>
     <use xlink:href="#DejaVuSans-4c" transform="translate(1025.171875 0)"/>
     <use xlink:href="#DejaVuSans-57" transform="translate(1052.953125 0)"/>
     <use xlink:href="#DejaVuSans-3" transform="translate(1092.15625 0)"/>
     <use xlink:href="#DejaVuSans-44" transform="translate(1123.9375 0)"/>
     <use xlink:href="#DejaVuSans-3" transform="translate(1185.21875 0)"/>
     <use xlink:href="#DejaVuSans-56" transform="translate(1217 0)"/>
     <use xlink:href="#DejaVuSans-4f" transform="translate(1269.09375 0)"/>
     <use xlink:href="#DejaVuSans-52" transform="translate(1296.875 0)"/>
     <use xlink:href="#DejaVuSans-5a" transform="translate(1358.0625 0)"/>
     <use xlink:href="#DejaVuSans-3" transform="translate(1439.84375 0)"/>
     <use xlink:href="#DejaVuSans-52" transform="translate(1471.625 0)"/>
     <use xlink:href="#DejaVuSans-51" transform="translate(1532.8125 0)"/>
     <use xlink:href="#DejaVuSans-48" transform="translate(1596.1875 0)"/>
    </g>
    <!-- (the tail becomes the common case) -->
    <g style="fill: #7a1f16" transform="translate(107.610331 121.557134) scale(0.094 -0.094)">
     <defs>
      <path id="DejaVuSans-50" d="M 3328 2828 
Q 3544 3216 3844 3400 
Q 4144 3584 4550 3584 
Q 5097 3584 5394 3201 
Q 5691 2819 5691 2113 
L 5691 0 
L 5113 0 
L 5113 2094 
Q 5113 2597 4934 2840 
Q 4756 3084 4391 3084 
Q 3944 3084 3684 2787 
Q 3425 2491 3425 1978 
L 3425 0 
L 2847 0 
L 2847 2094 
Q 2847 2600 2669 2842 
Q 2491 3084 2119 3084 
Q 1678 3084 1418 2786 
Q 1159 2488 1159 1978 
L 1159 0 
L 581 0 
L 581 3500 
L 1159 3500 
L 1159 2956 
Q 1356 3278 1631 3431 
Q 1906 3584 2284 3584 
Q 2666 3584 2933 3390 
Q 3200 3197 3328 2828 
z
" transform="scale(0.015625)"/>
     </defs>
     <use xlink:href="#DejaVuSans-b"/>
     <use xlink:href="#DejaVuSans-57" transform="translate(39.015625 0)"/>
     <use xlink:href="#DejaVuSans-4b" transform="translate(78.21875 0)"/>
     <use xlink:href="#DejaVuSans-48" transform="translate(141.59375 0)"/>
     <use xlink:href="#DejaVuSans-3" transform="translate(203.125 0)"/>
     <use xlink:href="#DejaVuSans-57" transform="translate(234.90625 0)"/>
     <use xlink:href="#DejaVuSans-44" transform="translate(274.109375 0)"/>
     <use xlink:href="#DejaVuSans-4c" transform="translate(335.390625 0)"/>
     <use xlink:href="#DejaVuSans-4f" transform="translate(363.171875 0)"/>
     <use xlink:href="#DejaVuSans-3" transform="translate(390.953125 0)"/>
     <use xlink:href="#DejaVuSans-45" transform="translate(422.734375 0)"/>
     <use xlink:href="#DejaVuSans-48" transform="translate(486.21875 0)"/>
     <use xlink:href="#DejaVuSans-46" transform="translate(547.75 0)"/>
     <use xlink:href="#DejaVuSans-52" transform="translate(602.734375 0)"/>
     <use xlink:href="#DejaVuSans-50" transform="translate(663.921875 0)"/>
     <use xlink:href="#DejaVuSans-48" transform="translate(761.328125 0)"/>
     <use xlink:href="#DejaVuSans-56" transform="translate(822.859375 0)"/>
     <use xlink:href="#DejaVuSans-3" transform="translate(874.953125 0)"/>
     <use xlink:href="#DejaVuSans-57" transform="translate(906.734375 0)"/>
     <use xlink:href="#DejaVuSans-4b" transform="translate(945.9375 0)"/>
     <use xlink:href="#DejaVuSans-48" transform="translate(1009.3125 0)"/>
     <use xlink:href="#DejaVuSans-3" transform="translate(1070.84375 0)"/>
     <use xlink:href="#DejaVuSans-46" transform="translate(1102.625 0)"/>
     <use xlink:href="#DejaVuSans-52" transform="translate(1157.609375 0)"/>
     <use xlink:href="#DejaVuSans-50" transform="translate(1218.796875 0)"/>
     <use xlink:href="#DejaVuSans-50" transform="translate(1316.203125 0)"/>
     <use xlink:href="#DejaVuSans-52" transform="translate(1413.609375 0)"/>
     <use xlink:href="#DejaVuSans-51" transform="translate(1474.796875 0)"/>
     <use xlink:href="#DejaVuSans-3" transform="translate(1538.171875 0)"/>
     <use xlink:href="#DejaVuSans-46" transform="translate(1569.953125 0)"/>
     <use xlink:href="#DejaVuSans-44" transform="translate(1624.9375 0)"/>
     <use xlink:href="#DejaVuSans-56" transform="translate(1686.21875 0)"/>
     <use xlink:href="#DejaVuSans-48" transform="translate(1738.3125 0)"/>
     <use xlink:href="#DejaVuSans-c" transform="translate(1799.84375 0)"/>
    </g>
   </g>
   <g id="text_14">
    <!-- half of all requests are slow -->
    <g style="fill: #666666" transform="translate(81.238414 195.356051) scale(0.085 -0.085)">
     <use xlink:href="#DejaVuSans-4b"/>
     <use xlink:href="#DejaVuSans-44" transform="translate(63.375 0)"/>
     <use xlink:href="#DejaVuSans-4f" transform="translate(124.65625 0)"/>
     <use xlink:href="#DejaVuSans-49" transform="translate(152.4375 0)"/>
     <use xlink:href="#DejaVuSans-3" transform="translate(187.640625 0)"/>
     <use xlink:href="#DejaVuSans-52" transform="translate(219.421875 0)"/>
     <use xlink:href="#DejaVuSans-49" transform="translate(280.609375 0)"/>
     <use xlink:href="#DejaVuSans-3" transform="translate(315.8125 0)"/>
     <use xlink:href="#DejaVuSans-44" transform="translate(347.59375 0)"/>
     <use xlink:href="#DejaVuSans-4f" transform="translate(408.875 0)"/>
     <use xlink:href="#DejaVuSans-4f" transform="translate(436.65625 0)"/>
     <use xlink:href="#DejaVuSans-3" transform="translate(464.4375 0)"/>
     <use xlink:href="#DejaVuSans-55" transform="translate(496.21875 0)"/>
     <use xlink:href="#DejaVuSans-48" transform="translate(535.125 0)"/>
     <use xlink:href="#DejaVuSans-54" transform="translate(596.65625 0)"/>
     <use xlink:href="#DejaVuSans-58" transform="translate(660.140625 0)"/>
     <use xlink:href="#DejaVuSans-48" transform="translate(723.515625 0)"/>
     <use xlink:href="#DejaVuSans-56" transform="translate(785.046875 0)"/>
     <use xlink:href="#DejaVuSans-57" transform="translate(837.140625 0)"/>
     <use xlink:href="#DejaVuSans-56" transform="translate(876.34375 0)"/>
     <use xlink:href="#DejaVuSans-3" transform="translate(928.4375 0)"/>
     <use xlink:href="#DejaVuSans-44" transform="translate(960.21875 0)"/>
     <use xlink:href="#DejaVuSans-55" transform="translate(1021.5 0)"/>
     <use xlink:href="#DejaVuSans-48" transform="translate(1060.40625 0)"/>
     <use xlink:href="#DejaVuSans-3" transform="translate(1121.9375 0)"/>
     <use xlink:href="#DejaVuSans-56" transform="translate(1153.71875 0)"/>
     <use xlink:href="#DejaVuSans-4f" transform="translate(1205.8125 0)"/>
     <use xlink:href="#DejaVuSans-52" transform="translate(1233.59375 0)"/>
     <use xlink:href="#DejaVuSans-5a" transform="translate(1294.78125 0)"/>
    </g>
   </g>
   <g id="text_15">
    <!-- The tail at scale: rare per-server slowness becomes common under fan-out -->
    <g transform="translate(158.319531 16.698047) scale(0.125 -0.125)">
     <defs>
      <path id="DejaVuSans-37" d="M -19 4666 
L 3928 4666 
L 3928 4134 
L 2272 4134 
L 2272 0 
L 1638 0 
L 1638 4134 
L -19 4134 
L -19 4666 
z
" transform="scale(0.015625)"/>
      <path id="DejaVuSans-59" d="M 191 3500 
L 800 3500 
L 1894 563 
L 2988 3500 
L 3597 3500 
L 2284 0 
L 1503 0 
L 191 3500 
z
" transform="scale(0.015625)"/>
     </defs>
     <use xlink:href="#DejaVuSans-37"/>
     <use xlink:href="#DejaVuSans-4b" transform="translate(61.078125 0)"/>
     <use xlink:href="#DejaVuSans-48" transform="translate(124.453125 0)"/>
     <use xlink:href="#DejaVuSans-3" transform="translate(185.984375 0)"/>
     <use xlink:href="#DejaVuSans-57" transform="translate(217.765625 0)"/>
     <use xlink:href="#DejaVuSans-44" transform="translate(256.96875 0)"/>
     <use xlink:href="#DejaVuSans-4c" transform="translate(318.25 0)"/>
     <use xlink:href="#DejaVuSans-4f" transform="translate(346.03125 0)"/>
     <use xlink:href="#DejaVuSans-3" transform="translate(373.8125 0)"/>
     <use xlink:href="#DejaVuSans-44" transform="translate(405.59375 0)"/>
     <use xlink:href="#DejaVuSans-57" transform="translate(466.875 0)"/>
     <use xlink:href="#DejaVuSans-3" transform="translate(506.078125 0)"/>
     <use xlink:href="#DejaVuSans-56" transform="translate(537.859375 0)"/>
     <use xlink:href="#DejaVuSans-46" transform="translate(589.953125 0)"/>
     <use xlink:href="#DejaVuSans-44" transform="translate(644.9375 0)"/>
     <use xlink:href="#DejaVuSans-4f" transform="translate(706.21875 0)"/>
     <use xlink:href="#DejaVuSans-48" transform="translate(734 0)"/>
     <use xlink:href="#DejaVuSans-1d" transform="translate(795.53125 0)"/>
     <use xlink:href="#DejaVuSans-3" transform="translate(829.21875 0)"/>
     <use xlink:href="#DejaVuSans-55" transform="translate(861 0)"/>
     <use xlink:href="#DejaVuSans-44" transform="translate(902.109375 0)"/>
     <use xlink:href="#DejaVuSans-55" transform="translate(963.390625 0)"/>
     <use xlink:href="#DejaVuSans-48" transform="translate(1002.296875 0)"/>
     <use xlink:href="#DejaVuSans-3" transform="translate(1063.828125 0)"/>
     <use xlink:href="#DejaVuSans-53" transform="translate(1095.609375 0)"/>
     <use xlink:href="#DejaVuSans-48" transform="translate(1159.09375 0)"/>
     <use xlink:href="#DejaVuSans-55" transform="translate(1220.625 0)"/>
     <use xlink:href="#DejaVuSans-10" transform="translate(1255.34375 0)"/>
     <use xlink:href="#DejaVuSans-56" transform="translate(1291.421875 0)"/>
     <use xlink:href="#DejaVuSans-48" transform="translate(1343.515625 0)"/>
     <use xlink:href="#DejaVuSans-55" transform="translate(1405.046875 0)"/>
     <use xlink:href="#DejaVuSans-59" transform="translate(1446.15625 0)"/>
     <use xlink:href="#DejaVuSans-48" transform="translate(1505.34375 0)"/>
     <use xlink:href="#DejaVuSans-55" transform="translate(1566.875 0)"/>
     <use xlink:href="#DejaVuSans-3" transform="translate(1607.984375 0)"/>
     <use xlink:href="#DejaVuSans-56" transform="translate(1639.765625 0)"/>
     <use xlink:href="#DejaVuSans-4f" transform="translate(1691.859375 0)"/>
     <use xlink:href="#DejaVuSans-52" transform="translate(1719.640625 0)"/>
     <use xlink:href="#DejaVuSans-5a" transform="translate(1780.828125 0)"/>
     <use xlink:href="#DejaVuSans-51" transform="translate(1862.609375 0)"/>
     <use xlink:href="#DejaVuSans-48" transform="translate(1925.984375 0)"/>
     <use xlink:href="#DejaVuSans-56" transform="translate(1987.515625 0)"/>
     <use xlink:href="#DejaVuSans-56" transform="translate(2039.609375 0)"/>
     <use xlink:href="#DejaVuSans-3" transform="translate(2091.703125 0)"/>
     <use xlink:href="#DejaVuSans-45" transform="translate(2123.484375 0)"/>
     <use xlink:href="#DejaVuSans-48" transform="translate(2186.96875 0)"/>
     <use xlink:href="#DejaVuSans-46" transform="translate(2248.5 0)"/>
     <use xlink:href="#DejaVuSans-52" transform="translate(2303.484375 0)"/>
     <use xlink:href="#DejaVuSans-50" transform="translate(2364.671875 0)"/>
     <use xlink:href="#DejaVuSans-48" transform="translate(2462.078125 0)"/>
     <use xlink:href="#DejaVuSans-56" transform="translate(2523.609375 0)"/>
     <use xlink:href="#DejaVuSans-3" transform="translate(2575.703125 0)"/>
     <use xlink:href="#DejaVuSans-46" transform="translate(2607.484375 0)"/>
     <use xlink:href="#DejaVuSans-52" transform="translate(2662.46875 0)"/>
     <use xlink:href="#DejaVuSans-50" transform="translate(2723.65625 0)"/>
     <use xlink:href="#DejaVuSans-50" transform="translate(2821.0625 0)"/>
     <use xlink:href="#DejaVuSans-52" transform="translate(2918.46875 0)"/>
     <use xlink:href="#DejaVuSans-51" transform="translate(2979.65625 0)"/>
     <use xlink:href="#DejaVuSans-3" transform="translate(3043.03125 0)"/>
     <use xlink:href="#DejaVuSans-58" transform="translate(3074.8125 0)"/>
     <use xlink:href="#DejaVuSans-51" transform="translate(3138.1875 0)"/>
     <use xlink:href="#DejaVuSans-47" transform="translate(3201.5625 0)"/>
     <use xlink:href="#DejaVuSans-48" transform="translate(3265.046875 0)"/>
     <use xlink:href="#DejaVuSans-55" transform="translate(3326.578125 0)"/>
     <use xlink:href="#DejaVuSans-3" transform="translate(3367.6875 0)"/>
     <use xlink:href="#DejaVuSans-49" transform="translate(3399.46875 0)"/>
     <use xlink:href="#DejaVuSans-44" transform="translate(3434.671875 0)"/>
     <use xlink:href="#DejaVuSans-51" transform="translate(3495.953125 0)"/>
     <use xlink:href="#DejaVuSans-10" transform="translate(3559.328125 0)"/>
     <use xlink:href="#DejaVuSans-52" transform="translate(3597.265625 0)"/>
     <use xlink:href="#DejaVuSans-58" transform="translate(3658.453125 0)"/>
     <use xlink:href="#DejaVuSans-57" transform="translate(3721.828125 0)"/>
    </g>
   </g>
   <g id="PathCollection_1">
    <defs>
     <path id="m2abd785c64" d="M 0 3.708099 
C 0.983399 3.708099 1.926654 3.317391 2.622022 2.622022 
C 3.317391 1.926654 3.708099 0.983399 3.708099 0 
C 3.708099 -0.983399 3.317391 -1.926654 2.622022 -2.622022 
C 1.926654 -3.317391 0.983399 -3.708099 0 -3.708099 
C -0.983399 -3.708099 -1.926654 -3.317391 -2.622022 -2.622022 
C -3.317391 -1.926654 -3.708099 -0.983399 -3.708099 0 
C -3.708099 0.983399 -3.317391 1.926654 -2.622022 2.622022 
C -1.926654 3.317391 -0.983399 3.708099 0 3.708099 
z
" style="stroke: #c0392b"/>
    </defs>
    <g clip-path="url(#p833ea232ae)">
     <use xlink:href="#m2abd785c64" x="498.923378" y="157.655778" style="fill: #c0392b; stroke: #c0392b"/>
    </g>
   </g>
   <g id="legend_1">
    <g id="patch_6">
     <path d="M 554.687641 230.039879 
L 734.803984 230.039879 
Q 736.763984 230.039879 736.763984 228.079879 
L 736.763984 170.056801 
Q 736.763984 168.096801 734.803984 168.096801 
L 554.687641 168.096801 
Q 552.727641 168.096801 552.727641 170.056801 
L 552.727641 228.079879 
Q 552.727641 230.039879 554.687641 230.039879 
z
" style="fill: #ffffff; opacity: 0.96; stroke: #cccccc; stroke-linejoin: miter"/>
    </g>
    <g id="text_16">
     <!-- per-backend latency tail -->
     <g transform="translate(584.483313 179.615238) scale(0.1 -0.1)">
      <defs>
       <path id="DejaVuSans-5c" d="M 2059 -325 
Q 1816 -950 1584 -1140 
Q 1353 -1331 966 -1331 
L 506 -1331 
L 506 -850 
L 844 -850 
Q 1081 -850 1212 -737 
Q 1344 -625 1503 -206 
L 1606 56 
L 191 3500 
L 800 3500 
L 1894 763 
L 2988 3500 
L 3597 3500 
L 2059 -325 
z
" transform="scale(0.015625)"/>
      </defs>
      <use xlink:href="#DejaVuSans-53"/>
      <use xlink:href="#DejaVuSans-48" transform="translate(63.484375 0)"/>
      <use xlink:href="#DejaVuSans-55" transform="translate(125.015625 0)"/>
      <use xlink:href="#DejaVuSans-10" transform="translate(159.734375 0)"/>
      <use xlink:href="#DejaVuSans-45" transform="translate(195.8125 0)"/>
      <use xlink:href="#DejaVuSans-44" transform="translate(259.296875 0)"/>
      <use xlink:href="#DejaVuSans-46" transform="translate(320.578125 0)"/>
      <use xlink:href="#DejaVuSans-4e" transform="translate(375.5625 0)"/>
      <use xlink:href="#DejaVuSans-48" transform="translate(429.90625 0)"/>
      <use xlink:href="#DejaVuSans-51" transform="translate(491.4375 0)"/>
      <use xlink:href="#DejaVuSans-47" transform="translate(554.8125 0)"/>
      <use xlink:href="#DejaVuSans-3" transform="translate(618.296875 0)"/>
      <use xlink:href="#DejaVuSans-4f" transform="translate(650.078125 0)"/>
      <use xlink:href="#DejaVuSans-44" transform="translate(677.859375 0)"/>
      <use xlink:href="#DejaVuSans-57" transform="translate(739.140625 0)"/>
      <use xlink:href="#DejaVuSans-48" transform="translate(778.34375 0)"/>
      <use xlink:href="#DejaVuSans-51" transform="translate(839.875 0)"/>
      <use xlink:href="#DejaVuSans-46" transform="translate(903.25 0)"/>
      <use xlink:href="#DejaVuSans-5c" transform="translate(958.234375 0)"/>
      <use xlink:href="#DejaVuSans-3" transform="translate(1017.421875 0)"/>
      <use xlink:href="#DejaVuSans-57" transform="translate(1049.203125 0)"/>
      <use xlink:href="#DejaVuSans-44" transform="translate(1088.40625 0)"/>
      <use xlink:href="#DejaVuSans-4c" transform="translate(1149.6875 0)"/>
      <use xlink:href="#DejaVuSans-4f" transform="translate(1177.46875 0)"/>
     </g>
    </g>
    <g id="line2d_77">
     <path d="M 556.647641 190.934051 
L 566.447641 190.934051 
L 576.247641 190.934051 
" style="fill: none; stroke: #c0392b; stroke-width: 2.6; stroke-linecap: square"/>
    </g>
    <g id="text_17">
     <!-- backend p99  (1% slow) -->
     <g transform="translate(584.087641 194.364051) scale(0.098 -0.098)">
      <defs>
       <path id="DejaVuSans-1c" d="M 703 97 
L 703 672 
Q 941 559 1184 500 
Q 1428 441 1663 441 
Q 2288 441 2617 861 
Q 2947 1281 2994 2138 
Q 2813 1869 2534 1725 
Q 2256 1581 1919 1581 
Q 1219 1581 811 2004 
Q 403 2428 403 3163 
Q 403 3881 828 4315 
Q 1253 4750 1959 4750 
Q 2769 4750 3195 4129 
Q 3622 3509 3622 2328 
Q 3622 1225 3098 567 
Q 2575 -91 1691 -91 
Q 1453 -91 1209 -44 
Q 966 3 703 97 
z
M 1959 2075 
Q 2384 2075 2632 2365 
Q 2881 2656 2881 3163 
Q 2881 3666 2632 3958 
Q 2384 4250 1959 4250 
Q 1534 4250 1286 3958 
Q 1038 3666 1038 3163 
Q 1038 2656 1286 2365 
Q 1534 2075 1959 2075 
z
" transform="scale(0.015625)"/>
      </defs>
      <use xlink:href="#DejaVuSans-45"/>
      <use xlink:href="#DejaVuSans-44" transform="translate(63.484375 0)"/>
      <use xlink:href="#DejaVuSans-46" transform="translate(124.765625 0)"/>
      <use xlink:href="#DejaVuSans-4e" transform="translate(179.75 0)"/>
      <use xlink:href="#DejaVuSans-48" transform="translate(234.09375 0)"/>
      <use xlink:href="#DejaVuSans-51" transform="translate(295.625 0)"/>
      <use xlink:href="#DejaVuSans-47" transform="translate(359 0)"/>
      <use xlink:href="#DejaVuSans-3" transform="translate(422.484375 0)"/>
      <use xlink:href="#DejaVuSans-53" transform="translate(454.265625 0)"/>
      <use xlink:href="#DejaVuSans-1c" transform="translate(517.75 0)"/>
      <use xlink:href="#DejaVuSans-1c" transform="translate(581.375 0)"/>
      <use xlink:href="#DejaVuSans-3" transform="translate(645 0)"/>
      <use xlink:href="#DejaVuSans-3" transform="translate(676.78125 0)"/>
      <use xlink:href="#DejaVuSans-b" transform="translate(708.5625 0)"/>
      <use xlink:href="#DejaVuSans-14" transform="translate(747.578125 0)"/>
      <use xlink:href="#DejaVuSans-8" transform="translate(811.203125 0)"/>
      <use xlink:href="#DejaVuSans-3" transform="translate(906.21875 0)"/>
      <use xlink:href="#DejaVuSans-56" transform="translate(938 0)"/>
      <use xlink:href="#DejaVuSans-4f" transform="translate(990.09375 0)"/>
      <use xlink:href="#DejaVuSans-52" transform="translate(1017.875 0)"/>
      <use xlink:href="#DejaVuSans-5a" transform="translate(1079.0625 0)"/>
      <use xlink:href="#DejaVuSans-c" transform="translate(1160.84375 0)"/>
     </g>
    </g>
    <g id="line2d_78">
     <path d="M 556.647641 205.634816 
L 566.447641 205.634816 
L 576.247641 205.634816 
" style="fill: none; stroke: #e9852e; stroke-width: 2.6; stroke-linecap: square"/>
    </g>
    <g id="text_18">
     <!-- backend p99.9  (0.1% slow) -->
     <g transform="translate(584.087641 209.064816) scale(0.098 -0.098)">
      <use xlink:href="#DejaVuSans-45"/>
      <use xlink:href="#DejaVuSans-44" transform="translate(63.484375 0)"/>
      <use xlink:href="#DejaVuSans-46" transform="translate(124.765625 0)"/>
      <use xlink:href="#DejaVuSans-4e" transform="translate(179.75 0)"/>
      <use xlink:href="#DejaVuSans-48" transform="translate(234.09375 0)"/>
      <use xlink:href="#DejaVuSans-51" transform="translate(295.625 0)"/>
      <use xlink:href="#DejaVuSans-47" transform="translate(359 0)"/>
      <use xlink:href="#DejaVuSans-3" transform="translate(422.484375 0)"/>
      <use xlink:href="#DejaVuSans-53" transform="translate(454.265625 0)"/>
      <use xlink:href="#DejaVuSans-1c" transform="translate(517.75 0)"/>
      <use xlink:href="#DejaVuSans-1c" transform="translate(581.375 0)"/>
      <use xlink:href="#DejaVuSans-11" transform="translate(645 0)"/>
      <use xlink:href="#DejaVuSans-1c" transform="translate(676.78125 0)"/>
      <use xlink:href="#DejaVuSans-3" transform="translate(740.40625 0)"/>
      <use xlink:href="#DejaVuSans-3" transform="translate(772.1875 0)"/>
      <use xlink:href="#DejaVuSans-b" transform="translate(803.96875 0)"/>
      <use xlink:href="#DejaVuSans-13" transform="translate(842.984375 0)"/>
      <use xlink:href="#DejaVuSans-11" transform="translate(906.609375 0)"/>
      <use xlink:href="#DejaVuSans-14" transform="translate(938.390625 0)"/>
      <use xlink:href="#DejaVuSans-8" transform="translate(1002.015625 0)"/>
      <use xlink:href="#DejaVuSans-3" transform="translate(1097.03125 0)"/>
      <use xlink:href="#DejaVuSans-56" transform="translate(1128.8125 0)"/>
      <use xlink:href="#DejaVuSans-4f" transform="translate(1180.90625 0)"/>
      <use xlink:href="#DejaVuSans-52" transform="translate(1208.6875 0)"/>
      <use xlink:href="#DejaVuSans-5a" transform="translate(1269.875 0)"/>
      <use xlink:href="#DejaVuSans-c" transform="translate(1351.65625 0)"/>
     </g>
    </g>
    <g id="line2d_79">
     <path d="M 556.647641 220.335582 
L 566.447641 220.335582 
L 576.247641 220.335582 
" style="fill: none; stroke: #2e7d32; stroke-width: 2.6; stroke-linecap: square"/>
    </g>
    <g id="text_19">
     <!-- backend p99.99  (0.01% slow) -->
     <g transform="translate(584.087641 223.765582) scale(0.098 -0.098)">
      <use xlink:href="#DejaVuSans-45"/>
      <use xlink:href="#DejaVuSans-44" transform="translate(63.484375 0)"/>
      <use xlink:href="#DejaVuSans-46" transform="translate(124.765625 0)"/>
      <use xlink:href="#DejaVuSans-4e" transform="translate(179.75 0)"/>
      <use xlink:href="#DejaVuSans-48" transform="translate(234.09375 0)"/>
      <use xlink:href="#DejaVuSans-51" transform="translate(295.625 0)"/>
      <use xlink:href="#DejaVuSans-47" transform="translate(359 0)"/>
      <use xlink:href="#DejaVuSans-3" transform="translate(422.484375 0)"/>
      <use xlink:href="#DejaVuSans-53" transform="translate(454.265625 0)"/>
      <use xlink:href="#DejaVuSans-1c" transform="translate(517.75 0)"/>
      <use xlink:href="#DejaVuSans-1c" transform="translate(581.375 0)"/>
      <use xlink:href="#DejaVuSans-11" transform="translate(645 0)"/>
      <use xlink:href="#DejaVuSans-1c" transform="translate(676.78125 0)"/>
      <use xlink:href="#DejaVuSans-1c" transform="translate(740.40625 0)"/>
      <use xlink:href="#DejaVuSans-3" transform="translate(804.03125 0)"/>
      <use xlink:href="#DejaVuSans-3" transform="translate(835.8125 0)"/>
      <use xlink:href="#DejaVuSans-b" transform="translate(867.59375 0)"/>
      <use xlink:href="#DejaVuSans-13" transform="translate(906.609375 0)"/>
      <use xlink:href="#DejaVuSans-11" transform="translate(970.234375 0)"/>
      <use xlink:href="#DejaVuSans-13" transform="translate(1002.015625 0)"/>
      <use xlink:href="#DejaVuSans-14" transform="translate(1065.640625 0)"/>
      <use xlink:href="#DejaVuSans-8" transform="translate(1129.265625 0)"/>
      <use xlink:href="#DejaVuSans-3" transform="translate(1224.28125 0)"/>
      <use xlink:href="#DejaVuSans-56" transform="translate(1256.0625 0)"/>
      <use xlink:href="#DejaVuSans-4f" transform="translate(1308.15625 0)"/>
      <use xlink:href="#DejaVuSans-52" transform="translate(1335.9375 0)"/>
      <use xlink:href="#DejaVuSans-5a" transform="translate(1397.125 0)"/>
      <use xlink:href="#DejaVuSans-c" transform="translate(1478.90625 0)"/>
     </g>
    </g>
   </g>
  </g>
 </g>
 <defs>
  <clipPath id="p833ea232ae">
   <rect x="45.103984" y="28.698047" width="696.56" height="340.740586"/>
  </clipPath>
 </defs>
</svg>
