<?xml version="1.0" encoding="utf-8" standalone="no"?>
<!DOCTYPE svg PUBLIC "-//W3C//DTD SVG 1.1//EN"
  "http://www.w3.org/Graphics/SVG/1.1/DTD/svg11.dtd">
<svg xmlns:xlink="http://www.w3.org/1999/xlink" width="750.269219pt" height="417.024859pt" viewBox="0 0 750.269219 417.024859" xmlns="http://www.w3.org/2000/svg" version="1.1">
 <metadata>
  <rdf:RDF xmlns:dc="http://purl.org/dc/elements/1.1/" xmlns:cc="http://creativecommons.org/ns#" xmlns:rdf="http://www.w3.org/1999/02/22-rdf-syntax-ns#">
   <cc:Work>
    <dc:type rdf:resource="http://purl.org/dc/dcmitype/StillImage"/>
    <dc:date>2026-07-07T11:38:51.765522</dc:date>
    <dc:format>image/svg+xml</dc:format>
    <dc:creator>
     <cc:Agent>
      <dc:title>Matplotlib v3.11.0, https://matplotlib.org/</dc:title>
     </cc:Agent>
    </dc:creator>
   </cc:Work>
  </rdf:RDF>
 </metadata>
 <defs>
  <style type="text/css">*{stroke-linejoin: round; stroke-linecap: butt}</style>
 </defs>
 <g id="figure_1">
  <g id="patch_1">
   <path d="M 0 417.024859 
L 750.269219 417.024859 
L 750.269219 -0 
L 0 -0 
z
" style="fill: #ffffff"/>
  </g>
  <g id="axes_1">
   <g id="patch_2">
    <path d="M 59.375469 200.324 
L 743.069219 200.324 
L 743.069219 51.481422 
L 59.375469 51.481422 
z
" style="fill: #ffffff"/>
   </g>
   <g id="matplotlib.axis_1">
    <g id="xtick_1">
     <g id="line2d_1">
      <path d="M 59.375469 200.324 
L 59.375469 51.481422 
" clip-path="url(#p22da907388)" style="fill: none; stroke-dasharray: 0.8,1.32; stroke-dashoffset: 0; stroke: #cccccc; stroke-width: 0.8"/>
     </g>
     <g id="line2d_2">
      <defs>
       <path id="m90339bde7d" d="M 0 0 
L 0 3.5 
" style="stroke: #000000; stroke-width: 0.8"/>
      </defs>
      <g>
       <use xlink:href="#m90339bde7d" x="59.375469" y="200.324" style="stroke: #000000; stroke-width: 0.8"/>
      </g>
     </g>
    </g>
    <g id="xtick_2">
     <g id="line2d_3">
      <path d="M 183.401546 200.324 
L 183.401546 51.481422 
" clip-path="url(#p22da907388)" style="fill: none; stroke-dasharray: 0.8,1.32; stroke-dashoffset: 0; stroke: #cccccc; stroke-width: 0.8"/>
     </g>
     <g id="line2d_4">
      <g>
       <use xlink:href="#m90339bde7d" x="183.401546" y="200.324" style="stroke: #000000; stroke-width: 0.8"/>
      </g>
     </g>
    </g>
    <g id="xtick_3">
     <g id="line2d_5">
      <path d="M 307.427623 200.324 
L 307.427623 51.481422 
" clip-path="url(#p22da907388)" style="fill: none; stroke-dasharray: 0.8,1.32; stroke-dashoffset: 0; stroke: #cccccc; stroke-width: 0.8"/>
     </g>
     <g id="line2d_6">
      <g>
       <use xlink:href="#m90339bde7d" x="307.427623" y="200.324" style="stroke: #000000; stroke-width: 0.8"/>
      </g>
     </g>
    </g>
    <g id="xtick_4">
     <g id="line2d_7">
      <path d="M 431.4537 200.324 
L 431.4537 51.481422 
" clip-path="url(#p22da907388)" style="fill: none; stroke-dasharray: 0.8,1.32; stroke-dashoffset: 0; stroke: #cccccc; stroke-width: 0.8"/>
     </g>
     <g id="line2d_8">
      <g>
       <use xlink:href="#m90339bde7d" x="431.4537" y="200.324" style="stroke: #000000; stroke-width: 0.8"/>
      </g>
     </g>
    </g>
    <g id="xtick_5">
     <g id="line2d_9">
      <path d="M 555.479777 200.324 
L 555.479777 51.481422 
" clip-path="url(#p22da907388)" style="fill: none; stroke-dasharray: 0.8,1.32; stroke-dashoffset: 0; stroke: #cccccc; stroke-width: 0.8"/>
     </g>
     <g id="line2d_10">
      <g>
       <use xlink:href="#m90339bde7d" x="555.479777" y="200.324" style="stroke: #000000; stroke-width: 0.8"/>
      </g>
     </g>
    </g>
    <g id="xtick_6">
     <g id="line2d_11">
      <path d="M 679.505854 200.324 
L 679.505854 51.481422 
" clip-path="url(#p22da907388)" style="fill: none; stroke-dasharray: 0.8,1.32; stroke-dashoffset: 0; stroke: #cccccc; stroke-width: 0.8"/>
     </g>
     <g id="line2d_12">
      <g>
       <use xlink:href="#m90339bde7d" x="679.505854" y="200.324" style="stroke: #000000; stroke-width: 0.8"/>
      </g>
     </g>
    </g>
   </g>
   <g id="matplotlib.axis_2">
    <g id="ytick_1">
     <g id="line2d_13">
      <defs>
       <path id="m33b22dfb97" d="M 0 0 
L -3.5 0 
" style="stroke: #000000; stroke-width: 0.8"/>
      </defs>
      <g>
       <use xlink:href="#m33b22dfb97" x="59.375469" y="67.071652" style="stroke: #000000; stroke-width: 0.8"/>
      </g>
     </g>
     <g id="text_1">
      <!-- request 1 -->
      <g transform="translate(7.2 70.680539) scale(0.095 -0.095)">
       <defs>
        <path id="DejaVuSans-55" d="M 2631 2963 
Q 2534 3019 2420 3045 
Q 2306 3072 2169 3072 
Q 1681 3072 1420 2755 
Q 1159 2438 1159 1844 
L 1159 0 
L 581 0 
L 581 3500 
L 1159 3500 
L 1159 2956 
Q 1341 3275 1631 3429 
Q 1922 3584 2338 3584 
Q 2397 3584 2469 3576 
Q 2541 3569 2628 3553 
L 2631 2963 
z
" transform="scale(0.015625)"/>
        <path id="DejaVuSans-48" d="M 3597 1894 
L 3597 1613 
L 953 1613 
Q 991 1019 1311 708 
Q 1631 397 2203 397 
Q 2534 397 2845 478 
Q 3156 559 3463 722 
L 3463 178 
Q 3153 47 2828 -22 
Q 2503 -91 2169 -91 
Q 1331 -91 842 396 
Q 353 884 353 1716 
Q 353 2575 817 3079 
Q 1281 3584 2069 3584 
Q 2775 3584 3186 3129 
Q 3597 2675 3597 1894 
z
M 3022 2063 
Q 3016 2534 2758 2815 
Q 2500 3097 2075 3097 
Q 1594 3097 1305 2825 
Q 1016 2553 972 2059 
L 3022 2063 
z
" transform="scale(0.015625)"/>
        <path id="DejaVuSans-54" d="M 947 1747 
Q 947 1113 1208 752 
Q 1469 391 1925 391 
Q 2381 391 2643 752 
Q 2906 1113 2906 1747 
Q 2906 2381 2643 2742 
Q 2381 3103 1925 3103 
Q 1469 3103 1208 2742 
Q 947 2381 947 1747 
z
M 2906 525 
Q 2725 213 2448 61 
Q 2172 -91 1784 -91 
Q 1150 -91 751 415 
Q 353 922 353 1747 
Q 353 2572 751 3078 
Q 1150 3584 1784 3584 
Q 2172 3584 2448 3432 
Q 2725 3281 2906 2969 
L 2906 3500 
L 3481 3500 
L 3481 -1331 
L 2906 -1331 
L 2906 525 
z
" transform="scale(0.015625)"/>
        <path id="DejaVuSans-58" d="M 544 1381 
L 544 3500 
L 1119 3500 
L 1119 1403 
Q 1119 906 1312 657 
Q 1506 409 1894 409 
Q 2359 409 2629 706 
Q 2900 1003 2900 1516 
L 2900 3500 
L 3475 3500 
L 3475 0 
L 2900 0 
L 2900 538 
Q 2691 219 2414 64 
Q 2138 -91 1772 -91 
Q 1169 -91 856 284 
Q 544 659 544 1381 
z
M 1991 3584 
L 1991 3584 
z
" transform="scale(0.015625)"/>
        <path id="DejaVuSans-56" d="M 2834 3397 
L 2834 2853 
Q 2591 2978 2328 3040 
Q 2066 3103 1784 3103 
Q 1356 3103 1142 2972 
Q 928 2841 928 2578 
Q 928 2378 1081 2264 
Q 1234 2150 1697 2047 
L 1894 2003 
Q 2506 1872 2764 1633 
Q 3022 1394 3022 966 
Q 3022 478 2636 193 
Q 2250 -91 1575 -91 
Q 1294 -91 989 -36 
Q 684 19 347 128 
L 347 722 
Q 666 556 975 473 
Q 1284 391 1588 391 
Q 1994 391 2212 530 
Q 2431 669 2431 922 
Q 2431 1156 2273 1281 
Q 2116 1406 1581 1522 
L 1381 1569 
Q 847 1681 609 1914 
Q 372 2147 372 2553 
Q 372 3047 722 3315 
Q 1072 3584 1716 3584 
Q 2034 3584 2315 3537 
Q 2597 3491 2834 3397 
z
" transform="scale(0.015625)"/>
        <path id="DejaVuSans-57" d="M 1172 4494 
L 1172 3500 
L 2356 3500 
L 2356 3053 
L 1172 3053 
L 1172 1153 
Q 1172 725 1289 603 
Q 1406 481 1766 481 
L 2356 481 
L 2356 0 
L 1766 0 
Q 1100 0 847 248 
Q 594 497 594 1153 
L 594 3053 
L 172 3053 
L 172 3500 
L 594 3500 
L 594 4494 
L 1172 4494 
z
" transform="scale(0.015625)"/>
        <path id="DejaVuSans-3" transform="scale(0.015625)"/>
        <path id="DejaVuSans-14" d="M 794 531 
L 1825 531 
L 1825 4091 
L 703 3866 
L 703 4441 
L 1819 4666 
L 2450 4666 
L 2450 531 
L 3481 531 
L 3481 0 
L 794 0 
L 794 531 
z
" transform="scale(0.015625)"/>
       </defs>
       <use xlink:href="#DejaVuSans-55"/>
       <use xlink:href="#DejaVuSans-48" transform="translate(38.90625 0)"/>
       <use xlink:href="#DejaVuSans-54" transform="translate(100.4375 0)"/>
       <use xlink:href="#DejaVuSans-58" transform="translate(163.921875 0)"/>
       <use xlink:href="#DejaVuSans-48" transform="translate(227.296875 0)"/>
       <use xlink:href="#DejaVuSans-56" transform="translate(288.828125 0)"/>
       <use xlink:href="#DejaVuSans-57" transform="translate(340.921875 0)"/>
       <use xlink:href="#DejaVuSans-3" transform="translate(380.125 0)"/>
       <use xlink:href="#DejaVuSans-14" transform="translate(411.90625 0)"/>
      </g>
     </g>
    </g>
    <g id="ytick_2">
     <g id="line2d_14">
      <g>
       <use xlink:href="#m33b22dfb97" x="59.375469" y="96.487182" style="stroke: #000000; stroke-width: 0.8"/>
      </g>
     </g>
     <g id="text_2">
      <!-- request 2 -->
      <g transform="translate(7.2 100.096068) scale(0.095 -0.095)">
       <defs>
        <path id="DejaVuSans-15" d="M 1228 531 
L 3431 531 
L 3431 0 
L 469 0 
L 469 531 
Q 828 903 1448 1529 
Q 2069 2156 2228 2338 
Q 2531 2678 2651 2914 
Q 2772 3150 2772 3378 
Q 2772 3750 2511 3984 
Q 2250 4219 1831 4219 
Q 1534 4219 1204 4116 
Q 875 4013 500 3803 
L 500 4441 
Q 881 4594 1212 4672 
Q 1544 4750 1819 4750 
Q 2544 4750 2975 4387 
Q 3406 4025 3406 3419 
Q 3406 3131 3298 2873 
Q 3191 2616 2906 2266 
Q 2828 2175 2409 1742 
Q 1991 1309 1228 531 
z
" transform="scale(0.015625)"/>
       </defs>
       <use xlink:href="#DejaVuSans-55"/>
       <use xlink:href="#DejaVuSans-48" transform="translate(38.90625 0)"/>
       <use xlink:href="#DejaVuSans-54" transform="translate(100.4375 0)"/>
       <use xlink:href="#DejaVuSans-58" transform="translate(163.921875 0)"/>
       <use xlink:href="#DejaVuSans-48" transform="translate(227.296875 0)"/>
       <use xlink:href="#DejaVuSans-56" transform="translate(288.828125 0)"/>
       <use xlink:href="#DejaVuSans-57" transform="translate(340.921875 0)"/>
       <use xlink:href="#DejaVuSans-3" transform="translate(380.125 0)"/>
       <use xlink:href="#DejaVuSans-15" transform="translate(411.90625 0)"/>
      </g>
     </g>
    </g>
    <g id="ytick_3">
     <g id="line2d_15">
      <g>
       <use xlink:href="#m33b22dfb97" x="59.375469" y="125.902711" style="stroke: #000000; stroke-width: 0.8"/>
      </g>
     </g>
     <g id="text_3">
      <!-- request 3 -->
      <g transform="translate(7.2 129.511598) scale(0.095 -0.095)">
       <defs>
        <path id="DejaVuSans-16" d="M 2597 2516 
Q 3050 2419 3304 2112 
Q 3559 1806 3559 1356 
Q 3559 666 3084 287 
Q 2609 -91 1734 -91 
Q 1441 -91 1130 -33 
Q 819 25 488 141 
L 488 750 
Q 750 597 1062 519 
Q 1375 441 1716 441 
Q 2309 441 2620 675 
Q 2931 909 2931 1356 
Q 2931 1769 2642 2001 
Q 2353 2234 1838 2234 
L 1294 2234 
L 1294 2753 
L 1863 2753 
Q 2328 2753 2575 2939 
Q 2822 3125 2822 3475 
Q 2822 3834 2567 4026 
Q 2313 4219 1838 4219 
Q 1578 4219 1281 4162 
Q 984 4106 628 3988 
L 628 4550 
Q 988 4650 1302 4700 
Q 1616 4750 1894 4750 
Q 2613 4750 3031 4423 
Q 3450 4097 3450 3541 
Q 3450 3153 3228 2886 
Q 3006 2619 2597 2516 
z
" transform="scale(0.015625)"/>
       </defs>
       <use xlink:href="#DejaVuSans-55"/>
       <use xlink:href="#DejaVuSans-48" transform="translate(38.90625 0)"/>
       <use xlink:href="#DejaVuSans-54" transform="translate(100.4375 0)"/>
       <use xlink:href="#DejaVuSans-58" transform="translate(163.921875 0)"/>
       <use xlink:href="#DejaVuSans-48" transform="translate(227.296875 0)"/>
       <use xlink:href="#DejaVuSans-56" transform="translate(288.828125 0)"/>
       <use xlink:href="#DejaVuSans-57" transform="translate(340.921875 0)"/>
       <use xlink:href="#DejaVuSans-3" transform="translate(380.125 0)"/>
       <use xlink:href="#DejaVuSans-16" transform="translate(411.90625 0)"/>
      </g>
     </g>
    </g>
    <g id="ytick_4">
     <g id="line2d_16">
      <g>
       <use xlink:href="#m33b22dfb97" x="59.375469" y="155.31824" style="stroke: #000000; stroke-width: 0.8"/>
      </g>
     </g>
     <g id="text_4">
      <!-- request 4 -->
      <g transform="translate(7.2 158.927127) scale(0.095 -0.095)">
       <defs>
        <path id="DejaVuSans-17" d="M 2419 4116 
L 825 1625 
L 2419 1625 
L 2419 4116 
z
M 2253 4666 
L 3047 4666 
L 3047 1625 
L 3713 1625 
L 3713 1100 
L 3047 1100 
L 3047 0 
L 2419 0 
L 2419 1100 
L 313 1100 
L 313 1709 
L 2253 4666 
z
" transform="scale(0.015625)"/>
       </defs>
       <use xlink:href="#DejaVuSans-55"/>
       <use xlink:href="#DejaVuSans-48" transform="translate(38.90625 0)"/>
       <use xlink:href="#DejaVuSans-54" transform="translate(100.4375 0)"/>
       <use xlink:href="#DejaVuSans-58" transform="translate(163.921875 0)"/>
       <use xlink:href="#DejaVuSans-48" transform="translate(227.296875 0)"/>
       <use xlink:href="#DejaVuSans-56" transform="translate(288.828125 0)"/>
       <use xlink:href="#DejaVuSans-57" transform="translate(340.921875 0)"/>
       <use xlink:href="#DejaVuSans-3" transform="translate(380.125 0)"/>
       <use xlink:href="#DejaVuSans-17" transform="translate(411.90625 0)"/>
      </g>
     </g>
    </g>
    <g id="ytick_5">
     <g id="line2d_17">
      <g>
       <use xlink:href="#m33b22dfb97" x="59.375469" y="184.733769" style="stroke: #000000; stroke-width: 0.8"/>
      </g>
     </g>
     <g id="text_5">
      <!-- request 5 -->
      <g transform="translate(7.2 188.342656) scale(0.095 -0.095)">
       <defs>
        <path id="DejaVuSans-18" d="M 691 4666 
L 3169 4666 
L 3169 4134 
L 1269 4134 
L 1269 2991 
Q 1406 3038 1543 3061 
Q 1681 3084 1819 3084 
Q 2600 3084 3056 2656 
Q 3513 2228 3513 1497 
Q 3513 744 3044 326 
Q 2575 -91 1722 -91 
Q 1428 -91 1123 -41 
Q 819 9 494 109 
L 494 744 
Q 775 591 1075 516 
Q 1375 441 1709 441 
Q 2250 441 2565 725 
Q 2881 1009 2881 1497 
Q 2881 1984 2565 2268 
Q 2250 2553 1709 2553 
Q 1456 2553 1204 2497 
Q 953 2441 691 2322 
L 691 4666 
z
" transform="scale(0.015625)"/>
       </defs>
       <use xlink:href="#DejaVuSans-55"/>
       <use xlink:href="#DejaVuSans-48" transform="translate(38.90625 0)"/>
       <use xlink:href="#DejaVuSans-54" transform="translate(100.4375 0)"/>
       <use xlink:href="#DejaVuSans-58" transform="translate(163.921875 0)"/>
       <use xlink:href="#DejaVuSans-48" transform="translate(227.296875 0)"/>
       <use xlink:href="#DejaVuSans-56" transform="translate(288.828125 0)"/>
       <use xlink:href="#DejaVuSans-57" transform="translate(340.921875 0)"/>
       <use xlink:href="#DejaVuSans-3" transform="translate(380.125 0)"/>
       <use xlink:href="#DejaVuSans-18" transform="translate(411.90625 0)"/>
      </g>
     </g>
    </g>
   </g>
   <g id="line2d_18">
    <path d="M 710.512374 200.324 
L 710.512374 51.481422 
" clip-path="url(#p22da907388)" style="fill: none; stroke-dasharray: 4.44,1.92; stroke-dashoffset: 0; stroke: #7a1f16; stroke-width: 1.2"/>
   </g>
   <g id="patch_3">
    <path d="M 59.375469 200.324 
L 59.375469 51.481422 
" style="fill: none; stroke: #000000; stroke-width: 0.8; stroke-linejoin: miter; stroke-linecap: square"/>
   </g>
   <g id="patch_4">
    <path d="M 59.375469 200.324 
L 743.069219 200.324 
" style="fill: none; stroke: #000000; stroke-width: 0.8; stroke-linejoin: miter; stroke-linecap: square"/>
   </g>
   <g id="patch_5">
    <path d="M 59.375469 75.896311 
L 170.998938 75.896311 
L 170.998938 58.246994 
L 59.375469 58.246994 
z
" clip-path="url(#p22da907388)" style="fill: #c0392b"/>
   </g>
   <g id="text_6">
    <!-- 90 ms -->
    <g style="fill: #ffffff" transform="translate(101.303297 69.409543) scale(0.09 -0.09)">
     <defs>
      <path id="DejaVuSans-1c" d="M 703 97 
L 703 672 
Q 941 559 1184 500 
Q 1428 441 1663 441 
Q 2288 441 2617 861 
Q 2947 1281 2994 2138 
Q 2813 1869 2534 1725 
Q 2256 1581 1919 1581 
Q 1219 1581 811 2004 
Q 403 2428 403 3163 
Q 403 3881 828 4315 
Q 1253 4750 1959 4750 
Q 2769 4750 3195 4129 
Q 3622 3509 3622 2328 
Q 3622 1225 3098 567 
Q 2575 -91 1691 -91 
Q 1453 -91 1209 -44 
Q 966 3 703 97 
z
M 1959 2075 
Q 2384 2075 2632 2365 
Q 2881 2656 2881 3163 
Q 2881 3666 2632 3958 
Q 2384 4250 1959 4250 
Q 1534 4250 1286 3958 
Q 1038 3666 1038 3163 
Q 1038 2656 1286 2365 
Q 1534 2075 1959 2075 
z
" transform="scale(0.015625)"/>
      <path id="DejaVuSans-13" d="M 2034 4250 
Q 1547 4250 1301 3770 
Q 1056 3291 1056 2328 
Q 1056 1369 1301 889 
Q 1547 409 2034 409 
Q 2525 409 2770 889 
Q 3016 1369 3016 2328 
Q 3016 3291 2770 3770 
Q 2525 4250 2034 4250 
z
M 2034 4750 
Q 2819 4750 3233 4129 
Q 3647 3509 3647 2328 
Q 3647 1150 3233 529 
Q 2819 -91 2034 -91 
Q 1250 -91 836 529 
Q 422 1150 422 2328 
Q 422 3509 836 4129 
Q 1250 4750 2034 4750 
z
" transform="scale(0.015625)"/>
      <path id="DejaVuSans-50" d="M 3328 2828 
Q 3544 3216 3844 3400 
Q 4144 3584 4550 3584 
Q 5097 3584 5394 3201 
Q 5691 2819 5691 2113 
L 5691 0 
L 5113 0 
L 5113 2094 
Q 5113 2597 4934 2840 
Q 4756 3084 4391 3084 
Q 3944 3084 3684 2787 
Q 3425 2491 3425 1978 
L 3425 0 
L 2847 0 
L 2847 2094 
Q 2847 2600 2669 2842 
Q 2491 3084 2119 3084 
Q 1678 3084 1418 2786 
Q 1159 2488 1159 1978 
L 1159 0 
L 581 0 
L 581 3500 
L 1159 3500 
L 1159 2956 
Q 1356 3278 1631 3431 
Q 1906 3584 2284 3584 
Q 2666 3584 2933 3390 
Q 3200 3197 3328 2828 
z
" transform="scale(0.015625)"/>
     </defs>
     <use xlink:href="#DejaVuSans-1c"/>
     <use xlink:href="#DejaVuSans-13" transform="translate(63.625 0)"/>
     <use xlink:href="#DejaVuSans-3" transform="translate(127.25 0)"/>
     <use xlink:href="#DejaVuSans-50" transform="translate(159.03125 0)"/>
     <use xlink:href="#DejaVuSans-56" transform="translate(256.4375 0)"/>
    </g>
   </g>
   <g id="patch_6">
    <path d="M 170.998938 105.31184 
L 307.427623 105.31184 
L 307.427623 87.662523 
L 170.998938 87.662523 
z
" clip-path="url(#p22da907388)" style="fill: #c0392b"/>
   </g>
   <g id="text_7">
    <!-- 110 ms -->
    <g style="fill: #ffffff" transform="translate(222.466249 98.825072) scale(0.09 -0.09)">
     <use xlink:href="#DejaVuSans-14"/>
     <use xlink:href="#DejaVuSans-14" transform="translate(63.625 0)"/>
     <use xlink:href="#DejaVuSans-13" transform="translate(127.25 0)"/>
     <use xlink:href="#DejaVuSans-3" transform="translate(190.875 0)"/>
     <use xlink:href="#DejaVuSans-50" transform="translate(222.65625 0)"/>
     <use xlink:href="#DejaVuSans-56" transform="translate(320.0625 0)"/>
    </g>
   </g>
   <g id="patch_7">
    <path d="M 307.427623 134.72737 
L 431.4537 134.72737 
L 431.4537 117.078052 
L 307.427623 117.078052 
z
" clip-path="url(#p22da907388)" style="fill: #c0392b"/>
   </g>
   <g id="text_8">
    <!-- 100 ms -->
    <g style="fill: #ffffff" transform="translate(352.69363 128.240602) scale(0.09 -0.09)">
     <use xlink:href="#DejaVuSans-14"/>
     <use xlink:href="#DejaVuSans-13" transform="translate(63.625 0)"/>
     <use xlink:href="#DejaVuSans-13" transform="translate(127.25 0)"/>
     <use xlink:href="#DejaVuSans-3" transform="translate(190.875 0)"/>
     <use xlink:href="#DejaVuSans-50" transform="translate(222.65625 0)"/>
     <use xlink:href="#DejaVuSans-56" transform="translate(320.0625 0)"/>
    </g>
   </g>
   <g id="patch_8">
    <path d="M 431.4537 164.142899 
L 592.6876 164.142899 
L 592.6876 146.493581 
L 431.4537 146.493581 
z
" clip-path="url(#p22da907388)" style="fill: #c0392b"/>
   </g>
   <g id="text_9">
    <!-- 130 ms -->
    <g style="fill: #ffffff" transform="translate(495.323619 157.656131) scale(0.09 -0.09)">
     <use xlink:href="#DejaVuSans-14"/>
     <use xlink:href="#DejaVuSans-16" transform="translate(63.625 0)"/>
     <use xlink:href="#DejaVuSans-13" transform="translate(127.25 0)"/>
     <use xlink:href="#DejaVuSans-3" transform="translate(190.875 0)"/>
     <use xlink:href="#DejaVuSans-50" transform="translate(222.65625 0)"/>
     <use xlink:href="#DejaVuSans-56" transform="translate(320.0625 0)"/>
    </g>
   </g>
   <g id="patch_9">
    <path d="M 592.6876 193.558428 
L 710.512374 193.558428 
L 710.512374 175.909111 
L 592.6876 175.909111 
z
" clip-path="url(#p22da907388)" style="fill: #c0392b"/>
   </g>
   <g id="text_10">
    <!-- 95 ms -->
    <g style="fill: #ffffff" transform="translate(637.716081 187.07166) scale(0.09 -0.09)">
     <use xlink:href="#DejaVuSans-1c"/>
     <use xlink:href="#DejaVuSans-18" transform="translate(63.625 0)"/>
     <use xlink:href="#DejaVuSans-3" transform="translate(127.25 0)"/>
     <use xlink:href="#DejaVuSans-50" transform="translate(159.03125 0)"/>
     <use xlink:href="#DejaVuSans-56" transform="translate(256.4375 0)"/>
    </g>
   </g>
   <g id="text_11">
    <!-- Serial — one after another:  total = Σ latencies = 525 ms -->
    <g style="fill: #7a1f16" transform="translate(243.955859 45.481422) scale(0.11 -0.11)">
     <defs>
      <path id="DejaVuSans-36" d="M 3425 4513 
L 3425 3897 
Q 3066 4069 2747 4153 
Q 2428 4238 2131 4238 
Q 1616 4238 1336 4038 
Q 1056 3838 1056 3469 
Q 1056 3159 1242 3001 
Q 1428 2844 1947 2747 
L 2328 2669 
Q 3034 2534 3370 2195 
Q 3706 1856 3706 1288 
Q 3706 609 3251 259 
Q 2797 -91 1919 -91 
Q 1588 -91 1214 -16 
Q 841 59 441 206 
L 441 856 
Q 825 641 1194 531 
Q 1563 422 1919 422 
Q 2459 422 2753 634 
Q 3047 847 3047 1241 
Q 3047 1584 2836 1778 
Q 2625 1972 2144 2069 
L 1759 2144 
Q 1053 2284 737 2584 
Q 422 2884 422 3419 
Q 422 4038 858 4394 
Q 1294 4750 2059 4750 
Q 2388 4750 2728 4690 
Q 3069 4631 3425 4513 
z
" transform="scale(0.015625)"/>
      <path id="DejaVuSans-4c" d="M 603 3500 
L 1178 3500 
L 1178 0 
L 603 0 
L 603 3500 
z
M 603 4863 
L 1178 4863 
L 1178 4134 
L 603 4134 
L 603 4863 
z
" transform="scale(0.015625)"/>
      <path id="DejaVuSans-44" d="M 2194 1759 
Q 1497 1759 1228 1600 
Q 959 1441 959 1056 
Q 959 750 1161 570 
Q 1363 391 1709 391 
Q 2188 391 2477 730 
Q 2766 1069 2766 1631 
L 2766 1759 
L 2194 1759 
z
M 3341 1997 
L 3341 0 
L 2766 0 
L 2766 531 
Q 2569 213 2275 61 
Q 1981 -91 1556 -91 
Q 1019 -91 701 211 
Q 384 513 384 1019 
Q 384 1609 779 1909 
Q 1175 2209 1959 2209 
L 2766 2209 
L 2766 2266 
Q 2766 2663 2505 2880 
Q 2244 3097 1772 3097 
Q 1472 3097 1187 3025 
Q 903 2953 641 2809 
L 641 3341 
Q 956 3463 1253 3523 
Q 1550 3584 1831 3584 
Q 2591 3584 2966 3190 
Q 3341 2797 3341 1997 
z
" transform="scale(0.015625)"/>
      <path id="DejaVuSans-4f" d="M 603 4863 
L 1178 4863 
L 1178 0 
L 603 0 
L 603 4863 
z
" transform="scale(0.015625)"/>
      <path id="DejaVuSans-af6" d="M 313 1978 
L 6088 1978 
L 6088 1528 
L 313 1528 
L 313 1978 
z
" transform="scale(0.015625)"/>
      <path id="DejaVuSans-52" d="M 1959 3097 
Q 1497 3097 1228 2736 
Q 959 2375 959 1747 
Q 959 1119 1226 758 
Q 1494 397 1959 397 
Q 2419 397 2687 759 
Q 2956 1122 2956 1747 
Q 2956 2369 2687 2733 
Q 2419 3097 1959 3097 
z
M 1959 3584 
Q 2709 3584 3137 3096 
Q 3566 2609 3566 1747 
Q 3566 888 3137 398 
Q 2709 -91 1959 -91 
Q 1206 -91 779 398 
Q 353 888 353 1747 
Q 353 2609 779 3096 
Q 1206 3584 1959 3584 
z
" transform="scale(0.015625)"/>
      <path id="DejaVuSans-51" d="M 3513 2113 
L 3513 0 
L 2938 0 
L 2938 2094 
Q 2938 2591 2744 2837 
Q 2550 3084 2163 3084 
Q 1697 3084 1428 2787 
Q 1159 2491 1159 1978 
L 1159 0 
L 581 0 
L 581 3500 
L 1159 3500 
L 1159 2956 
Q 1366 3272 1645 3428 
Q 1925 3584 2291 3584 
Q 2894 3584 3203 3211 
Q 3513 2838 3513 2113 
z
" transform="scale(0.015625)"/>
      <path id="DejaVuSans-49" d="M 2375 4863 
L 2375 4384 
L 1825 4384 
Q 1516 4384 1395 4259 
Q 1275 4134 1275 3809 
L 1275 3500 
L 2222 3500 
L 2222 3053 
L 1275 3053 
L 1275 0 
L 697 0 
L 697 3053 
L 147 3053 
L 147 3500 
L 697 3500 
L 697 3744 
Q 697 4328 969 4595 
Q 1241 4863 1831 4863 
L 2375 4863 
z
" transform="scale(0.015625)"/>
      <path id="DejaVuSans-4b" d="M 3513 2113 
L 3513 0 
L 2938 0 
L 2938 2094 
Q 2938 2591 2744 2837 
Q 2550 3084 2163 3084 
Q 1697 3084 1428 2787 
Q 1159 2491 1159 1978 
L 1159 0 
L 581 0 
L 581 4863 
L 1159 4863 
L 1159 2956 
Q 1366 3272 1645 3428 
Q 1925 3584 2291 3584 
Q 2894 3584 3203 3211 
Q 3513 2838 3513 2113 
z
" transform="scale(0.015625)"/>
      <path id="DejaVuSans-1d" d="M 750 794 
L 1409 794 
L 1409 0 
L 750 0 
L 750 794 
z
M 750 3309 
L 1409 3309 
L 1409 2516 
L 750 2516 
L 750 3309 
z
" transform="scale(0.015625)"/>
      <path id="DejaVuSans-20" d="M 678 2906 
L 4684 2906 
L 4684 2381 
L 678 2381 
L 678 2906 
z
M 678 1631 
L 4684 1631 
L 4684 1100 
L 678 1100 
L 678 1631 
z
" transform="scale(0.015625)"/>
      <path id="DejaVuSans-337" d="M 1353 531 
L 3634 531 
L 3634 0 
L 628 0 
L 628 531 
L 2125 2481 
L 628 4134 
L 628 4666 
L 3578 4666 
L 3578 4134 
L 1353 4134 
L 2850 2494 
L 1353 531 
z
" transform="scale(0.015625)"/>
      <path id="DejaVuSans-46" d="M 3122 3366 
L 3122 2828 
Q 2878 2963 2633 3030 
Q 2388 3097 2138 3097 
Q 1578 3097 1268 2742 
Q 959 2388 959 1747 
Q 959 1106 1268 751 
Q 1578 397 2138 397 
Q 2388 397 2633 464 
Q 2878 531 3122 666 
L 3122 134 
Q 2881 22 2623 -34 
Q 2366 -91 2075 -91 
Q 1284 -91 818 406 
Q 353 903 353 1747 
Q 353 2603 823 3093 
Q 1294 3584 2113 3584 
Q 2378 3584 2631 3529 
Q 2884 3475 3122 3366 
z
" transform="scale(0.015625)"/>
     </defs>
     <use xlink:href="#DejaVuSans-36"/>
     <use xlink:href="#DejaVuSans-48" transform="translate(63.484375 0)"/>
     <use xlink:href="#DejaVuSans-55" transform="translate(125.015625 0)"/>
     <use xlink:href="#DejaVuSans-4c" transform="translate(166.125 0)"/>
     <use xlink:href="#DejaVuSans-44" transform="translate(193.90625 0)"/>
     <use xlink:href="#DejaVuSans-4f" transform="translate(255.1875 0)"/>
     <use xlink:href="#DejaVuSans-3" transform="translate(282.96875 0)"/>
     <use xlink:href="#DejaVuSans-af6" transform="translate(314.75 0)"/>
     <use xlink:href="#DejaVuSans-3" transform="translate(414.75 0)"/>
     <use xlink:href="#DejaVuSans-52" transform="translate(446.53125 0)"/>
     <use xlink:href="#DejaVuSans-51" transform="translate(507.71875 0)"/>
     <use xlink:href="#DejaVuSans-48" transform="translate(571.09375 0)"/>
     <use xlink:href="#DejaVuSans-3" transform="translate(632.625 0)"/>
     <use xlink:href="#DejaVuSans-44" transform="translate(664.40625 0)"/>
     <use xlink:href="#DejaVuSans-49" transform="translate(725.6875 0)"/>
     <use xlink:href="#DejaVuSans-57" transform="translate(759.140625 0)"/>
     <use xlink:href="#DejaVuSans-48" transform="translate(798.34375 0)"/>
     <use xlink:href="#DejaVuSans-55" transform="translate(859.875 0)"/>
     <use xlink:href="#DejaVuSans-3" transform="translate(900.984375 0)"/>
     <use xlink:href="#DejaVuSans-44" transform="translate(932.765625 0)"/>
     <use xlink:href="#DejaVuSans-51" transform="translate(994.046875 0)"/>
     <use xlink:href="#DejaVuSans-52" transform="translate(1057.421875 0)"/>
     <use xlink:href="#DejaVuSans-57" transform="translate(1118.609375 0)"/>
     <use xlink:href="#DejaVuSans-4b" transform="translate(1157.8125 0)"/>
     <use xlink:href="#DejaVuSans-48" transform="translate(1221.1875 0)"/>
     <use xlink:href="#DejaVuSans-55" transform="translate(1282.71875 0)"/>
     <use xlink:href="#DejaVuSans-1d" transform="translate(1322.078125 0)"/>
     <use xlink:href="#DejaVuSans-3" transform="translate(1355.765625 0)"/>
     <use xlink:href="#DejaVuSans-3" transform="translate(1387.546875 0)"/>
     <use xlink:href="#DejaVuSans-57" transform="translate(1419.328125 0)"/>
     <use xlink:href="#DejaVuSans-52" transform="translate(1458.53125 0)"/>
     <use xlink:href="#DejaVuSans-57" transform="translate(1519.71875 0)"/>
     <use xlink:href="#DejaVuSans-44" transform="translate(1558.921875 0)"/>
     <use xlink:href="#DejaVuSans-4f" transform="translate(1620.203125 0)"/>
     <use xlink:href="#DejaVuSans-3" transform="translate(1647.984375 0)"/>
     <use xlink:href="#DejaVuSans-20" transform="translate(1679.765625 0)"/>
     <use xlink:href="#DejaVuSans-3" transform="translate(1763.5625 0)"/>
     <use xlink:href="#DejaVuSans-337" transform="translate(1795.34375 0)"/>
     <use xlink:href="#DejaVuSans-3" transform="translate(1858.53125 0)"/>
     <use xlink:href="#DejaVuSans-4f" transform="translate(1890.3125 0)"/>
     <use xlink:href="#DejaVuSans-44" transform="translate(1918.09375 0)"/>
     <use xlink:href="#DejaVuSans-57" transform="translate(1979.375 0)"/>
     <use xlink:href="#DejaVuSans-48" transform="translate(2018.578125 0)"/>
     <use xlink:href="#DejaVuSans-51" transform="translate(2080.109375 0)"/>
     <use xlink:href="#DejaVuSans-46" transform="translate(2143.484375 0)"/>
     <use xlink:href="#DejaVuSans-4c" transform="translate(2198.46875 0)"/>
     <use xlink:href="#DejaVuSans-48" transform="translate(2226.25 0)"/>
     <use xlink:href="#DejaVuSans-56" transform="translate(2287.78125 0)"/>
     <use xlink:href="#DejaVuSans-3" transform="translate(2339.875 0)"/>
     <use xlink:href="#DejaVuSans-20" transform="translate(2371.65625 0)"/>
     <use xlink:href="#DejaVuSans-3" transform="translate(2455.453125 0)"/>
     <use xlink:href="#DejaVuSans-18" transform="translate(2487.234375 0)"/>
     <use xlink:href="#DejaVuSans-15" transform="translate(2550.859375 0)"/>
     <use xlink:href="#DejaVuSans-18" transform="translate(2614.484375 0)"/>
     <use xlink:href="#DejaVuSans-3" transform="translate(2678.109375 0)"/>
     <use xlink:href="#DejaVuSans-50" transform="translate(2709.890625 0)"/>
     <use xlink:href="#DejaVuSans-56" transform="translate(2807.296875 0)"/>
    </g>
   </g>
  </g>
  <g id="axes_2">
   <g id="patch_10">
    <path d="M 59.375469 377.824 
L 743.069219 377.824 
L 743.069219 228.981422 
L 59.375469 228.981422 
z
" style="fill: #ffffff"/>
   </g>
   <g id="matplotlib.axis_3">
    <g id="xtick_7">
     <g id="line2d_19">
      <path d="M 59.375469 377.824 
L 59.375469 228.981422 
" clip-path="url(#p88f7ce2325)" style="fill: none; stroke-dasharray: 0.8,1.32; stroke-dashoffset: 0; stroke: #cccccc; stroke-width: 0.8"/>
     </g>
     <g id="line2d_20">
      <g>
       <use xlink:href="#m90339bde7d" x="59.375469" y="377.824" style="stroke: #000000; stroke-width: 0.8"/>
      </g>
     </g>
     <g id="text_12">
      <!-- 0 -->
      <g transform="translate(56.194219 392.421656) scale(0.1 -0.1)">
       <use xlink:href="#DejaVuSans-13"/>
      </g>
     </g>
    </g>
    <g id="xtick_8">
     <g id="line2d_21">
      <path d="M 183.401546 377.824 
L 183.401546 228.981422 
" clip-path="url(#p88f7ce2325)" style="fill: none; stroke-dasharray: 0.8,1.32; stroke-dashoffset: 0; stroke: #cccccc; stroke-width: 0.8"/>
     </g>
     <g id="line2d_22">
      <g>
       <use xlink:href="#m90339bde7d" x="183.401546" y="377.824" style="stroke: #000000; stroke-width: 0.8"/>
      </g>
     </g>
     <g id="text_13">
      <!-- 100 -->
      <g transform="translate(173.857796 392.421656) scale(0.1 -0.1)">
       <use xlink:href="#DejaVuSans-14"/>
       <use xlink:href="#DejaVuSans-13" transform="translate(63.625 0)"/>
       <use xlink:href="#DejaVuSans-13" transform="translate(127.25 0)"/>
      </g>
     </g>
    </g>
    <g id="xtick_9">
     <g id="line2d_23">
      <path d="M 307.427623 377.824 
L 307.427623 228.981422 
" clip-path="url(#p88f7ce2325)" style="fill: none; stroke-dasharray: 0.8,1.32; stroke-dashoffset: 0; stroke: #cccccc; stroke-width: 0.8"/>
     </g>
     <g id="line2d_24">
      <g>
       <use xlink:href="#m90339bde7d" x="307.427623" y="377.824" style="stroke: #000000; stroke-width: 0.8"/>
      </g>
     </g>
     <g id="text_14">
      <!-- 200 -->
      <g transform="translate(297.883873 392.421656) scale(0.1 -0.1)">
       <use xlink:href="#DejaVuSans-15"/>
       <use xlink:href="#DejaVuSans-13" transform="translate(63.625 0)"/>
       <use xlink:href="#DejaVuSans-13" transform="translate(127.25 0)"/>
      </g>
     </g>
    </g>
    <g id="xtick_10">
     <g id="line2d_25">
      <path d="M 431.4537 377.824 
L 431.4537 228.981422 
" clip-path="url(#p88f7ce2325)" style="fill: none; stroke-dasharray: 0.8,1.32; stroke-dashoffset: 0; stroke: #cccccc; stroke-width: 0.8"/>
     </g>
     <g id="line2d_26">
      <g>
       <use xlink:href="#m90339bde7d" x="431.4537" y="377.824" style="stroke: #000000; stroke-width: 0.8"/>
      </g>
     </g>
     <g id="text_15">
      <!-- 300 -->
      <g transform="translate(421.90995 392.421656) scale(0.1 -0.1)">
       <use xlink:href="#DejaVuSans-16"/>
       <use xlink:href="#DejaVuSans-13" transform="translate(63.625 0)"/>
       <use xlink:href="#DejaVuSans-13" transform="translate(127.25 0)"/>
      </g>
     </g>
    </g>
    <g id="xtick_11">
     <g id="line2d_27">
      <path d="M 555.479777 377.824 
L 555.479777 228.981422 
" clip-path="url(#p88f7ce2325)" style="fill: none; stroke-dasharray: 0.8,1.32; stroke-dashoffset: 0; stroke: #cccccc; stroke-width: 0.8"/>
     </g>
     <g id="line2d_28">
      <g>
       <use xlink:href="#m90339bde7d" x="555.479777" y="377.824" style="stroke: #000000; stroke-width: 0.8"/>
      </g>
     </g>
     <g id="text_16">
      <!-- 400 -->
      <g transform="translate(545.936027 392.421656) scale(0.1 -0.1)">
       <use xlink:href="#DejaVuSans-17"/>
       <use xlink:href="#DejaVuSans-13" transform="translate(63.625 0)"/>
       <use xlink:href="#DejaVuSans-13" transform="translate(127.25 0)"/>
      </g>
     </g>
    </g>
    <g id="xtick_12">
     <g id="line2d_29">
      <path d="M 679.505854 377.824 
L 679.505854 228.981422 
" clip-path="url(#p88f7ce2325)" style="fill: none; stroke-dasharray: 0.8,1.32; stroke-dashoffset: 0; stroke: #cccccc; stroke-width: 0.8"/>
     </g>
     <g id="line2d_30">
      <g>
       <use xlink:href="#m90339bde7d" x="679.505854" y="377.824" style="stroke: #000000; stroke-width: 0.8"/>
      </g>
     </g>
     <g id="text_17">
      <!-- 500 -->
      <g transform="translate(669.962104 392.421656) scale(0.1 -0.1)">
       <use xlink:href="#DejaVuSans-18"/>
       <use xlink:href="#DejaVuSans-13" transform="translate(63.625 0)"/>
       <use xlink:href="#DejaVuSans-13" transform="translate(127.25 0)"/>
      </g>
     </g>
    </g>
    <g id="text_18">
     <!-- wall-clock time (ms) -->
     <g transform="translate(345.751406 407.182281) scale(0.11 -0.11)">
      <defs>
       <path id="DejaVuSans-5a" d="M 269 3500 
L 844 3500 
L 1563 769 
L 2278 3500 
L 2956 3500 
L 3675 769 
L 4391 3500 
L 4966 3500 
L 4050 0 
L 3372 0 
L 2619 2869 
L 1863 0 
L 1184 0 
L 269 3500 
z
" transform="scale(0.015625)"/>
       <path id="DejaVuSans-10" d="M 313 2009 
L 1997 2009 
L 1997 1497 
L 313 1497 
L 313 2009 
z
" transform="scale(0.015625)"/>
       <path id="DejaVuSans-4e" d="M 581 4863 
L 1159 4863 
L 1159 1991 
L 2875 3500 
L 3609 3500 
L 1753 1863 
L 3688 0 
L 2938 0 
L 1159 1709 
L 1159 0 
L 581 0 
L 581 4863 
z
" transform="scale(0.015625)"/>
       <path id="DejaVuSans-b" d="M 1984 4856 
Q 1566 4138 1362 3434 
Q 1159 2731 1159 2009 
Q 1159 1288 1364 580 
Q 1569 -128 1984 -844 
L 1484 -844 
Q 1016 -109 783 600 
Q 550 1309 550 2009 
Q 550 2706 781 3412 
Q 1013 4119 1484 4856 
L 1984 4856 
z
" transform="scale(0.015625)"/>
       <path id="DejaVuSans-c" d="M 513 4856 
L 1013 4856 
Q 1481 4119 1714 3412 
Q 1947 2706 1947 2009 
Q 1947 1309 1714 600 
Q 1481 -109 1013 -844 
L 513 -844 
Q 928 -128 1133 580 
Q 1338 1288 1338 2009 
Q 1338 2731 1133 3434 
Q 928 4138 513 4856 
z
" transform="scale(0.015625)"/>
      </defs>
      <use xlink:href="#DejaVuSans-5a"/>
      <use xlink:href="#DejaVuSans-44" transform="translate(81.78125 0)"/>
      <use xlink:href="#DejaVuSans-4f" transform="translate(143.0625 0)"/>
      <use xlink:href="#DejaVuSans-4f" transform="translate(170.84375 0)"/>
      <use xlink:href="#DejaVuSans-10" transform="translate(198.625 0)"/>
      <use xlink:href="#DejaVuSans-46" transform="translate(234.703125 0)"/>
      <use xlink:href="#DejaVuSans-4f" transform="translate(289.6875 0)"/>
      <use xlink:href="#DejaVuSans-52" transform="translate(317.46875 0)"/>
      <use xlink:href="#DejaVuSans-46" transform="translate(378.65625 0)"/>
      <use xlink:href="#DejaVuSans-4e" transform="translate(433.640625 0)"/>
      <use xlink:href="#DejaVuSans-3" transform="translate(491.546875 0)"/>
      <use xlink:href="#DejaVuSans-57" transform="translate(523.328125 0)"/>
      <use xlink:href="#DejaVuSans-4c" transform="translate(562.53125 0)"/>
      <use xlink:href="#DejaVuSans-50" transform="translate(590.3125 0)"/>
      <use xlink:href="#DejaVuSans-48" transform="translate(687.71875 0)"/>
      <use xlink:href="#DejaVuSans-3" transform="translate(749.25 0)"/>
      <use xlink:href="#DejaVuSans-b" transform="translate(781.03125 0)"/>
      <use xlink:href="#DejaVuSans-50" transform="translate(820.046875 0)"/>
      <use xlink:href="#DejaVuSans-56" transform="translate(917.453125 0)"/>
      <use xlink:href="#DejaVuSans-c" transform="translate(969.546875 0)"/>
     </g>
    </g>
   </g>
   <g id="matplotlib.axis_4">
    <g id="ytick_6">
     <g id="line2d_31">
      <g>
       <use xlink:href="#m33b22dfb97" x="59.375469" y="244.571652" style="stroke: #000000; stroke-width: 0.8"/>
      </g>
     </g>
     <g id="text_19">
      <!-- request 1 -->
      <g transform="translate(7.2 248.180539) scale(0.095 -0.095)">
       <use xlink:href="#DejaVuSans-55"/>
       <use xlink:href="#DejaVuSans-48" transform="translate(38.90625 0)"/>
       <use xlink:href="#DejaVuSans-54" transform="translate(100.4375 0)"/>
       <use xlink:href="#DejaVuSans-58" transform="translate(163.921875 0)"/>
       <use xlink:href="#DejaVuSans-48" transform="translate(227.296875 0)"/>
       <use xlink:href="#DejaVuSans-56" transform="translate(288.828125 0)"/>
       <use xlink:href="#DejaVuSans-57" transform="translate(340.921875 0)"/>
       <use xlink:href="#DejaVuSans-3" transform="translate(380.125 0)"/>
       <use xlink:href="#DejaVuSans-14" transform="translate(411.90625 0)"/>
      </g>
     </g>
    </g>
    <g id="ytick_7">
     <g id="line2d_32">
      <g>
       <use xlink:href="#m33b22dfb97" x="59.375469" y="273.987182" style="stroke: #000000; stroke-width: 0.8"/>
      </g>
     </g>
     <g id="text_20">
      <!-- request 2 -->
      <g transform="translate(7.2 277.596068) scale(0.095 -0.095)">
       <use xlink:href="#DejaVuSans-55"/>
       <use xlink:href="#DejaVuSans-48" transform="translate(38.90625 0)"/>
       <use xlink:href="#DejaVuSans-54" transform="translate(100.4375 0)"/>
       <use xlink:href="#DejaVuSans-58" transform="translate(163.921875 0)"/>
       <use xlink:href="#DejaVuSans-48" transform="translate(227.296875 0)"/>
       <use xlink:href="#DejaVuSans-56" transform="translate(288.828125 0)"/>
       <use xlink:href="#DejaVuSans-57" transform="translate(340.921875 0)"/>
       <use xlink:href="#DejaVuSans-3" transform="translate(380.125 0)"/>
       <use xlink:href="#DejaVuSans-15" transform="translate(411.90625 0)"/>
      </g>
     </g>
    </g>
    <g id="ytick_8">
     <g id="line2d_33">
      <g>
       <use xlink:href="#m33b22dfb97" x="59.375469" y="303.402711" style="stroke: #000000; stroke-width: 0.8"/>
      </g>
     </g>
     <g id="text_21">
      <!-- request 3 -->
      <g transform="translate(7.2 307.011598) scale(0.095 -0.095)">
       <use xlink:href="#DejaVuSans-55"/>
       <use xlink:href="#DejaVuSans-48" transform="translate(38.90625 0)"/>
       <use xlink:href="#DejaVuSans-54" transform="translate(100.4375 0)"/>
       <use xlink:href="#DejaVuSans-58" transform="translate(163.921875 0)"/>
       <use xlink:href="#DejaVuSans-48" transform="translate(227.296875 0)"/>
       <use xlink:href="#DejaVuSans-56" transform="translate(288.828125 0)"/>
       <use xlink:href="#DejaVuSans-57" transform="translate(340.921875 0)"/>
       <use xlink:href="#DejaVuSans-3" transform="translate(380.125 0)"/>
       <use xlink:href="#DejaVuSans-16" transform="translate(411.90625 0)"/>
      </g>
     </g>
    </g>
    <g id="ytick_9">
     <g id="line2d_34">
      <g>
       <use xlink:href="#m33b22dfb97" x="59.375469" y="332.81824" style="stroke: #000000; stroke-width: 0.8"/>
      </g>
     </g>
     <g id="text_22">
      <!-- request 4 -->
      <g transform="translate(7.2 336.427127) scale(0.095 -0.095)">
       <use xlink:href="#DejaVuSans-55"/>
       <use xlink:href="#DejaVuSans-48" transform="translate(38.90625 0)"/>
       <use xlink:href="#DejaVuSans-54" transform="translate(100.4375 0)"/>
       <use xlink:href="#DejaVuSans-58" transform="translate(163.921875 0)"/>
       <use xlink:href="#DejaVuSans-48" transform="translate(227.296875 0)"/>
       <use xlink:href="#DejaVuSans-56" transform="translate(288.828125 0)"/>
       <use xlink:href="#DejaVuSans-57" transform="translate(340.921875 0)"/>
       <use xlink:href="#DejaVuSans-3" transform="translate(380.125 0)"/>
       <use xlink:href="#DejaVuSans-17" transform="translate(411.90625 0)"/>
      </g>
     </g>
    </g>
    <g id="ytick_10">
     <g id="line2d_35">
      <g>
       <use xlink:href="#m33b22dfb97" x="59.375469" y="362.233769" style="stroke: #000000; stroke-width: 0.8"/>
      </g>
     </g>
     <g id="text_23">
      <!-- request 5 -->
      <g transform="translate(7.2 365.842656) scale(0.095 -0.095)">
       <use xlink:href="#DejaVuSans-55"/>
       <use xlink:href="#DejaVuSans-48" transform="translate(38.90625 0)"/>
       <use xlink:href="#DejaVuSans-54" transform="translate(100.4375 0)"/>
       <use xlink:href="#DejaVuSans-58" transform="translate(163.921875 0)"/>
       <use xlink:href="#DejaVuSans-48" transform="translate(227.296875 0)"/>
       <use xlink:href="#DejaVuSans-56" transform="translate(288.828125 0)"/>
       <use xlink:href="#DejaVuSans-57" transform="translate(340.921875 0)"/>
       <use xlink:href="#DejaVuSans-3" transform="translate(380.125 0)"/>
       <use xlink:href="#DejaVuSans-18" transform="translate(411.90625 0)"/>
      </g>
     </g>
    </g>
   </g>
   <g id="line2d_36">
    <path d="M 220.609369 377.824 
L 220.609369 228.981422 
" clip-path="url(#p88f7ce2325)" style="fill: none; stroke-dasharray: 4.44,1.92; stroke-dashoffset: 0; stroke: #1e5e22; stroke-width: 1.2"/>
   </g>
   <g id="patch_11">
    <path d="M 59.375469 377.824 
L 59.375469 228.981422 
" style="fill: none; stroke: #000000; stroke-width: 0.8; stroke-linejoin: miter; stroke-linecap: square"/>
   </g>
   <g id="patch_12">
    <path d="M 59.375469 377.824 
L 743.069219 377.824 
" style="fill: none; stroke: #000000; stroke-width: 0.8; stroke-linejoin: miter; stroke-linecap: square"/>
   </g>
   <g id="patch_13">
    <path d="M 59.375469 253.396311 
L 170.998938 253.396311 
L 170.998938 235.746994 
L 59.375469 235.746994 
z
" clip-path="url(#p88f7ce2325)" style="fill: #2e7d32"/>
   </g>
   <g id="text_24">
    <!-- 90 ms -->
    <g style="fill: #ffffff" transform="translate(101.303297 246.909543) scale(0.09 -0.09)">
     <use xlink:href="#DejaVuSans-1c"/>
     <use xlink:href="#DejaVuSans-13" transform="translate(63.625 0)"/>
     <use xlink:href="#DejaVuSans-3" transform="translate(127.25 0)"/>
     <use xlink:href="#DejaVuSans-50" transform="translate(159.03125 0)"/>
     <use xlink:href="#DejaVuSans-56" transform="translate(256.4375 0)"/>
    </g>
   </g>
   <g id="patch_14">
    <path d="M 59.375469 282.81184 
L 195.804154 282.81184 
L 195.804154 265.162523 
L 59.375469 265.162523 
z
" clip-path="url(#p88f7ce2325)" style="fill: #2e7d32"/>
   </g>
   <g id="text_25">
    <!-- 110 ms -->
    <g style="fill: #ffffff" transform="translate(110.84278 276.325072) scale(0.09 -0.09)">
     <use xlink:href="#DejaVuSans-14"/>
     <use xlink:href="#DejaVuSans-14" transform="translate(63.625 0)"/>
     <use xlink:href="#DejaVuSans-13" transform="translate(127.25 0)"/>
     <use xlink:href="#DejaVuSans-3" transform="translate(190.875 0)"/>
     <use xlink:href="#DejaVuSans-50" transform="translate(222.65625 0)"/>
     <use xlink:href="#DejaVuSans-56" transform="translate(320.0625 0)"/>
    </g>
   </g>
   <g id="patch_15">
    <path d="M 59.375469 312.22737 
L 183.401546 312.22737 
L 183.401546 294.578052 
L 59.375469 294.578052 
z
" clip-path="url(#p88f7ce2325)" style="fill: #2e7d32"/>
   </g>
   <g id="text_26">
    <!-- 100 ms -->
    <g style="fill: #ffffff" transform="translate(104.641476 305.740602) scale(0.09 -0.09)">
     <use xlink:href="#DejaVuSans-14"/>
     <use xlink:href="#DejaVuSans-13" transform="translate(63.625 0)"/>
     <use xlink:href="#DejaVuSans-13" transform="translate(127.25 0)"/>
     <use xlink:href="#DejaVuSans-3" transform="translate(190.875 0)"/>
     <use xlink:href="#DejaVuSans-50" transform="translate(222.65625 0)"/>
     <use xlink:href="#DejaVuSans-56" transform="translate(320.0625 0)"/>
    </g>
   </g>
   <g id="patch_16">
    <path d="M 59.375469 341.642899 
L 220.609369 341.642899 
L 220.609369 323.993581 
L 59.375469 323.993581 
z
" clip-path="url(#p88f7ce2325)" style="fill: #2e7d32"/>
   </g>
   <g id="text_27">
    <!-- 130 ms -->
    <g style="fill: #ffffff" transform="translate(123.245388 335.156131) scale(0.09 -0.09)">
     <use xlink:href="#DejaVuSans-14"/>
     <use xlink:href="#DejaVuSans-16" transform="translate(63.625 0)"/>
     <use xlink:href="#DejaVuSans-13" transform="translate(127.25 0)"/>
     <use xlink:href="#DejaVuSans-3" transform="translate(190.875 0)"/>
     <use xlink:href="#DejaVuSans-50" transform="translate(222.65625 0)"/>
     <use xlink:href="#DejaVuSans-56" transform="translate(320.0625 0)"/>
    </g>
   </g>
   <g id="patch_17">
    <path d="M 59.375469 371.058428 
L 177.200242 371.058428 
L 177.200242 353.409111 
L 59.375469 353.409111 
z
" clip-path="url(#p88f7ce2325)" style="fill: #2e7d32"/>
   </g>
   <g id="text_28">
    <!-- 95 ms -->
    <g style="fill: #ffffff" transform="translate(104.403949 364.57166) scale(0.09 -0.09)">
     <use xlink:href="#DejaVuSans-1c"/>
     <use xlink:href="#DejaVuSans-18" transform="translate(63.625 0)"/>
     <use xlink:href="#DejaVuSans-3" transform="translate(127.25 0)"/>
     <use xlink:href="#DejaVuSans-50" transform="translate(159.03125 0)"/>
     <use xlink:href="#DejaVuSans-56" transform="translate(256.4375 0)"/>
    </g>
   </g>
   <g id="text_29">
    <!-- Concurrent — overlapped (one thread, epoll):  total = max = 130 ms -->
    <g style="fill: #1e5e22" transform="translate(211.241172 222.981422) scale(0.11 -0.11)">
     <defs>
      <path id="DejaVuSans-26" d="M 4122 4306 
L 4122 3641 
Q 3803 3938 3442 4084 
Q 3081 4231 2675 4231 
Q 1875 4231 1450 3742 
Q 1025 3253 1025 2328 
Q 1025 1406 1450 917 
Q 1875 428 2675 428 
Q 3081 428 3442 575 
Q 3803 722 4122 1019 
L 4122 359 
Q 3791 134 3420 21 
Q 3050 -91 2638 -91 
Q 1578 -91 968 557 
Q 359 1206 359 2328 
Q 359 3453 968 4101 
Q 1578 4750 2638 4750 
Q 3056 4750 3426 4639 
Q 3797 4528 4122 4306 
z
" transform="scale(0.015625)"/>
      <path id="DejaVuSans-59" d="M 191 3500 
L 800 3500 
L 1894 563 
L 2988 3500 
L 3597 3500 
L 2284 0 
L 1503 0 
L 191 3500 
z
" transform="scale(0.015625)"/>
      <path id="DejaVuSans-53" d="M 1159 525 
L 1159 -1331 
L 581 -1331 
L 581 3500 
L 1159 3500 
L 1159 2969 
Q 1341 3281 1617 3432 
Q 1894 3584 2278 3584 
Q 2916 3584 3314 3078 
Q 3713 2572 3713 1747 
Q 3713 922 3314 415 
Q 2916 -91 2278 -91 
Q 1894 -91 1617 61 
Q 1341 213 1159 525 
z
M 3116 1747 
Q 3116 2381 2855 2742 
Q 2594 3103 2138 3103 
Q 1681 3103 1420 2742 
Q 1159 2381 1159 1747 
Q 1159 1113 1420 752 
Q 1681 391 2138 391 
Q 2594 391 2855 752 
Q 3116 1113 3116 1747 
z
" transform="scale(0.015625)"/>
      <path id="DejaVuSans-47" d="M 2906 2969 
L 2906 4863 
L 3481 4863 
L 3481 0 
L 2906 0 
L 2906 525 
Q 2725 213 2448 61 
Q 2172 -91 1784 -91 
Q 1150 -91 751 415 
Q 353 922 353 1747 
Q 353 2572 751 3078 
Q 1150 3584 1784 3584 
Q 2172 3584 2448 3432 
Q 2725 3281 2906 2969 
z
M 947 1747 
Q 947 1113 1208 752 
Q 1469 391 1925 391 
Q 2381 391 2643 752 
Q 2906 1113 2906 1747 
Q 2906 2381 2643 2742 
Q 2381 3103 1925 3103 
Q 1469 3103 1208 2742 
Q 947 2381 947 1747 
z
" transform="scale(0.015625)"/>
      <path id="DejaVuSans-f" d="M 750 794 
L 1409 794 
L 1409 256 
L 897 -744 
L 494 -744 
L 750 256 
L 750 794 
z
" transform="scale(0.015625)"/>
      <path id="DejaVuSans-5b" d="M 3513 3500 
L 2247 1797 
L 3578 0 
L 2900 0 
L 1881 1375 
L 863 0 
L 184 0 
L 1544 1831 
L 300 3500 
L 978 3500 
L 1906 2253 
L 2834 3500 
L 3513 3500 
z
" transform="scale(0.015625)"/>
     </defs>
     <use xlink:href="#DejaVuSans-26"/>
     <use xlink:href="#DejaVuSans-52" transform="translate(69.828125 0)"/>
     <use xlink:href="#DejaVuSans-51" transform="translate(131.015625 0)"/>
     <use xlink:href="#DejaVuSans-46" transform="translate(194.390625 0)"/>
     <use xlink:href="#DejaVuSans-58" transform="translate(249.375 0)"/>
     <use xlink:href="#DejaVuSans-55" transform="translate(312.75 0)"/>
     <use xlink:href="#DejaVuSans-55" transform="translate(352.109375 0)"/>
     <use xlink:href="#DejaVuSans-48" transform="translate(391.015625 0)"/>
     <use xlink:href="#DejaVuSans-51" transform="translate(452.546875 0)"/>
     <use xlink:href="#DejaVuSans-57" transform="translate(515.921875 0)"/>
     <use xlink:href="#DejaVuSans-3" transform="translate(555.125 0)"/>
     <use xlink:href="#DejaVuSans-af6" transform="translate(586.90625 0)"/>
     <use xlink:href="#DejaVuSans-3" transform="translate(686.90625 0)"/>
     <use xlink:href="#DejaVuSans-52" transform="translate(718.6875 0)"/>
     <use xlink:href="#DejaVuSans-59" transform="translate(779.875 0)"/>
     <use xlink:href="#DejaVuSans-48" transform="translate(839.0625 0)"/>
     <use xlink:href="#DejaVuSans-55" transform="translate(900.59375 0)"/>
     <use xlink:href="#DejaVuSans-4f" transform="translate(941.703125 0)"/>
     <use xlink:href="#DejaVuSans-44" transform="translate(969.484375 0)"/>
     <use xlink:href="#DejaVuSans-53" transform="translate(1030.765625 0)"/>
     <use xlink:href="#DejaVuSans-53" transform="translate(1094.25 0)"/>
     <use xlink:href="#DejaVuSans-48" transform="translate(1157.734375 0)"/>
     <use xlink:href="#DejaVuSans-47" transform="translate(1219.265625 0)"/>
     <use xlink:href="#DejaVuSans-3" transform="translate(1282.75 0)"/>
     <use xlink:href="#DejaVuSans-b" transform="translate(1314.53125 0)"/>
     <use xlink:href="#DejaVuSans-52" transform="translate(1353.546875 0)"/>
     <use xlink:href="#DejaVuSans-51" transform="translate(1414.734375 0)"/>
     <use xlink:href="#DejaVuSans-48" transform="translate(1478.109375 0)"/>
     <use xlink:href="#DejaVuSans-3" transform="translate(1539.640625 0)"/>
     <use xlink:href="#DejaVuSans-57" transform="translate(1571.421875 0)"/>
     <use xlink:href="#DejaVuSans-4b" transform="translate(1610.625 0)"/>
     <use xlink:href="#DejaVuSans-55" transform="translate(1674 0)"/>
     <use xlink:href="#DejaVuSans-48" transform="translate(1712.90625 0)"/>
     <use xlink:href="#DejaVuSans-44" transform="translate(1774.4375 0)"/>
     <use xlink:href="#DejaVuSans-47" transform="translate(1835.71875 0)"/>
     <use xlink:href="#DejaVuSans-f" transform="translate(1899.203125 0)"/>
     <use xlink:href="#DejaVuSans-3" transform="translate(1930.984375 0)"/>
     <use xlink:href="#DejaVuSans-48" transform="translate(1962.765625 0)"/>
     <use xlink:href="#DejaVuSans-53" transform="translate(2024.296875 0)"/>
     <use xlink:href="#DejaVuSans-52" transform="translate(2087.78125 0)"/>
     <use xlink:href="#DejaVuSans-4f" transform="translate(2148.96875 0)"/>
     <use xlink:href="#DejaVuSans-4f" transform="translate(2176.75 0)"/>
     <use xlink:href="#DejaVuSans-c" transform="translate(2204.53125 0)"/>
     <use xlink:href="#DejaVuSans-1d" transform="translate(2243.546875 0)"/>
     <use xlink:href="#DejaVuSans-3" transform="translate(2277.234375 0)"/>
     <use xlink:href="#DejaVuSans-3" transform="translate(2309.015625 0)"/>
     <use xlink:href="#DejaVuSans-57" transform="translate(2340.796875 0)"/>
     <use xlink:href="#DejaVuSans-52" transform="translate(2380 0)"/>
     <use xlink:href="#DejaVuSans-57" transform="translate(2441.1875 0)"/>
     <use xlink:href="#DejaVuSans-44" transform="translate(2480.390625 0)"/>
     <use xlink:href="#DejaVuSans-4f" transform="translate(2541.671875 0)"/>
     <use xlink:href="#DejaVuSans-3" transform="translate(2569.453125 0)"/>
     <use xlink:href="#DejaVuSans-20" transform="translate(2601.234375 0)"/>
     <use xlink:href="#DejaVuSans-3" transform="translate(2685.03125 0)"/>
     <use xlink:href="#DejaVuSans-50" transform="translate(2716.8125 0)"/>
     <use xlink:href="#DejaVuSans-44" transform="translate(2814.21875 0)"/>
     <use xlink:href="#DejaVuSans-5b" transform="translate(2875.5 0)"/>
     <use xlink:href="#DejaVuSans-3" transform="translate(2934.6875 0)"/>
     <use xlink:href="#DejaVuSans-20" transform="translate(2966.46875 0)"/>
     <use xlink:href="#DejaVuSans-3" transform="translate(3050.265625 0)"/>
     <use xlink:href="#DejaVuSans-14" transform="translate(3082.046875 0)"/>
     <use xlink:href="#DejaVuSans-16" transform="translate(3145.671875 0)"/>
     <use xlink:href="#DejaVuSans-13" transform="translate(3209.296875 0)"/>
     <use xlink:href="#DejaVuSans-3" transform="translate(3272.921875 0)"/>
     <use xlink:href="#DejaVuSans-50" transform="translate(3304.703125 0)"/>
     <use xlink:href="#DejaVuSans-56" transform="translate(3402.109375 0)"/>
    </g>
   </g>
  </g>
  <g id="text_30">
   <!-- Same 5 I/O-bound requests: overlapping the waits collapses Σ → max -->
   <g transform="translate(158.76082 16.698047) scale(0.125 -0.125)">
    <defs>
     <path id="DejaVuSans-2c" d="M 628 4666 
L 1259 4666 
L 1259 0 
L 628 0 
L 628 4666 
z
" transform="scale(0.015625)"/>
     <path id="DejaVuSans-12" d="M 1625 4666 
L 2156 4666 
L 531 -594 
L 0 -594 
L 1625 4666 
z
" transform="scale(0.015625)"/>
     <path id="DejaVuSans-32" d="M 2522 4238 
Q 1834 4238 1429 3725 
Q 1025 3213 1025 2328 
Q 1025 1447 1429 934 
Q 1834 422 2522 422 
Q 3209 422 3611 934 
Q 4013 1447 4013 2328 
Q 4013 3213 3611 3725 
Q 3209 4238 2522 4238 
z
M 2522 4750 
Q 3503 4750 4090 4092 
Q 4678 3434 4678 2328 
Q 4678 1225 4090 567 
Q 3503 -91 2522 -91 
Q 1538 -91 948 565 
Q 359 1222 359 2328 
Q 359 3434 948 4092 
Q 1538 4750 2522 4750 
z
" transform="scale(0.015625)"/>
     <path id="DejaVuSans-45" d="M 3116 1747 
Q 3116 2381 2855 2742 
Q 2594 3103 2138 3103 
Q 1681 3103 1420 2742 
Q 1159 2381 1159 1747 
Q 1159 1113 1420 752 
Q 1681 391 2138 391 
Q 2594 391 2855 752 
Q 3116 1113 3116 1747 
z
M 1159 2969 
Q 1341 3281 1617 3432 
Q 1894 3584 2278 3584 
Q 2916 3584 3314 3078 
Q 3713 2572 3713 1747 
Q 3713 922 3314 415 
Q 2916 -91 2278 -91 
Q 1894 -91 1617 61 
Q 1341 213 1159 525 
L 1159 0 
L 581 0 
L 581 4863 
L 1159 4863 
L 1159 2969 
z
" transform="scale(0.015625)"/>
     <path id="DejaVuSans-4a" d="M 2906 1791 
Q 2906 2416 2648 2759 
Q 2391 3103 1925 3103 
Q 1463 3103 1205 2759 
Q 947 2416 947 1791 
Q 947 1169 1205 825 
Q 1463 481 1925 481 
Q 2391 481 2648 825 
Q 2906 1169 2906 1791 
z
M 3481 434 
Q 3481 -459 3084 -895 
Q 2688 -1331 1869 -1331 
Q 1566 -1331 1297 -1286 
Q 1028 -1241 775 -1147 
L 775 -588 
Q 1028 -725 1275 -790 
Q 1522 -856 1778 -856 
Q 2344 -856 2625 -561 
Q 2906 -266 2906 331 
L 2906 616 
Q 2728 306 2450 153 
Q 2172 0 1784 0 
Q 1141 0 747 490 
Q 353 981 353 1791 
Q 353 2603 747 3093 
Q 1141 3584 1784 3584 
Q 2172 3584 2450 3431 
Q 2728 3278 2906 2969 
L 2906 3500 
L 3481 3500 
L 3481 434 
z
" transform="scale(0.015625)"/>
     <path id="DejaVuSans-c1c" d="M 5050 2147 
L 5050 1866 
L 3822 638 
L 3447 1013 
L 4175 1741 
L 366 1741 
L 366 2272 
L 4175 2272 
L 3447 3000 
L 3822 3375 
L 5050 2147 
z
" transform="scale(0.015625)"/>
    </defs>
    <use xlink:href="#DejaVuSans-36"/>
    <use xlink:href="#DejaVuSans-44" transform="translate(63.484375 0)"/>
    <use xlink:href="#DejaVuSans-50" transform="translate(124.765625 0)"/>
    <use xlink:href="#DejaVuSans-48" transform="translate(222.171875 0)"/>
    <use xlink:href="#DejaVuSans-3" transform="translate(283.703125 0)"/>
    <use xlink:href="#DejaVuSans-18" transform="translate(315.484375 0)"/>
    <use xlink:href="#DejaVuSans-3" transform="translate(379.109375 0)"/>
    <use xlink:href="#DejaVuSans-2c" transform="translate(410.890625 0)"/>
    <use xlink:href="#DejaVuSans-12" transform="translate(440.390625 0)"/>
    <use xlink:href="#DejaVuSans-32" transform="translate(474.078125 0)"/>
    <use xlink:href="#DejaVuSans-10" transform="translate(555.578125 0)"/>
    <use xlink:href="#DejaVuSans-45" transform="translate(591.65625 0)"/>
    <use xlink:href="#DejaVuSans-52" transform="translate(655.140625 0)"/>
    <use xlink:href="#DejaVuSans-58" transform="translate(716.328125 0)"/>
    <use xlink:href="#DejaVuSans-51" transform="translate(779.703125 0)"/>
    <use xlink:href="#DejaVuSans-47" transform="translate(843.078125 0)"/>
    <use xlink:href="#DejaVuSans-3" transform="translate(906.5625 0)"/>
    <use xlink:href="#DejaVuSans-55" transform="translate(938.34375 0)"/>
    <use xlink:href="#DejaVuSans-48" transform="translate(977.25 0)"/>
    <use xlink:href="#DejaVuSans-54" transform="translate(1038.78125 0)"/>
    <use xlink:href="#DejaVuSans-58" transform="translate(1102.265625 0)"/>
    <use xlink:href="#DejaVuSans-48" transform="translate(1165.640625 0)"/>
    <use xlink:href="#DejaVuSans-56" transform="translate(1227.171875 0)"/>
    <use xlink:href="#DejaVuSans-57" transform="translate(1279.265625 0)"/>
    <use xlink:href="#DejaVuSans-56" transform="translate(1318.46875 0)"/>
    <use xlink:href="#DejaVuSans-1d" transform="translate(1370.5625 0)"/>
    <use xlink:href="#DejaVuSans-3" transform="translate(1404.25 0)"/>
    <use xlink:href="#DejaVuSans-52" transform="translate(1436.03125 0)"/>
    <use xlink:href="#DejaVuSans-59" transform="translate(1497.21875 0)"/>
    <use xlink:href="#DejaVuSans-48" transform="translate(1556.40625 0)"/>
    <use xlink:href="#DejaVuSans-55" transform="translate(1617.9375 0)"/>
    <use xlink:href="#DejaVuSans-4f" transform="translate(1659.046875 0)"/>
    <use xlink:href="#DejaVuSans-44" transform="translate(1686.828125 0)"/>
    <use xlink:href="#DejaVuSans-53" transform="translate(1748.109375 0)"/>
    <use xlink:href="#DejaVuSans-53" transform="translate(1811.59375 0)"/>
    <use xlink:href="#DejaVuSans-4c" transform="translate(1875.078125 0)"/>
    <use xlink:href="#DejaVuSans-51" transform="translate(1902.859375 0)"/>
    <use xlink:href="#DejaVuSans-4a" transform="translate(1966.234375 0)"/>
    <use xlink:href="#DejaVuSans-3" transform="translate(2029.71875 0)"/>
    <use xlink:href="#DejaVuSans-57" transform="translate(2061.5 0)"/>
    <use xlink:href="#DejaVuSans-4b" transform="translate(2100.703125 0)"/>
    <use xlink:href="#DejaVuSans-48" transform="translate(2164.078125 0)"/>
    <use xlink:href="#DejaVuSans-3" transform="translate(2225.609375 0)"/>
    <use xlink:href="#DejaVuSans-5a" transform="translate(2257.390625 0)"/>
    <use xlink:href="#DejaVuSans-44" transform="translate(2339.171875 0)"/>
    <use xlink:href="#DejaVuSans-4c" transform="translate(2400.453125 0)"/>
    <use xlink:href="#DejaVuSans-57" transform="translate(2428.234375 0)"/>
    <use xlink:href="#DejaVuSans-56" transform="translate(2467.4375 0)"/>
    <use xlink:href="#DejaVuSans-3" transform="translate(2519.53125 0)"/>
    <use xlink:href="#DejaVuSans-46" transform="translate(2551.3125 0)"/>
    <use xlink:href="#DejaVuSans-52" transform="translate(2606.296875 0)"/>
    <use xlink:href="#DejaVuSans-4f" transform="translate(2667.484375 0)"/>
    <use xlink:href="#DejaVuSans-4f" transform="translate(2695.265625 0)"/>
    <use xlink:href="#DejaVuSans-44" transform="translate(2723.046875 0)"/>
    <use xlink:href="#DejaVuSans-53" transform="translate(2784.328125 0)"/>
    <use xlink:href="#DejaVuSans-56" transform="translate(2847.8125 0)"/>
    <use xlink:href="#DejaVuSans-48" transform="translate(2899.90625 0)"/>
    <use xlink:href="#DejaVuSans-56" transform="translate(2961.4375 0)"/>
    <use xlink:href="#DejaVuSans-3" transform="translate(3013.53125 0)"/>
    <use xlink:href="#DejaVuSans-337" transform="translate(3045.3125 0)"/>
    <use xlink:href="#DejaVuSans-3" transform="translate(3108.5 0)"/>
    <use xlink:href="#DejaVuSans-c1c" transform="translate(3140.28125 0)"/>
    <use xlink:href="#DejaVuSans-3" transform="translate(3224.078125 0)"/>
    <use xlink:href="#DejaVuSans-50" transform="translate(3255.859375 0)"/>
    <use xlink:href="#DejaVuSans-44" transform="translate(3353.265625 0)"/>
    <use xlink:href="#DejaVuSans-5b" transform="translate(3414.546875 0)"/>
   </g>
  </g>
 </g>
 <defs>
  <clipPath id="p22da907388">
   <rect x="59.375469" y="51.481422" width="683.69375" height="148.842578"/>
  </clipPath>
  <clipPath id="p88f7ce2325">
   <rect x="59.375469" y="228.981422" width="683.69375" height="148.842578"/>
  </clipPath>
 </defs>
</svg>
