<svg id="my-svg" width="100%" xmlns="http://www.w3.org/2000/svg" xmlns:xlink="http://www.w3.org/1999/xlink" class="flowchart" style="max-width: 640.359px; background-color: transparent;" viewBox="0 0 640.359375 439" role="graphics-document document" aria-roledescription="flowchart-v2"><style>#my-svg{font-family:"trebuchet ms",verdana,arial,sans-serif;font-size:16px;fill:#333;}@keyframes edge-animation-frame{from{stroke-dashoffset:0;}}@keyframes dash{to{stroke-dashoffset:0;}}#my-svg .edge-animation-slow{stroke-dasharray:9,5!important;stroke-dashoffset:900;animation:dash 50s linear infinite;stroke-linecap:round;}#my-svg .edge-animation-fast{stroke-dasharray:9,5!important;stroke-dashoffset:900;animation:dash 20s linear infinite;stroke-linecap:round;}#my-svg .error-icon{fill:#552222;}#my-svg .error-text{fill:#552222;stroke:#552222;}#my-svg .edge-thickness-normal{stroke-width:1px;}#my-svg .edge-thickness-thick{stroke-width:3.5px;}#my-svg .edge-pattern-solid{stroke-dasharray:0;}#my-svg .edge-thickness-invisible{stroke-width:0;fill:none;}#my-svg .edge-pattern-dashed{stroke-dasharray:3;}#my-svg .edge-pattern-dotted{stroke-dasharray:2;}#my-svg .marker{fill:#333333;stroke:#333333;}#my-svg .marker.cross{stroke:#333333;}#my-svg svg{font-family:"trebuchet ms",verdana,arial,sans-serif;font-size:16px;}#my-svg p{margin:0;}#my-svg .label{font-family:"trebuchet ms",verdana,arial,sans-serif;color:#333;}#my-svg .cluster-label text{fill:#333;}#my-svg .cluster-label span{color:#333;}#my-svg .cluster-label span p{background-color:transparent;}#my-svg .label text,#my-svg span{fill:#333;color:#333;}#my-svg .node rect,#my-svg .node circle,#my-svg .node ellipse,#my-svg .node polygon,#my-svg .node path{fill:#ECECFF;stroke:#9370DB;stroke-width:1px;}#my-svg .rough-node .label text,#my-svg .node .label text,#my-svg .image-shape .label,#my-svg .icon-shape .label{text-anchor:middle;}#my-svg .node .katex path{fill:#000;stroke:#000;stroke-width:1px;}#my-svg .rough-node .label,#my-svg .node .label,#my-svg .image-shape .label,#my-svg .icon-shape .label{text-align:center;}#my-svg .node.clickable{cursor:pointer;}#my-svg .root .anchor path{fill:#333333!important;stroke-width:0;stroke:#333333;}#my-svg .arrowheadPath{fill:#333333;}#my-svg .edgePath .path{stroke:#333333;stroke-width:1px;}#my-svg .flowchart-link{stroke:#333333;fill:none;}#my-svg .edgeLabel{background-color:rgba(232,232,232, 0.8);text-align:center;}#my-svg .edgeLabel p{background-color:rgba(232,232,232, 0.8);}#my-svg .edgeLabel rect{opacity:0.5;background-color:rgba(232,232,232, 0.8);fill:rgba(232,232,232, 0.8);}#my-svg .labelBkg{background-color:rgba(232, 232, 232, 0.5);}#my-svg .cluster rect{fill:#ffffde;stroke:#aaaa33;stroke-width:1px;}#my-svg .cluster text{fill:#333;}#my-svg .cluster span{color:#333;}#my-svg div.mermaidTooltip{position:absolute;text-align:center;max-width:200px;padding:2px;font-family:"trebuchet ms",verdana,arial,sans-serif;font-size:12px;background:hsl(80, 100%, 96.2745098039%);border:1px solid #aaaa33;border-radius:2px;pointer-events:none;z-index:100;}#my-svg .flowchartTitleText{text-anchor:middle;font-size:18px;fill:#333;}#my-svg rect.text{fill:none;stroke-width:0;}#my-svg .icon-shape,#my-svg .image-shape{background-color:rgba(232,232,232, 0.8);text-align:center;}#my-svg .icon-shape p,#my-svg .image-shape p{background-color:rgba(232,232,232, 0.8);padding:2px;}#my-svg .icon-shape .label rect,#my-svg .image-shape .label rect{opacity:0.5;background-color:rgba(232,232,232, 0.8);fill:rgba(232,232,232, 0.8);}#my-svg .label-icon{display:inline-block;height:1em;overflow:visible;vertical-align:-0.125em;}#my-svg .node .label-icon path{fill:currentColor;stroke:revert;stroke-width:revert;}#my-svg .node .neo-node{stroke:#9370DB;}#my-svg [data-look="neo"].node rect,#my-svg [data-look="neo"].cluster rect,#my-svg [data-look="neo"].node polygon{stroke:#9370DB;filter:drop-shadow(1px 2px 2px rgba(185, 185, 185, 1));}#my-svg [data-look="neo"].node path{stroke:#9370DB;stroke-width:1px;}#my-svg [data-look="neo"].node .outer-path{filter:drop-shadow(1px 2px 2px rgba(185, 185, 185, 1));}#my-svg [data-look="neo"].node .neo-line path{stroke:#9370DB;filter:none;}#my-svg [data-look="neo"].node circle{stroke:#9370DB;filter:drop-shadow(1px 2px 2px rgba(185, 185, 185, 1));}#my-svg [data-look="neo"].node circle .state-start{fill:#000000;}#my-svg [data-look="neo"].icon-shape .icon{fill:#9370DB;filter:drop-shadow(1px 2px 2px rgba(185, 185, 185, 1));}#my-svg [data-look="neo"].icon-shape .icon-neo path{stroke:#9370DB;filter:drop-shadow(1px 2px 2px rgba(185, 185, 185, 1));}#my-svg :root{--mermaid-font-family:"trebuchet ms",verdana,arial,sans-serif;}</style><g><marker id="my-svg_flowchart-v2-pointEnd" class="marker flowchart-v2" viewBox="0 0 10 10" refX="5" refY="5" markerUnits="userSpaceOnUse" markerWidth="8" markerHeight="8" orient="auto"><path d="M 0 0 L 10 5 L 0 10 z" class="arrowMarkerPath" style="stroke-width: 1; stroke-dasharray: 1, 0;"/></marker><marker id="my-svg_flowchart-v2-pointStart" class="marker flowchart-v2" viewBox="0 0 10 10" refX="4.5" refY="5" markerUnits="userSpaceOnUse" markerWidth="8" markerHeight="8" orient="auto"><path d="M 0 5 L 10 10 L 10 0 z" class="arrowMarkerPath" style="stroke-width: 1; stroke-dasharray: 1, 0;"/></marker><marker id="my-svg_flowchart-v2-pointEnd-margin" class="marker flowchart-v2" viewBox="0 0 11.5 14" refX="11.5" refY="7" markerUnits="userSpaceOnUse" markerWidth="10.5" markerHeight="14" orient="auto"><path d="M 0 0 L 11.5 7 L 0 14 z" class="arrowMarkerPath" style="stroke-width: 0; stroke-dasharray: 1, 0;"/></marker><marker id="my-svg_flowchart-v2-pointStart-margin" class="marker flowchart-v2" viewBox="0 0 11.5 14" refX="1" refY="7" markerUnits="userSpaceOnUse" markerWidth="11.5" markerHeight="14" orient="auto"><polygon points="0,7 11.5,14 11.5,0" class="arrowMarkerPath" style="stroke-width: 0; stroke-dasharray: 1, 0;"/></marker><marker id="my-svg_flowchart-v2-circleEnd" class="marker flowchart-v2" viewBox="0 0 10 10" refX="11" refY="5" markerUnits="userSpaceOnUse" markerWidth="11" markerHeight="11" orient="auto"><circle cx="5" cy="5" r="5" class="arrowMarkerPath" style="stroke-width: 1; stroke-dasharray: 1, 0;"/></marker><marker id="my-svg_flowchart-v2-circleStart" class="marker flowchart-v2" viewBox="0 0 10 10" refX="-1" refY="5" markerUnits="userSpaceOnUse" markerWidth="11" markerHeight="11" orient="auto"><circle cx="5" cy="5" r="5" class="arrowMarkerPath" style="stroke-width: 1; stroke-dasharray: 1, 0;"/></marker><marker id="my-svg_flowchart-v2-circleEnd-margin" class="marker flowchart-v2" viewBox="0 0 10 10" refY="5" refX="12.25" markerUnits="userSpaceOnUse" markerWidth="14" markerHeight="14" orient="auto"><circle cx="5" cy="5" r="5" class="arrowMarkerPath" style="stroke-width: 0; stroke-dasharray: 1, 0;"/></marker><marker id="my-svg_flowchart-v2-circleStart-margin" class="marker flowchart-v2" viewBox="0 0 10 10" refX="-2" refY="5" markerUnits="userSpaceOnUse" markerWidth="14" markerHeight="14" orient="auto"><circle cx="5" cy="5" r="5" class="arrowMarkerPath" style="stroke-width: 0; stroke-dasharray: 1, 0;"/></marker><marker id="my-svg_flowchart-v2-crossEnd" class="marker cross flowchart-v2" viewBox="0 0 11 11" refX="12" refY="5.2" markerUnits="userSpaceOnUse" markerWidth="11" markerHeight="11" orient="auto"><path d="M 1,1 l 9,9 M 10,1 l -9,9" class="arrowMarkerPath" style="stroke-width: 2; stroke-dasharray: 1, 0;"/></marker><marker id="my-svg_flowchart-v2-crossStart" class="marker cross flowchart-v2" viewBox="0 0 11 11" refX="-1" refY="5.2" markerUnits="userSpaceOnUse" markerWidth="11" markerHeight="11" orient="auto"><path d="M 1,1 l 9,9 M 10,1 l -9,9" class="arrowMarkerPath" style="stroke-width: 2; stroke-dasharray: 1, 0;"/></marker><marker id="my-svg_flowchart-v2-crossEnd-margin" class="marker cross flowchart-v2" viewBox="0 0 15 15" refX="17.7" refY="7.5" markerUnits="userSpaceOnUse" markerWidth="12" markerHeight="12" orient="auto"><path d="M 1,1 L 14,14 M 1,14 L 14,1" class="arrowMarkerPath" style="stroke-width: 2.5;"/></marker><marker id="my-svg_flowchart-v2-crossStart-margin" class="marker cross flowchart-v2" viewBox="0 0 15 15" refX="-3.5" refY="7.5" markerUnits="userSpaceOnUse" markerWidth="12" markerHeight="12" orient="auto"><path d="M 1,1 L 14,14 M 1,14 L 14,1" class="arrowMarkerPath" style="stroke-width: 2.5; stroke-dasharray: 1, 0;"/></marker><g class="root"><g class="clusters"/><g class="edgePaths"><path d="M311.027,88.625L280.717,96.421C250.406,104.217,189.785,119.808,159.475,131.104C129.164,142.4,129.164,149.4,129.164,152.9L129.164,156.4" id="my-svg-L_P_B_0" class="edge-thickness-normal edge-pattern-solid edge-thickness-normal edge-pattern-solid flowchart-link" style=";" data-edge="true" data-et="edge" data-id="L_P_B_0" data-points="W3sieCI6MzExLjAyNzI3NTUzMzY1MjEzLCJ5Ijo4OC42MjQ3Nzk2NDQ1MzA4Nn0seyJ4IjoxMjkuMTY0MDYyNSwieSI6MTM1LjQwMDAwMTUyNTg3ODl9LHsieCI6MTI5LjE2NDA2MjUsInkiOjE2MC40MDAwMDE1MjU4Nzg5fV0=" data-look="classic" marker-end="url(#my-svg_flowchart-v2-pointEnd)"/><path d="M421.992,110.9L421.909,114.983C421.826,119.067,421.659,127.233,421.576,134.817C421.492,142.4,421.492,149.4,421.492,152.9L421.492,156.4" id="my-svg-L_P_S_0" class="edge-thickness-normal edge-pattern-solid edge-thickness-normal edge-pattern-solid flowchart-link" style=";" data-edge="true" data-et="edge" data-id="L_P_S_0" data-points="W3sieCI6NDIxLjk5MjE4NzUwMDAwMDA2LCJ5IjoxMTAuOTAwMDAxNTI1ODc4OX0seyJ4Ijo0MjEuNDkyMTg3NSwieSI6MTM1LjQwMDAwMTUyNTg3ODl9LHsieCI6NDIxLjQ5MjE4NzUsInkiOjE2MC40MDAwMDE1MjU4Nzg5fV0=" data-look="classic" marker-end="url(#my-svg_flowchart-v2-pointEnd)"/><path d="M129.164,260.2L129.164,266.117C129.164,272.033,129.164,283.867,156.481,297.764C183.798,311.661,238.433,327.621,265.75,335.602L293.067,343.582" id="my-svg-L_B_Z_0" class="edge-thickness-normal edge-pattern-solid edge-thickness-normal edge-pattern-solid flowchart-link" style=";" data-edge="true" data-et="edge" data-id="L_B_Z_0" data-points="W3sieCI6MTI5LjE2NDA2MjUsInkiOjI2MC4yMDAwMDQ1Nzc2MzY3fSx7IngiOjEyOS4xNjQwNjI1LCJ5IjoyOTUuNzAwMDA0NTc3NjM2N30seyJ4IjoyOTYuOTA2MjUsInkiOjM0NC43MDM3ODQzODMxMzUzfV0=" data-look="classic" marker-end="url(#my-svg_flowchart-v2-pointEnd)"/><path d="M421.492,260.2L421.492,266.117C421.492,272.033,421.492,283.867,421.492,295.033C421.492,306.2,421.492,316.7,421.492,321.95L421.492,327.2" id="my-svg-L_S_Z_0" class="edge-thickness-normal edge-pattern-solid edge-thickness-normal edge-pattern-solid flowchart-link" style=";" data-edge="true" data-et="edge" data-id="L_S_Z_0" data-points="W3sieCI6NDIxLjQ5MjE4NzUsInkiOjI2MC4yMDAwMDQ1Nzc2MzY3fSx7IngiOjQyMS40OTIxODc1LCJ5IjoyOTUuNzAwMDA0NTc3NjM2N30seyJ4Ijo0MjEuNDkyMTg3NSwieSI6MzMxLjIwMDAwNDU3NzYzNjd9XQ==" data-look="classic" marker-end="url(#my-svg_flowchart-v2-pointEnd)"/><path d="M528.722,331.2L541.436,325.283C554.151,319.367,579.579,307.533,592.294,287.383C605.008,267.233,605.008,238.767,605.008,212.05C605.008,185.333,605.008,160.367,591.648,142.382C578.288,124.398,551.567,113.397,538.207,107.896L524.847,102.395" id="my-svg-L_Z_P_0" class="edge-thickness-normal edge-pattern-solid edge-thickness-normal edge-pattern-solid flowchart-link" style=";" data-edge="true" data-et="edge" data-id="L_Z_P_0" data-points="W3sieCI6NTI4LjcyMjA0NDY4ODU1NzgsInkiOjMzMS4yMDAwMDQ1Nzc2MzY3fSx7IngiOjYwNS4wMDc4MTI1LCJ5IjoyOTUuNzAwMDA0NTc3NjM2N30seyJ4Ijo2MDUuMDA3ODEyNSwieSI6MjEwLjMwMDAwMzA1MTc1Nzh9LHsieCI6NjA1LjAwNzgxMjUsInkiOjEzNS40MDAwMDE1MjU4Nzg5fSx7IngiOjUyMS4xNDgyMTk3NDY2NDI4LCJ5IjoxMDAuODcxOTE1ODY3NDEyMDN9XQ==" data-look="classic" marker-end="url(#my-svg_flowchart-v2-pointEnd)"/></g><g class="edgeLabels"><g class="edgeLabel"><g class="label" data-id="L_P_B_0" transform="translate(0, 0)"><text y="-10.1" text-anchor="middle"><tspan class="text-outer-tspan row" x="0" y="-0.1em" dy="1.1em" text-anchor="middle"/></text></g></g><g><rect class="background" style="stroke: none"/></g><g class="edgeLabel"><g class="label" data-id="L_P_S_0" transform="translate(0, 0)"><text y="-10.1" text-anchor="middle"><tspan class="text-outer-tspan row" x="0" y="-0.1em" dy="1.1em" text-anchor="middle"/></text></g></g><g><rect class="background" style="stroke: none"/></g><g class="edgeLabel" transform="translate(129.1640625, 295.7000045776367)"><g class="label" data-id="L_B_Z_0" transform="translate(0, -10.5)"><g><rect class="background" style="" x="-70.0546875" y="0" width="140.109375" height="21"/><text y="-10.1" text-anchor="middle" style=""><tspan class="text-outer-tspan row" x="0" y="-0.1em" dy="1.1em" text-anchor="middle"><tspan font-style="normal" class="text-inner-tspan" font-weight="normal">quantity</tspan><tspan font-style="normal" class="text-inner-tspan" font-weight="normal"> demanded</tspan></tspan></text></g></g></g><g class="edgeLabel" transform="translate(421.4921875, 295.7000045776367)"><g class="label" data-id="L_S_Z_0" transform="translate(0, -10.5)"><g><rect class="background" style="" x="-62.046875" y="0" width="124.09375" height="21"/><text y="-10.1" text-anchor="middle" style=""><tspan class="text-outer-tspan row" x="0" y="-0.1em" dy="1.1em" text-anchor="middle"><tspan font-style="normal" class="text-inner-tspan" font-weight="normal">quantity</tspan><tspan font-style="normal" class="text-inner-tspan" font-weight="normal"> supplied</tspan></tspan></text></g></g></g><g class="edgeLabel" transform="translate(605.0078125, 210.3000030517578)"><g class="label" data-id="L_Z_P_0" transform="translate(0, -10.5)"><g><rect class="background" style="" x="-27.3515625" y="0" width="54.703125" height="21"/><text y="-10.1" text-anchor="middle" style=""><tspan class="text-outer-tspan row" x="0" y="-0.1em" dy="1.1em" text-anchor="middle"><tspan font-style="normal" class="text-inner-tspan" font-weight="normal">adjusts</tspan></tspan></text></g></g></g></g><g class="nodes"><g class="node default" id="my-svg-flowchart-P-0" data-look="classic" transform="translate(421.4921875, 59.20000076293945)"><g class="basic label-container outer-path"><path d="M-68.73281192779541 -51.20000076293945 C-33.9408654978559 -51.20000076293945, 0.8510809320836046 -51.20000076293945, 68.73281192779541 -51.20000076293945 C68.73281192779541 -51.20000076293945, 68.73281192779541 -51.20000076293945, 68.73281192779541 -51.20000076293945 C69.67070646715214 -51.16992431056325, 70.60860100650888 -51.13984785818706, 72.0132072396896 -51.09480487018913 C73.07460621228633 -50.99241298782175, 74.13600518488305 -50.89002110545437, 75.28012270360465 -50.77964946442594 C76.2567865438087 -50.62175002888295, 77.23345038401274 -50.463850593339956, 78.52013386314812 -50.25582958681276 C79.59204822908585 -50.011172127682414, 80.66396259502356 -49.76651466855208, 81.71992681748527 -49.52549772558572 C82.39926082485096 -49.32387495809656, 83.07859483221665 -49.12225219060739, 84.86635293101328 -48.59165497101831 C85.58148898718396 -48.32847829170226, 86.29662504335464 -48.065301612386214, 87.94648286392537 -47.458138683297676 C88.58793216941633 -47.17418810367441, 89.22938147490731 -46.890237524051145, 90.94765970164141 -46.12960672398856 C91.87451979818917 -45.646064405301814, 92.80137989473694 -45.16252208661507, 93.85755096478479 -44.61151831588096 C94.847487559977 -44.011412934362276, 95.83742415516922 -43.41130755284359, 96.6641992859856 -42.91011160987272 C97.60519296902874 -42.25371515154184, 98.54618665207187 -41.59731869321096, 99.35607154526778 -41.03237805106945 C100.1133985058645 -40.42842995331038, 100.87072546646121 -39.824481855551305, 101.92210626211318 -38.98603364943685 C102.64418140711929 -38.330264107803714, 103.36625655212539 -37.67449456617058, 104.35175904945757 -36.77948727306072 C105.22374459105019 -35.879090610021954, 106.09573013264281 -34.97869394698319, 106.63504594283884 -34.4218060943043 C107.36636054615548 -33.56276234826881, 108.09767514947211 -32.70371860223333, 108.76258442664863 -31.92267833085213 C109.18076876990972 -31.36234940825968, 109.5989531131708 -30.80202048566723, 110.72563198890131 -29.29237343474547 C111.32577927983337 -28.370386033761392, 111.92592657076543 -27.448398632777316, 112.51612204609128 -26.54169989300103 C112.89470909320542 -25.86948025475434, 113.27329614031954 -25.19726061650765, 114.1266970905146 -23.681960813219476 C114.56896815221582 -22.76357549051213, 115.01123921391704 -21.845190167804784, 115.55073892384647 -20.724907476691758 C115.85731951907366 -19.967647479148035, 116.16390011430084 -19.21038748160431, 116.78239585273772 -17.6826910498636 C117.07669362427683 -16.796313051969904, 117.37099139581595 -15.909935054076206, 117.81660673467796 -14.567812652586197 C118.07140806873814 -13.596144734218004, 118.32620940279831 -12.62447681584981, 118.64912177531575 -11.393071988333302 C118.86097688804979 -10.305240760037954, 119.07283200078382 -9.217409531742605, 119.27651999177519 -8.171514747474092 C119.38855086427205 -7.3026254233864565, 119.50058173676891 -6.433736099298821, 119.69622327020835 -4.9163789997330705 C119.76531514508318 -3.840217278600157, 119.834407019958 -2.764055557467244, 119.9065069598181 -1.6410407961221576 C119.9065069598181 -0.4380515678303274, 119.9065069598181 0.7649376604615028, 119.9065069598181 1.6410407961221452 C119.84836162161764 2.5467013726666172, 119.79021628341717 3.4523619492110895, 119.69622327020835 4.916378999733036 C119.54998801031618 6.050550798038355, 119.40375275042402 7.184722596343675, 119.27651999177519 8.171514747474056 C119.11136755000761 9.019537630969628, 118.94621510824004 9.867560514465199, 118.64912177531575 11.393071988333292 C118.33534880750729 12.589624304651453, 118.02157583969883 13.786176620969615, 117.81660673467798 14.567812652586163 C117.49110788271977 15.5481633334851, 117.16560903076156 16.528514014384037, 116.78239585273772 17.682691049863568 C116.43358150998466 18.544269220330143, 116.08476716723162 19.405847390796723, 115.55073892384647 20.724907476691744 C115.06811552628464 21.72708528821533, 114.5854921287228 22.72926309973892, 114.12669709051461 23.681960813219465 C113.67430091545158 24.485236032124067, 113.22190474038855 25.288511251028673, 112.51612204609128 26.54169989300102 C111.86372998265645 27.543949294235116, 111.21133791922163 28.546198695469215, 110.72563198890134 29.292373434745443 C110.00830076554078 30.25353192382977, 109.2909695421802 31.214690412914095, 108.76258442664863 31.92267833085212 C108.28735921597948 32.48090490438462, 107.81213400531034 33.039131477917124, 106.63504594283887 34.42180609430427 C105.81032315719438 35.27340008148218, 104.98560037154986 36.12499406866009, 104.3517590494576 36.7794872730607 C103.53482192625668 37.52140795337996, 102.71788480305575 38.26332863369923, 101.92210626211323 38.98603364943682 C101.11178996614451 39.63223933204963, 100.3014736701758 40.27844501466244, 99.35607154526781 41.03237805106944 C98.587870921144 41.568241551589175, 97.81967029702018 42.1041050521089, 96.66419928598563 42.91011160987271 C95.59093185188706 43.560732635642786, 94.5176644177885 44.21135366141287, 93.8575509647848 44.61151831588095 C93.1410208085641 44.98533163942183, 92.42449065234338 45.3591449629627, 90.94765970164141 46.12960672398855 C89.75311711699742 46.65839529136368, 88.5585745323534 47.187183858738805, 87.94648286392538 47.45813868329767 C87.15253426653074 47.75031910631928, 86.3585856691361 48.04249952934089, 84.86635293101331 48.59165497101829 C83.95603239429568 48.86183332794608, 83.04571185757804 49.13201168487387, 81.71992681748533 49.52549772558571 C80.90671478876402 49.71110806443692, 80.0935027600427 49.89671840328814, 78.52013386314815 50.25582958681275 C77.48997310842174 50.422377988620944, 76.45981235369533 50.588926390429144, 75.28012270360468 50.77964946442593 C74.03825674646158 50.899450779749195, 72.79639078931851 51.01925209507245, 72.0132072396896 51.09480487018913 C71.19571769444929 51.121020168758115, 70.37822814920895 51.14723546732711, 68.73281192779542 51.20000076293945 C68.73281192779542 51.20000076293945, 68.73281192779542 51.20000076293945, 68.73281192779541 51.20000076293945 C16.066922366048146 51.20000076293945, -36.59896719569912 51.20000076293945, -68.7328119277954 51.20000076293945 C-69.60188919357186 51.17213114658228, -70.47096645934835 51.1442615302251, -72.01320723968959 51.09480487018913 C-72.91167769359264 51.00813050606992, -73.81014814749567 50.921456141950706, -75.28012270360466 50.77964946442593 C-76.29165542507565 50.61611269857192, -77.30318814654663 50.4525759327179, -78.52013386314813 50.25582958681275 C-79.35578392353436 50.06509791365586, -80.19143398392059 49.87436624049897, -81.71992681748526 49.52549772558572 C-82.88736577778954 49.17900797017957, -84.05480473809382 48.83251821477341, -84.86635293101325 48.591654971018315 C-85.76626214075786 48.26048006316276, -86.66617135050245 47.9293051553072, -87.94648286392537 47.458138683297676 C-88.8793102537577 47.045203669160266, -89.81213764359 46.63226865502285, -90.9476597016414 46.12960672398856 C-91.55140041298799 45.81463558159342, -92.15514112433459 45.49966443919829, -93.85755096478479 44.611518315880964 C-94.78425403242548 44.049745470365465, -95.71095710006618 43.48797262484997, -96.66419928598557 42.91011160987274 C-97.71302526456546 42.17849601016026, -98.76185124314536 41.446880410447775, -99.35607154526778 41.03237805106946 C-100.36024290334558 40.2315781151245, -101.36441426142339 39.43077817917955, -101.92210626211318 38.986033649436855 C-102.54307641309695 38.422084988283245, -103.16404656408073 37.85813632712964, -104.35175904945756 36.77948727306074 C-105.0124148918748 36.09730587491153, -105.67307073429204 35.415124476762315, -106.63504594283886 34.421806094304294 C-107.0861953248368 33.89186035908246, -107.53734470683473 33.36191462386061, -108.76258442664862 31.922678330852133 C-109.26047475586219 31.25555064844805, -109.75836508507577 30.588422966043964, -110.72563198890131 29.292373434745475 C-111.21612158532788 28.53884969973579, -111.70661118175445 27.785325964726105, -112.51612204609125 26.541699893001052 C-112.9725375288747 25.731287986239806, -113.42895301165815 24.920876079478564, -114.1266970905146 23.68196081321948 C-114.54013726988536 22.823443434553383, -114.95357744925613 21.964926055887286, -115.55073892384647 20.724907476691765 C-115.99278064137407 19.63305588810339, -116.43482235890167 18.54120429951501, -116.78239585273772 17.682691049863607 C-117.14055796185558 16.603963842583084, -117.49872007097343 15.525236635302559, -117.81660673467796 14.567812652586182 C-118.08489907453485 13.544697682076249, -118.35319141439172 12.521582711566314, -118.64912177531573 11.39307198833331 C-118.7849736295363 10.695501429210317, -118.92082548375686 9.997930870087323, -119.27651999177519 8.171514747474097 C-119.38024430002754 7.36704949535021, -119.48396860827991 6.562584243226324, -119.69622327020835 4.9163789997331 C-119.75111937038572 4.061327928136066, -119.8060154705631 3.206276856539033, -119.9065069598181 1.641040796122164 C-119.9065069598181 0.8450298297459033, -119.9065069598181 0.04901886336964267, -119.9065069598181 -1.6410407961221392 C-119.83480207106813 -2.757902317547326, -119.76309718231816 -3.874763838972513, -119.69622327020835 -4.916378999733029 C-119.6077879032549 -5.602266242285568, -119.51935253630144 -6.288153484838107, -119.27651999177519 -8.171514747474074 C-119.14135830329592 -8.86554145138217, -119.00619661481664 -9.559568155290263, -118.64912177531575 -11.393071988333284 C-118.40455934943711 -12.325694512234424, -118.15999692355847 -13.258317036135564, -117.81660673467798 -14.567812652586158 C-117.46053709919238 -15.640237662676714, -117.10446746370678 -16.71266267276727, -116.78239585273775 -17.68269104986354 C-116.42874869630063 -18.556206363565853, -116.07510153986351 -19.429721677268166, -115.55073892384647 -20.724907476691737 C-114.99262803467194 -21.88383667972266, -114.43451714549741 -23.042765882753585, -114.12669709051461 -23.681960813219458 C-113.65733205507264 -24.515365962010307, -113.18796701963068 -25.348771110801156, -112.51612204609128 -26.541699893001038 C-111.8865832407518 -27.508840552841605, -111.25704443541234 -28.47598121268217, -110.72563198890131 -29.292373434745457 C-110.02196151882414 -30.23522775895027, -109.31829104874697 -31.178082083155083, -108.76258442664863 -31.92267833085212 C-107.92312709418171 -32.90875268004314, -107.08366976171479 -33.89482702923417, -106.63504594283887 -34.42180609430427 C-105.86397403395229 -35.21800114641072, -105.09290212506572 -36.01419619851717, -104.3517590494576 -36.77948727306069 C-103.66470310965462 -37.40345329908574, -102.97764716985165 -38.027419325110785, -101.92210626211323 -38.98603364943681 C-101.19855112771332 -39.56304961450998, -100.4749959933134 -40.140065579583144, -99.35607154526781 -41.032378051069436 C-98.54859985750034 -41.59563534557004, -97.74112816973286 -42.15889264007064, -96.66419928598563 -42.9101116098727 C-95.54523859676877 -43.58843215541887, -94.42627790755189 -44.26675270096504, -93.8575509647848 -44.61151831588095 C-92.97170902132463 -45.07366149037529, -92.08586707786445 -45.535804664869616, -90.94765970164143 -46.12960672398855 C-90.03386893883649 -46.534114788042416, -89.12007817603156 -46.93862285209628, -87.9464828639254 -47.45813868329767 C-87.03276875476786 -47.79439392174828, -86.11905464561032 -48.13064916019889, -84.86635293101332 -48.59165497101829 C-83.6322470273447 -48.95793112527306, -82.39814112367607 -49.324207279527826, -81.71992681748533 -49.5254977255857 C-80.71489410888967 -49.75488988287132, -79.70986140029399 -49.98428204015694, -78.52013386314815 -50.255829586812744 C-77.23622836190873 -50.46340147141727, -75.95232286066933 -50.67097335602179, -75.28012270360469 -50.77964946442593 C-74.43805868686859 -50.86088236739031, -73.59599467013248 -50.9421152703547, -72.0132072396896 -51.09480487018913 C-71.02549142689095 -51.12647899383338, -70.03777561409228 -51.15815311747764, -68.73281192779542 -51.20000076293945 C-68.73281192779542 -51.20000076293945, -68.73281192779541 -51.20000076293945, -68.73281192779541 -51.20000076293945" stroke="none" stroke-width="0" fill="#ECECFF" style=""/><path d="M-68.73281192779541 -51.20000076293945 C-21.87771802780403 -51.20000076293945, 24.977375872187352 -51.20000076293945, 68.73281192779541 -51.20000076293945 M-68.73281192779541 -51.20000076293945 C-19.98193575904375 -51.20000076293945, 28.76894040970791 -51.20000076293945, 68.73281192779541 -51.20000076293945 M68.73281192779541 -51.20000076293945 C68.73281192779541 -51.20000076293945, 68.73281192779541 -51.20000076293945, 68.73281192779541 -51.20000076293945 M68.73281192779541 -51.20000076293945 C68.73281192779541 -51.20000076293945, 68.73281192779541 -51.20000076293945, 68.73281192779541 -51.20000076293945 M68.73281192779541 -51.20000076293945 C69.752316169403 -51.16730724625572, 70.77182041101061 -51.13461372957199, 72.0132072396896 -51.09480487018913 M68.73281192779541 -51.20000076293945 C69.59405706116112 -51.17238230782437, 70.45530219452684 -51.14476385270929, 72.0132072396896 -51.09480487018913 M72.0132072396896 -51.09480487018913 C73.0250256827792 -50.99719596187399, 74.03684412586878 -50.89958705355886, 75.28012270360465 -50.77964946442594 M72.0132072396896 -51.09480487018913 C72.69241611846715 -51.02928240652165, 73.3716249972447 -50.96375994285417, 75.28012270360465 -50.77964946442594 M75.28012270360465 -50.77964946442594 C76.21346599172045 -50.62875375978867, 77.14680927983625 -50.477858055151415, 78.52013386314812 -50.25582958681276 M75.28012270360465 -50.77964946442594 C76.20879163140607 -50.6295094741141, 77.13746055920751 -50.47936948380226, 78.52013386314812 -50.25582958681276 M78.52013386314812 -50.25582958681276 C79.23056943491342 -50.093677303582695, 79.94100500667872 -49.93152502035262, 81.71992681748527 -49.52549772558572 M78.52013386314812 -50.25582958681276 C79.16916178353256 -50.107693199288, 79.81818970391701 -49.95955681176324, 81.71992681748527 -49.52549772558572 M81.71992681748527 -49.52549772558572 C82.61989122802083 -49.25839301254836, 83.51985563855641 -48.99128829951099, 84.86635293101328 -48.59165497101831 M81.71992681748527 -49.52549772558572 C82.58073516352974 -49.270014326954936, 83.44154350957422 -49.01453092832415, 84.86635293101328 -48.59165497101831 M84.86635293101328 -48.59165497101831 C85.78142745344529 -48.25489908790717, 86.6965019758773 -47.91814320479603, 87.94648286392537 -47.458138683297676 M84.86635293101328 -48.59165497101831 C85.78220467555971 -48.2546130629845, 86.69805642010616 -47.917571154950686, 87.94648286392537 -47.458138683297676 M87.94648286392537 -47.458138683297676 C89.02877322104979 -46.979040847201446, 90.11106357817421 -46.49994301110522, 90.94765970164141 -46.12960672398856 M87.94648286392537 -47.458138683297676 C88.6933860370914 -47.1275068046325, 89.44028921025743 -46.79687492596733, 90.94765970164141 -46.12960672398856 M90.94765970164141 -46.12960672398856 C91.9380442804405 -45.61292372360067, 92.92842885923957 -45.09624072321279, 93.85755096478479 -44.61151831588096 M90.94765970164141 -46.12960672398856 C92.09066021167617 -45.53330409003019, 93.2336607217109 -44.93700145607183, 93.85755096478479 -44.61151831588096 M93.85755096478479 -44.61151831588096 C94.7565976504586 -44.06651093164073, 95.65564433613241 -43.52150354740049, 96.6641992859856 -42.91011160987272 M93.85755096478479 -44.61151831588096 C94.58509397162065 -44.170477469619776, 95.31263697845651 -43.7294366233586, 96.6641992859856 -42.91011160987272 M96.6641992859856 -42.91011160987272 C97.69683937637224 -42.18978658508804, 98.72947946675889 -41.46946156030335, 99.35607154526778 -41.03237805106945 M96.6641992859856 -42.91011160987272 C97.68871811717032 -42.195451623943654, 98.71323694835505 -41.48079163801458, 99.35607154526778 -41.03237805106945 M99.35607154526778 -41.03237805106945 C100.00145337798804 -40.51770321380688, 100.6468352107083 -40.003028376544314, 101.92210626211318 -38.98603364943685 M99.35607154526778 -41.03237805106945 C99.99382140441006 -40.52378950963998, 100.63157126355233 -40.01520096821051, 101.92210626211318 -38.98603364943685 M101.92210626211318 -38.98603364943685 C102.64751755763416 -38.32723430417581, 103.37292885315514 -37.66843495891477, 104.35175904945757 -36.77948727306072 M101.92210626211318 -38.98603364943685 C102.67074273260974 -38.30614181476744, 103.4193792031063 -37.62624998009804, 104.35175904945757 -36.77948727306072 M104.35175904945757 -36.77948727306072 C104.86825256457543 -36.24616531379531, 105.38474607969329 -35.7128433545299, 106.63504594283884 -34.4218060943043 M104.35175904945757 -36.77948727306072 C104.90577208474332 -36.20742332881208, 105.45978512002907 -35.63535938456343, 106.63504594283884 -34.4218060943043 M106.63504594283884 -34.4218060943043 C107.06149265809995 -33.92087751705309, 107.48793937336106 -33.41994893980189, 108.76258442664863 -31.92267833085213 M106.63504594283884 -34.4218060943043 C107.3148148313 -33.62331087797232, 107.99458371976117 -32.82481566164034, 108.76258442664863 -31.92267833085213 M108.76258442664863 -31.92267833085213 C109.30396620729289 -31.197276065683663, 109.84534798793715 -30.471873800515194, 110.72563198890131 -29.29237343474547 M108.76258442664863 -31.92267833085213 C109.22796602761063 -31.299109382699083, 109.69334762857264 -30.675540434546033, 110.72563198890131 -29.29237343474547 M110.72563198890131 -29.29237343474547 C111.15021723784773 -28.64009647526054, 111.57480248679414 -27.98781951577561, 112.51612204609128 -26.54169989300103 M110.72563198890131 -29.29237343474547 C111.3699465398214 -28.302533261849835, 112.01426109074148 -27.312693088954198, 112.51612204609128 -26.54169989300103 M112.51612204609128 -26.54169989300103 C112.94097120082041 -25.787337198137532, 113.36582035554956 -25.03297450327403, 114.1266970905146 -23.681960813219476 M112.51612204609128 -26.54169989300103 C113.1325033874808 -25.447252405985033, 113.74888472887031 -24.352804918969035, 114.1266970905146 -23.681960813219476 M114.1266970905146 -23.681960813219476 C114.49209560939713 -22.923202970484073, 114.85749412827965 -22.164445127748667, 115.55073892384647 -20.724907476691758 M114.1266970905146 -23.681960813219476 C114.45117265132473 -23.008180368532436, 114.77564821213485 -22.3343999238454, 115.55073892384647 -20.724907476691758 M115.55073892384647 -20.724907476691758 C115.8466081394498 -19.994104793909386, 116.14247735505313 -19.263302111127018, 116.78239585273772 -17.6826910498636 M115.55073892384647 -20.724907476691758 C115.97611100928857 -19.674230201639954, 116.40148309473068 -18.623552926588154, 116.78239585273772 -17.6826910498636 M116.78239585273772 -17.6826910498636 C117.06992528647352 -16.81669820704532, 117.3574547202093 -15.950705364227039, 117.81660673467796 -14.567812652586197 M116.78239585273772 -17.6826910498636 C117.10376695043811 -16.71477250712088, 117.42513804813849 -15.746853964378165, 117.81660673467796 -14.567812652586197 M117.81660673467796 -14.567812652586197 C118.13897086656574 -13.338498504199544, 118.46133499845352 -12.109184355812891, 118.64912177531575 -11.393071988333302 M117.81660673467796 -14.567812652586197 C118.03740861901363 -13.725799371472268, 118.2582105033493 -12.88378609035834, 118.64912177531575 -11.393071988333302 M118.64912177531575 -11.393071988333302 C118.82739635869754 -10.477669681014344, 119.00567094207933 -9.562267373695388, 119.27651999177519 -8.171514747474092 M118.64912177531575 -11.393071988333302 C118.83637658261225 -10.431558129183314, 119.02363138990874 -9.470044270033325, 119.27651999177519 -8.171514747474092 M119.27651999177519 -8.171514747474092 C119.41096477894304 -7.128787527326379, 119.54540956611088 -6.086060307178666, 119.69622327020835 -4.9163789997330705 M119.27651999177519 -8.171514747474092 C119.41186115080943 -7.121835444139265, 119.54720230984367 -6.072156140804438, 119.69622327020835 -4.9163789997330705 M119.69622327020835 -4.9163789997330705 C119.74909550701845 -4.092851233714286, 119.80196774382857 -3.2693234676955014, 119.9065069598181 -1.6410407961221576 M119.69622327020835 -4.9163789997330705 C119.76058843355946 -3.913839625914818, 119.82495359691058 -2.9113002520965656, 119.9065069598181 -1.6410407961221576 M119.9065069598181 -1.6410407961221576 C119.9065069598181 -0.9158064075275877, 119.9065069598181 -0.19057201893301778, 119.9065069598181 1.6410407961221452 M119.9065069598181 -1.6410407961221576 C119.9065069598181 -0.7043072447394784, 119.9065069598181 0.23242630664320085, 119.9065069598181 1.6410407961221452 M119.9065069598181 1.6410407961221452 C119.84555039985887 2.590488420736798, 119.78459383989963 3.539936045351451, 119.69622327020835 4.916378999733036 M119.9065069598181 1.6410407961221452 C119.84558585264439 2.589936214985183, 119.78466474547069 3.53883163384822, 119.69622327020835 4.916378999733036 M119.69622327020835 4.916378999733036 C119.61210421353549 5.568789792101166, 119.52798515686263 6.221200584469296, 119.27651999177519 8.171514747474056 M119.69622327020835 4.916378999733036 C119.54761028336516 6.068991978735232, 119.39899729652197 7.221604957737428, 119.27651999177519 8.171514747474056 M119.27651999177519 8.171514747474056 C119.14147736080466 8.864930116237574, 119.00643472983413 9.558345485001091, 118.64912177531575 11.393071988333292 M119.27651999177519 8.171514747474056 C119.05718739392934 9.29774128145154, 118.83785479608349 10.423967815429023, 118.64912177531575 11.393071988333292 M118.64912177531575 11.393071988333292 C118.48195326509945 12.030557969078687, 118.31478475488315 12.668043949824082, 117.81660673467798 14.567812652586163 M118.64912177531575 11.393071988333292 C118.32624174826852 12.624353468553322, 118.00336172122128 13.855634948773352, 117.81660673467798 14.567812652586163 M117.81660673467798 14.567812652586163 C117.59304640578011 15.241140743725307, 117.36948607688227 15.91446883486445, 116.78239585273772 17.682691049863568 M117.81660673467798 14.567812652586163 C117.54944742909318 15.37245391495282, 117.28228812350837 16.177095177319476, 116.78239585273772 17.682691049863568 M116.78239585273772 17.682691049863568 C116.356023259877 18.73583959758283, 115.92965066701629 19.788988145302095, 115.55073892384647 20.724907476691744 M116.78239585273772 17.682691049863568 C116.3615663482598 18.722148062109007, 115.94073684378188 19.761605074354442, 115.55073892384647 20.724907476691744 M115.55073892384647 20.724907476691744 C115.06416829499004 21.73528179845578, 114.57759766613361 22.74565612021982, 114.12669709051461 23.681960813219465 M115.55073892384647 20.724907476691744 C115.19427453487828 21.465113407500294, 114.83781014591007 22.20531933830884, 114.12669709051461 23.681960813219465 M114.12669709051461 23.681960813219465 C113.6478749757197 24.532157964034592, 113.1690528609248 25.382355114849716, 112.51612204609128 26.54169989300102 M114.12669709051461 23.681960813219465 C113.76709445983802 24.320471697700683, 113.40749182916142 24.9589825821819, 112.51612204609128 26.54169989300102 M112.51612204609128 26.54169989300102 C111.86072105741025 27.548571811422867, 111.2053200687292 28.55544372984471, 110.72563198890134 29.292373434745443 M112.51612204609128 26.54169989300102 C111.80341111285655 27.636615276132243, 111.0907001796218 28.731530659263466, 110.72563198890134 29.292373434745443 M110.72563198890134 29.292373434745443 C110.23691680049498 29.947207264340378, 109.74820161208862 30.602041093935313, 108.76258442664863 31.92267833085212 M110.72563198890134 29.292373434745443 C110.07715775525503 30.161269830613477, 109.42868352160872 31.030166226481516, 108.76258442664863 31.92267833085212 M108.76258442664863 31.92267833085212 C107.95512715922693 32.871163582785734, 107.14766989180524 33.81964883471935, 106.63504594283887 34.42180609430427 M108.76258442664863 31.92267833085212 C108.22155577769257 32.558201367318134, 107.68052712873653 33.193724403784145, 106.63504594283887 34.42180609430427 M106.63504594283887 34.42180609430427 C106.0071039823455 35.07020772350744, 105.37916202185212 35.7186093527106, 104.3517590494576 36.7794872730607 M106.63504594283887 34.42180609430427 C105.73636428066341 35.34976869363709, 104.83768261848795 36.277731292969904, 104.3517590494576 36.7794872730607 M104.3517590494576 36.7794872730607 C103.53505207966275 37.52119893414609, 102.7183451098679 38.26291059523149, 101.92210626211323 38.98603364943682 M104.3517590494576 36.7794872730607 C103.81416233249314 37.267718387378146, 103.27656561552868 37.75594950169558, 101.92210626211323 38.98603364943682 M101.92210626211323 38.98603364943682 C101.35965419092237 39.43457420873333, 100.7972021197315 39.88311476802984, 99.35607154526781 41.03237805106944 M101.92210626211323 38.98603364943682 C101.12934430670211 39.618240212595566, 100.336582351291 40.25044677575431, 99.35607154526781 41.03237805106944 M99.35607154526781 41.03237805106944 C98.41625367827305 41.68795431102524, 97.47643581127828 42.34353057098103, 96.66419928598563 42.91011160987271 M99.35607154526781 41.03237805106944 C98.32581331930483 41.75104159034143, 97.29555509334183 42.46970512961342, 96.66419928598563 42.91011160987271 M96.66419928598563 42.91011160987271 C95.71845244165804 43.48342890472946, 94.77270559733044 44.05674619958621, 93.8575509647848 44.61151831588095 M96.66419928598563 42.91011160987271 C95.80293049508467 43.43221781229409, 94.9416617041837 43.95432401471547, 93.8575509647848 44.61151831588095 M93.8575509647848 44.61151831588095 C92.99153659123053 45.06331745985554, 92.12552221767625 45.51511660383013, 90.94765970164141 46.12960672398855 M93.8575509647848 44.61151831588095 C92.82778398998381 45.14874708703741, 91.79801701518281 45.685975858193856, 90.94765970164141 46.12960672398855 M90.94765970164141 46.12960672398855 C90.19918095123771 46.460936063959004, 89.45070220083402 46.79226540392946, 87.94648286392538 47.45813868329767 M90.94765970164141 46.12960672398855 C90.03074682852758 46.53549685366205, 89.11383395541374 46.941386983335555, 87.94648286392538 47.45813868329767 M87.94648286392538 47.45813868329767 C86.85951205573346 47.858153988560304, 85.77254124754154 48.25816929382293, 84.86635293101331 48.59165497101829 M87.94648286392538 47.45813868329767 C87.12342303503077 47.76103230861254, 86.30036320613614 48.06392593392742, 84.86635293101331 48.59165497101829 M84.86635293101331 48.59165497101829 C83.79963439993384 48.90825143172285, 82.73291586885436 49.22484789242741, 81.71992681748533 49.52549772558571 M84.86635293101331 48.59165497101829 C83.67685107363334 48.94469287846601, 82.48734921625339 49.29773078591372, 81.71992681748533 49.52549772558571 M81.71992681748533 49.52549772558571 C80.7688084471293 49.74258428699206, 79.81769007677329 49.959670848398424, 78.52013386314815 50.25582958681275 M81.71992681748533 49.52549772558571 C80.89242789728955 49.71436895418529, 80.06492897709377 49.90324018278487, 78.52013386314815 50.25582958681275 M78.52013386314815 50.25582958681275 C77.52767101838022 50.41628328289052, 76.5352081736123 50.576736978968285, 75.28012270360468 50.77964946442593 M78.52013386314815 50.25582958681275 C77.70708959405368 50.387276278987464, 76.89404532495924 50.518722971162184, 75.28012270360468 50.77964946442593 M75.28012270360468 50.77964946442593 C74.01643837489668 50.90155557181363, 72.7527540461887 51.023461679201326, 72.0132072396896 51.09480487018913 M75.28012270360468 50.77964946442593 C74.59120841890376 50.84610819693038, 73.90229413420283 50.91256692943483, 72.0132072396896 51.09480487018913 M72.0132072396896 51.09480487018913 C70.81825717157015 51.13312459304451, 69.6233071034507 51.1714443158999, 68.73281192779542 51.20000076293945 M72.0132072396896 51.09480487018913 C71.26425670546593 51.118822256077905, 70.51530617124224 51.14283964196668, 68.73281192779542 51.20000076293945 M68.73281192779542 51.20000076293945 C68.73281192779542 51.20000076293945, 68.73281192779541 51.20000076293945, 68.73281192779541 51.20000076293945 M68.73281192779542 51.20000076293945 C68.73281192779542 51.20000076293945, 68.73281192779541 51.20000076293945, 68.73281192779541 51.20000076293945 M68.73281192779541 51.20000076293945 C39.72831325132151 51.20000076293945, 10.723814574847601 51.20000076293945, -68.7328119277954 51.20000076293945 M68.73281192779541 51.20000076293945 C40.96793024950243 51.20000076293945, 13.20304857120945 51.20000076293945, -68.7328119277954 51.20000076293945 M-68.7328119277954 51.20000076293945 C-69.8805180732761 51.163196060728374, -71.02822421875679 51.1263913585173, -72.01320723968959 51.09480487018913 M-68.7328119277954 51.20000076293945 C-69.65129786901856 51.17054670652885, -70.56978381024173 51.14109265011826, -72.01320723968959 51.09480487018913 M-72.01320723968959 51.09480487018913 C-73.23991053773176 50.97646627835356, -74.46661383577393 50.858127686518, -75.28012270360466 50.77964946442593 M-72.01320723968959 51.09480487018913 C-72.76235356102347 51.02253562555032, -73.51149988235736 50.95026638091151, -75.28012270360466 50.77964946442593 M-75.28012270360466 50.77964946442593 C-76.29502794686515 50.61556745540329, -77.30993319012565 50.45148544638064, -78.52013386314813 50.25582958681275 M-75.28012270360466 50.77964946442593 C-76.04916693613562 50.65531635693742, -76.81821116866656 50.530983249448916, -78.52013386314813 50.25582958681275 M-78.52013386314813 50.25582958681275 C-79.30819106565723 50.07596067289389, -80.0962482681663 49.89609175897504, -81.71992681748526 49.52549772558572 M-78.52013386314813 50.25582958681275 C-79.67696056451904 49.99179144122456, -80.83378726588994 49.72775329563637, -81.71992681748526 49.52549772558572 M-81.71992681748526 49.52549772558572 C-82.83829791474841 49.1935710543677, -83.95666901201157 48.86164438314968, -84.86635293101325 48.591654971018315 M-81.71992681748526 49.52549772558572 C-82.78723779660862 49.208725429411565, -83.85454877573198 48.89195313323741, -84.86635293101325 48.591654971018315 M-84.86635293101325 48.591654971018315 C-85.95778597959854 48.189997520042425, -87.04921902818383 47.788340069066535, -87.94648286392537 47.458138683297676 M-84.86635293101325 48.591654971018315 C-85.87997147691571 48.218633976339085, -86.89359002281817 47.845612981659855, -87.94648286392537 47.458138683297676 M-87.94648286392537 47.458138683297676 C-88.88089389814755 47.04450263676602, -89.81530493236971 46.63086659023436, -90.9476597016414 46.12960672398856 M-87.94648286392537 47.458138683297676 C-89.07427610912988 46.95889806844361, -90.2020693543344 46.459657453589536, -90.9476597016414 46.12960672398856 M-90.9476597016414 46.12960672398856 C-91.92051536468226 45.622068547723934, -92.89337102772312 45.11453037145932, -93.85755096478479 44.611518315880964 M-90.9476597016414 46.12960672398856 C-91.85272804561515 45.65743314866139, -92.75779638958892 45.18525957333423, -93.85755096478479 44.611518315880964 M-93.85755096478479 44.611518315880964 C-94.58836148523969 44.16849668366188, -95.3191720056946 43.72547505144279, -96.66419928598557 42.91011160987274 M-93.85755096478479 44.611518315880964 C-94.43959692860952 44.258678632128664, -95.02164289243426 43.905838948376356, -96.66419928598557 42.91011160987274 M-96.66419928598557 42.91011160987274 C-97.35088433001022 42.43110984927761, -98.03756937403486 41.95210808868247, -99.35607154526778 41.03237805106946 M-96.66419928598557 42.91011160987274 C-97.4676712323694 42.34964436181536, -98.27114317875323 41.78917711375797, -99.35607154526778 41.03237805106946 M-99.35607154526778 41.03237805106946 C-100.28721540939355 40.289815598208016, -101.21835927351933 39.54725314534658, -101.92210626211318 38.986033649436855 M-99.35607154526778 41.03237805106946 C-100.30085353936616 40.27893955248074, -101.24563553346455 39.52550105389203, -101.92210626211318 38.986033649436855 M-101.92210626211318 38.986033649436855 C-102.61833667184108 38.35373561256917, -103.31456708156897 37.721437575701486, -104.35175904945756 36.77948727306074 M-101.92210626211318 38.986033649436855 C-102.7251066727547 38.25676992271883, -103.52810708339624 37.5275061960008, -104.35175904945756 36.77948727306074 M-104.35175904945756 36.77948727306074 C-104.91233808770444 36.200643391675854, -105.47291712595133 35.62179951029096, -106.63504594283886 34.421806094304294 M-104.35175904945756 36.77948727306074 C-104.99313883094624 36.1172099904143, -105.63451861243493 35.45493270776787, -106.63504594283886 34.421806094304294 M-106.63504594283886 34.421806094304294 C-107.32543713882792 33.610833311123606, -108.01582833481699 32.79986052794292, -108.76258442664862 31.922678330852133 M-106.63504594283886 34.421806094304294 C-107.18093507390111 33.78057365898706, -107.72682420496338 33.139341223669824, -108.76258442664862 31.922678330852133 M-108.76258442664862 31.922678330852133 C-109.2632156873164 31.251878050003405, -109.76384694798418 30.581077769154682, -110.72563198890131 29.292373434745475 M-108.76258442664862 31.922678330852133 C-109.49952935805904 30.93523925982656, -110.23647428946946 29.947800188800986, -110.72563198890131 29.292373434745475 M-110.72563198890131 29.292373434745475 C-111.24248533498933 28.498347900597786, -111.75933868107734 27.7043223664501, -112.51612204609125 26.541699893001052 M-110.72563198890131 29.292373434745475 C-111.25438031154935 28.48007402235313, -111.78312863419741 27.667774609960787, -112.51612204609125 26.541699893001052 M-112.51612204609125 26.541699893001052 C-113.10619884889225 25.493958777872354, -113.69627565169324 24.446217662743656, -114.1266970905146 23.68196081321948 M-112.51612204609125 26.541699893001052 C-113.0362850034164 25.61809789005927, -113.55644796074152 24.69449588711749, -114.1266970905146 23.68196081321948 M-114.1266970905146 23.68196081321948 C-114.6110231685705 22.676247349218432, -115.09534924662641 21.670533885217385, -115.55073892384647 20.724907476691765 M-114.1266970905146 23.68196081321948 C-114.47671834128965 22.955134196730068, -114.82673959206471 22.228307580240656, -115.55073892384647 20.724907476691765 M-115.55073892384647 20.724907476691765 C-115.85384941349898 19.97621870700743, -116.15695990315147 19.227529937323094, -116.78239585273772 17.682691049863607 M-115.55073892384647 20.724907476691765 C-115.88271489090542 19.904920419737465, -116.21469085796437 19.08493336278316, -116.78239585273772 17.682691049863607 M-116.78239585273772 17.682691049863607 C-117.00053632147576 17.025686713988343, -117.21867679021382 16.36868237811308, -117.81660673467796 14.567812652586182 M-116.78239585273772 17.682691049863607 C-117.01201339049113 16.99111961073669, -117.24163092824455 16.29954817160977, -117.81660673467796 14.567812652586182 M-117.81660673467796 14.567812652586182 C-118.05946249457234 13.641698385756733, -118.30231825446674 12.715584118927282, -118.64912177531573 11.39307198833331 M-117.81660673467796 14.567812652586182 C-118.10016747229726 13.486472664042731, -118.38372820991654 12.405132675499281, -118.64912177531573 11.39307198833331 M-118.64912177531573 11.39307198833331 C-118.86586191069169 10.28015720122165, -119.08260204606763 9.167242414109989, -119.27651999177519 8.171514747474097 M-118.64912177531573 11.39307198833331 C-118.83280960710871 10.44987379451341, -119.01649743890168 9.50667560069351, -119.27651999177519 8.171514747474097 M-119.27651999177519 8.171514747474097 C-119.37457064715134 7.411053226668536, -119.4726213025275 6.6505917058629755, -119.69622327020835 4.9163789997331 M-119.27651999177519 8.171514747474097 C-119.39727724129486 7.234945366415618, -119.51803449081453 6.298375985357138, -119.69622327020835 4.9163789997331 M-119.69622327020835 4.9163789997331 C-119.7757144293575 3.678240031876337, -119.85520558850665 2.4401010640195735, -119.9065069598181 1.641040796122164 M-119.69622327020835 4.9163789997331 C-119.76534219510044 3.8397959527468633, -119.83446111999253 2.7632129057606267, -119.9065069598181 1.641040796122164 M-119.9065069598181 1.641040796122164 C-119.9065069598181 0.820846531282948, -119.9065069598181 0.0006522664437320635, -119.9065069598181 -1.6410407961221392 M-119.9065069598181 1.641040796122164 C-119.9065069598181 0.3292931773669625, -119.9065069598181 -0.982454441388239, -119.9065069598181 -1.6410407961221392 M-119.9065069598181 -1.6410407961221392 C-119.836730101041 -2.7278716944422277, -119.76695324226388 -3.8147025927623157, -119.69622327020835 -4.916378999733029 M-119.9065069598181 -1.6410407961221392 C-119.84454663917171 -2.6061228036603827, -119.7825863185253 -3.5712048111986263, -119.69622327020835 -4.916378999733029 M-119.69622327020835 -4.916378999733029 C-119.60854258217431 -5.59641310161478, -119.52086189414028 -6.276447203496531, -119.27651999177519 -8.171514747474074 M-119.69622327020835 -4.916378999733029 C-119.56335017679702 -5.9469164734712985, -119.43047708338567 -6.977453947209568, -119.27651999177519 -8.171514747474074 M-119.27651999177519 -8.171514747474074 C-119.12367200022013 -8.956356879674862, -118.97082400866506 -9.741199011875652, -118.64912177531575 -11.393071988333284 M-119.27651999177519 -8.171514747474074 C-119.13823785331563 -8.881564302523559, -118.99995571485609 -9.591613857573044, -118.64912177531575 -11.393071988333284 M-118.64912177531575 -11.393071988333284 C-118.3720101164096 -12.449818844695155, -118.09489845750343 -13.506565701057024, -117.81660673467798 -14.567812652586158 M-118.64912177531575 -11.393071988333284 C-118.41939103143325 -12.269134880691457, -118.18966028755077 -13.14519777304963, -117.81660673467798 -14.567812652586158 M-117.81660673467798 -14.567812652586158 C-117.41570564305319 -15.775262865645448, -117.01480455142841 -16.982713078704737, -116.78239585273775 -17.68269104986354 M-117.81660673467798 -14.567812652586158 C-117.53899433137954 -15.403936979791352, -117.2613819280811 -16.240061306996544, -116.78239585273775 -17.68269104986354 M-116.78239585273775 -17.68269104986354 C-116.44882461841993 -18.50661844778961, -116.11525338410212 -19.33054584571568, -115.55073892384647 -20.724907476691737 M-116.78239585273775 -17.68269104986354 C-116.4277466567819 -18.558681420550215, -116.07309746082606 -19.43467179123689, -115.55073892384647 -20.724907476691737 M-115.55073892384647 -20.724907476691737 C-115.24187027091759 -21.366279843229023, -114.93300161798872 -22.00765220976631, -114.12669709051461 -23.681960813219458 M-115.55073892384647 -20.724907476691737 C-115.0907941387817 -21.67999266412058, -114.63084935371695 -22.635077851549422, -114.12669709051461 -23.681960813219458 M-114.12669709051461 -23.681960813219458 C-113.6764799841635 -24.481366874971403, -113.22626287781242 -25.28077293672335, -112.51612204609128 -26.541699893001038 M-114.12669709051461 -23.681960813219458 C-113.71802718222567 -24.407595617702025, -113.30935727393674 -25.133230422184592, -112.51612204609128 -26.541699893001038 M-112.51612204609128 -26.541699893001038 C-111.99875548628367 -27.3365138612392, -111.48138892647606 -28.131327829477364, -110.72563198890131 -29.292373434745457 M-112.51612204609128 -26.541699893001038 C-111.969032386845 -27.382176523746743, -111.42194272759872 -28.22265315449245, -110.72563198890131 -29.292373434745457 M-110.72563198890131 -29.292373434745457 C-110.31050074492639 -29.84861148243753, -109.89536950095145 -30.4048495301296, -108.76258442664863 -31.92267833085212 M-110.72563198890131 -29.292373434745457 C-109.97012789007718 -30.30468009933047, -109.21462379125306 -31.31698676391548, -108.76258442664863 -31.92267833085212 M-108.76258442664863 -31.92267833085212 C-108.20611196304533 -32.57634255078073, -107.64963949944205 -33.230006770709345, -106.63504594283887 -34.42180609430427 M-108.76258442664863 -31.92267833085212 C-108.21265952494159 -32.56865141201057, -107.66273462323454 -33.21462449316902, -106.63504594283887 -34.42180609430427 M-106.63504594283887 -34.42180609430427 C-105.83124818709068 -35.251793270137334, -105.02745043134249 -36.08178044597039, -104.3517590494576 -36.77948727306069 M-106.63504594283887 -34.42180609430427 C-105.7799583321649 -35.304754256323605, -104.92487072149092 -36.18770241834294, -104.3517590494576 -36.77948727306069 M-104.3517590494576 -36.77948727306069 C-103.76579959578744 -37.31164014524635, -103.1798401421173 -37.84379301743201, -101.92210626211323 -38.98603364943681 M-104.3517590494576 -36.77948727306069 C-103.76316280047493 -37.314034812983394, -103.17456655149228 -37.8485823529061, -101.92210626211323 -38.98603364943681 M-101.92210626211323 -38.98603364943681 C-101.14669391524674 -39.60440436147369, -100.37128156838025 -40.22277507351056, -99.35607154526781 -41.032378051069436 M-101.92210626211323 -38.98603364943681 C-101.35341501008023 -39.43954978942336, -100.7847237580472 -39.8930659294099, -99.35607154526781 -41.032378051069436 M-99.35607154526781 -41.032378051069436 C-98.69173351459177 -41.4957915025392, -98.02739548391574 -41.95920495400897, -96.66419928598563 -42.9101116098727 M-99.35607154526781 -41.032378051069436 C-98.78724817684291 -41.4291646089159, -98.218424808418 -41.82595116676236, -96.66419928598563 -42.9101116098727 M-96.66419928598563 -42.9101116098727 C-95.75740423033169 -43.45981610152937, -94.85060917467774 -44.009520593186046, -93.8575509647848 -44.61151831588095 M-96.66419928598563 -42.9101116098727 C-95.97674921763047 -43.326847881214626, -95.28929914927531 -43.743584152556544, -93.8575509647848 -44.61151831588095 M-93.8575509647848 -44.61151831588095 C-92.74785406404524 -45.19044647820199, -91.63815716330568 -45.76937464052304, -90.94765970164143 -46.12960672398855 M-93.8575509647848 -44.61151831588095 C-93.01245361480981 -45.052405062052216, -92.16735626483482 -45.49329180822349, -90.94765970164143 -46.12960672398855 M-90.94765970164143 -46.12960672398855 C-89.88482607026424 -46.60009164475974, -88.82199243888705 -47.070576565530935, -87.9464828639254 -47.45813868329767 M-90.94765970164143 -46.12960672398855 C-89.74762194746678 -46.66082783990648, -88.54758419329215 -47.192048955824404, -87.9464828639254 -47.45813868329767 M-87.9464828639254 -47.45813868329767 C-86.8663796953349 -47.85562663370321, -85.7862765267444 -48.25311458410876, -84.86635293101332 -48.59165497101829 M-87.9464828639254 -47.45813868329767 C-87.0452400692707 -47.789804362727665, -86.143997274616 -48.12147004215766, -84.86635293101332 -48.59165497101829 M-84.86635293101332 -48.59165497101829 C-83.79639970315743 -48.90921147274682, -82.72644647530154 -49.22676797447535, -81.71992681748533 -49.5254977255857 M-84.86635293101332 -48.59165497101829 C-83.76272686226312 -48.9192053951719, -82.65910079351292 -49.246755819325514, -81.71992681748533 -49.5254977255857 M-81.71992681748533 -49.5254977255857 C-80.74555826349223 -49.747890989685594, -79.77118970949913 -49.970284253785486, -78.52013386314815 -50.255829586812744 M-81.71992681748533 -49.5254977255857 C-80.68030742360614 -49.762784068088074, -79.64068802972693 -50.00007041059044, -78.52013386314815 -50.255829586812744 M-78.52013386314815 -50.255829586812744 C-77.65674171247386 -50.395416134027634, -76.79334956179957 -50.53500268124253, -75.28012270360469 -50.77964946442593 M-78.52013386314815 -50.255829586812744 C-77.7545826159727 -50.379597975517484, -76.98903136879724 -50.503366364222224, -75.28012270360469 -50.77964946442593 M-75.28012270360469 -50.77964946442593 C-74.07808052489496 -50.89560902773883, -72.87603834618521 -51.01156859105173, -72.0132072396896 -51.09480487018913 M-75.28012270360469 -50.77964946442593 C-74.16359769975651 -50.887359288729385, -73.04707269590834 -50.995069113032834, -72.0132072396896 -51.09480487018913 M-72.0132072396896 -51.09480487018913 C-71.33120053443497 -51.116675497781124, -70.64919382918035 -51.138546125373125, -68.73281192779542 -51.20000076293945 M-72.0132072396896 -51.09480487018913 C-71.03794746502633 -51.12607955293459, -70.06268769036306 -51.157354235680046, -68.73281192779542 -51.20000076293945 M-68.73281192779542 -51.20000076293945 C-68.73281192779542 -51.20000076293945, -68.73281192779541 -51.20000076293945, -68.73281192779541 -51.20000076293945 M-68.73281192779542 -51.20000076293945 C-68.73281192779542 -51.20000076293945, -68.73281192779541 -51.20000076293945, -68.73281192779541 -51.20000076293945" stroke="#9370DB" stroke-width="1.3" fill="none" stroke-dasharray="0 0" style=""/></g><g class="label" style="" transform="translate(0, -43.70000076293945)"><rect/><g><rect class="background" style="stroke: none"/><text y="-10.1" style=""><tspan class="text-outer-tspan row" x="0" y="-0.1em" dy="1.1em"><tspan font-style="normal" class="text-inner-tspan" font-weight="normal">PRICE</tspan><tspan font-style="normal" class="text-inner-tspan" font-weight="normal"> P</tspan><tspan font-style="normal" class="text-inner-tspan" font-weight="normal"> —</tspan><tspan font-style="normal" class="text-inner-tspan" font-weight="normal"> the</tspan><tspan font-style="normal" class="text-inner-tspan" font-weight="normal"> only</tspan><tspan font-style="normal" class="text-inner-tspan" font-weight="normal"> shared</tspan></tspan><tspan class="text-outer-tspan row" x="0" y="1em" dy="1.1em"><tspan font-style="normal" class="text-inner-tspan" font-weight="normal">variable</tspan></tspan><tspan class="text-outer-tspan row" x="0" y="2.1em" dy="1.1em"><tspan font-style="normal" class="text-inner-tspan" font-weight="normal">the</tspan><tspan font-style="normal" class="text-inner-tspan" font-weight="normal"> coupling</tspan><tspan font-style="normal" class="text-inner-tspan" font-weight="normal"> term</tspan></tspan><tspan class="text-outer-tspan row" x="0" y="3.2em" dy="1.1em"><tspan font-style="normal" class="text-inner-tspan" font-weight="normal">at</tspan><tspan font-style="normal" class="text-inner-tspan" font-weight="normal"> the</tspan><tspan font-style="normal" class="text-inner-tspan" font-weight="normal"> fixed</tspan><tspan font-style="normal" class="text-inner-tspan" font-weight="normal"> point:</tspan><tspan font-style="normal" class="text-inner-tspan" font-weight="normal"> MB</tspan><tspan font-style="normal" class="text-inner-tspan" font-weight="normal"> =</tspan><tspan font-style="normal" class="text-inner-tspan" font-weight="normal"> P*</tspan><tspan font-style="normal" class="text-inner-tspan" font-weight="normal"> =</tspan></tspan><tspan class="text-outer-tspan row" x="0" y="4.300000000000001em" dy="1.1em"><tspan font-style="normal" class="text-inner-tspan" font-weight="normal">MC</tspan><tspan font-style="normal" class="text-inner-tspan" font-weight="normal"> for</tspan><tspan font-style="normal" class="text-inner-tspan" font-weight="normal"> everyone</tspan></tspan></text></g></g></g><g class="node default" id="my-svg-flowchart-B-1" data-look="classic" transform="translate(129.1640625, 210.3000030517578)"><rect class="basic label-container" style="" x="-121.1640625" y="-49.900001525878906" width="242.328125" height="99.80000305175781"/><g class="label" style="" transform="translate(0, -34.900001525878906)"><rect/><g><rect class="background" style="stroke: none"/><text y="-10.1" style=""><tspan class="text-outer-tspan row" x="0" y="-0.1em" dy="1.1em"><tspan font-style="normal" class="text-inner-tspan" font-weight="normal">BUYERS</tspan></tspan><tspan class="text-outer-tspan row" x="0" y="1em" dy="1.1em"><tspan font-style="normal" class="text-inner-tspan" font-weight="normal">each</tspan><tspan font-style="normal" class="text-inner-tspan" font-weight="normal"> privately</tspan><tspan font-style="normal" class="text-inner-tspan" font-weight="normal"> knows</tspan><tspan font-style="normal" class="text-inner-tspan" font-weight="normal"> own</tspan></tspan><tspan class="text-outer-tspan row" x="0" y="2.1em" dy="1.1em"><tspan font-style="normal" class="text-inner-tspan" font-weight="normal">MB</tspan></tspan><tspan class="text-outer-tspan row" x="0" y="3.2em" dy="1.1em"><tspan font-style="normal" class="text-inner-tspan" font-weight="normal">buy</tspan><tspan font-style="normal" class="text-inner-tspan" font-weight="normal"> until</tspan><tspan font-style="normal" class="text-inner-tspan" font-weight="normal"> MB</tspan><tspan font-style="normal" class="text-inner-tspan" font-weight="normal"> =</tspan><tspan font-style="normal" class="text-inner-tspan" font-weight="normal"> P</tspan></tspan></text></g></g></g><g class="node default" id="my-svg-flowchart-S-2" data-look="classic" transform="translate(421.4921875, 210.3000030517578)"><rect class="basic label-container" style="" x="-121.1640625" y="-49.900001525878906" width="242.328125" height="99.80000305175781"/><g class="label" style="" transform="translate(0, -34.900001525878906)"><rect/><g><rect class="background" style="stroke: none"/><text y="-10.1" style=""><tspan class="text-outer-tspan row" x="0" y="-0.1em" dy="1.1em"><tspan font-style="normal" class="text-inner-tspan" font-weight="normal">SELLERS</tspan></tspan><tspan class="text-outer-tspan row" x="0" y="1em" dy="1.1em"><tspan font-style="normal" class="text-inner-tspan" font-weight="normal">each</tspan><tspan font-style="normal" class="text-inner-tspan" font-weight="normal"> privately</tspan><tspan font-style="normal" class="text-inner-tspan" font-weight="normal"> knows</tspan><tspan font-style="normal" class="text-inner-tspan" font-weight="normal"> own</tspan></tspan><tspan class="text-outer-tspan row" x="0" y="2.1em" dy="1.1em"><tspan font-style="normal" class="text-inner-tspan" font-weight="normal">MC</tspan></tspan><tspan class="text-outer-tspan row" x="0" y="3.2em" dy="1.1em"><tspan font-style="normal" class="text-inner-tspan" font-weight="normal">produce</tspan><tspan font-style="normal" class="text-inner-tspan" font-weight="normal"> until</tspan><tspan font-style="normal" class="text-inner-tspan" font-weight="normal"> MC</tspan><tspan font-style="normal" class="text-inner-tspan" font-weight="normal"> =</tspan><tspan font-style="normal" class="text-inner-tspan" font-weight="normal"> P</tspan></tspan></text></g></g></g><g class="node default" id="my-svg-flowchart-Z-3" data-look="classic" transform="translate(421.4921875, 381.1000061035156)"><rect class="basic label-container" style="" x="-124.5859375" y="-49.900001525878906" width="249.171875" height="99.80000305175781"/><g class="label" style="" transform="translate(0, -34.900001525878906)"><rect/><g><rect class="background" style="stroke: none"/><text y="-10.1" style=""><tspan class="text-outer-tspan row" x="0" y="-0.1em" dy="1.1em"><tspan font-style="normal" class="text-inner-tspan" font-weight="normal">EXCESS</tspan><tspan font-style="normal" class="text-inner-tspan" font-weight="normal"> DEMAND</tspan></tspan><tspan class="text-outer-tspan row" x="0" y="1em" dy="1.1em"><tspan font-style="normal" class="text-inner-tspan" font-weight="normal">Z</tspan><tspan font-style="normal" class="text-inner-tspan" font-weight="normal"> =</tspan><tspan font-style="normal" class="text-inner-tspan" font-weight="normal"> Qd</tspan><tspan font-style="normal" class="text-inner-tspan" font-weight="normal"> −</tspan><tspan font-style="normal" class="text-inner-tspan" font-weight="normal"> Qs</tspan></tspan><tspan class="text-outer-tspan row" x="0" y="2.1em" dy="1.1em"><tspan font-style="normal" class="text-inner-tspan" font-weight="normal">shortage:</tspan><tspan font-style="normal" class="text-inner-tspan" font-weight="normal"> P</tspan><tspan font-style="normal" class="text-inner-tspan" font-weight="normal"> up</tspan><tspan font-style="normal" class="text-inner-tspan" font-weight="normal"> ·</tspan><tspan font-style="normal" class="text-inner-tspan" font-weight="normal"> surplus:</tspan><tspan font-style="normal" class="text-inner-tspan" font-weight="normal"> P</tspan></tspan><tspan class="text-outer-tspan row" x="0" y="3.2em" dy="1.1em"><tspan font-style="normal" class="text-inner-tspan" font-weight="normal">down</tspan></tspan></text></g></g></g></g></g></g><defs><filter id="my-svg-drop-shadow" height="130%" width="130%"><feDropShadow dx="4" dy="4" stdDeviation="0" flood-opacity="0.06" flood-color="#000000"/></filter></defs><defs><filter id="my-svg-drop-shadow-small" height="150%" width="150%"><feDropShadow dx="2" dy="2" stdDeviation="0" flood-opacity="0.06" flood-color="#000000"/></filter></defs></svg>