<?xml version="1.0" encoding="utf-8" standalone="no"?>
<!DOCTYPE svg PUBLIC "-//W3C//DTD SVG 1.1//EN"
  "http://www.w3.org/Graphics/SVG/1.1/DTD/svg11.dtd">
<svg xmlns:xlink="http://www.w3.org/1999/xlink" width="640.625938pt" height="334.566906pt" viewBox="0 0 640.625938 334.566906" xmlns="http://www.w3.org/2000/svg" version="1.1">
 <metadata>
  <rdf:RDF xmlns:dc="http://purl.org/dc/elements/1.1/" xmlns:cc="http://creativecommons.org/ns#" xmlns:rdf="http://www.w3.org/1999/02/22-rdf-syntax-ns#">
   <cc:Work>
    <dc:type rdf:resource="http://purl.org/dc/dcmitype/StillImage"/>
    <dc:date>2026-07-02T11:48:33.042886</dc:date>
    <dc:format>image/svg+xml</dc:format>
    <dc:creator>
     <cc:Agent>
      <dc:title>Matplotlib v3.11.0, https://matplotlib.org/</dc:title>
     </cc:Agent>
    </dc:creator>
   </cc:Work>
  </rdf:RDF>
 </metadata>
 <defs>
  <style type="text/css">*{stroke-linejoin: round; stroke-linecap: butt}</style>
 </defs>
 <g id="figure_1">
  <g id="patch_1">
   <path d="M 0 334.566906 
L 640.625938 334.566906 
L 640.625938 0 
L 0 0 
z
" style="fill: #ffffff"/>
  </g>
  <g id="axes_1">
   <g id="patch_2">
    <path d="M 53.105938 311.365969 
L 633.425938 311.365969 
L 633.425938 23.077969 
L 53.105938 23.077969 
z
" style="fill: #ffffff"/>
   </g>
   <g id="FillBetweenPolyCollection_1">
    <path d="M 79.484119 290.011302 
L 79.484119 290.011302 
L 80.36486 289.690447 
L 81.245601 289.369593 
L 82.126341 289.048738 
L 83.007082 288.727883 
L 83.887822 288.407028 
L 84.768563 288.086174 
L 85.649304 287.765319 
L 86.530044 287.444464 
L 87.410785 287.123609 
L 88.291526 286.802755 
L 89.172266 286.4819 
L 90.053007 286.161045 
L 90.933747 285.84019 
L 91.814488 285.519335 
L 92.695229 285.198481 
L 93.575969 284.877626 
L 94.45671 284.556771 
L 95.337451 284.235916 
L 96.218191 283.915062 
L 97.098932 283.594207 
L 97.979673 283.273352 
L 98.860413 282.952497 
L 99.741154 282.631643 
L 100.621894 282.310788 
L 101.502635 281.989933 
L 102.383376 281.669078 
L 103.264116 281.348224 
L 104.144857 281.027369 
L 105.025598 280.706514 
L 105.906338 280.385659 
L 106.787079 280.064805 
L 107.667819 279.74395 
L 108.54856 279.423095 
L 109.429301 279.10224 
L 110.310041 278.781386 
L 111.190782 278.460531 
L 112.071523 278.139676 
L 112.952263 277.818821 
L 113.833004 277.497967 
L 114.713744 277.177112 
L 115.594485 276.856257 
L 116.475226 276.535402 
L 117.355966 276.214547 
L 118.236707 275.893693 
L 119.117448 275.572838 
L 119.998188 275.251983 
L 120.878929 274.931128 
L 121.759669 274.610274 
L 122.64041 274.289419 
L 123.521151 273.968564 
L 124.401891 273.647709 
L 125.282632 273.326855 
L 126.163373 273.006 
L 127.044113 272.685145 
L 127.924854 272.36429 
L 128.805595 272.043436 
L 129.686335 271.722581 
L 130.567076 271.401726 
L 131.447816 271.080871 
L 132.328557 270.760017 
L 133.209298 270.439162 
L 134.090038 270.118307 
L 134.970779 269.797452 
L 135.85152 269.476598 
L 136.73226 269.155743 
L 137.613001 268.834888 
L 138.493741 268.514033 
L 139.374482 268.193179 
L 140.255223 267.872324 
L 141.135963 267.551469 
L 142.016704 267.230614 
L 142.897445 266.90976 
L 143.778185 266.588905 
L 144.658926 266.26805 
L 145.539666 265.947195 
L 146.420407 265.62634 
L 147.301148 265.305486 
L 148.181888 264.984631 
L 149.062629 264.663776 
L 149.94337 264.342921 
L 150.82411 264.022067 
L 151.704851 263.701212 
L 152.585591 263.380357 
L 153.466332 263.059502 
L 154.347073 262.738648 
L 155.227813 262.417793 
L 156.108554 262.096938 
L 156.989295 261.776083 
L 157.870035 261.455229 
L 158.750776 261.134374 
L 159.631516 260.813519 
L 160.512257 260.492664 
L 161.392998 260.17181 
L 162.273738 259.850955 
L 163.154479 259.5301 
L 164.03522 259.209245 
L 164.91596 258.888391 
L 165.796701 258.567536 
L 166.677442 258.246681 
L 167.558182 257.925826 
L 168.438923 257.604972 
L 169.319663 257.284117 
L 170.200404 256.963262 
L 171.081145 256.642407 
L 171.961885 256.321553 
L 172.842626 256.000698 
L 173.723367 255.679843 
L 174.604107 255.358988 
L 175.484848 255.038133 
L 176.365588 254.717279 
L 177.246329 254.396424 
L 178.12707 254.075569 
L 179.00781 253.754714 
L 179.888551 253.43386 
L 180.769292 253.113005 
L 181.650032 252.79215 
L 182.530773 252.471295 
L 183.411513 252.150441 
L 184.292254 251.829586 
L 185.172995 251.508731 
L 186.053735 251.187876 
L 186.934476 250.867022 
L 187.815217 250.546167 
L 188.695957 250.225312 
L 189.576698 249.904457 
L 190.457438 249.583603 
L 191.338179 249.262748 
L 192.21892 248.941893 
L 193.09966 248.621038 
L 193.980401 248.300184 
L 194.861142 247.979329 
L 195.741882 247.658474 
L 196.622623 247.337619 
L 197.503364 247.016765 
L 198.384104 246.69591 
L 199.264845 246.375055 
L 200.145585 246.0542 
L 201.026326 245.733345 
L 201.907067 245.412491 
L 202.787807 245.091636 
L 203.668548 244.770781 
L 204.549289 244.449926 
L 205.430029 244.129072 
L 206.31077 243.808217 
L 207.19151 243.487362 
L 208.072251 243.166507 
L 208.952992 242.845653 
L 209.833732 242.524798 
L 210.714473 242.203943 
L 211.595214 241.883088 
L 212.475954 241.562234 
L 213.356695 241.241379 
L 214.237435 240.920524 
L 215.118176 240.599669 
L 215.998917 240.278815 
L 216.879657 239.95796 
L 217.760398 239.637105 
L 218.641139 239.31625 
L 219.521879 238.995396 
L 220.40262 238.674541 
L 221.28336 238.353686 
L 222.164101 238.032831 
L 223.044842 237.711977 
L 223.925582 237.391122 
L 224.806323 237.070267 
L 225.687064 236.749412 
L 226.567804 236.428558 
L 227.448545 236.107703 
L 228.329286 235.786848 
L 229.210026 235.465993 
L 229.850912 235.232518 
L 229.210026 235.138064 
L 228.329286 235.019265 
L 227.448545 234.911527 
L 226.567804 234.814889 
L 225.687064 234.729365 
L 224.806323 234.654947 
L 223.925582 234.591608 
L 223.044842 234.539297 
L 222.164101 234.497943 
L 221.28336 234.467456 
L 220.40262 234.447725 
L 219.521879 234.438618 
L 218.641139 234.439987 
L 217.760398 234.451663 
L 216.879657 234.473461 
L 215.998917 234.505176 
L 215.118176 234.546589 
L 214.237435 234.597463 
L 213.356695 234.657548 
L 212.475954 234.726576 
L 211.595214 234.804269 
L 210.714473 234.890331 
L 209.833732 234.984459 
L 208.952992 235.086333 
L 208.072251 235.195627 
L 207.19151 235.312001 
L 206.31077 235.435108 
L 205.430029 235.564593 
L 204.549289 235.700091 
L 203.668548 235.841234 
L 202.787807 235.987646 
L 201.907067 236.138946 
L 201.026326 236.29475 
L 200.145585 236.454671 
L 199.264845 236.61832 
L 198.384104 236.785307 
L 197.503364 236.95524 
L 196.622623 237.12773 
L 195.741882 237.302389 
L 194.861142 237.47883 
L 193.980401 237.65667 
L 193.09966 237.835532 
L 192.21892 238.015043 
L 191.338179 238.194835 
L 190.457438 238.374547 
L 189.576698 238.553827 
L 188.695957 238.732331 
L 187.815217 238.909724 
L 186.934476 239.085682 
L 186.053735 239.259889 
L 185.172995 239.432045 
L 184.292254 239.601858 
L 183.411513 239.769053 
L 182.530773 239.933365 
L 181.650032 240.094547 
L 180.769292 240.252363 
L 179.888551 240.406596 
L 179.00781 240.557044 
L 178.12707 240.703521 
L 177.246329 240.845858 
L 176.365588 240.983905 
L 175.484848 241.117529 
L 174.604107 241.246615 
L 173.723367 241.371069 
L 172.842626 241.490813 
L 171.961885 241.605791 
L 171.081145 241.715966 
L 170.200404 241.82132 
L 169.319663 241.921856 
L 168.438923 242.017597 
L 167.558182 242.108586 
L 166.677442 242.194886 
L 165.796701 242.276582 
L 164.91596 242.353779 
L 164.03522 242.4266 
L 163.154479 242.495192 
L 162.273738 242.559718 
L 161.392998 242.620365 
L 160.512257 242.677337 
L 159.631516 242.730858 
L 158.750776 242.781172 
L 157.870035 242.828541 
L 156.989295 242.873247 
L 156.108554 242.915588 
L 155.227813 242.955882 
L 154.347073 242.994462 
L 153.466332 243.031679 
L 152.585591 243.067901 
L 151.704851 243.10351 
L 150.82411 243.138903 
L 149.94337 243.174494 
L 149.062629 243.210708 
L 148.181888 243.247984 
L 147.301148 243.286774 
L 146.420407 243.32754 
L 145.539666 243.370758 
L 144.658926 243.416911 
L 143.778185 243.466492 
L 142.897445 243.520003 
L 142.016704 243.577955 
L 141.135963 243.640863 
L 140.255223 243.709248 
L 139.374482 243.78364 
L 138.493741 243.864567 
L 137.613001 243.952566 
L 136.73226 244.048171 
L 135.85152 244.151921 
L 134.970779 244.264354 
L 134.090038 244.386006 
L 133.209298 244.517414 
L 132.328557 244.65911 
L 131.447816 244.811623 
L 130.567076 244.97548 
L 129.686335 245.151198 
L 128.805595 245.33929 
L 127.924854 245.540263 
L 127.044113 245.754612 
L 126.163373 245.982826 
L 125.282632 246.225382 
L 124.401891 246.482745 
L 123.521151 246.755371 
L 122.64041 247.043699 
L 121.759669 247.348158 
L 120.878929 247.66916 
L 119.998188 248.007101 
L 119.117448 248.362362 
L 118.236707 248.735307 
L 117.355966 249.126281 
L 116.475226 249.53561 
L 115.594485 249.963601 
L 114.713744 250.410543 
L 113.833004 250.876701 
L 112.952263 251.36232 
L 112.071523 251.867624 
L 111.190782 252.392812 
L 110.310041 252.938062 
L 109.429301 253.503527 
L 108.54856 254.089337 
L 107.667819 254.695597 
L 106.787079 255.322387 
L 105.906338 255.969761 
L 105.025598 256.63775 
L 104.144857 257.326355 
L 103.264116 258.035555 
L 102.383376 258.7653 
L 101.502635 259.515514 
L 100.621894 260.286095 
L 99.741154 261.076914 
L 98.860413 261.887816 
L 97.979673 262.718617 
L 97.098932 263.569109 
L 96.218191 264.439056 
L 95.337451 265.328195 
L 94.45671 266.236238 
L 93.575969 267.162871 
L 92.695229 268.107752 
L 91.814488 269.070516 
L 90.933747 270.050771 
L 90.053007 271.048101 
L 89.172266 272.062066 
L 88.291526 273.0922 
L 87.410785 274.138015 
L 86.530044 275.199001 
L 85.649304 276.274623 
L 84.768563 277.364326 
L 83.887822 278.467534 
L 83.007082 279.583649 
L 82.126341 280.712053 
L 81.245601 281.852112 
L 80.36486 283.003169 
L 79.484119 284.164554 
z
" clip-path="url(#p9181d5fa59)" style="fill: #f4a582; fill-opacity: 0.7; stroke: #f4a582; stroke-opacity: 0.7"/>
    <path d="M 346.156168 192.862388 
L 346.34853 192.79231 
L 347.22927 192.471456 
L 348.110011 192.150601 
L 348.990752 191.829746 
L 349.871492 191.508891 
L 350.752233 191.188037 
L 351.632973 190.867182 
L 352.513714 190.546327 
L 353.394455 190.225472 
L 354.275195 189.904618 
L 355.155936 189.583763 
L 356.036677 189.262908 
L 356.917417 188.942053 
L 357.798158 188.621199 
L 358.678898 188.300344 
L 359.559639 187.979489 
L 360.44038 187.658634 
L 361.32112 187.33778 
L 362.201861 187.016925 
L 363.082602 186.69607 
L 363.963342 186.375215 
L 364.844083 186.054361 
L 365.724824 185.733506 
L 366.605564 185.412651 
L 367.486305 185.091796 
L 368.367045 184.770941 
L 369.247786 184.450087 
L 370.128527 184.129232 
L 371.009267 183.808377 
L 371.890008 183.487522 
L 372.770749 183.166668 
L 373.651489 182.845813 
L 374.53223 182.524958 
L 375.41297 182.204103 
L 376.293711 181.883249 
L 377.174452 181.562394 
L 378.055192 181.241539 
L 378.935933 180.920684 
L 379.816674 180.59983 
L 380.697414 180.278975 
L 381.578155 179.95812 
L 382.458895 179.637265 
L 383.339636 179.316411 
L 384.220377 178.995556 
L 385.101117 178.674701 
L 385.981858 178.353846 
L 386.862599 178.032992 
L 387.743339 177.712137 
L 388.62408 177.391282 
L 389.50482 177.070427 
L 390.385561 176.749573 
L 391.266302 176.428718 
L 392.147042 176.107863 
L 393.027783 175.787008 
L 393.908524 175.466154 
L 394.789264 175.145299 
L 395.670005 174.824444 
L 396.550746 174.503589 
L 397.431486 174.182734 
L 398.312227 173.86188 
L 399.192967 173.541025 
L 400.073708 173.22017 
L 400.954449 172.899315 
L 401.835189 172.578461 
L 402.71593 172.257606 
L 403.596671 171.936751 
L 404.477411 171.615896 
L 405.358152 171.295042 
L 406.238892 170.974187 
L 407.119633 170.653332 
L 408.000374 170.332477 
L 408.881114 170.011623 
L 409.761855 169.690768 
L 410.642596 169.369913 
L 411.523336 169.049058 
L 412.404077 168.728204 
L 413.284817 168.407349 
L 414.165558 168.086494 
L 415.046299 167.765639 
L 415.927039 167.444785 
L 416.80778 167.12393 
L 417.688521 166.803075 
L 418.569261 166.48222 
L 419.450002 166.161366 
L 420.330742 165.840511 
L 421.211483 165.519656 
L 422.092224 165.198801 
L 422.972964 164.877946 
L 423.853705 164.557092 
L 424.734446 164.236237 
L 425.615186 163.915382 
L 426.495927 163.594527 
L 427.376668 163.273673 
L 428.257408 162.952818 
L 429.138149 162.631963 
L 430.018889 162.311108 
L 430.89963 161.990254 
L 431.780371 161.669399 
L 432.661111 161.348544 
L 433.541852 161.027689 
L 434.422593 160.706835 
L 435.303333 160.38598 
L 436.184074 160.065125 
L 437.064814 159.74427 
L 437.945555 159.423416 
L 438.826296 159.102561 
L 439.707036 158.781706 
L 440.587777 158.460851 
L 441.468518 158.139997 
L 442.349258 157.819142 
L 443.229999 157.498287 
L 444.110739 157.177432 
L 444.99148 156.856578 
L 445.872221 156.535723 
L 446.752961 156.214868 
L 447.633702 155.894013 
L 448.514443 155.573159 
L 449.395183 155.252304 
L 450.275924 154.931449 
L 451.156664 154.610594 
L 452.037405 154.289739 
L 452.918146 153.968885 
L 453.798886 153.64803 
L 454.679627 153.327175 
L 455.560368 153.00632 
L 456.441108 152.685466 
L 457.321849 152.364611 
L 458.202589 152.043756 
L 459.08333 151.722901 
L 459.964071 151.402047 
L 460.844811 151.081192 
L 461.725552 150.760337 
L 462.606293 150.439482 
L 463.487033 150.118628 
L 464.367774 149.797773 
L 465.248515 149.476918 
L 466.129255 149.156063 
L 467.009996 148.835209 
L 467.890736 148.514354 
L 468.771477 148.193499 
L 469.652218 147.872644 
L 470.532958 147.55179 
L 471.413699 147.230935 
L 472.29444 146.91008 
L 473.17518 146.589225 
L 474.055921 146.268371 
L 474.936661 145.947516 
L 475.817402 145.626661 
L 476.698143 145.305806 
L 477.578883 144.984951 
L 478.459624 144.664097 
L 479.340365 144.343242 
L 480.221105 144.022387 
L 481.101846 143.701532 
L 481.982586 143.380678 
L 482.863327 143.059823 
L 483.744068 142.738968 
L 484.624808 142.418113 
L 485.505549 142.097259 
L 486.38629 141.776404 
L 487.26703 141.455549 
L 488.147771 141.134694 
L 489.028511 140.81384 
L 489.909252 140.492985 
L 490.789993 140.17213 
L 491.670733 139.851275 
L 492.551474 139.530421 
L 493.432215 139.209566 
L 494.312955 138.888711 
L 495.193696 138.567856 
L 496.074437 138.247002 
L 496.955177 137.926147 
L 497.835918 137.605292 
L 498.716658 137.284437 
L 499.597399 136.963583 
L 500.47814 136.642728 
L 501.35888 136.321873 
L 502.239621 136.001018 
L 502.425797 135.933194 
L 502.239621 135.90456 
L 501.35888 135.780066 
L 500.47814 135.666608 
L 499.597399 135.564232 
L 498.716658 135.472965 
L 497.835918 135.392811 
L 496.955177 135.323753 
L 496.074437 135.265751 
L 495.193696 135.218746 
L 494.312955 135.182658 
L 493.432215 135.157384 
L 492.551474 135.142806 
L 491.670733 135.138782 
L 490.789993 135.145155 
L 489.909252 135.161747 
L 489.028511 135.188364 
L 488.147771 135.224795 
L 487.26703 135.270812 
L 486.38629 135.32617 
L 485.505549 135.390612 
L 484.624808 135.463864 
L 483.744068 135.545639 
L 482.863327 135.635639 
L 481.982586 135.733551 
L 481.101846 135.839053 
L 480.221105 135.951812 
L 479.340365 136.071484 
L 478.459624 136.197718 
L 477.578883 136.330156 
L 476.698143 136.468429 
L 475.817402 136.612165 
L 474.936661 136.760987 
L 474.055921 136.914513 
L 473.17518 137.072355 
L 472.29444 137.234127 
L 471.413699 137.399438 
L 470.532958 137.567897 
L 469.652218 137.739115 
L 468.771477 137.912702 
L 467.890736 138.08827 
L 467.009996 138.265435 
L 466.129255 138.443816 
L 465.248515 138.623038 
L 464.367774 138.80273 
L 463.487033 138.982527 
L 462.606293 139.162074 
L 461.725552 139.341022 
L 460.844811 139.51903 
L 459.964071 139.695769 
L 459.08333 139.870919 
L 458.202589 140.044172 
L 457.321849 140.215231 
L 456.441108 140.383812 
L 455.560368 140.549646 
L 454.679627 140.712475 
L 453.798886 140.872059 
L 452.918146 141.028169 
L 452.037405 141.180597 
L 451.156664 141.329148 
L 450.275924 141.473644 
L 449.395183 141.613925 
L 448.514443 141.749849 
L 447.633702 141.881293 
L 446.752961 142.008151 
L 445.872221 142.130337 
L 444.99148 142.247784 
L 444.110739 142.360444 
L 443.229999 142.468289 
L 442.349258 142.571313 
L 441.468518 142.669527 
L 440.587777 142.762965 
L 439.707036 142.851678 
L 438.826296 142.935742 
L 437.945555 143.015249 
L 437.064814 143.090314 
L 436.184074 143.161071 
L 435.303333 143.227676 
L 434.422593 143.290303 
L 433.541852 143.349147 
L 432.661111 143.404421 
L 431.780371 143.456361 
L 430.89963 143.505218 
L 430.018889 143.551264 
L 429.138149 143.594788 
L 428.257408 143.636099 
L 427.376668 143.675522 
L 426.495927 143.713398 
L 425.615186 143.750087 
L 424.734446 143.785964 
L 423.853705 143.821418 
L 422.972964 143.856855 
L 422.092224 143.892693 
L 421.211483 143.929364 
L 420.330742 143.967315 
L 419.450002 144.007002 
L 418.569261 144.048893 
L 417.688521 144.093468 
L 416.80778 144.141216 
L 415.927039 144.192634 
L 415.046299 144.248227 
L 414.165558 144.308509 
L 413.284817 144.373999 
L 412.404077 144.445222 
L 411.523336 144.522706 
L 410.642596 144.606984 
L 409.761855 144.698592 
L 408.881114 144.798067 
L 408.000374 144.905946 
L 407.119633 145.022768 
L 406.238892 145.149069 
L 405.358152 145.285383 
L 404.477411 145.432241 
L 403.596671 145.590172 
L 402.71593 145.759697 
L 401.835189 145.941333 
L 400.954449 146.135588 
L 400.073708 146.342964 
L 399.192967 146.563955 
L 398.312227 146.799041 
L 397.431486 147.048697 
L 396.550746 147.313381 
L 395.670005 147.593542 
L 394.789264 147.889615 
L 393.908524 148.202019 
L 393.027783 148.531159 
L 392.147042 148.877425 
L 391.266302 149.241189 
L 390.385561 149.622806 
L 389.50482 150.022612 
L 388.62408 150.440924 
L 387.743339 150.87804 
L 386.862599 151.334238 
L 385.981858 151.809773 
L 385.101117 152.30488 
L 384.220377 152.81977 
L 383.339636 153.354634 
L 382.458895 153.909637 
L 381.578155 154.484921 
L 380.697414 155.080604 
L 379.816674 155.696778 
L 378.935933 156.333512 
L 378.055192 156.990848 
L 377.174452 157.668802 
L 376.293711 158.367366 
L 375.41297 159.086504 
L 374.53223 159.826153 
L 373.651489 160.586226 
L 372.770749 161.366606 
L 371.890008 162.167153 
L 371.009267 162.987697 
L 370.128527 163.828043 
L 369.247786 164.68797 
L 368.367045 165.567227 
L 367.486305 166.465541 
L 366.605564 167.38261 
L 365.724824 168.318107 
L 364.844083 169.271679 
L 363.963342 170.242947 
L 363.082602 171.231509 
L 362.201861 172.236935 
L 361.32112 173.258775 
L 360.44038 174.29655 
L 359.559639 175.349763 
L 358.678898 176.417891 
L 357.798158 177.50039 
L 356.917417 178.596694 
L 356.036677 179.706215 
L 355.155936 180.828348 
L 354.275195 181.962466 
L 353.394455 183.107924 
L 352.513714 184.264058 
L 351.632973 185.430188 
L 350.752233 186.605618 
L 349.871492 187.789636 
L 348.990752 188.981514 
L 348.110011 190.180513 
L 347.22927 191.385879 
L 346.34853 192.596847 
z
" clip-path="url(#p9181d5fa59)" style="fill: #f4a582; fill-opacity: 0.7; stroke: #f4a582; stroke-opacity: 0.7"/>
   </g>
   <g id="FillBetweenPolyCollection_2">
    <path d="M 229.850912 235.232518 
L 230.090767 235.145138 
L 230.971507 234.824284 
L 231.852248 234.503429 
L 232.732989 234.182574 
L 233.613729 233.861719 
L 234.49447 233.540865 
L 235.375211 233.22001 
L 236.255951 232.899155 
L 237.136692 232.5783 
L 238.017432 232.257446 
L 238.898173 231.936591 
L 239.778914 231.615736 
L 240.659654 231.294881 
L 241.540395 230.974027 
L 242.421136 230.653172 
L 243.301876 230.332317 
L 244.182617 230.011462 
L 245.063357 229.690608 
L 245.944098 229.369753 
L 246.824839 229.048898 
L 247.705579 228.728043 
L 248.58632 228.407189 
L 249.467061 228.086334 
L 250.347801 227.765479 
L 251.228542 227.444624 
L 252.109282 227.12377 
L 252.990023 226.802915 
L 253.870764 226.48206 
L 254.751504 226.161205 
L 255.632245 225.84035 
L 256.512986 225.519496 
L 257.393726 225.198641 
L 258.274467 224.877786 
L 259.155207 224.556931 
L 260.035948 224.236077 
L 260.916689 223.915222 
L 261.797429 223.594367 
L 262.67817 223.273512 
L 263.558911 222.952658 
L 264.439651 222.631803 
L 265.320392 222.310948 
L 266.201133 221.990093 
L 267.081873 221.669239 
L 267.962614 221.348384 
L 268.843354 221.027529 
L 269.724095 220.706674 
L 270.604836 220.38582 
L 271.485576 220.064965 
L 272.366317 219.74411 
L 273.247058 219.423255 
L 274.127798 219.102401 
L 275.008539 218.781546 
L 275.889279 218.460691 
L 276.77002 218.139836 
L 277.650761 217.818982 
L 278.531501 217.498127 
L 279.412242 217.177272 
L 280.292983 216.856417 
L 281.173723 216.535563 
L 282.054464 216.214708 
L 282.935204 215.893853 
L 283.815945 215.572998 
L 284.696686 215.252143 
L 285.577426 214.931289 
L 286.458167 214.610434 
L 287.338908 214.289579 
L 288.219648 213.968724 
L 289.100389 213.64787 
L 289.981129 213.327015 
L 290.86187 213.00616 
L 291.742611 212.685305 
L 292.623351 212.364451 
L 293.504092 212.043596 
L 294.384833 211.722741 
L 295.265573 211.401886 
L 296.146314 211.081032 
L 297.027055 210.760177 
L 297.907795 210.439322 
L 298.788536 210.118467 
L 299.669276 209.797613 
L 300.550017 209.476758 
L 301.430758 209.155903 
L 302.311498 208.835048 
L 303.192239 208.514194 
L 304.07298 208.193339 
L 304.95372 207.872484 
L 305.834461 207.551629 
L 306.715201 207.230775 
L 307.595942 206.90992 
L 308.476683 206.589065 
L 309.357423 206.26821 
L 310.238164 205.947356 
L 311.118905 205.626501 
L 311.999645 205.305646 
L 312.880386 204.984791 
L 313.761126 204.663936 
L 314.641867 204.343082 
L 315.522608 204.022227 
L 316.403348 203.701372 
L 317.284089 203.380517 
L 318.16483 203.059663 
L 319.04557 202.738808 
L 319.926311 202.417953 
L 320.807051 202.097098 
L 321.687792 201.776244 
L 322.568533 201.455389 
L 323.449273 201.134534 
L 324.330014 200.813679 
L 325.210755 200.492825 
L 326.091495 200.17197 
L 326.972236 199.851115 
L 327.852977 199.53026 
L 328.733717 199.209406 
L 329.614458 198.888551 
L 330.495198 198.567696 
L 331.375939 198.246841 
L 332.25668 197.925987 
L 333.13742 197.605132 
L 334.018161 197.284277 
L 334.898902 196.963422 
L 335.779642 196.642568 
L 336.660383 196.321713 
L 337.541123 196.000858 
L 338.421864 195.680003 
L 339.302605 195.359148 
L 340.183345 195.038294 
L 341.064086 194.717439 
L 341.944827 194.396584 
L 342.825567 194.075729 
L 343.706308 193.754875 
L 344.587048 193.43402 
L 345.467789 193.113165 
L 346.156168 192.862388 
L 345.467789 193.812642 
L 344.587048 195.032479 
L 343.706308 196.255563 
L 342.825567 197.481091 
L 341.944827 198.708256 
L 341.064086 199.936242 
L 340.183345 201.164231 
L 339.302605 202.391399 
L 338.421864 203.616923 
L 337.541123 204.839974 
L 336.660383 206.059727 
L 335.779642 207.275354 
L 334.898902 208.486034 
L 334.018161 209.690942 
L 333.13742 210.889264 
L 332.25668 212.080187 
L 331.375939 213.262904 
L 330.495198 214.436619 
L 329.614458 215.600539 
L 328.733717 216.753886 
L 327.852977 217.895888 
L 326.972236 219.025787 
L 326.091495 220.142835 
L 325.210755 221.246302 
L 324.330014 222.335467 
L 323.449273 223.409628 
L 322.568533 224.468098 
L 321.687792 225.510207 
L 320.807051 226.535304 
L 319.926311 227.542756 
L 319.04557 228.53195 
L 318.16483 229.502295 
L 317.284089 230.453218 
L 316.403348 231.384171 
L 315.522608 232.294628 
L 314.641867 233.184087 
L 313.761126 234.052067 
L 312.880386 234.898116 
L 311.999645 235.721804 
L 311.118905 236.522729 
L 310.238164 237.300514 
L 309.357423 238.054808 
L 308.476683 238.785288 
L 307.595942 239.49166 
L 306.715201 240.173655 
L 305.834461 240.831033 
L 304.95372 241.463583 
L 304.07298 242.071124 
L 303.192239 242.653499 
L 302.311498 243.210585 
L 301.430758 243.742285 
L 300.550017 244.248531 
L 299.669276 244.729286 
L 298.788536 245.184539 
L 297.907795 245.614311 
L 297.027055 246.018649 
L 296.146314 246.397629 
L 295.265573 246.751357 
L 294.384833 247.079966 
L 293.504092 247.383615 
L 292.623351 247.662494 
L 291.742611 247.916816 
L 290.86187 248.146825 
L 289.981129 248.352787 
L 289.100389 248.534996 
L 288.219648 248.69377 
L 287.338908 248.829454 
L 286.458167 248.942414 
L 285.577426 249.033041 
L 284.696686 249.101748 
L 283.815945 249.148971 
L 282.935204 249.175165 
L 282.054464 249.180809 
L 281.173723 249.166398 
L 280.292983 249.13245 
L 279.412242 249.079496 
L 278.531501 249.008089 
L 277.650761 248.918796 
L 276.77002 248.8122 
L 275.889279 248.688898 
L 275.008539 248.549501 
L 274.127798 248.394633 
L 273.247058 248.224929 
L 272.366317 248.041035 
L 271.485576 247.843606 
L 270.604836 247.633308 
L 269.724095 247.41081 
L 268.843354 247.176793 
L 267.962614 246.931941 
L 267.081873 246.676941 
L 266.201133 246.412487 
L 265.320392 246.139272 
L 264.439651 245.857994 
L 263.558911 245.569348 
L 262.67817 245.274031 
L 261.797429 244.972737 
L 260.916689 244.666158 
L 260.035948 244.354982 
L 259.155207 244.039892 
L 258.274467 243.721566 
L 257.393726 243.400676 
L 256.512986 243.077885 
L 255.632245 242.753848 
L 254.751504 242.429212 
L 253.870764 242.104613 
L 252.990023 241.780674 
L 252.109282 241.458009 
L 251.228542 241.137217 
L 250.347801 240.818885 
L 249.467061 240.503584 
L 248.58632 240.191871 
L 247.705579 239.884287 
L 246.824839 239.581356 
L 245.944098 239.283586 
L 245.063357 238.991466 
L 244.182617 238.705466 
L 243.301876 238.42604 
L 242.421136 238.15362 
L 241.540395 237.888617 
L 240.659654 237.631426 
L 239.778914 237.382417 
L 238.898173 237.141941 
L 238.017432 236.910326 
L 237.136692 236.687879 
L 236.255951 236.474887 
L 235.375211 236.271611 
L 234.49447 236.078291 
L 233.613729 235.895146 
L 232.732989 235.72237 
L 231.852248 235.560136 
L 230.971507 235.408593 
L 230.090767 235.267868 
z
" clip-path="url(#p9181d5fa59)" style="fill: #92c5de; fill-opacity: 0.7; stroke: #92c5de; stroke-opacity: 0.7"/>
    <path d="M 502.425797 135.933194 
L 503.120362 135.680164 
L 504.001102 135.359309 
L 504.881843 135.038454 
L 505.762583 134.717599 
L 506.643324 134.396744 
L 507.524065 134.07589 
L 508.404805 133.755035 
L 509.285546 133.43418 
L 510.166287 133.113325 
L 511.047027 132.792471 
L 511.927768 132.471616 
L 512.808508 132.150761 
L 513.689249 131.829906 
L 514.56999 131.509052 
L 515.45073 131.188197 
L 516.331471 130.867342 
L 517.212212 130.546487 
L 518.092952 130.225633 
L 518.973693 129.904778 
L 519.854433 129.583923 
L 520.735174 129.263068 
L 521.615915 128.942214 
L 522.496655 128.621359 
L 523.377396 128.300504 
L 524.258137 127.979649 
L 525.138877 127.658795 
L 526.019618 127.33794 
L 526.900359 127.017085 
L 527.781099 126.69623 
L 528.66184 126.375376 
L 529.54258 126.054521 
L 530.423321 125.733666 
L 531.304062 125.412811 
L 532.184802 125.091957 
L 533.065543 124.771102 
L 533.946284 124.450247 
L 534.827024 124.129392 
L 535.707765 123.808537 
L 536.588505 123.487683 
L 537.469246 123.166828 
L 538.349987 122.845973 
L 539.230727 122.525118 
L 540.111468 122.204264 
L 540.992209 121.883409 
L 541.872949 121.562554 
L 542.75369 121.241699 
L 543.63443 120.920845 
L 544.515171 120.59999 
L 545.395912 120.279135 
L 546.276652 119.95828 
L 547.157393 119.637426 
L 548.038134 119.316571 
L 548.918874 118.995716 
L 549.799615 118.674861 
L 550.680355 118.354007 
L 551.561096 118.033152 
L 552.441837 117.712297 
L 553.322577 117.391442 
L 554.203318 117.070588 
L 555.084059 116.749733 
L 555.964799 116.428878 
L 556.84554 116.108023 
L 557.72628 115.787169 
L 558.607021 115.466314 
L 559.487762 115.145459 
L 560.368502 114.824604 
L 561.249243 114.503749 
L 562.129984 114.182895 
L 563.010724 113.86204 
L 563.891465 113.541185 
L 564.772206 113.22033 
L 565.652946 112.899476 
L 566.533687 112.578621 
L 567.414427 112.257766 
L 568.295168 111.936911 
L 569.175909 111.616057 
L 570.056649 111.295202 
L 570.93739 110.974347 
L 571.818131 110.653492 
L 572.698871 110.332638 
L 573.579612 110.011783 
L 574.460352 109.690928 
L 575.341093 109.370073 
L 576.221834 109.049219 
L 577.102574 108.728364 
L 577.983315 108.407509 
L 578.864056 108.086654 
L 579.744796 107.7658 
L 580.625537 107.444945 
L 581.506277 107.12409 
L 582.387018 106.803235 
L 583.267759 106.482381 
L 584.148499 106.161526 
L 585.02924 105.840671 
L 585.909981 105.519816 
L 586.790721 105.198962 
L 587.671462 104.878107 
L 588.552202 104.557252 
L 589.432943 104.236397 
L 590.313684 103.915542 
L 591.194424 103.594688 
L 592.075165 103.273833 
L 592.955906 102.952978 
L 593.836646 102.632123 
L 594.717387 102.311269 
L 595.598128 101.990414 
L 596.478868 101.669559 
L 597.359609 101.348704 
L 598.240349 101.02785 
L 599.12109 100.706995 
L 600.001831 100.38614 
L 600.882571 100.065285 
L 601.763312 99.744431 
L 602.644053 99.423576 
L 603.524793 99.102721 
L 604.405534 98.781866 
L 605.286274 98.461012 
L 606.167015 98.140157 
L 607.047756 97.819302 
L 607.047756 97.819302 
L 607.047756 109.769977 
L 606.167015 110.971804 
L 605.286274 112.166651 
L 604.405534 113.353708 
L 603.524793 114.532173 
L 602.644053 115.701252 
L 601.763312 116.860158 
L 600.882571 118.008117 
L 600.001831 119.144363 
L 599.12109 120.268144 
L 598.240349 121.378718 
L 597.359609 122.475361 
L 596.478868 123.557361 
L 595.598128 124.624023 
L 594.717387 125.674667 
L 593.836646 126.708634 
L 592.955906 127.725281 
L 592.075165 128.723983 
L 591.194424 129.70414 
L 590.313684 130.665167 
L 589.432943 131.606505 
L 588.552202 132.527616 
L 587.671462 133.427985 
L 586.790721 134.307121 
L 585.909981 135.164556 
L 585.02924 135.999849 
L 584.148499 136.812584 
L 583.267759 137.60237 
L 582.387018 138.368843 
L 581.506277 139.111666 
L 580.625537 139.830529 
L 579.744796 140.52515 
L 578.864056 141.195275 
L 577.983315 141.840678 
L 577.102574 142.461161 
L 576.221834 143.056556 
L 575.341093 143.626722 
L 574.460352 144.171548 
L 573.579612 144.690952 
L 572.698871 145.18488 
L 571.818131 145.653309 
L 570.93739 146.096242 
L 570.056649 146.513713 
L 569.175909 146.905783 
L 568.295168 147.272543 
L 567.414427 147.614112 
L 566.533687 147.930635 
L 565.652946 148.222287 
L 564.772206 148.489268 
L 563.891465 148.731807 
L 563.010724 148.950158 
L 562.129984 149.144601 
L 561.249243 149.315442 
L 560.368502 149.463012 
L 559.487762 149.587665 
L 558.607021 149.689781 
L 557.72628 149.76976 
L 556.84554 149.828027 
L 555.964799 149.865028 
L 555.084059 149.881229 
L 554.203318 149.877116 
L 553.322577 149.853197 
L 552.441837 149.809995 
L 551.561096 149.748052 
L 550.680355 149.667929 
L 549.799615 149.570199 
L 548.918874 149.455453 
L 548.038134 149.324294 
L 547.157393 149.177341 
L 546.276652 149.015222 
L 545.395912 148.838578 
L 544.515171 148.64806 
L 543.63443 148.444328 
L 542.75369 148.228049 
L 541.872949 147.999898 
L 540.992209 147.760558 
L 540.111468 147.510715 
L 539.230727 147.251059 
L 538.349987 146.982284 
L 537.469246 146.705085 
L 536.588505 146.420159 
L 535.707765 146.128202 
L 534.827024 145.829909 
L 533.946284 145.525975 
L 533.065543 145.217088 
L 532.184802 144.903935 
L 531.304062 144.587197 
L 530.423321 144.267548 
L 529.54258 143.945657 
L 528.66184 143.622182 
L 527.781099 143.297776 
L 526.900359 142.973079 
L 526.019618 142.648722 
L 525.138877 142.325323 
L 524.258137 142.003489 
L 523.377396 141.683814 
L 522.496655 141.366876 
L 521.615915 141.053241 
L 520.735174 140.743457 
L 519.854433 140.438058 
L 518.973693 140.137559 
L 518.092952 139.84246 
L 517.212212 139.55324 
L 516.331471 139.270362 
L 515.45073 138.99427 
L 514.56999 138.725384 
L 513.689249 138.46411 
L 512.808508 138.210828 
L 511.927768 137.965901 
L 511.047027 137.729667 
L 510.166287 137.502447 
L 509.285546 137.284536 
L 508.404805 137.076208 
L 507.524065 136.877716 
L 506.643324 136.689288 
L 505.762583 136.511131 
L 504.881843 136.343431 
L 504.001102 136.186347 
L 503.120362 136.040018 
z
" clip-path="url(#p9181d5fa59)" style="fill: #92c5de; fill-opacity: 0.7; stroke: #92c5de; stroke-opacity: 0.7"/>
   </g>
   <g id="patch_3">
    <path d="M 219.521879 311.365969 
L 282.054464 311.365969 
L 282.054464 23.077969 
L 219.521879 23.077969 
z
" clip-path="url(#p9181d5fa59)" style="fill: #d62728; opacity: 0.08; stroke: #d62728; stroke-linejoin: miter"/>
   </g>
   <g id="matplotlib.axis_1">
    <g id="text_1">
     <text style="font-size: 12px; font-family: 'DejaVu Sans', 'Bitstream Vera Sans', 'Computer Modern Sans Serif', 'Lucida Grande', 'Verdana', 'Geneva', 'Lucid', 'Arial', 'Helvetica', 'Avant Garde', sans-serif; text-anchor: middle" x="343.265938" y="324.484094" transform="rotate(-0 343.265938 324.484094)">Time  →</text>
    </g>
   </g>
   <g id="matplotlib.axis_2">
    <g id="ytick_1">
     <g id="line2d_1">
      <defs>
       <path id="m909572e6dd" d="M 0 0 
L -3.5 0 
" style="stroke: #000000; stroke-width: 0.8"/>
      </defs>
      <g>
       <use xlink:href="#m909572e6dd" x="53.105938" y="290.011302" style="stroke: #000000; stroke-width: 0.8"/>
      </g>
     </g>
     <g id="text_2">
      <text style="font-size: 12px; font-family: 'DejaVu Sans', 'Bitstream Vera Sans', 'Computer Modern Sans Serif', 'Lucida Grande', 'Verdana', 'Geneva', 'Lucid', 'Arial', 'Helvetica', 'Avant Garde', sans-serif; text-anchor: end" x="46.105938" y="294.569896" transform="rotate(-0 46.105938 294.569896)">100</text>
     </g>
    </g>
    <g id="ytick_2">
     <g id="line2d_2">
      <g>
       <use xlink:href="#m909572e6dd" x="53.105938" y="236.624635" style="stroke: #000000; stroke-width: 0.8"/>
      </g>
     </g>
     <g id="text_3">
      <text style="font-size: 12px; font-family: 'DejaVu Sans', 'Bitstream Vera Sans', 'Computer Modern Sans Serif', 'Lucida Grande', 'Verdana', 'Geneva', 'Lucid', 'Arial', 'Helvetica', 'Avant Garde', sans-serif; text-anchor: end" x="46.105938" y="241.183229" transform="rotate(-0 46.105938 241.183229)">110</text>
     </g>
    </g>
    <g id="ytick_3">
     <g id="line2d_3">
      <g>
       <use xlink:href="#m909572e6dd" x="53.105938" y="183.237969" style="stroke: #000000; stroke-width: 0.8"/>
      </g>
     </g>
     <g id="text_4">
      <text style="font-size: 12px; font-family: 'DejaVu Sans', 'Bitstream Vera Sans', 'Computer Modern Sans Serif', 'Lucida Grande', 'Verdana', 'Geneva', 'Lucid', 'Arial', 'Helvetica', 'Avant Garde', sans-serif; text-anchor: end" x="46.105938" y="187.796562" transform="rotate(-0 46.105938 187.796562)">120</text>
     </g>
    </g>
    <g id="ytick_4">
     <g id="line2d_4">
      <g>
       <use xlink:href="#m909572e6dd" x="53.105938" y="129.851302" style="stroke: #000000; stroke-width: 0.8"/>
      </g>
     </g>
     <g id="text_5">
      <text style="font-size: 12px; font-family: 'DejaVu Sans', 'Bitstream Vera Sans', 'Computer Modern Sans Serif', 'Lucida Grande', 'Verdana', 'Geneva', 'Lucid', 'Arial', 'Helvetica', 'Avant Garde', sans-serif; text-anchor: end" x="46.105938" y="134.409896" transform="rotate(-0 46.105938 134.409896)">130</text>
     </g>
    </g>
    <g id="ytick_5">
     <g id="line2d_5">
      <g>
       <use xlink:href="#m909572e6dd" x="53.105938" y="76.464635" style="stroke: #000000; stroke-width: 0.8"/>
      </g>
     </g>
     <g id="text_6">
      <text style="font-size: 12px; font-family: 'DejaVu Sans', 'Bitstream Vera Sans', 'Computer Modern Sans Serif', 'Lucida Grande', 'Verdana', 'Geneva', 'Lucid', 'Arial', 'Helvetica', 'Avant Garde', sans-serif; text-anchor: end" x="46.105938" y="81.023229" transform="rotate(-0 46.105938 81.023229)">140</text>
     </g>
    </g>
    <g id="ytick_6">
     <g id="line2d_6">
      <g>
       <use xlink:href="#m909572e6dd" x="53.105938" y="23.077969" style="stroke: #000000; stroke-width: 0.8"/>
      </g>
     </g>
     <g id="text_7">
      <text style="font-size: 12px; font-family: 'DejaVu Sans', 'Bitstream Vera Sans', 'Computer Modern Sans Serif', 'Lucida Grande', 'Verdana', 'Geneva', 'Lucid', 'Arial', 'Helvetica', 'Avant Garde', sans-serif; text-anchor: end" x="46.105938" y="27.636562" transform="rotate(-0 46.105938 27.636562)">150</text>
     </g>
    </g>
    <g id="text_8">
     <text style="font-size: 12px; font-family: 'DejaVu Sans', 'Bitstream Vera Sans', 'Computer Modern Sans Serif', 'Lucida Grande', 'Verdana', 'Geneva', 'Lucid', 'Arial', 'Helvetica', 'Avant Garde', sans-serif; text-anchor: middle" x="16.318125" y="167.221969" transform="rotate(-90 16.318125 167.221969)">Real output (index)</text>
    </g>
   </g>
   <g id="line2d_7">
    <path d="M 79.484119 290.011302 
L 607.047756 97.819302 
L 607.047756 97.819302 
" clip-path="url(#p9181d5fa59)" style="fill: none; stroke-dasharray: 7.4,3.2; stroke-dashoffset: 0; stroke: #555555; stroke-width: 2"/>
   </g>
   <g id="line2d_8">
    <path d="M 79.484119 284.164554 
L 84.768563 277.364326 
L 89.172266 272.062066 
L 92.695229 268.107752 
L 96.218191 264.439056 
L 99.741154 261.076914 
L 103.264116 258.035555 
L 106.787079 255.322387 
L 110.310041 252.938062 
L 113.833004 250.876701 
L 117.355966 249.126281 
L 120.878929 247.66916 
L 124.401891 246.482745 
L 127.924854 245.540263 
L 131.447816 244.811623 
L 135.85152 244.151921 
L 141.135963 243.640863 
L 148.181888 243.247984 
L 162.273738 242.559718 
L 168.438923 242.017597 
L 174.604107 241.246615 
L 180.769292 240.252363 
L 188.695957 238.732331 
L 202.787807 235.987646 
L 208.072251 235.195627 
L 212.475954 234.726576 
L 216.879657 234.473461 
L 221.28336 234.467456 
L 225.687064 234.729365 
L 230.090767 235.267868 
L 234.49447 236.078291 
L 238.898173 237.141941 
L 243.301876 238.42604 
L 248.58632 240.191871 
L 267.962614 246.931941 
L 272.366317 248.041035 
L 275.889279 248.688898 
L 279.412242 249.079496 
L 282.054464 249.180809 
L 284.696686 249.101748 
L 287.338908 248.829454 
L 289.981129 248.352787 
L 292.623351 247.662494 
L 295.265573 246.751357 
L 297.907795 245.614311 
L 300.550017 244.248531 
L 303.192239 242.653499 
L 305.834461 240.831033 
L 308.476683 238.785288 
L 311.999645 235.721804 
L 315.522608 232.294628 
L 319.04557 228.53195 
L 322.568533 224.468098 
L 326.972236 219.025787 
L 332.25668 212.080187 
L 339.302605 202.391399 
L 350.752233 186.605618 
L 356.036677 179.706215 
L 360.44038 174.29655 
L 364.844083 169.271679 
L 368.367045 165.567227 
L 371.890008 162.167153 
L 375.41297 159.086504 
L 378.935933 156.333512 
L 382.458895 153.909637 
L 385.981858 151.809773 
L 389.50482 150.022612 
L 393.027783 148.531159 
L 396.550746 147.313381 
L 400.073708 146.342964 
L 403.596671 145.590172 
L 408.000374 144.905946 
L 412.404077 144.445222 
L 418.569261 144.048893 
L 437.064814 143.090314 
L 443.229999 142.468289 
L 449.395183 141.613925 
L 456.441108 140.383812 
L 468.771477 137.912702 
L 475.817402 136.612165 
L 481.101846 135.839053 
L 485.505549 135.390612 
L 489.909252 135.161747 
L 494.312955 135.182658 
L 498.716658 135.472965 
L 503.120362 136.040018 
L 507.524065 136.877716 
L 511.927768 137.965901 
L 516.331471 139.270362 
L 522.496655 141.366876 
L 538.349987 146.982284 
L 542.75369 148.228049 
L 546.276652 149.015222 
L 549.799615 149.570199 
L 553.322577 149.853197 
L 555.964799 149.865028 
L 558.607021 149.689781 
L 561.249243 149.315442 
L 563.891465 148.731807 
L 566.533687 147.930635 
L 569.175909 146.905783 
L 571.818131 145.653309 
L 574.460352 144.171548 
L 577.102574 142.461161 
L 579.744796 140.52515 
L 582.387018 138.368843 
L 585.909981 135.164556 
L 589.432943 131.606505 
L 592.955906 127.725281 
L 597.359609 122.475361 
L 601.763312 116.860158 
L 607.047756 109.769977 
L 607.047756 109.769977 
" clip-path="url(#p9181d5fa59)" style="fill: none; stroke: #1f77b4; stroke-width: 2.6; stroke-linecap: square"/>
   </g>
   <g id="patch_4">
    <path d="M 53.105938 311.365969 
L 53.105938 23.077969 
" style="fill: none; stroke: #000000; stroke-width: 0.8; stroke-linejoin: miter; stroke-linecap: square"/>
   </g>
   <g id="patch_5">
    <path d="M 53.105938 311.365969 
L 633.425938 311.365969 
" style="fill: none; stroke: #000000; stroke-width: 0.8; stroke-linejoin: miter; stroke-linecap: square"/>
   </g>
   <g id="text_9">
    <text style="font-weight: 700; font-size: 9.5px; font-family: 'DejaVu Sans', 'Bitstream Vera Sans', 'Computer Modern Sans Serif', 'Lucida Grande', 'Verdana', 'Geneva', 'Lucid', 'Arial', 'Helvetica', 'Avant Garde', sans-serif; text-anchor: middle" x="210.729152" y="217.354885" transform="rotate(-0 210.729152 217.354885)">PEAK</text>
   </g>
   <g id="text_10">
    <text style="font-weight: 700; font-size: 9.5px; font-family: 'DejaVu Sans', 'Bitstream Vera Sans', 'Computer Modern Sans Serif', 'Lucida Grande', 'Verdana', 'Geneva', 'Lucid', 'Arial', 'Helvetica', 'Avant Garde', sans-serif; text-anchor: middle" x="282.054464" y="272.670942" transform="rotate(-0 282.054464 272.670942)">TROUGH</text>
   </g>
   <g id="text_11">
    <text style="font-size: 8.8px; font-family: 'DejaVu Sans', 'Bitstream Vera Sans', 'Computer Modern Sans Serif', 'Lucida Grande', 'Verdana', 'Geneva', 'Lucid', 'Arial', 'Helvetica', 'Avant Garde', sans-serif; fill: #d62728" transform="translate(225.457922 233.744641)">RECESSION</text>
    <text style="font-size: 8.8px; font-family: 'DejaVu Sans', 'Bitstream Vera Sans', 'Computer Modern Sans Serif', 'Lucida Grande', 'Verdana', 'Geneva', 'Lucid', 'Arial', 'Helvetica', 'Avant Garde', sans-serif; fill: #d62728" transform="translate(218.423422 244.307047)">(peak→trough)</text>
   </g>
   <g id="text_12">
    <text style="font-size: 9px; font-family: 'DejaVu Sans', 'Bitstream Vera Sans', 'Computer Modern Sans Serif', 'Lucida Grande', 'Verdana', 'Geneva', 'Lucid', 'Arial', 'Helvetica', 'Avant Garde', sans-serif; text-anchor: middle; fill: #2ca02c" x="141.03321" y="284.672635" transform="rotate(-0 141.03321 284.672635)">expansion</text>
   </g>
   <g id="text_13">
    <text style="font-size: 9px; font-family: 'DejaVu Sans', 'Bitstream Vera Sans', 'Computer Modern Sans Serif', 'Lucida Grande', 'Verdana', 'Geneva', 'Lucid', 'Arial', 'Helvetica', 'Avant Garde', sans-serif; text-anchor: middle; fill: #d62728" x="286.11321" y="284.672635" transform="rotate(-0 286.11321 284.672635)">contraction</text>
   </g>
   <g id="text_14">
    <text style="font-size: 9px; font-family: 'DejaVu Sans', 'Bitstream Vera Sans', 'Computer Modern Sans Serif', 'Lucida Grande', 'Verdana', 'Geneva', 'Lucid', 'Arial', 'Helvetica', 'Avant Garde', sans-serif; fill: #2ca02c" transform="translate(467.848161 273.870174)">recovery →</text>
    <text style="font-size: 9px; font-family: 'DejaVu Sans', 'Bitstream Vera Sans', 'Computer Modern Sans Serif', 'Lucida Grande', 'Verdana', 'Geneva', 'Lucid', 'Arial', 'Helvetica', 'Avant Garde', sans-serif; fill: #2ca02c" transform="translate(469.722692 284.672635)">expansion</text>
   </g>
   <g id="text_15">
    <text style="font-size: 13px; font-family: 'DejaVu Sans', 'Bitstream Vera Sans', 'Computer Modern Sans Serif', 'Lucida Grande', 'Verdana', 'Geneva', 'Lucid', 'Arial', 'Helvetica', 'Avant Garde', sans-serif; text-anchor: middle" x="343.265938" y="17.077969" transform="rotate(-0 343.265938 17.077969)">The anatomy of a business cycle — actual GDP around potential</text>
   </g>
   <g id="line2d_9">
    <defs>
     <path id="m6cc4f926e5" d="M 0 3 
C 0.795609 3 1.55874 2.683901 2.12132 2.12132 
C 2.683901 1.55874 3 0.795609 3 0 
C 3 -0.795609 2.683901 -1.55874 2.12132 -2.12132 
C 1.55874 -2.683901 0.795609 -3 0 -3 
C -0.795609 -3 -1.55874 -2.683901 -2.12132 -2.12132 
C -2.683901 -1.55874 -3 -0.795609 -3 0 
C -3 0.795609 -2.683901 1.55874 -2.12132 2.12132 
C -1.55874 2.683901 -0.795609 3 0 3 
z
" style="stroke: #000000"/>
    </defs>
    <g clip-path="url(#p9181d5fa59)">
     <use xlink:href="#m6cc4f926e5" x="219.521879" y="234.438618" style="stroke: #000000"/>
    </g>
   </g>
   <g id="line2d_10">
    <g clip-path="url(#p9181d5fa59)">
     <use xlink:href="#m6cc4f926e5" x="282.054464" y="249.180809" style="stroke: #000000"/>
    </g>
   </g>
   <g id="legend_1">
    <g id="patch_6">
     <path d="M 59.125938 55.759312 
L 342.293031 55.759312 
Q 344.013031 55.759312 344.013031 54.039312 
L 344.013031 29.097969 
Q 344.013031 27.377969 342.293031 27.377969 
L 59.125938 27.377969 
Q 57.405938 27.377969 57.405938 29.097969 
L 57.405938 54.039312 
Q 57.405938 55.759312 59.125938 55.759312 
z
" style="fill: #ffffff; opacity: 0.95; stroke: #cccccc; stroke-linejoin: miter"/>
    </g>
    <g id="line2d_11">
     <path d="M 60.845938 34.342625 
L 69.445937 34.342625 
L 78.045938 34.342625 
" style="fill: none; stroke-dasharray: 7.4,3.2; stroke-dashoffset: 0; stroke: #555555; stroke-width: 2"/>
    </g>
    <g id="text_16">
     <text style="font-size: 8.6px; font-family: 'DejaVu Sans', 'Bitstream Vera Sans', 'Computer Modern Sans Serif', 'Lucida Grande', 'Verdana', 'Geneva', 'Lucid', 'Arial', 'Helvetica', 'Avant Garde', sans-serif; text-anchor: start" x="84.925938" y="37.352625" transform="rotate(-0 84.925938 37.352625)">Potential output (trend)</text>
    </g>
    <g id="line2d_12">
     <path d="M 60.845938 47.243297 
L 69.445937 47.243297 
L 78.045938 47.243297 
" style="fill: none; stroke: #1f77b4; stroke-width: 2.6; stroke-linecap: square"/>
    </g>
    <g id="text_17">
     <text style="font-size: 8.6px; font-family: 'DejaVu Sans', 'Bitstream Vera Sans', 'Computer Modern Sans Serif', 'Lucida Grande', 'Verdana', 'Geneva', 'Lucid', 'Arial', 'Helvetica', 'Avant Garde', sans-serif; text-anchor: start" x="84.925938" y="50.253297" transform="rotate(-0 84.925938 50.253297)">Actual real GDP</text>
    </g>
    <g id="patch_7">
     <path d="M 203.261937 37.352625 
L 220.461937 37.352625 
L 220.461937 31.332625 
L 203.261937 31.332625 
z
" style="fill: #f4a582; fill-opacity: 0.7; stroke: #f4a582; stroke-opacity: 0.7; stroke-linejoin: miter"/>
    </g>
    <g id="text_18">
     <text style="font-size: 8.6px; font-family: 'DejaVu Sans', 'Bitstream Vera Sans', 'Computer Modern Sans Serif', 'Lucida Grande', 'Verdana', 'Geneva', 'Lucid', 'Arial', 'Helvetica', 'Avant Garde', sans-serif; text-anchor: start" x="227.341937" y="37.352625" transform="rotate(-0 227.341937 37.352625)">Positive gap (overheating)</text>
    </g>
    <g id="patch_8">
     <path d="M 203.261937 50.253297 
L 220.461937 50.253297 
L 220.461937 44.233297 
L 203.261937 44.233297 
z
" style="fill: #92c5de; fill-opacity: 0.7; stroke: #92c5de; stroke-opacity: 0.7; stroke-linejoin: miter"/>
    </g>
    <g id="text_19">
     <text style="font-size: 8.6px; font-family: 'DejaVu Sans', 'Bitstream Vera Sans', 'Computer Modern Sans Serif', 'Lucida Grande', 'Verdana', 'Geneva', 'Lucid', 'Arial', 'Helvetica', 'Avant Garde', sans-serif; text-anchor: start" x="227.341937" y="50.253297" transform="rotate(-0 227.341937 50.253297)">Negative gap (slack)</text>
    </g>
   </g>
  </g>
 </g>
 <defs>
  <clipPath id="p9181d5fa59">
   <rect x="53.105938" y="23.077969" width="580.32" height="288.288"/>
  </clipPath>
 </defs>
</svg>
